<svg id="Layer_1" data-name="Layer 1" xmlns="http://www.w3.org/2000/svg" width="1920" height="1102" viewBox="0 0 1920 1102">
  <defs>
    <style>
      .cls-1 {
        fill: aqua;
      }

      .cls-2 {
        fill: #fff;
      }
    </style>
  </defs>
  <g>
    <rect class="cls-1" x="0.5" y="0.5" width="1919" height="1101"/>
    <path d="M1919,1V1101H1V1H1919m1-1H0V1102H1920V0Z"/>
  </g>
  <path class="cls-2" d="M1557.94,268c5.07,0,32-5.46,34.87,5.06s18.66,22.7,30.49,10.51-5.07-23-5.07-23,2.25-13.55,15.21-10.84,41.7,13.55,34.37,1.36-30.48-10.84-35-10.84-15.75-5.42-14.62-8.12-12.4-8.81-20.85-4.74-16.34,10.83-28.17,5.41-48.78-8.13-46.08-6.77,3.31,6.19,3.82,18.28S1552.87,268,1557.94,268Z"/>
  <path class="cls-2" d="M90.36,219.09c8.87,0,55.94-7.81,61,7.25s32.63,32.54,53.32,15.07-8.87-33-8.87-33,3.94-19.42,26.61-15.53,72.91,19.41,60.1,1.94-53.31-15.53-61.14-15.53-27.54-7.77-25.57-11.65-21.67-12.61-36.45-6.79-28.58,15.53-49.27,7.76S24.76,157,29.48,158.91s5.8,8.88,6.69,26.21S81.5,219.09,90.36,219.09Z"/>
  <path class="cls-2" d="M1008.44,120.11c5,.88,32.78-1.31,33.29,12.45s13.36,31.89,27.75,18.57.12-29.93.12-29.93,5.23-16.69,17.42-11,38.14,24.35,33.62,7.69-27.67-19-32.09-19.75-14.34-9.57-12.63-12.8-10.27-13.26-19.52-9.6-18.53,10.82-29,1.93-46.33-18.75-44-16.57,1.89,8.39-.29,23.74S1003.43,119.23,1008.44,120.11Z"/>
  <path class="cls-2" d="M1011.73,121.68c-7.91,0-49.88-9.7-54.38,9S928.26,171,909.81,149.36s7.9-40.93,7.9-40.93S914.2,84.36,894,89.17s-65,24.08-53.59,2.41,47.53-19.26,54.52-19.26,24.55-9.63,22.79-14.45S937,42.22,950.22,49.45s25.48,19.26,43.94,9.63,76.07-14.46,71.86-12-5.17,11-6,32.51S1019.64,121.68,1011.73,121.68Z"/>
  <g>
    <rect class="cls-1" x="0.5" y="0.5" width="1919" height="1101"/>
    <path d="M1919,1V1101H1V1H1919m1-1H0V1102H1920V0Z"/>
  </g>
  <path class="cls-2" d="M1557.94,268c5.07,0,32-5.46,34.87,5.06s18.66,22.7,30.49,10.51-5.07-23-5.07-23,2.25-13.55,15.21-10.84,41.7,13.55,34.37,1.36-30.48-10.84-35-10.84-15.75-5.42-14.62-8.12-12.4-8.81-20.85-4.74-16.34,10.83-28.17,5.41-48.78-8.13-46.08-6.77,3.31,6.19,3.82,18.28S1552.87,268,1557.94,268Z"/>
  <path class="cls-2" d="M90.36,219.09c8.87,0,55.94-7.81,61,7.25s32.63,32.54,53.32,15.07-8.87-33-8.87-33,3.94-19.42,26.61-15.53,72.91,19.41,60.1,1.94-53.31-15.53-61.14-15.53-27.54-7.77-25.57-11.65-21.67-12.61-36.45-6.79-28.58,15.53-49.27,7.76S24.76,157,29.48,158.91s5.8,8.88,6.69,26.21S81.5,219.09,90.36,219.09Z"/>
  <path class="cls-2" d="M1008.44,120.11c5,.88,32.78-1.31,33.29,12.45s13.36,31.89,27.75,18.57.12-29.93.12-29.93,5.23-16.69,17.42-11,38.14,24.35,33.62,7.69-27.67-19-32.09-19.75-14.34-9.57-12.63-12.8-10.27-13.26-19.52-9.6-18.53,10.82-29,1.93-46.33-18.75-44-16.57,1.89,8.39-.29,23.74S1003.43,119.23,1008.44,120.11Z"/>
  <path class="cls-2" d="M1011.73,121.68c-7.91,0-49.88-9.7-54.38,9S928.26,171,909.81,149.36s7.9-40.93,7.9-40.93S914.2,84.36,894,89.17s-65,24.08-53.59,2.41,47.53-19.26,54.52-19.26,24.55-9.63,22.79-14.45S937,42.22,950.22,49.45s25.48,19.26,43.94,9.63,76.07-14.46,71.86-12-5.17,11-6,32.51S1019.64,121.68,1011.73,121.68Z"/>
</svg>
