<svg id="Layer_1" data-name="Layer 1" xmlns="http://www.w3.org/2000/svg" width="316.09" height="337.39" viewBox="0 0 316.09 337.39">
  <defs>
    <style>
      .cls-1 {
        fill: #999;
      }

      .cls-2 {
        fill: #bfbfbf;
      }

      .cls-3 {
        fill: #4d4d4d;
      }

      .cls-4 {
        fill: #fff;
      }
    </style>
  </defs>
  <g>
    <ellipse class="cls-1" cx="150.5" cy="101.5" rx="148.47" ry="35.04"/>
    <path class="cls-2" d="M2,101.36,35.3,322.62A703.72,703.72,0,0,0,138,336.21,707.15,707.15,0,0,0,257.13,333L302.29,96.35a463.09,463.09,0,0,1-148.84,27.44A464.06,464.06,0,0,1,2,101.36Z"/>
    <path class="cls-3" d="M.14,95.91c-2.38-1.84,25.54-57.46,80.37-79.32,17.46-7,37.15-10.3,47.49-12,24-4.07,37.78-6.4,55.36-2.66,18.29,3.9,40.23,14.28,40.23,14.28h0c-15.44-8.39,32.76,14.67,45.56,26.34,13.33,12.15,19.13,26.23,30.73,54.4.33.81,1.11,2.74.64,3C298.7,101,283.39,74.55,262.9,55.05,255.46,48,226,20.67,181.47,14.71c-18.78-2.52-35.47.48-68.87,6.47C89.13,25.4,77.91,29.56,67.76,35.77c-8.22,5-11.17,8.63-25.66,22.45C16.05,83.08,1.5,97,.14,95.91Z"/>
    <polygon class="cls-3" points="36.9 199.99 46.89 288.67 243.35 299.46 265.28 181.72 32.25 162.45 36.9 199.99"/>
    <g>
      <path class="cls-4" d="M66.69,177.48l-.16,3.79-11.89-.16-.17,5.2,9.52.22-.06,4.72-9.66-.1L53.81,203l-4.08,0,1-25.87Z"/>
      <path class="cls-4" d="M77.85,178.35l-2,27-5.83-.51,2.36-27Z"/>
      <path class="cls-4" d="M86.29,199.67a4.85,4.85,0,0,0,.09.7,4.41,4.41,0,0,0,.14.47,1.71,1.71,0,0,0,.21.38,4.53,4.53,0,0,1,.27.4,1.74,1.74,0,0,0,.59.59,2.13,2.13,0,0,0,.71.24,5.47,5.47,0,0,0,.86.08c.32,0,.66,0,1,.05a3.31,3.31,0,0,0,1.52-.19,4.46,4.46,0,0,0,1.25-.69,3.67,3.67,0,0,0,.89-1,2.37,2.37,0,0,0,.38-1c0-.16,0-.37.07-.61s0-.5.07-.75a3.35,3.35,0,0,0,0-.71,1.15,1.15,0,0,0-.24-.56l-.43-.53a3.45,3.45,0,0,0-.64-.62,5.63,5.63,0,0,0-1-.6,5.86,5.86,0,0,0-1.48-.47c-.88-.17-1.59-.33-2.14-.49a7.09,7.09,0,0,1-1.38-.54,4.72,4.72,0,0,1-1-.69c-.27-.25-.56-.55-.88-.89a5.3,5.3,0,0,1-1.27-2.52,9.63,9.63,0,0,1-.19-2.91c.12-.92.27-1.82.46-2.7a5.21,5.21,0,0,1,1.07-2.29,4.76,4.76,0,0,1,2.38-1.44,11.68,11.68,0,0,1,4.39-.2,28,28,0,0,1,3.47.79,5.54,5.54,0,0,1,2.09,1.15,4.29,4.29,0,0,1,1.13,1.9,15.16,15.16,0,0,1,.53,3l-4.15-.37a3.68,3.68,0,0,0-.57-1.56,3.51,3.51,0,0,0-.89-.91,3.67,3.67,0,0,0-.87-.43c-.26-.08-.41-.14-.46-.16a3.67,3.67,0,0,0-1.24-.23,4.71,4.71,0,0,0-1.15.14,3.43,3.43,0,0,0-1,.42,2.92,2.92,0,0,0-.66.58,2.84,2.84,0,0,0-.44.91,7.22,7.22,0,0,0-.22,1,5.86,5.86,0,0,0-.08.88,2.39,2.39,0,0,0,0,.57,2.64,2.64,0,0,0,.41,1.08,5.85,5.85,0,0,0,.77.88,5.69,5.69,0,0,0,1,.68,4.86,4.86,0,0,0,1,.43c.79.24,1.41.43,1.88.56a10.56,10.56,0,0,1,1.16.38c.31.12.58.23.81.34a8.91,8.91,0,0,1,.86.49,7.57,7.57,0,0,1,2.83,2.92,6.73,6.73,0,0,1,.66,3.68,7.64,7.64,0,0,1-1.65,4.16,8,8,0,0,1-3.88,2.66c-.38.12-.67.22-.84.29a2,2,0,0,1-.51.11,5,5,0,0,1-.64,0l-1.29-.12c-1-.08-1.85-.18-2.52-.29a11.2,11.2,0,0,1-1.72-.41,4.17,4.17,0,0,1-1.22-.65,7.77,7.77,0,0,1-1.07-1,12.19,12.19,0,0,1-.84-1.09,3,3,0,0,1-.41-.89,4,4,0,0,1-.15-1.05v-1.51Z"/>
      <path class="cls-4" d="M110.08,181.92l0,10.68h7.19l.62-10.36,5.3.2-.91,26-5.3-.19.33-10.85-7.39-.15-.7,10.68-4.74-.36.93-26Z"/>
      <path class="cls-4" d="M156.08,204.65a11.23,11.23,0,0,1-.74,3.57,4.67,4.67,0,0,1-1.69,2.12,6.35,6.35,0,0,1-2.78.95,21.32,21.32,0,0,1-4.12,0,16.87,16.87,0,0,1-1.94-.31,12.7,12.7,0,0,1-2-.64,8.23,8.23,0,0,1-1.77-1,4.63,4.63,0,0,1-1.28-1.51,5.55,5.55,0,0,1-.55-2.13c-.08-.91-.12-1.89-.11-2.94s0-2.08.15-3.12.16-1.92.23-2.67c.18-1.86.38-3.54.58-5a10.81,10.81,0,0,1,1.15-3.76,5.26,5.26,0,0,1,2.51-2.28,9.93,9.93,0,0,1,4.63-.55,40.16,40.16,0,0,1,4.16.43,5.86,5.86,0,0,1,2.64,1,3.89,3.89,0,0,1,1.36,2.08,12.4,12.4,0,0,1,.37,3.62l-4.26-.28a1.78,1.78,0,0,1-.08-.46,2,2,0,0,0,0-.36c0-.11-.06-.24-.1-.38a2.25,2.25,0,0,0-.29-.54,1.76,1.76,0,0,0-.63-.64,3.91,3.91,0,0,0-1.53-.34c-.53,0-1-.07-1.42-.07a6.87,6.87,0,0,0-1.09.1,3.56,3.56,0,0,0-.89.28,3.17,3.17,0,0,0-1.86,2.32,17.75,17.75,0,0,0-.57,2.62c-.13.94-.22,1.87-.26,2.78s-.08,1.68-.14,2.32-.11,1.31-.14,1.94,0,1.19,0,1.71a5.9,5.9,0,0,0,.21,1.38,1.68,1.68,0,0,0,.54.9,4.31,4.31,0,0,0,.52.35,1.37,1.37,0,0,0,.49.18,2.93,2.93,0,0,0,.63.06,8.81,8.81,0,0,1,.93.05l1.8.17a3.08,3.08,0,0,0,1.28-.08,1.76,1.76,0,0,0,.91-.66,5.22,5.22,0,0,0,.72-1.61Z"/>
      <path class="cls-4" d="M163.81,190.13a5,5,0,0,1,.87-1.22,5.38,5.38,0,0,1,1.47-1.12,8.1,8.1,0,0,1,4.71-.9,18.75,18.75,0,0,1,5.16,1.05,5.59,5.59,0,0,1,2.88,2.43,9.79,9.79,0,0,1,1.1,4.48,56.62,56.62,0,0,1-.26,7.2,41.06,41.06,0,0,1-.78,5.45,8.5,8.5,0,0,1-1.68,3.67,6,6,0,0,1-3.2,1.89,15.16,15.16,0,0,1-5.32.12,5.73,5.73,0,0,1-3.25-.69,6.31,6.31,0,0,1-2.2-2.13A10.48,10.48,0,0,1,162,207.2a20.14,20.14,0,0,1-.53-3.78,31.33,31.33,0,0,1,.07-4,35.41,35.41,0,0,1,.49-3.8,25.65,25.65,0,0,1,.81-3.2,10,10,0,0,1,.94-2.17Zm2,12.92c.11.49.22,1,.33,1.67a10.24,10.24,0,0,0,.47,1.83,4.33,4.33,0,0,0,.89,1.52,2.26,2.26,0,0,0,1.55.73,9.72,9.72,0,0,0,2.35-.08,3.39,3.39,0,0,0,1.92-.91,3,3,0,0,0,.65-1,11.6,11.6,0,0,0,.5-1.45,15.36,15.36,0,0,0,.38-1.78c.1-.65.18-1.32.24-2a36.24,36.24,0,0,0,.17-5.44,6.46,6.46,0,0,0-.72-2.87,2.47,2.47,0,0,0-1.57-1.17,15.73,15.73,0,0,0-2.37-.36,3.21,3.21,0,0,0-3.28,1.47,12.93,12.93,0,0,0-1.35,5.4Z"/>
      <path class="cls-4" d="M202.83,189.42l-.28,15.79c0,.72-.06,1.46-.13,2.19a15.13,15.13,0,0,1-.33,2.14,9.84,9.84,0,0,1-.68,2,5.59,5.59,0,0,1-1.18,1.65l-.63.54a4.76,4.76,0,0,1-.47.35,2.51,2.51,0,0,1-.49.25l-.64.23c-.38.1-.65.17-.81.23l-.49.13c-.16,0-.37.07-.64.1s-.68.09-1.22.18l-.79.12a3.88,3.88,0,0,1-.67.06c-.21,0-.45,0-.71,0a8.53,8.53,0,0,1-.9-.09,14.55,14.55,0,0,1-1.67-.34,5.79,5.79,0,0,1-1.3-.57,9.75,9.75,0,0,1-1.15-.72,4.75,4.75,0,0,1-.79-.75,3.77,3.77,0,0,1-.54-.91,10.59,10.59,0,0,1-.41-1.24,9.59,9.59,0,0,1-.25-1.41c-.07-.55-.12-1.13-.14-1.71s-.05-1.13-.06-1.64,0-.91,0-1.2l.44-15.65,4.52.1-.3,17.52a5.29,5.29,0,0,0,.66,3.08,3.06,3.06,0,0,0,2.68,1.08,4,4,0,0,0,3.05-1,4.2,4.2,0,0,0,1.18-3.11l.1-17.51Z"/>
      <path class="cls-4" d="M215.2,190.8,219,203.25l2.14-11.48,5,.87L221.73,218l-3.88-1.12-4.61-12.31-2.09,11.59-4.88-.9,4.39-25.39Z"/>
      <path class="cls-4" d="M248.91,193.52l-.21,4.23-6.58-.09-.5,21.61-4-.07-.1-21.65-6.31.16.16-4.27Z"/>
      <path class="cls-4" d="M45.59,208l.18-2,203.35,17.79-.18,2Z"/>
    </g>
  </g>
</svg>
