<svg id="Layer_1" data-name="Layer 1" xmlns="http://www.w3.org/2000/svg" width="481.76" height="326.86" viewBox="0 0 481.76 326.86">
  <defs>
    <style>
      .cls-1 {
        fill: #ff0;
        stroke: red;
        stroke-miterlimit: 10;
        stroke-width: 5px;
      }

      .cls-2 {
        fill: red;
      }
    </style>
  </defs>
  <g>
    <polygon class="cls-1" points="2.5 113.42 237.32 98.07 237.32 4.67 477.5 164.69 275.59 322.67 251.63 246.45 2.5 260.09 2.5 113.42"/>
    <g>
      <path class="cls-2" d="M138.13,116.34l.68,15.65-49,3.63L91,157.08l39.31-2.53L131.7,174l-39.78,3.08,2.39,49.08-16.82,1.3L72.16,120.64Z"/>
      <path class="cls-2" d="M184.34,115.93l1.64,112h-24.2v-112Z"/>
      <path class="cls-2" d="M226.79,200.62a19.54,19.54,0,0,0,.61,2.84,14.5,14.5,0,0,0,.76,1.92,5.57,5.57,0,0,0,1,1.47,15,15,0,0,1,1.26,1.57,7,7,0,0,0,2.63,2.19,9.44,9.44,0,0,0,3,.75,23.84,23.84,0,0,0,3.59,0c1.32-.09,2.71-.14,4.17-.14a14.08,14.08,0,0,0,6.19-1.33,20,20,0,0,0,4.88-3.28,15.32,15.32,0,0,0,3.32-4.28,9.56,9.56,0,0,0,1.2-4.37c0-.68,0-1.54.06-2.56s.05-2.06,0-3.08a13.28,13.28,0,0,0-.44-2.94,4.79,4.79,0,0,0-1.2-2.22c-.54-.55-1.19-1.22-1.94-2a15.4,15.4,0,0,0-2.88-2.32,23.9,23.9,0,0,0-4.27-2.12,24.6,24.6,0,0,0-6.29-1.4c-3.64-.37-6.63-.78-8.95-1.23a27.75,27.75,0,0,1-5.88-1.75,19.35,19.35,0,0,1-4.2-2.46q-1.82-1.4-3.94-3.38a21.61,21.61,0,0,1-6.15-9.91,40.43,40.43,0,0,1-1.84-11.9q.27-5.74.92-11.28a21.4,21.4,0,0,1,3.59-9.81q2.94-4.26,9.3-6.8t18-2.39a108.82,108.82,0,0,1,14.56,2,22.27,22.27,0,0,1,9,4,17.66,17.66,0,0,1,5.33,7.42,63,63,0,0,1,3.28,12.1H258.23a15.06,15.06,0,0,0-2.9-6.22,13.87,13.87,0,0,0-4-3.42,15.08,15.08,0,0,0-3.73-1.47,14.41,14.41,0,0,1-1.94-.51,15.53,15.53,0,0,0-5.2-.48,17.21,17.21,0,0,0-4.68,1,13.42,13.42,0,0,0-3.76,2.05,11.32,11.32,0,0,0-2.5,2.63,12.21,12.21,0,0,0-1.5,3.93,33.24,33.24,0,0,0-.55,4.1,24.77,24.77,0,0,0,0,3.66,8.94,8.94,0,0,0,.41,2.32,10.33,10.33,0,0,0,2.09,4.28,20.44,20.44,0,0,0,3.48,3.35,21.73,21.73,0,0,0,4.14,2.46,19.15,19.15,0,0,0,4.31,1.4c3.32.73,6,1.28,7.93,1.64a48.86,48.86,0,0,1,4.92,1.13c1.32.39,2.47.76,3.45,1.13a36.05,36.05,0,0,1,3.73,1.7,31.42,31.42,0,0,1,12.71,11,28.1,28.1,0,0,1,4,14.9,31.75,31.75,0,0,1-5.29,17.74,33.36,33.36,0,0,1-15,12.34c-1.55.64-2.68,1.13-3.38,1.47a6.94,6.94,0,0,1-2.05.65,20.29,20.29,0,0,1-2.64.14H245c-4.19,0-7.69-.11-10.49-.31a43.71,43.71,0,0,1-7.21-1.06,17.22,17.22,0,0,1-5.27-2.22,34.73,34.73,0,0,1-4.78-3.86,52.38,52.38,0,0,1-3.86-4.21,12.8,12.8,0,0,1-2-3.49,17.27,17.27,0,0,1-1-4.27q-.27-2.46-.54-6.22Z"/>
      <path class="cls-2" d="M318.32,119,322,163l29.59-2.53-1.16-42.86,21.88-1.1,5.6,107.26L356,224.82l-2.53-44.77-30.49,2,1,44.23-19.62.2-5.54-107.25Z"/>
    </g>
  </g>
</svg>
