<svg id="Layer_1" data-name="Layer 1" xmlns="http://www.w3.org/2000/svg" width="619.44" height="172.72" viewBox="0 0 619.44 172.72">
  <g>
    <path d="M20.76,43.45l3.62,40.62,17.88-3L40.17,41.44,53.41,40l6.87,99.19L47,140.64l-3-41.41-18.44,2.55,2,40.93-11.9.6L8.9,44.12Z"/>
    <path d="M72.3,54A23.61,23.61,0,0,1,74,49a18.57,18.57,0,0,1,3.28-4.86,19,19,0,0,1,4.85-3.76,14.62,14.62,0,0,1,6.53-1.65q8.17-.28,13.21,1.82a16,16,0,0,1,8,8q3,5.93,4.3,16.58t1.89,27.51q.42,12.21,0,21.07a43.89,43.89,0,0,1-2.9,14.64,17.1,17.1,0,0,1-7.28,8.56q-4.85,2.76-13.2,2.68a10,10,0,0,1-8.31-1.23,19.7,19.7,0,0,1-6.21-7.2,51.12,51.12,0,0,1-4.33-11.48,112.25,112.25,0,0,1-2.65-14.16q-.93-7.49-1.24-15.2t-.1-14.67q.23-6.94.88-12.48a55.09,55.09,0,0,1,1.58-8.68Zm9.41,48.34q.67,2.7,1.4,6.22a57.45,57.45,0,0,0,1.82,6.75,19,19,0,0,0,2.74,5.42,4.76,4.76,0,0,0,4.1,2.11,16.8,16.8,0,0,0,5.84-1.28,8.77,8.77,0,0,0,4.44-4.28,14.3,14.3,0,0,0,1.27-4.1q.45-2.55.73-5.73c.19-2.12.3-4.43.32-6.95s0-5.08-.1-7.7q-.48-13.47-1.5-20.76T100,61.44c-1.18-2.22-2.62-3.49-4.3-3.81a26.47,26.47,0,0,0-6-.36Q84,57.47,82,64.22T80.54,85.34Z"/>
    <path d="M135.87,36.66l5.52,46.45,8.19-45,4.29.23,6.32,47.82L167,38.61,178.52,40l-14.63,96.33-5.28-.39-7.35-42.64-7.38,41.89-6.29-.42-12.2-98.24Z"/>
    <path d="M259.36,29.45l1,16.18L243.93,48l6.37,82.42-10.09,1.43-7.86-82.3-15.63,3.27-1.1-16.31Z"/>
    <path d="M275.29,43.37a23.86,23.86,0,0,1,1.72-5,18.53,18.53,0,0,1,3.27-4.86,18.78,18.78,0,0,1,4.86-3.75,14.45,14.45,0,0,1,6.52-1.66q8.18-.29,13.22,1.82a16.06,16.06,0,0,1,8,8q3,5.93,4.3,16.59T319.09,82q.44,12.21,0,21.07a44.22,44.22,0,0,1-2.89,14.65,17.1,17.1,0,0,1-7.29,8.55q-4.85,2.77-13.2,2.68a9.93,9.93,0,0,1-8.3-1.23,19.61,19.61,0,0,1-6.21-7.2,50.18,50.18,0,0,1-4.33-11.48,110.47,110.47,0,0,1-2.66-14.16c-.61-5-1-10.05-1.23-15.2s-.24-10-.1-14.67.43-8.79.87-12.48a55.14,55.14,0,0,1,1.59-8.68Zm9.42,48.34c.45,1.8.91,3.87,1.4,6.22a56.92,56.92,0,0,0,1.81,6.75,19,19,0,0,0,2.75,5.42,4.73,4.73,0,0,0,4.1,2.11,16.79,16.79,0,0,0,5.83-1.28,8.7,8.7,0,0,0,4.44-4.28,14,14,0,0,0,1.27-4.1q.45-2.55.74-5.73c.18-2.12.29-4.43.31-6.95s0-5.08-.1-7.69q-.47-13.49-1.49-20.77T303,50.8q-1.79-3.33-4.31-3.81a27.63,27.63,0,0,0-6-.36q-5.68.19-7.65,6.95T283.53,74.7Z"/>
    <path d="M377.92,24.89a10.52,10.52,0,0,1,7.21,2.6,20.11,20.11,0,0,1,4.91,6.9,39.23,39.23,0,0,1,2.86,9.94A84.12,84.12,0,0,1,394,56.08a45.84,45.84,0,0,1-1.06,10.24,27.52,27.52,0,0,1-3.32,8.45,17.75,17.75,0,0,1-5.65,5.84A16.4,16.4,0,0,1,376,83.07l-7.71.4.59,41.81-9.92.34L356.65,24.94Zm-4.63,41.29a9.4,9.4,0,0,0,4.46-.88,7.36,7.36,0,0,0,2.84-2.51A9.87,9.87,0,0,0,382,59.13a24,24,0,0,0,.39-4.29,33.36,33.36,0,0,0-.54-4.67,18.41,18.41,0,0,0-1.51-4.76,11,11,0,0,0-2.85-3.68,6.91,6.91,0,0,0-4.46-1.52h-3.66l.83,25.95Z"/>
    <path d="M413.45,23.13l7.69,81.11,29.22-3.11,1.32,17.5-42.63,4.47-6.38-99.34Z"/>
    <path d="M472.48,107.81l-2.52,10-12.44-.65,23-98.65,9.8-.08,18.91,100.1-13.39-.36L494.12,109ZM484.83,50l-9,41.32,16.11,1Z"/>
    <path d="M526.22,18.22,540.3,49.16,552.11,16.3l12.59.07L546.48,66.69l2,49.42-11.29,1.41L534.93,65.7,513.72,18.4Z"/>
  </g>
</svg>
