<svg id="Layer_1" data-name="Layer 1" xmlns="http://www.w3.org/2000/svg" width="481.76" height="326.86" viewBox="0 0 481.76 326.86">
  <defs>
    <style>
      .cls-1 {
        fill: #ff0;
        stroke: red;
        stroke-miterlimit: 10;
        stroke-width: 5px;
      }

      .cls-2 {
        fill: red;
      }
    </style>
  </defs>
  <g>
    <polygon class="cls-1" points="2.5 113.42 237.32 98.07 237.32 4.67 477.5 164.69 275.59 322.67 251.63 246.45 2.5 260.09 2.5 113.42"/>
    <g>
      <path class="cls-2" d="M39,123.8,51.33,170l2.82-44.47,12.67,1.65-5.53,98.36-10-3-14.2-45.41L34.43,222,22,220.2l5.44-98.3Z"/>
      <path class="cls-2" d="M114.67,123.17l-.33,15-26.11.25,1.7,31.86,21.09-2.6.7,15.71-20.92-.25,1.46,30.78,24.11-1.21.34,10.39-38.4,1.27L77,125Z"/>
      <path class="cls-2" d="M136.46,124.31l3.9,46.62,9.76-44.66,4.27.38,4.65,48,8.43-47.31,11.5,1.77-18,95.77-5.27-.57-5.85-42.88L141,223.05l-6.26-.63L126,123.8Z"/>
      <path class="cls-2" d="M255.63,122.92l.41,16.21L239.56,141l3.49,82.59-10.13,1.07-5-82.52-15.74,2.72-.54-16.34Z"/>
      <path class="cls-2" d="M269.32,123.42l23.87,2c1.44.17,2.58.34,3.42.5a10.53,10.53,0,0,1,2.16.64,7.11,7.11,0,0,1,1.66,1,14.8,14.8,0,0,0,1.89,1.23q4.65,2.85,7.06,9.19a23.07,23.07,0,0,1,1,4.24q.42,2.66.61,5.57c.12,1.95.2,3.89.22,5.83s0,3.65,0,5.13a38.66,38.66,0,0,1-2.78,13.05,21,21,0,0,1-6.35,8.49,7.16,7.16,0,0,1-3.47,1.17,39.84,39.84,0,0,0-4.42.79l1.14,2.79c.6,1.43,1.53,3.74,2.81,6.93s3,7.48,5.06,12.89,4.73,12.39,7.89,21l-12.83-1.33L286.75,196.2q-.54-1.27-1.2-3.3c-.44-1.35-.91-2.69-1.39-4s-.93-2.52-1.33-3.58a13.28,13.28,0,0,0-.93-2.09,7.08,7.08,0,0,1-.73-.82,1,1,0,0,0-.4-.38,3,3,0,0,0-.49-.13,5.55,5.55,0,0,0-.92-.06l-1.7-.25-2.41,38.88-10.79-1.58Zm17.52,38.89c.22,0,.65,0,1.3.1s1.38.09,2.18.09,1.61,0,2.49-.09a12.12,12.12,0,0,0,2.25-.35,4.83,4.83,0,0,0,3.34-2.5,11,11,0,0,0,1.6-5.42q.08-1.26.12-2.31a11.26,11.26,0,0,0-.12-2.15,13.69,13.69,0,0,0-.59-2.35,12.73,12.73,0,0,0-1.37-2.75,5.19,5.19,0,0,0-1.72-1.9,8.51,8.51,0,0,0-2.3-1.08,19.07,19.07,0,0,0-2.47-.57c-.82-.13-1.57-.25-2.26-.38l-9.26-.89-1.21,21.79Z"/>
      <path class="cls-2" d="M335.81,122.16l1,103.74h-14.7V122.16Z"/>
      <path class="cls-2" d="M370.1,124.88a10.53,10.53,0,0,1,7.12,2.85,20.11,20.11,0,0,1,4.67,7.06,39.85,39.85,0,0,1,2.51,10,84,84,0,0,1,.64,11.78,45.65,45.65,0,0,1-1.41,10.2,27.93,27.93,0,0,1-3.61,8.33,17.87,17.87,0,0,1-5.86,5.63,16.34,16.34,0,0,1-8,2.19l-7.72.13-.87,41.8h-9.92l1.2-100.71ZM364,166a9.42,9.42,0,0,0,4.49-.72,7.21,7.21,0,0,0,2.92-2.41,9.66,9.66,0,0,0,1.56-3.61,22.88,22.88,0,0,0,.54-4.28,33,33,0,0,0-.37-4.68,18.53,18.53,0,0,0-1.35-4.82,10.82,10.82,0,0,0-2.72-3.76,6.84,6.84,0,0,0-4.4-1.68l-3.65-.13-.09,26Z"/>
    </g>
  </g>
</svg>
