<svg id="Layer_1" data-name="Layer 1" xmlns="http://www.w3.org/2000/svg" width="177.1" height="95.16" viewBox="0 0 177.1 95.16">
  <g>
    <path d="M38.83,77.22c.38.47.7.84,1,1.1s.53.53.82.81L42,80.43l-4.43,9.33c-.48-.49-.85-.87-1.12-1.13s-.54-.5-.8-.74a8.49,8.49,0,0,1-.87-.9c-.32-.38-.75-.86-1.28-1.45-.31-.36-.48-.5-.5-.44s-.07.23-.14.5a2.44,2.44,0,0,1-.57,1,4.34,4.34,0,0,1-1.74,1.08c-1.1.11-2,.17-2.83.19s-1.58,0-2.36,0-1.6-.11-2.46-.19-1.87-.12-3-.15l-2.59,0a8.15,8.15,0,0,1-2.62-.5,10.72,10.72,0,0,1-2.72-1.55,16.41,16.41,0,0,1-3-3.06,13.84,13.84,0,0,1-2.2-5.57,62.41,62.41,0,0,1-1-8.12q-.3-4.45-.33-9.29c0-3.21,0-6.27,0-9.16s.16-6.22.32-10,.46-7.4.91-10.91a63.23,63.23,0,0,1,1.87-9.35q1.2-4.08,3.31-5.44a2.27,2.27,0,0,0,.68-.76,4.63,4.63,0,0,1,1.22-1.21,9.76,9.76,0,0,1,2.45-1.21,16.21,16.21,0,0,1,4.44-.72,21.14,21.14,0,0,1,6.1.37,26.62,26.62,0,0,1,4.68,1.61,11.66,11.66,0,0,1,4.23,3.25,16.48,16.48,0,0,1,2.78,5.62A42.18,42.18,0,0,1,39.87,30q.41,5.06.28,12-.06,3.87-.06,8.61T39.87,60A83.89,83.89,0,0,1,39,68.52a19.82,19.82,0,0,1-1.9,6.28C37.87,75.94,38.44,76.75,38.83,77.22Zm-8.54-11.9a36.93,36.93,0,0,0,.56-3.89c.14-1.48.24-3.09.29-4.85s.09-3.54.12-5.37q.12-6.9.12-12.69a48.63,48.63,0,0,0-.85-9.75,11.11,11.11,0,0,0-2.83-5.89c-1.34-1.28-3.33-1.63-6-1.07a10.21,10.21,0,0,0-1.92.55A4.5,4.5,0,0,0,18,23.75a10.46,10.46,0,0,0-1.6,2.89,25.48,25.48,0,0,0-1.28,5c-.32,1.83-.68,4.32-1.06,7.46s-.66,7.19-.83,12.14-.16,9,0,12.16a36.77,36.77,0,0,0,1,7.47,8.06,8.06,0,0,0,2,3.84A5.08,5.08,0,0,0,19,76.08a11.48,11.48,0,0,0,3.25,0q1.76-.27,3.69-.42c.16,0,.16-.08,0-.24l-.73-.67-.87-.81A1.42,1.42,0,0,1,23.8,73L24,62.85c.77.72,1.28,1.18,1.54,1.38s.48.39.67.56.49.47.92.87,1.18,1.13,2.28,2.21A7.66,7.66,0,0,0,30.29,65.32Z"/>
    <path d="M87.1,10,88.38,55.9q.08,3.18,0,6.42T88,68.6a41.7,41.7,0,0,1-1.06,5.92,19.39,19.39,0,0,1-2.07,5c-.45.7-.83,1.26-1.12,1.69a10.18,10.18,0,0,1-.86,1.12,5.47,5.47,0,0,1-.91.83c-.33.24-.73.51-1.2.82-.7.38-1.21.66-1.52.85s-.61.35-.91.49a10.54,10.54,0,0,1-1.21.43c-.51.16-1.28.41-2.32.78-.55.19-1,.36-1.48.53a5.71,5.71,0,0,1-1.27.34,13,13,0,0,1-1.36.12A10.6,10.6,0,0,1,69,87.49a17.1,17.1,0,0,1-3.23-.61,8.66,8.66,0,0,1-2.55-1.37,17.83,17.83,0,0,1-2.28-1.85,9.85,9.85,0,0,1-1.59-2,12.3,12.3,0,0,1-1.13-2.53c-.31-.95-.62-2.13-.93-3.51-.24-1.07-.45-2.41-.64-4s-.35-3.26-.47-4.95-.22-3.28-.3-4.76-.13-2.64-.16-3.47l-1-45.6,8.64-.72,1.45,51c.1,4,.64,6.89,1.62,8.81s2.72,2.76,5.23,2.55a6.89,6.89,0,0,0,5.71-3.59q2-3.37,1.88-9.3L77.44,10.66Z"/>
    <path d="M114.63,9.4l-.62,79-11.19-.19,1.38-79Z"/>
    <path d="M162.75,10.18l.1,12.35-12.58,1.18,1.56,62.92-7.73.69-2.69-62.9-12,1.86-.19-12.45Z"/>
  </g>
</svg>
