<svg id="Layer_1" data-name="Layer 1" xmlns="http://www.w3.org/2000/svg" width="414" height="534.72" viewBox="0 0 414 534.72">
  <defs>
    <style>
      .cls-1 {
        fill: #ffd51c;
      }

      .cls-1, .cls-2 {
        stroke: #e6e6e6;
        stroke-width: 30px;
      }

      .cls-1, .cls-2, .cls-3 {
        stroke-miterlimit: 10;
      }

      .cls-2, .cls-3 {
        fill: none;
      }

      .cls-3 {
        stroke: #000;
        stroke-width: 7px;
      }

      .cls-4 {
        fill: #fdffe2;
      }

      .cls-5 {
        fill: #30f700;
      }
    </style>
  </defs>
  <g>
    <g>
      <path class="cls-1" d="M45.29,210.19l29.2,290.17a428,428,0,0,0,90.13,17.81A416.23,416.23,0,0,0,269.15,514Q289,358.81,308.79,203.63c-28.75,15.53-74,34.42-130.61,36C120.77,241.2,74.57,224.36,45.29,210.19Z"/>
      <path class="cls-2" d="M314.12,267.12c-10.82-.85,63.81,4.46,63.81,4.46S410.8,396,277.13,456.06"/>
      <path class="cls-3" d="M64.6,287.75s.17-23.67,9.78-24.83,18.16,5.34,19,39.46,2,168,2,168"/>
      <path class="cls-3" d="M115.43,308s1.74-23.65,14-24.49,22.6,6,21.41,40.1-8.27,168.05-8.27,168.05"/>
      <path class="cls-3" d="M175.1,303s3.09-24.9,15.85-24.9,23.19,7.95,20.1,44-17.7,177.25-17.7,177.25"/>
      <path class="cls-3" d="M230.35,287.34s5-25.47,19.41-24.36,25.7,10.24,20,47.2-30.73,181.63-30.73,181.63"/>
      <path class="cls-4" d="M46.35,163.93C39.9,200.13-20.94,219.33,7.56,240c41.09-16.33,110.3,18.57,94.39,39.89s-2.13,67.41-6.15,103.55-8.34,132.42,14.71,126,9.71-152.1,20.76-197.16,15.42-70,28.22-75,2.92,83.89,31.44,65.08,11-51,23.13-62.35,8.66,3,32.13,23.27,30.2,17.54,35.59-6,15.8-46.53,27.77-36.64,44.49,21.85,41.71,0-32.41-22-29.55-35.51-33.13-53.82-55.06-38.68-24.28-1-57.47,17.49-37.9-21.39-47-15-36.06-41.53-55.59-5.8-51.09-19-54.68-1.62S46.35,163.93,46.35,163.93Z"/>
    </g>
    <g>
      <path class="cls-5" d="M87.79,103.94l28,.49.75-42.94,23.62.41-.75,42.95,28.14.49-.63,36-28.14-.49L138,183.6l-23.61-.41.74-42.73-28-.49Z"/>
      <path class="cls-5" d="M245.05,204.72l-30.12-.52,3.14-137.75q-2.38,1.74-4,2.78c-1.06.69-2,1.32-2.88,1.9l-2.52,1.68q-1.22.82-3,2.13c-1.21.87-2.32,1.69-3.34,2.45s-2.05,1.51-3.11,2.23-2.22,1.47-3.47,2.23a33.26,33.26,0,0,1-4.47,2.21l.88-33.57q5.49-4.26,9.12-6.93t6.22-4.46a47.33,47.33,0,0,1,4.4-2.77c1.2-.65,2.41-1.35,3.62-2.11s2.51-1.6,3.92-2.5,3.17-2.16,5.29-3.76l21.42.82Z"/>
    </g>
  </g>
</svg>
