<svg id="Layer_1" data-name="Layer 1" xmlns="http://www.w3.org/2000/svg" xmlns:xlink="http://www.w3.org/1999/xlink" width="462.91" height="343.71" viewBox="0 0 462.91 343.71">
  <defs>
    <style>
      .cls-1 {
        fill: none;
      }

      .cls-2 {
        opacity: 0.94;
      }

      .cls-3 {
        isolation: isolate;
      }

      .cls-4 {
        clip-path: url(#clip-path);
      }

      .cls-5 {
        clip-path: url(#clip-path-2);
      }

      .cls-6 {
        fill: #434343;
      }

      .cls-7 {
        clip-path: url(#clip-path-3);
      }

      .cls-8 {
        clip-path: url(#clip-path-4);
      }

      .cls-9 {
        fill: #484848;
      }

      .cls-10 {
        fill: #454545;
      }

      .cls-11 {
        clip-path: url(#clip-path-5);
      }

      .cls-12 {
        fill: #4a4a4a;
      }

      .cls-13 {
        clip-path: url(#clip-path-6);
      }

      .cls-14 {
        clip-path: url(#clip-path-7);
      }

      .cls-15 {
        clip-path: url(#clip-path-8);
      }

      .cls-16 {
        fill: #4d4d4d;
      }

      .cls-17 {
        clip-path: url(#clip-path-9);
      }

      .cls-18 {
        clip-path: url(#clip-path-10);
      }

      .cls-19 {
        fill: #545454;
      }

      .cls-20 {
        fill: #525252;
      }

      .cls-21 {
        fill: #4f4f4f;
      }

      .cls-22 {
        clip-path: url(#clip-path-11);
      }

      .cls-23 {
        clip-path: url(#clip-path-12);
      }

      .cls-24 {
        clip-path: url(#clip-path-13);
      }

      .cls-25 {
        clip-path: url(#clip-path-14);
      }

      .cls-26 {
        clip-path: url(#clip-path-15);
      }

      .cls-27 {
        clip-path: url(#clip-path-16);
      }

      .cls-28 {
        clip-path: url(#clip-path-17);
      }

      .cls-29 {
        clip-path: url(#clip-path-18);
      }

      .cls-30 {
        clip-path: url(#clip-path-19);
      }

      .cls-31 {
        clip-path: url(#clip-path-20);
      }

      .cls-32 {
        clip-path: url(#clip-path-21);
      }

      .cls-33 {
        clip-path: url(#clip-path-22);
      }

      .cls-34 {
        clip-path: url(#clip-path-23);
      }

      .cls-35 {
        clip-path: url(#clip-path-24);
      }

      .cls-36 {
        clip-path: url(#clip-path-25);
      }

      .cls-37 {
        clip-path: url(#clip-path-26);
      }

      .cls-38 {
        clip-path: url(#clip-path-27);
      }

      .cls-39 {
        clip-path: url(#clip-path-28);
      }

      .cls-40 {
        clip-path: url(#clip-path-29);
      }

      .cls-41 {
        clip-path: url(#clip-path-30);
      }

      .cls-42 {
        clip-path: url(#clip-path-31);
      }

      .cls-43 {
        clip-path: url(#clip-path-32);
      }

      .cls-44 {
        clip-path: url(#clip-path-33);
      }

      .cls-45 {
        clip-path: url(#clip-path-34);
      }

      .cls-46 {
        clip-path: url(#clip-path-35);
      }

      .cls-47 {
        clip-path: url(#clip-path-36);
      }

      .cls-48 {
        clip-path: url(#clip-path-37);
      }

      .cls-49 {
        clip-path: url(#clip-path-38);
      }

      .cls-50 {
        clip-path: url(#clip-path-39);
      }

      .cls-51 {
        clip-path: url(#clip-path-40);
      }

      .cls-52 {
        clip-path: url(#clip-path-41);
      }

      .cls-53 {
        clip-path: url(#clip-path-42);
      }

      .cls-54 {
        clip-path: url(#clip-path-43);
      }

      .cls-55 {
        clip-path: url(#clip-path-44);
      }

      .cls-56 {
        clip-path: url(#clip-path-45);
      }

      .cls-57 {
        clip-path: url(#clip-path-46);
      }

      .cls-58 {
        clip-path: url(#clip-path-47);
      }

      .cls-59 {
        clip-path: url(#clip-path-48);
      }

      .cls-60 {
        clip-path: url(#clip-path-49);
      }

      .cls-61 {
        clip-path: url(#clip-path-50);
      }

      .cls-62 {
        clip-path: url(#clip-path-51);
      }

      .cls-63 {
        clip-path: url(#clip-path-52);
      }

      .cls-64 {
        clip-path: url(#clip-path-53);
      }

      .cls-65 {
        clip-path: url(#clip-path-54);
      }

      .cls-66 {
        clip-path: url(#clip-path-55);
      }

      .cls-67 {
        clip-path: url(#clip-path-56);
      }

      .cls-68 {
        clip-path: url(#clip-path-57);
      }

      .cls-69 {
        clip-path: url(#clip-path-58);
      }

      .cls-70 {
        clip-path: url(#clip-path-59);
      }

      .cls-71 {
        clip-path: url(#clip-path-60);
      }

      .cls-72 {
        clip-path: url(#clip-path-61);
      }

      .cls-73 {
        clip-path: url(#clip-path-62);
      }

      .cls-74 {
        clip-path: url(#clip-path-63);
      }

      .cls-75 {
        clip-path: url(#clip-path-64);
      }

      .cls-76 {
        clip-path: url(#clip-path-65);
      }

      .cls-77 {
        clip-path: url(#clip-path-66);
      }

      .cls-78 {
        clip-path: url(#clip-path-67);
      }

      .cls-79 {
        fill: #707070;
      }

      .cls-80 {
        fill: red;
      }

      .cls-81 {
        stroke: #000;
        stroke-miterlimit: 10;
        stroke-width: 0.25px;
      }
    </style>
    <clipPath id="clip-path">
      <path class="cls-1" d="M461.75,226.73l-11.39-6.2q.54-22,.38-43.83c-.19-27-1.09-53.85-2.93-80.52-1.56-22.66-3.7-45.3-7.63-67.31l11.39,6.2c3.94,22,6.08,44.65,7.64,67.31,1.84,26.67,2.73,53.54,2.92,80.52Q462.3,204.77,461.75,226.73Z"/>
    </clipPath>
    <clipPath id="clip-path-2">
      <path class="cls-1" d="M395.24,142.83l11.4,6.2c11.69,6.36,21.22,17.2,29.08,28.1,10.76,14.92,19,32,26,49.6l-11.39-6.2c-7.06-17.6-15.28-34.67-26-49.6C416.46,160,406.93,149.19,395.24,142.83Z"/>
    </clipPath>
    <clipPath id="clip-path-3">
      <path class="cls-1" d="M394.63,143.38l11.39,6.2c.79.42,1.55.86,2.29,1.32,15.06,9.27,26.58,24.74,35.71,40.41,6.86,11.75,12.58,24.33,18.36,37.05L451,222.16c-5.78-12.72-11.51-25.3-18.37-37C423.49,169.44,412,154,396.92,144.7,396.17,144.24,395.41,143.8,394.63,143.38Z"/>
    </clipPath>
    <clipPath id="clip-path-4">
      <path class="cls-1" d="M425.94,55.22a265.39,265.39,0,0,0,14.24-26.35l11.39,6.2a263.33,263.33,0,0,1-14.24,26.35Z"/>
    </clipPath>
    <clipPath id="clip-path-5">
      <path class="cls-1" d="M412.75,73.87a195.8,195.8,0,0,0,13.19-18.65l11.39,6.2a193.92,193.92,0,0,1-13.18,18.65Z"/>
    </clipPath>
    <clipPath id="clip-path-6">
      <path class="cls-1" d="M396.58,93.84c4.9-7.06,10.83-13.29,16.17-20l11.4,6.2C418.8,86.75,412.88,93,408,100Z"/>
    </clipPath>
    <clipPath id="clip-path-7">
      <path class="cls-1" d="M390.8,103.84c2.17-3.17,3.56-6.82,5.78-10L408,100c-2.21,3.18-3.6,6.82-5.77,10Z"/>
    </clipPath>
    <clipPath id="clip-path-8">
      <path class="cls-1" d="M389.62,105.27a10,10,0,0,0,1.18-1.43l11.4,6.2a9.92,9.92,0,0,1-1.19,1.43Z"/>
    </clipPath>
    <clipPath id="clip-path-9">
      <path class="cls-1" d="M389.58,105.3l0,0,11.39,6.2,0,0Z"/>
    </clipPath>
    <clipPath id="clip-path-10">
      <path class="cls-1" d="M389.58,105.3l11.4,6.2a9.66,9.66,0,0,1-4.55,2.41l-11.4-6.2A9.62,9.62,0,0,0,389.58,105.3Z"/>
    </clipPath>
    <clipPath id="clip-path-11">
      <path class="cls-1" d="M385,107.71c.05,0,.1.05.14.07l.44.24.16.09.31.17.16.08,1.21.66,9,4.89h0L385,107.71Z"/>
    </clipPath>
    <clipPath id="clip-path-12">
      <path class="cls-1" d="M383.07,108.08c.69-.1,1.34-.22,1.95-.37l11.39,6.2a19.7,19.7,0,0,1-1.94.37Z"/>
    </clipPath>
    <clipPath id="clip-path-13">
      <path class="cls-1" d="M383.07,108.08h0l.2.1,11.19,6.09-.19,0-11.4-6.2Z"/>
    </clipPath>
    <clipPath id="clip-path-14">
      <path class="cls-1" d="M381.76,108.19l1.12-.08,11.4,6.2-1.12.08Z"/>
    </clipPath>
    <clipPath id="clip-path-15">
      <path class="cls-1" d="M395.24,142.83l11.4,6.2q-2.26-1.23-4.65-2.24a36.41,36.41,0,0,0-18.9-2.7,29.65,29.65,0,0,0-6.55,1.69c-3.81,1.47-7.5,4-9.4,8.14-1.8,3.88-1.69,8.08-1.57,12q.14,4.59.28,9.17c0,1.53.09,3.06.13,4.58a2.75,2.75,0,0,1-.78,2.41l-11.4-6.2a2.79,2.79,0,0,0,.79-2.41c0-1.52-.09-3-.14-4.57q-.15-4.59-.28-9.18c-.11-4-.22-8.16,1.57-12,1.9-4.1,5.59-6.67,9.4-8.14a29.74,29.74,0,0,1,6.56-1.69,36.33,36.33,0,0,1,18.9,2.71A50.65,50.65,0,0,1,395.24,142.83Z"/>
    </clipPath>
    <clipPath id="clip-path-16">
      <path class="cls-1" d="M381.76,108.19l.1.06.77.41.87.48,9.66,5.25a113.51,113.51,0,0,1-18.53-.35l-11.4-6.2A113.53,113.53,0,0,0,381.76,108.19Z"/>
    </clipPath>
    <clipPath id="clip-path-17">
      <path class="cls-1" d="M363.23,107.84l.08,0,.57.31.65.36,10.1,5.49c-1.24-.12-2.48-.25-3.72-.4l-11.4-6.2C360.75,107.59,362,107.72,363.23,107.84Z"/>
    </clipPath>
    <clipPath id="clip-path-18">
      <path class="cls-1" d="M370.93,113.5l-11.4-6.2c4.5.18,9,.25,13.56.24,2.24,0,4.48,0,6.72-.05a35,35,0,0,0,4.19-.19,10.14,10.14,0,0,0,2.51-.67c4-1.7,5.27-6.29,7.42-9.89a75.84,75.84,0,0,1,5.8-8.17c5.17-6.51,10.73-12.63,15.76-19.26,9.74-12.84,17.67-27.05,24.55-41.65l11.4,6.2c-6.88,14.6-14.82,28.81-24.55,41.65-5,6.63-10.6,12.75-15.77,19.25a75.48,75.48,0,0,0-5.79,8.18c-2.15,3.6-3.43,8.19-7.42,9.89a10.25,10.25,0,0,1-2.51.67,33.18,33.18,0,0,1-4.2.18q-3.34,0-6.72.06C380,113.74,375.43,113.68,370.93,113.5Z"/>
    </clipPath>
    <clipPath id="clip-path-19">
      <path class="cls-1" d="M359.51,107.44a1,1,0,0,1,.18.09l.19.11.36.19,10.67,5.81-.57-.08-11.4-6.2Z"/>
    </clipPath>
    <clipPath id="clip-path-20">
      <path class="cls-1" d="M360.07,99.52l11.4,6.2a3.4,3.4,0,0,1,2,3.06c0,2.43-2.07,4.12-4.07,5.38L358,108c2-1.26,4.08-2.95,4.07-5.38A3.36,3.36,0,0,0,360.07,99.52Z"/>
    </clipPath>
    <clipPath id="clip-path-21">
      <path class="cls-1" d="M358.94,107.36a1.26,1.26,0,0,1,.23.13l.24.13,10.93,5.94-1-.12-11.4-6.2Z"/>
    </clipPath>
    <clipPath id="clip-path-22">
      <path class="cls-1" d="M358.1,98.81a7.64,7.64,0,0,1,2,.71l11.39,6.2a7.38,7.38,0,0,0-2-.71Z"/>
    </clipPath>
    <clipPath id="clip-path-23">
      <path class="cls-1" d="M352.15,98.65a16.31,16.31,0,0,1,6,.16l11.39,6.2a16.3,16.3,0,0,0-5.95-.16Z"/>
    </clipPath>
    <clipPath id="clip-path-24">
      <path class="cls-1" d="M343.36,101a49.75,49.75,0,0,1,8.79-2.39l11.39,6.2a50.22,50.22,0,0,0-8.79,2.39Z"/>
    </clipPath>
    <clipPath id="clip-path-25">
      <path class="cls-1" d="M334.46,103.44a50.13,50.13,0,0,0,8.9-2.4l11.39,6.2a49.79,49.79,0,0,1-8.89,2.4Z"/>
    </clipPath>
    <clipPath id="clip-path-26">
      <path class="cls-1" d="M261.71,235.23l-11.4-6.2a347.87,347.87,0,0,1,28.55-31.57q6.67-6.5,13.7-12.51c4.45-3.78,9.3-8.45,14.62-10.33a11.36,11.36,0,0,1,2.27-.55c3.7-.53,7.2.76,10.78,1.33a91.21,91.21,0,0,0,15.36.89c5.63,0,11.28-.33,16.91-.41a11.15,11.15,0,0,0,1.3,0l11.4,6.2a11.08,11.08,0,0,1-1.3,0c-5.63.08-11.28.36-16.91.41a91.27,91.27,0,0,1-15.37-.89c-3.57-.57-7.07-1.86-10.78-1.33a11.27,11.27,0,0,0-2.26.55c-5.32,1.88-10.18,6.55-14.63,10.33q-7,6-13.69,12.51A346.39,346.39,0,0,0,261.71,235.23Z"/>
    </clipPath>
    <clipPath id="clip-path-27">
      <path class="cls-1" d="M303.43,95.65q4,1.51,8,3.14l11.4,6.2c-2.67-1.08-5.36-2.13-8.05-3.14Z"/>
    </clipPath>
    <clipPath id="clip-path-28">
      <path class="cls-1" d="M288.45,90.31q7.56,2.56,15,5.34l11.39,6.2q-7.43-2.79-15-5.34Z"/>
    </clipPath>
    <clipPath id="clip-path-29">
      <path class="cls-1" d="M268.92,82.12a123.61,123.61,0,0,0,19.53,8.19l11.4,6.2a124.12,124.12,0,0,1-19.54-8.19Z"/>
    </clipPath>
    <clipPath id="clip-path-30">
      <path class="cls-1" d="M280.73,87.7l-11.4-6.2a121.43,121.43,0,0,0,18.76,7.9c8,2.74,15.9,5.56,23.72,8.73,7.26,2.94,14.93,5.64,23.13,4.49a28.59,28.59,0,0,0,3.19-.64c4.45-1.18,9.52-3.48,14.33-4.16a13.18,13.18,0,0,1,7.78.94l.21.1,11.4,6.2-.21-.1a13.18,13.18,0,0,0-7.78-.94c-4.81.67-9.88,3-14.33,4.16a28.59,28.59,0,0,1-3.19.64c-8.21,1.15-15.87-1.55-23.13-4.49-7.82-3.17-15.73-6-23.72-8.73A121,121,0,0,1,280.73,87.7Z"/>
    </clipPath>
    <clipPath id="clip-path-31">
      <path class="cls-1" d="M123.67,328l-11.4-6.2a45.26,45.26,0,0,0,8.45,3.59,29.65,29.65,0,0,0,12.78,1.16,26.65,26.65,0,0,0,3-.6c5.33-1.4,10.5-4.26,15.31-7.42,19.43-12.74,35.63-33.2,57.26-40.85,10.74-3.8,21.79-6,31.86-12.47a63.17,63.17,0,0,0,7.9-6.05,34,34,0,0,0,4.76-4.69c1.25-1.69.9-3.7.83-5.61A56.34,56.34,0,0,0,250.31,229l11.4,6.2a56.11,56.11,0,0,1,4.08,19.85c.08,1.91.43,3.92-.82,5.61a34.56,34.56,0,0,1-4.76,4.69,63.17,63.17,0,0,1-7.9,6.05c-10.07,6.48-21.13,8.67-31.86,12.47-21.63,7.65-37.83,28.11-57.26,40.85-4.81,3.15-10,6-15.32,7.41a22.33,22.33,0,0,1-3,.6,29.5,29.5,0,0,1-12.78-1.15A45,45,0,0,1,123.67,328Z"/>
    </clipPath>
    <clipPath id="clip-path-32">
      <path class="cls-1" d="M112.27,321.83a61.8,61.8,0,0,1-6-3.8l6.45,3.51,3.62,2c.44.24.88.5,1.33.72a62.52,62.52,0,0,0,6,3.8Z"/>
    </clipPath>
    <clipPath id="clip-path-33">
      <path class="cls-1" d="M106.22,318a120.77,120.77,0,0,1-15.16-13.27l11.4,6.2a120.77,120.77,0,0,0,15.16,13.27q-2.85-1.55-5.69-3.1l-1.49-.81-.74-.4-.73-.39-.71-.39-.7-.38C107.16,318.54,106.61,318.27,106.22,318Z"/>
    </clipPath>
    <clipPath id="clip-path-34">
      <path class="cls-1" d="M280.33,88.33l-11.4-6.2c-1-.55-2-1.11-3-1.71-10.78-6.52-18.85-17.41-24-29.56a81.54,81.54,0,0,1-5.9-22c-.91-7.54-1-15.73-3.92-22.5a9.88,9.88,0,0,0-3.9-4.9l11.39,6.2a9.82,9.82,0,0,1,3.9,4.9c3,6.77,3,15,3.93,22.5a80.82,80.82,0,0,0,5.9,22.05c5.19,12.15,13.26,23,24,29.56C278.33,87.22,279.32,87.78,280.33,88.33Z"/>
    </clipPath>
    <clipPath id="clip-path-35">
      <path class="cls-1" d="M228.61.66,240,6.86a5.59,5.59,0,0,0-3.56-.59L225.05.07A5.59,5.59,0,0,1,228.61.66Z"/>
    </clipPath>
    <clipPath id="clip-path-36">
      <path class="cls-1" d="M224.43.9a6.32,6.32,0,0,1,3.84.66l11.39,6.2a6.28,6.28,0,0,0-3.83-.66Z"/>
    </clipPath>
    <clipPath id="clip-path-37">
      <path class="cls-1" d="M224.43.9a.33.33,0,0,1,.1.06l.09.05L235.83,7.1l-.2,0L224.23.93Z"/>
    </clipPath>
    <clipPath id="clip-path-38">
      <path class="cls-1" d="M217.87,5.4c1.75-2.06,3.89-3.9,6.36-4.47l11.4,6.2c-2.47.56-4.61,2.41-6.37,4.47Z"/>
    </clipPath>
    <clipPath id="clip-path-39">
      <path class="cls-1" d="M207.94,21.36c3.19-5.33,5.9-11.23,9.93-16l11.39,6.2c-4,4.73-6.73,10.63-9.92,16Z"/>
    </clipPath>
    <clipPath id="clip-path-40">
      <path class="cls-1" d="M196.71,33.88c4.93-2.51,8.34-7.68,11.23-12.52l11.4,6.2c-2.9,4.84-6.3,10-11.23,12.52Z"/>
    </clipPath>
    <clipPath id="clip-path-41">
      <path class="cls-1" d="M190.62,35.74a19.39,19.39,0,0,0,6.09-1.86l11.4,6.2A19.47,19.47,0,0,1,202,41.94Z"/>
    </clipPath>
    <clipPath id="clip-path-42">
      <path class="cls-1" d="M173.26,35.42c5.53-.18,11.58,1.13,17.36.32l11.4,6.2c-5.79.81-11.83-.5-17.36-.32Z"/>
    </clipPath>
    <clipPath id="clip-path-43">
      <path class="cls-1" d="M165.88,36.06a67.83,67.83,0,0,1,7.38-.64l11.4,6.2a67.62,67.62,0,0,0-7.38.64Z"/>
    </clipPath>
    <clipPath id="clip-path-44">
      <path class="cls-1" d="M91.06,304.76c-18.9-18.87-35.47-40.35-52.54-61.14l11.4,6.19C67,270.61,83.55,292.09,102.46,311Z"/>
    </clipPath>
    <clipPath id="clip-path-45">
      <path class="cls-1" d="M126.19,53.18C138.4,44.11,152,38,165.88,36.06l11.4,6.2c-13.89,2-27.48,8.05-39.7,17.12Z"/>
    </clipPath>
    <clipPath id="clip-path-46">
      <path class="cls-1" d="M38.52,243.62q-6.35-7.74-12.8-15.35l11.39,6.2q6.48,7.6,12.81,15.34l-5.7-3.09-1.49-.81L42,245.5l-2.14-1.16A9,9,0,0,1,38.52,243.62Z"/>
    </clipPath>
    <clipPath id="clip-path-47">
      <path class="cls-1" d="M38.13,202.88c3.39.63,6.81,1.2,10.24,1.73l11.4,6.2c-3.43-.53-6.85-1.1-10.24-1.73Z"/>
    </clipPath>
    <clipPath id="clip-path-48">
      <path class="cls-1" d="M50.57,206.29l-11.39-6.2a43.45,43.45,0,0,0,9.37,3.81l11.39,6.2A43.87,43.87,0,0,1,50.57,206.29Z"/>
    </clipPath>
    <clipPath id="clip-path-49">
      <path class="cls-1" d="M88.3,92.11c11.22-14.41,23.54-28.27,37.89-38.93l11.39,6.2C123.24,70,110.92,83.9,99.7,98.31Z"/>
    </clipPath>
    <clipPath id="clip-path-50">
      <path class="cls-1" d="M29.69,193.66l11.4,6.2A64.88,64.88,0,0,0,52,207.44l-11.4-6.2A64.88,64.88,0,0,1,29.69,193.66Z"/>
    </clipPath>
    <clipPath id="clip-path-51">
      <path class="cls-1" d="M53.84,141.47C65,124.75,76,107.94,88.3,92.11l11.4,6.2C87.37,114.14,76.39,131,65.23,147.67Z"/>
    </clipPath>
    <clipPath id="clip-path-52">
      <path class="cls-1" d="M37.12,162.57c6.46-6.09,11.74-13.64,16.72-21.1l11.39,6.2c-5,7.46-10.25,15-16.71,21.1Z"/>
    </clipPath>
    <clipPath id="clip-path-53">
      <path class="cls-1" d="M17.24,198.39q10.35,2.52,20.89,4.49l11.4,6.2q-10.53-2-20.9-4.49Z"/>
    </clipPath>
    <clipPath id="clip-path-54">
      <path class="cls-1" d="M13.54,213.61a19,19,0,0,1-2.83-9.52l11.39,6.2a19.18,19.18,0,0,0,2.84,9.52l-1.33-.72-1.41-.77-1.47-.79-1.49-.81-1.49-.82-2.88-1.56A6.35,6.35,0,0,1,13.54,213.61Z"/>
    </clipPath>
    <clipPath id="clip-path-55">
      <path class="cls-1" d="M13.66,197.89a10.15,10.15,0,0,1,3.58.5l11.39,6.2a10.08,10.08,0,0,0-3.58-.5Z"/>
    </clipPath>
    <clipPath id="clip-path-56">
      <path class="cls-1" d="M10.71,204.09a10.9,10.9,0,0,1,.65-4.35l11.4,6.2a10.91,10.91,0,0,0-.66,4.35Z"/>
    </clipPath>
    <clipPath id="clip-path-57">
      <path class="cls-1" d="M11.36,199.74a2.8,2.8,0,0,1,2.3-1.85l11.39,6.2a2.8,2.8,0,0,0-2.29,1.85Z"/>
    </clipPath>
    <clipPath id="clip-path-58">
      <path class="cls-1" d="M123.49,328.71l-11.4-6.2c-14.15-7.69-25.4-20.74-36.15-32.83C63.67,275.87,52.09,261.35,40.35,247c-5.73-7-11.51-14-17.42-20.83-4.85-5.63-11.45-11.15-12.68-19.48-.36-2.43-.55-5.84,1-8.17A3.36,3.36,0,0,1,13.7,197c2.07-.3,4.58.89,6.18,1.26,8,1.88,16,3.53,24.11,4.9l11.4,6.2c-8.12-1.37-16.15-3-24.11-4.9-1.6-.37-4.11-1.56-6.19-1.26a3.36,3.36,0,0,0-2.43,1.52c-1.56,2.33-1.37,5.74-1,8.17,1.24,8.33,7.84,13.85,12.69,19.48,5.91,6.84,11.68,13.82,17.42,20.83,11.74,14.35,23.32,28.87,35.59,42.68C98.09,308,109.34,321,123.49,328.71Z"/>
    </clipPath>
    <clipPath id="clip-path-59">
      <path class="cls-1" d="M26.67,169.58a33.23,33.23,0,0,0,10.45-7l11.4,6.2a33.23,33.23,0,0,1-10.45,7Z"/>
    </clipPath>
    <clipPath id="clip-path-60">
      <path class="cls-1" d="M22.52,170.68a19,19,0,0,0,4.15-1.1l11.4,6.2a19,19,0,0,1-4.15,1.1Z"/>
    </clipPath>
    <clipPath id="clip-path-61">
      <path class="cls-1" d="M33.91,176.88a2.8,2.8,0,0,1-.65-.36l-1.37-.75L30.45,175l-3-1.62-2.92-1.59-2-1.1,11.4,6.2Z"/>
    </clipPath>
    <clipPath id="clip-path-62">
      <path class="cls-1" d="M20.52,170.77a9.81,9.81,0,0,0,2-.09L26.73,173l3,1.62,4.2,2.29a9.74,9.74,0,0,1-2,.09Z"/>
    </clipPath>
    <clipPath id="clip-path-63">
      <path class="cls-1" d="M20.41,170.77h.11L31.91,177H31.8Z"/>
    </clipPath>
    <clipPath id="clip-path-64">
      <path class="cls-1" d="M31.7,177l-11.39-6.2a3.43,3.43,0,0,1,2.23-.88,20.59,20.59,0,0,0,7.73-2.88c7.51-4.56,13.45-12.31,18.68-19.62,6-8.42,11.48-17.27,17.29-25.83,11.25-16.59,23-33,36.45-47.69,12.24-13.39,26.22-25.47,42.07-32.53a78.07,78.07,0,0,1,20.85-6c.86-.13,1.73-.23,2.59-.32a73.91,73.91,0,0,1,11.31-.28c3.77.2,7.59.68,11.44.14.58-.09,1.16-.19,1.73-.32,13.15-3,16.7-20.77,25.2-30.17,2-2.16,4.59-4,7.17-4.34l11.4,6.2c-2.58.36-5.23,2.18-7.18,4.34-8.49,9.4-12,27.2-25.19,30.17-.58.13-1.15.23-1.73.32-3.85.54-7.68.06-11.44-.14a73.85,73.85,0,0,0-11.31.28c-.87.09-1.73.19-2.59.32a77.77,77.77,0,0,0-20.86,6c-15.84,7.06-29.82,19.14-42.06,32.53-13.43,14.69-25.21,31.1-36.46,47.69-5.8,8.56-11.27,17.41-17.29,25.83-5.22,7.31-11.16,15.06-18.68,19.62a20.48,20.48,0,0,1-7.72,2.88A3.46,3.46,0,0,0,31.7,177Z"/>
    </clipPath>
    <clipPath id="clip-path-65">
      <path class="cls-1" d="M20.41,170.77a2.12,2.12,0,0,1,.21.11l1.38.75.24.13,1.83,1q3.87,2.1,7.73,4.21l-.32,0-11.4-6.2Z"/>
    </clipPath>
    <clipPath id="clip-path-66">
      <path class="cls-1" d="M29.69,193.66a162.21,162.21,0,0,1-15.8-15.89L25.28,184a163.44,163.44,0,0,0,15.81,15.89l-11.1-6C29.89,193.77,29.79,193.73,29.69,193.66Z"/>
    </clipPath>
    <clipPath id="clip-path-67">
      <path class="cls-1" d="M50.36,207,39,200.8c-9.88-5.38-18.12-14.18-25.56-22.47l11.39,6.2C32.24,192.82,40.49,201.62,50.36,207Z"/>
    </clipPath>
  </defs>
  <g>
    <g class="cls-2">
      <g class="cls-3">
        <g class="cls-3">
          <g class="cls-4">
            <g class="cls-3">
              <path d="M461.75,226.73l-11.39-6.2q.54-22,.38-43.83c-.19-27-1.09-53.85-2.93-80.52-1.56-22.66-3.7-45.3-7.63-67.31l11.39,6.2c3.94,22,6.08,44.65,7.64,67.31,1.84,26.67,2.73,53.54,2.92,80.52q.17,21.87-.38,43.83"/>
            </g>
          </g>
        </g>
        <g class="cls-3">
          <g class="cls-5">
            <g class="cls-3">
              <path class="cls-6" d="M461.75,226.73l-11.39-6.2c-7.06-17.6-15.28-34.67-26-49.6-7.87-10.9-17.4-21.74-29.09-28.1l11.4,6.2c11.69,6.36,21.22,17.2,29.08,28.1,10.76,14.92,19,32,26,49.6"/>
            </g>
          </g>
        </g>
        <g class="cls-3">
          <g class="cls-7">
            <g class="cls-3">
              <path d="M462.38,228.36,451,222.16c-5.78-12.72-11.51-25.3-18.37-37C423.49,169.44,412,154,396.92,144.7c-.75-.46-1.51-.9-2.29-1.32l11.39,6.2c.79.42,1.55.86,2.29,1.32,15.06,9.27,26.58,24.74,35.71,40.41,6.86,11.75,12.58,24.33,18.36,37.05"/>
            </g>
          </g>
        </g>
        <g class="cls-3">
          <g class="cls-8">
            <g class="cls-3">
              <path class="cls-9" d="M431.33,70.49l-11.39-6.2q3.12-4.46,6-9.07,3.92-6.31,7.43-12.87l11.4,6.2q-3.52,6.54-7.44,12.87-2.88,4.62-6,9.07"/>
              <path class="cls-10" d="M444.77,48.55l-11.4-6.2q3.58-6.65,6.81-13.48l11.39,6.2q-3.24,6.82-6.8,13.48"/>
            </g>
          </g>
        </g>
        <g class="cls-3">
          <g class="cls-11">
            <g class="cls-3">
              <path class="cls-12" d="M408.2,99.72l-11.4-6.2c4.86-6.93,10.69-13.07,15.95-19.65q3.74-4.66,7.19-9.58l11.39,6.2q-3.43,4.91-7.18,9.58c-5.27,6.58-11.09,12.72-15.95,19.65"/>
              <path class="cls-9" d="M431.33,70.49l-11.39-6.2q3.12-4.46,6-9.07,3.92-6.31,7.43-12.87l11.4,6.2q-3.52,6.54-7.44,12.87-2.88,4.62-6,9.07"/>
            </g>
          </g>
        </g>
        <g class="cls-3">
          <g class="cls-13">
            <g class="cls-3">
              <path class="cls-9" d="M405.78,103.7l-11.4-6.2a35.83,35.83,0,0,1,2.2-3.66l.22-.32,11.4,6.2L408,100a37.64,37.64,0,0,0-2.19,3.66"/>
              <path class="cls-12" d="M408.2,99.72l-11.4-6.2c4.86-6.93,10.69-13.07,15.95-19.65q3.74-4.66,7.19-9.58l11.39,6.2q-3.43,4.91-7.18,9.58c-5.27,6.58-11.09,12.72-15.95,19.65"/>
            </g>
          </g>
        </g>
        <g class="cls-3">
          <g class="cls-14">
            <g class="cls-3">
              <path class="cls-9" d="M402.12,110.15,390.73,104l.07-.11a38.24,38.24,0,0,0,2-3.43l11.4,6.2a38.24,38.24,0,0,1-2,3.43l-.08.11"/>
              <path class="cls-10" d="M404.24,106.61l-11.4-6.2c.52-1,1-1.94,1.54-2.91l11.4,6.2c-.52,1-1,2-1.54,2.91"/>
              <path class="cls-9" d="M405.78,103.7l-11.4-6.2a35.83,35.83,0,0,1,2.2-3.66l.22-.32,11.4,6.2L408,100a37.64,37.64,0,0,0-2.19,3.66"/>
            </g>
          </g>
        </g>
        <g class="cls-3">
          <g class="cls-15">
            <g class="cls-3">
              <path class="cls-16" d="M400.72,111.74l-11.39-6.2a9.69,9.69,0,0,0,.71-.72l11.4,6.2a8.15,8.15,0,0,1-.72.72"/>
              <path class="cls-12" d="M401.44,111l-11.4-6.2a10.15,10.15,0,0,0,.69-.87l11.39,6.2a10.07,10.07,0,0,1-.68.87"/>
              <path class="cls-9" d="M402.12,110.15,390.73,104l.07-.11a38.24,38.24,0,0,0,2-3.43l11.4,6.2a38.24,38.24,0,0,1-2,3.43l-.08.11"/>
            </g>
          </g>
        </g>
        <g class="cls-3">
          <g class="cls-17">
            <g class="cls-3">
              <path class="cls-16" d="M400.72,111.74l-11.39-6.2a9.69,9.69,0,0,0,.71-.72l11.4,6.2a8.15,8.15,0,0,1-.72.72"/>
            </g>
          </g>
        </g>
        <g class="cls-3">
          <g class="cls-18">
            <g class="cls-3">
              <path class="cls-19" d="M394.28,114.31l-11.4-6.2a14.5,14.5,0,0,0,4.31-1.16l11.39,6.2a14.35,14.35,0,0,1-4.3,1.16"/>
              <path class="cls-20" d="M398.58,113.15,387.19,107a9.43,9.43,0,0,0,1.28-.73l11.4,6.2a9,9,0,0,1-1.29.73"/>
              <path class="cls-21" d="M399.87,112.42l-11.4-6.2a9.16,9.16,0,0,0,.86-.68l11.39,6.2a7.91,7.91,0,0,1-.85.68"/>
              <path class="cls-16" d="M400.72,111.74l-11.39-6.2a9.69,9.69,0,0,0,.71-.72l11.4,6.2a8.15,8.15,0,0,1-.72.72"/>
            </g>
          </g>
        </g>
        <g class="cls-3">
          <g class="cls-22">
            <g class="cls-3">
              <path class="cls-19" d="M394.28,114.31l-11.4-6.2a14.5,14.5,0,0,0,4.31-1.16l11.39,6.2a14.35,14.35,0,0,1-4.3,1.16"/>
            </g>
          </g>
        </g>
        <g class="cls-3">
          <g class="cls-23">
            <g class="cls-3">
              <path class="cls-19" d="M394.28,114.31l-11.4-6.2a14.5,14.5,0,0,0,4.31-1.16l11.39,6.2a14.35,14.35,0,0,1-4.3,1.16"/>
            </g>
          </g>
        </g>
        <g class="cls-3">
          <g class="cls-24">
            <g class="cls-3">
              <path class="cls-19" d="M394.28,114.31l-11.4-6.2a14.5,14.5,0,0,0,4.31-1.16l11.39,6.2a14.35,14.35,0,0,1-4.3,1.16"/>
            </g>
          </g>
        </g>
        <g class="cls-3">
          <g class="cls-25">
            <g class="cls-3">
              <path class="cls-19" d="M369.36,113.44l-11.4-6.2a118.57,118.57,0,0,0,24.92.87l11.4,6.2a118.57,118.57,0,0,1-24.92-.87"/>
            </g>
          </g>
        </g>
        <g class="cls-3">
          <g class="cls-26">
            <g class="cls-3">
              <path d="M365.2,182.12l-11.4-6.2.07-.06,11.4,6.2-.07.06"/>
              <path d="M365.27,182.06l-11.4-6.2.17-.17,11.39,6.2-.16.17"/>
              <path d="M365.43,181.89,354,175.69l.14-.18,11.39,6.2a1.1,1.1,0,0,1-.14.18"/>
              <path d="M365.57,181.71l-11.39-6.2a1.37,1.37,0,0,0,.13-.2l11.39,6.2a1.37,1.37,0,0,1-.13.2"/>
              <path d="M365.7,181.51l-11.39-6.2a1.78,1.78,0,0,0,.12-.29l11.4,6.2a2.38,2.38,0,0,1-.13.29"/>
              <path d="M365.83,181.22l-11.4-6.2a3.77,3.77,0,0,0,.16-1.51c0-1.52-.09-3-.14-4.57q-.15-4.59-.28-9.18c-.1-3.58-.2-7.36,1.1-10.91l11.4,6.2c-1.31,3.55-1.2,7.33-1.1,10.91q.14,4.59.28,9.17c0,1.53.09,3.06.13,4.58a3.71,3.71,0,0,1-.15,1.51"/>
              <path d="M366.67,155.05l-11.4-6.2c.14-.38.3-.75.47-1.13s.23-.48.36-.71l11.39,6.2c-.12.23-.24.47-.35.71s-.33.75-.47,1.13"/>
              <path d="M367.49,153.21,356.1,147a12.53,12.53,0,0,1,.84-1.37l11.4,6.2a12.6,12.6,0,0,0-.85,1.37"/>
              <path d="M368.34,151.84l-11.4-6.2c.31-.44.64-.85,1-1.25l11.4,6.2a15,15,0,0,0-1,1.25"/>
              <path d="M369.32,150.59l-11.4-6.2q.58-.64,1.23-1.23l11.39,6.2c-.42.39-.83.8-1.22,1.23"/>
              <path d="M370.54,149.36l-11.39-6.2a17.83,17.83,0,0,1,1.68-1.33l11.4,6.2a18,18,0,0,0-1.69,1.33"/>
              <path d="M372.23,148l-11.4-6.2a20.27,20.27,0,0,1,2.82-1.61l11.39,6.2a20.17,20.17,0,0,0-2.81,1.61"/>
              <path d="M375,146.42l-11.39-6.2c.49-.23,1-.44,1.49-.64a29.74,29.74,0,0,1,6.56-1.69,34.48,34.48,0,0,1,13.49.88l11.4,6.2a34.53,34.53,0,0,0-13.5-.88,29.65,29.65,0,0,0-6.55,1.69c-.51.2-1,.41-1.5.64"/>
              <path d="M396.59,145l-11.4-6.2a38.65,38.65,0,0,1,5.41,1.83c.93.38,1.84.8,2.75,1.25l11.4,6.2q-1.37-.68-2.76-1.26a40.29,40.29,0,0,0-5.4-1.82"/>
              <path d="M404.75,148.05l-11.4-6.2c.64.31,1.27.64,1.89,1l11.4,6.2c-.63-.34-1.26-.67-1.89-1"/>
            </g>
          </g>
        </g>
        <g class="cls-3">
          <g class="cls-27">
            <g class="cls-3">
              <path class="cls-19" d="M369.36,113.44l-11.4-6.2a118.57,118.57,0,0,0,24.92.87l11.4,6.2a118.57,118.57,0,0,1-24.92-.87"/>
            </g>
          </g>
        </g>
        <g class="cls-3">
          <g class="cls-28">
            <g class="cls-3">
              <path class="cls-19" d="M369.36,113.44l-11.4-6.2a118.57,118.57,0,0,0,24.92.87l11.4,6.2a118.57,118.57,0,0,1-24.92-.87"/>
            </g>
          </g>
        </g>
        <g class="cls-3">
          <g class="cls-29">
            <g class="cls-3">
              <path d="M370.93,113.5l-11.4-6.2c4.5.18,9,.25,13.56.24,2.24,0,4.48,0,6.72-.05a35,35,0,0,0,4.19-.19,10.14,10.14,0,0,0,2.51-.67l.25-.11,11.39,6.2-.24.11a10.25,10.25,0,0,1-2.51.67,33.18,33.18,0,0,1-4.2.18q-3.34,0-6.72.06c-4.53,0-9.05-.06-13.55-.24"/>
              <path d="M398.15,112.72l-11.39-6.2a6.78,6.78,0,0,0,1.08-.63l11.4,6.2a6.88,6.88,0,0,1-1.09.63"/>
              <path d="M399.24,112.09l-11.4-6.2a8.57,8.57,0,0,0,.82-.64l11.4,6.19a7.31,7.31,0,0,1-.82.65"/>
              <path d="M400.06,111.44l-11.4-6.19a9.33,9.33,0,0,0,.76-.78l11.4,6.2a7.9,7.9,0,0,1-.76.77"/>
              <path d="M400.82,110.67l-11.4-6.2a10.86,10.86,0,0,0,.84-1.06l11.4,6.2a12.62,12.62,0,0,1-.84,1.06"/>
              <path d="M401.66,109.61l-11.4-6.2a24.65,24.65,0,0,0,1.28-2.11l11.39,6.2a22.25,22.25,0,0,1-1.27,2.11"/>
              <path d="M402.93,107.5l-11.39-6.2c.62-1.16,1.19-2.37,1.8-3.52l11.4,6.2c-.62,1.15-1.19,2.36-1.81,3.52"/>
              <path d="M404.74,104l-11.4-6.2c.19-.35.39-.7.59-1,.72-1.21,1.5-2.39,2.31-3.55l11.4,6.2c-.81,1.16-1.59,2.34-2.31,3.55-.21.34-.4.69-.59,1"/>
              <path d="M407.64,99.39l-11.4-6.2c1.11-1.58,2.29-3.12,3.49-4.62,5.17-6.51,10.73-12.63,15.76-19.26q2-2.62,3.88-5.32l11.4,6.2c-1.26,1.8-2.56,3.57-3.88,5.32-5,6.63-10.6,12.75-15.77,19.25-1.19,1.51-2.37,3-3.48,4.63"/>
              <path d="M430.77,70.19,419.37,64a217.81,217.81,0,0,0,13.47-22l11.4,6.2a217.81,217.81,0,0,1-13.47,22"/>
              <path d="M444.24,48.17,432.84,42c2.54-4.7,4.93-9.49,7.2-14.31l11.4,6.2c-2.28,4.82-4.67,9.61-7.2,14.31"/>
            </g>
          </g>
        </g>
        <g class="cls-3">
          <g class="cls-30">
            <g class="cls-3">
              <path class="cls-19" d="M369.36,113.44l-11.4-6.2a118.57,118.57,0,0,0,24.92.87l11.4,6.2a118.57,118.57,0,0,1-24.92-.87"/>
            </g>
          </g>
        </g>
        <g class="cls-3">
          <g class="cls-31">
            <g class="cls-3">
              <path d="M369.36,114.16,358,108c.26-.16.51-.32.76-.5l11.4,6.2c-.25.18-.51.34-.76.5"/>
              <path d="M370.12,113.66l-11.4-6.2a10.82,10.82,0,0,0,1.3-1l11.4,6.2a11.67,11.67,0,0,1-1.3,1"/>
              <path d="M371.42,112.64l-11.4-6.2a6.34,6.34,0,0,0,.69-.68l11.4,6.2a7.38,7.38,0,0,1-.69.68"/>
              <path d="M372.11,112l-11.4-6.2c.16-.19.32-.38.46-.58l11.39,6.2c-.14.2-.29.39-.45.58"/>
              <path d="M372.56,111.38l-11.39-6.2a4.86,4.86,0,0,0,.33-.54l11.4,6.2a4.93,4.93,0,0,1-.34.54"/>
              <path d="M372.9,110.84l-11.4-6.2a3.24,3.24,0,0,0,.27-.6l11.4,6.2a6.46,6.46,0,0,1-.27.6"/>
              <path d="M373.17,110.24l-11.4-6.2a4.11,4.11,0,0,0,.26-1.46,3.36,3.36,0,0,0-2-3.06l11.4,6.2a3.4,3.4,0,0,1,2,3.06,4.15,4.15,0,0,1-.26,1.46"/>
            </g>
          </g>
        </g>
        <g class="cls-3">
          <g class="cls-32">
            <g class="cls-3">
              <path class="cls-19" d="M369.36,113.44l-11.4-6.2a118.57,118.57,0,0,0,24.92.87l11.4,6.2a118.57,118.57,0,0,1-24.92-.87"/>
            </g>
          </g>
        </g>
        <g class="cls-3">
          <g class="cls-33">
            <g class="cls-3">
              <path class="cls-19" d="M333.33,108.65l-11.39-6.2a32.49,32.49,0,0,0,12.26,1,49.26,49.26,0,0,0,9.16-2.44,49.75,49.75,0,0,1,8.79-2.39,16.31,16.31,0,0,1,6,.16l.3.07,11.4,6.2-.31-.07a16.3,16.3,0,0,0-5.95-.16,50.22,50.22,0,0,0-8.79,2.39,48.85,48.85,0,0,1-9.16,2.44,32.49,32.49,0,0,1-12.26-1"/>
              <path class="cls-20" d="M369.8,105.08l-11.4-6.2a7.49,7.49,0,0,1,1.46.53l11.4,6.2a8,8,0,0,0-1.46-.53"/>
              <path class="cls-21" d="M371.26,105.61l-11.4-6.2.21.11,11.4,6.2-.21-.11"/>
            </g>
          </g>
        </g>
        <g class="cls-3">
          <g class="cls-34">
            <g class="cls-3">
              <path class="cls-19" d="M333.33,108.65l-11.39-6.2a32.49,32.49,0,0,0,12.26,1,49.26,49.26,0,0,0,9.16-2.44,49.75,49.75,0,0,1,8.79-2.39,16.31,16.31,0,0,1,6,.16l.3.07,11.4,6.2-.31-.07a16.3,16.3,0,0,0-5.95-.16,50.22,50.22,0,0,0-8.79,2.39,48.85,48.85,0,0,1-9.16,2.44,32.49,32.49,0,0,1-12.26-1"/>
            </g>
          </g>
        </g>
        <g class="cls-3">
          <g class="cls-35">
            <g class="cls-3">
              <path class="cls-19" d="M333.33,108.65l-11.39-6.2a32.49,32.49,0,0,0,12.26,1,49.26,49.26,0,0,0,9.16-2.44,49.75,49.75,0,0,1,8.79-2.39,16.31,16.31,0,0,1,6,.16l.3.07,11.4,6.2-.31-.07a16.3,16.3,0,0,0-5.95-.16,50.22,50.22,0,0,0-8.79,2.39,48.85,48.85,0,0,1-9.16,2.44,32.49,32.49,0,0,1-12.26-1"/>
            </g>
          </g>
        </g>
        <g class="cls-3">
          <g class="cls-36">
            <g class="cls-3">
              <path class="cls-19" d="M333.33,108.65l-11.39-6.2a32.49,32.49,0,0,0,12.26,1,49.26,49.26,0,0,0,9.16-2.44,49.75,49.75,0,0,1,8.79-2.39,16.31,16.31,0,0,1,6,.16l.3.07,11.4,6.2-.31-.07a16.3,16.3,0,0,0-5.95-.16,50.22,50.22,0,0,0-8.79,2.39,48.85,48.85,0,0,1-9.16,2.44,32.49,32.49,0,0,1-12.26-1"/>
            </g>
          </g>
        </g>
        <g class="cls-3">
          <g class="cls-37">
            <g class="cls-3">
              <path d="M261.71,235.23l-11.4-6.2q5.55-6.93,11.31-13.44l11.39,6.2q-5.76,6.53-11.3,13.44"/>
              <path d="M273,221.79l-11.39-6.2q8.36-9.47,17.24-18.13,4.13-4,8.38-7.85l11.4,6.2q-4.26,3.84-8.38,7.85c-5.94,5.78-11.67,11.82-17.25,18.13"/>
              <path d="M298.64,195.81l-11.4-6.2q2.64-2.37,5.32-4.66c2.79-2.37,5.74-5.09,8.86-7.26l11.4,6.2c-3.13,2.17-6.08,4.89-8.87,7.26q-2.68,2.29-5.31,4.66"/>
              <path d="M312.82,183.89l-11.4-6.2a29,29,0,0,1,4-2.34l11.39,6.2a28.93,28.93,0,0,0-4,2.34"/>
              <path d="M316.8,181.55l-11.39-6.2c.58-.27,1.17-.52,1.77-.73a11.36,11.36,0,0,1,2.27-.55c3.7-.53,7.2.76,10.78,1.33a91.21,91.21,0,0,0,15.36.89c5.63,0,11.28-.33,16.91-.41a11.15,11.15,0,0,0,1.3,0l11.4,6.2a11.08,11.08,0,0,1-1.3,0c-5.63.08-11.28.36-16.91.41a91.27,91.27,0,0,1-15.37-.89c-3.57-.57-7.07-1.86-10.78-1.33a11.27,11.27,0,0,0-2.26.55c-.6.21-1.19.46-1.78.73"/>
            </g>
          </g>
        </g>
        <g class="cls-3">
          <g class="cls-38">
            <g class="cls-3">
              <path class="cls-20" d="M283.38,89.91,272,83.71a136.5,136.5,0,0,0,16.46,6.6c7.78,2.64,15.44,5.41,23,8.48a83,83,0,0,0,10.47,3.66l11.39,6.2A83.42,83.42,0,0,1,322.87,105c-7.59-3.07-15.25-5.84-23-8.48a136.64,136.64,0,0,1-16.47-6.6"/>
            </g>
          </g>
        </g>
        <g class="cls-3">
          <g class="cls-39">
            <g class="cls-3">
              <path class="cls-20" d="M283.38,89.91,272,83.71a136.5,136.5,0,0,0,16.46,6.6c7.78,2.64,15.44,5.41,23,8.48a83,83,0,0,0,10.47,3.66l11.39,6.2A83.42,83.42,0,0,1,322.87,105c-7.59-3.07-15.25-5.84-23-8.48a136.64,136.64,0,0,1-16.47-6.6"/>
            </g>
          </g>
        </g>
        <g class="cls-3">
          <g class="cls-40">
            <g class="cls-3">
              <path class="cls-21" d="M280.33,88.33l-11.4-6.2c1,.55,2,1.07,3.06,1.58l11.39,6.2c-1-.51-2-1-3.05-1.58"/>
              <path class="cls-20" d="M283.38,89.91,272,83.71a136.5,136.5,0,0,0,16.46,6.6c7.78,2.64,15.44,5.41,23,8.48a83,83,0,0,0,10.47,3.66l11.39,6.2A83.42,83.42,0,0,1,322.87,105c-7.59-3.07-15.25-5.84-23-8.48a136.64,136.64,0,0,1-16.47-6.6"/>
            </g>
          </g>
        </g>
        <g class="cls-3">
          <g class="cls-41">
            <g class="cls-3">
              <path d="M280.73,87.7l-11.4-6.2c1,.54,2,1,3,1.55l11.4,6.2c-1-.5-2-1-3-1.55"/>
              <path d="M283.72,89.25l-11.4-6.2a134.17,134.17,0,0,0,15.77,6.35c8,2.74,15.9,5.56,23.72,8.73a82,82,0,0,0,10.1,3.51l11.4,6.2a82,82,0,0,1-10.1-3.51c-7.82-3.17-15.73-6-23.72-8.73a135.92,135.92,0,0,1-15.77-6.35"/>
              <path d="M333.31,107.84l-11.4-6.2a33.08,33.08,0,0,0,13,1,28.59,28.59,0,0,0,3.19-.64c4.45-1.18,9.52-3.48,14.33-4.16a14.72,14.72,0,0,1,5.78.2l11.39,6.2a14.67,14.67,0,0,0-5.77-.2c-4.81.67-9.88,3-14.33,4.16a28.59,28.59,0,0,1-3.19.64,33.25,33.25,0,0,1-13-1"/>
              <path d="M369.63,104.22,358.24,98a10.06,10.06,0,0,1,2,.74h0l11.4,6.2h0a9.92,9.92,0,0,0-2-.74"/>
              <path d="M371.65,105l-11.4-6.2.2.1,11.4,6.2-.2-.1"/>
            </g>
          </g>
        </g>
        <g class="cls-3">
          <g class="cls-42">
            <g class="cls-3">
              <path d="M123.67,328l-11.4-6.2c.61.33,1.22.65,1.84,1l11.4,6.2c-.62-.31-1.24-.63-1.84-1"/>
              <path d="M125.51,329l-11.4-6.2a44.39,44.39,0,0,0,6.61,2.63c.47.15,1,.28,1.42.4l11.4,6.2c-.48-.12-.95-.25-1.42-.4a44.39,44.39,0,0,1-6.61-2.63"/>
              <path d="M133.54,332l-11.4-6.2a29,29,0,0,0,11.36.76,26.65,26.65,0,0,0,3-.6,39.31,39.31,0,0,0,6.72-2.5l11.39,6.2a38.15,38.15,0,0,1-6.72,2.49,22.33,22.33,0,0,1-3,.6,28.83,28.83,0,0,1-11.36-.75"/>
              <path d="M154.59,329.67l-11.39-6.2a71.85,71.85,0,0,0,8.59-4.92c.74-.48,1.46-1,2.19-1.47l11.39,6.2c-.72.5-1.45,1-2.18,1.47a72,72,0,0,1-8.6,4.92"/>
              <path d="M165.37,323.28,154,317.08c13-9,24.6-21.12,37.58-30.11l11.4,6.2c-13,9-24.62,21.13-37.59,30.11"/>
              <path d="M203,293.17l-11.4-6.2A81.59,81.59,0,0,1,203.39,280l11.39,6.2A82,82,0,0,0,203,293.17"/>
              <path d="M214.78,286.24,203.39,280a57.08,57.08,0,0,1,5.66-2.34c8.44-3,17.07-5,25.27-8.84l11.4,6.2c-8.2,3.86-16.84,5.85-25.27,8.84a58.27,58.27,0,0,0-5.67,2.34"/>
              <path d="M245.72,275.06l-11.4-6.2a58.34,58.34,0,0,0,6.59-3.63c.55-.36,1.1-.72,1.64-1.1l11.39,6.2c-.54.38-1.08.74-1.63,1.1a60.13,60.13,0,0,1-6.59,3.63"/>
              <path d="M253.94,270.33l-11.39-6.2a62.36,62.36,0,0,0,6.26-4.95c.59-.53,1.23-1.07,1.86-1.64l11.4,6.2-1.86,1.64a62.48,62.48,0,0,1-6.27,4.95"/>
              <path d="M262.07,263.74l-11.4-6.2a27,27,0,0,0,2.15-2.13l11.4,6.2a28.81,28.81,0,0,1-2.15,2.13"/>
              <path d="M264.22,261.61l-11.4-6.2a10.77,10.77,0,0,0,.75-.92l.07-.09,11.4,6.2-.07.09c-.24.32-.49.62-.75.92"/>
              <path d="M265,260.6l-11.4-6.2c.1-.15.19-.29.27-.44l11.4,6.2c-.08.15-.17.29-.27.44"/>
              <path d="M265.31,260.16l-11.4-6.2a4.7,4.7,0,0,0,.25-.57l11.4,6.2a4.7,4.7,0,0,1-.25.57"/>
              <path d="M265.56,259.59l-11.4-6.2a11.57,11.57,0,0,0,.24-4.51A56.34,56.34,0,0,0,250.31,229l11.4,6.2a56.11,56.11,0,0,1,4.08,19.85,11.76,11.76,0,0,1-.23,4.51"/>
            </g>
          </g>
        </g>
        <g class="cls-3">
          <g class="cls-43">
            <g class="cls-3">
              <path class="cls-6" d="M123.67,328l-11.4-6.2c-7.93-4.31-14.85-10.72-21.21-17.06-18.9-18.87-35.47-40.35-52.54-61.14q-6.35-7.74-12.8-15.35c-4.06-4.75-8.91-9.17-12.18-14.66a19,19,0,0,1-2.83-9.52,11.31,11.31,0,0,1,.54-4.06l11.4,6.2a11.32,11.32,0,0,0-.55,4.06,19.18,19.18,0,0,0,2.84,9.52c3.26,5.49,8.11,9.91,12.17,14.66q6.48,7.6,12.81,15.34C67,270.61,83.55,292.09,102.46,311c6.36,6.34,13.27,12.75,21.21,17.06"/>
            </g>
          </g>
        </g>
        <g class="cls-3">
          <g class="cls-44">
            <g class="cls-3">
              <path class="cls-6" d="M123.67,328l-11.4-6.2c-7.93-4.31-14.85-10.72-21.21-17.06-18.9-18.87-35.47-40.35-52.54-61.14q-6.35-7.74-12.8-15.35c-4.06-4.75-8.91-9.17-12.18-14.66a19,19,0,0,1-2.83-9.52,11.31,11.31,0,0,1,.54-4.06l11.4,6.2a11.32,11.32,0,0,0-.55,4.06,19.18,19.18,0,0,0,2.84,9.52c3.26,5.49,8.11,9.91,12.17,14.66q6.48,7.6,12.81,15.34C67,270.61,83.55,292.09,102.46,311c6.36,6.34,13.27,12.75,21.21,17.06"/>
            </g>
          </g>
        </g>
        <g class="cls-3">
          <g class="cls-45">
            <g class="cls-3">
              <path d="M280.33,88.33l-11.4-6.2c-1-.55-2-1.11-3-1.71-10.78-6.52-18.85-17.41-24-29.56a81.54,81.54,0,0,1-5.9-22c-.91-7.54-1-15.73-3.92-22.5a9.88,9.88,0,0,0-3.9-4.9l11.39,6.2a9.82,9.82,0,0,1,3.9,4.9c3,6.77,3,15,3.93,22.5a80.82,80.82,0,0,0,5.9,22.05c5.19,12.15,13.26,23,24,29.56,1,.6,2,1.16,3,1.71"/>
            </g>
          </g>
        </g>
        <g class="cls-3">
          <g class="cls-46">
            <g class="cls-3">
              <path d="M236.45,6.27,225.05.07a5.75,5.75,0,0,1,2.34.11l11.4,6.2a5.76,5.76,0,0,0-2.34-.11"/>
              <path d="M238.79,6.38,227.39.18a4.83,4.83,0,0,1,1,.38l11.4,6.2a4.83,4.83,0,0,0-1-.38"/>
              <path d="M239.81,6.76,228.41.56a1.24,1.24,0,0,1,.2.1L240,6.86l-.2-.1"/>
            </g>
          </g>
        </g>
        <g class="cls-3">
          <g class="cls-47">
            <g class="cls-3">
              <path class="cls-19" d="M235.63,7.13,224.23.93A6.81,6.81,0,0,1,227,1l11.39,6.2a6.75,6.75,0,0,0-2.72-.11"/>
              <path class="cls-20" d="M238.35,7.24,227,1a5.79,5.79,0,0,1,1.1.41l11.4,6.2a5.88,5.88,0,0,0-1.11-.41"/>
              <path class="cls-21" d="M239.46,7.65l-11.4-6.2.21.11,11.4,6.2-.21-.11"/>
            </g>
          </g>
        </g>
        <g class="cls-3">
          <g class="cls-48">
            <g class="cls-3">
              <path class="cls-19" d="M235.63,7.13,224.23.93A6.81,6.81,0,0,1,227,1l11.39,6.2a6.75,6.75,0,0,0-2.72-.11"/>
            </g>
          </g>
        </g>
        <g class="cls-3">
          <g class="cls-49">
            <g class="cls-3">
              <path class="cls-12" d="M227.08,14.44l-11.4-6.2a34,34,0,0,1,2.19-2.84l.25-.3,11.4,6.2-.26.3c-.77.9-1.49,1.85-2.18,2.84"/>
              <path class="cls-16" d="M229.52,11.3l-11.4-6.2a20.4,20.4,0,0,1,1.6-1.62l11.4,6.2a17.48,17.48,0,0,0-1.6,1.62"/>
              <path class="cls-21" d="M231.12,9.68l-11.4-6.2a13.47,13.47,0,0,1,1.4-1.12l11.4,6.2a12.49,12.49,0,0,0-1.4,1.12"/>
              <path class="cls-20" d="M232.52,8.56l-11.4-6.2a10.53,10.53,0,0,1,1.48-.86L234,7.7a9.9,9.9,0,0,0-1.47.86"/>
              <path class="cls-19" d="M234,7.7,222.6,1.5a8.09,8.09,0,0,1,1.63-.57l11.4,6.2A8.18,8.18,0,0,0,234,7.7"/>
            </g>
          </g>
        </g>
        <g class="cls-3">
          <g class="cls-50">
            <g class="cls-3">
              <path class="cls-9" d="M216.37,32.22,205,26c1.06-1.52,2-3.11,3-4.66,2.58-4.3,4.84-9,7.74-13.12l11.4,6.2c-2.9,4.13-5.17,8.81-7.74,13.12-.93,1.55-1.91,3.14-3,4.66"/>
              <path class="cls-12" d="M227.08,14.44l-11.4-6.2a34,34,0,0,1,2.19-2.84l.25-.3,11.4,6.2-.26.3c-.77.9-1.49,1.85-2.18,2.84"/>
            </g>
          </g>
        </g>
        <g class="cls-3">
          <g class="cls-51">
            <g class="cls-3">
              <path class="cls-20" d="M207.64,40.3l-11.39-6.2.46-.22a16.47,16.47,0,0,0,1.85-1.11L210,39a17.41,17.41,0,0,1-1.85,1.11l-.47.22"/>
              <path class="cls-21" d="M210,39l-11.4-6.2a18.56,18.56,0,0,0,1.92-1.52l11.39,6.2A19.58,19.58,0,0,1,210,39"/>
              <path class="cls-16" d="M211.87,37.45l-11.39-6.2a25.21,25.21,0,0,0,2-2l11.4,6.2a23.73,23.73,0,0,1-2,2"/>
              <path class="cls-12" d="M213.86,35.43l-11.4-6.2A37.8,37.8,0,0,0,205,26l11.4,6.2a37.8,37.8,0,0,1-2.51,3.21"/>
              <path class="cls-9" d="M216.37,32.22,205,26c1.06-1.52,2-3.11,3-4.66,2.58-4.3,4.84-9,7.74-13.12l11.4,6.2c-2.9,4.13-5.17,8.81-7.74,13.12-.93,1.55-1.91,3.14-3,4.66"/>
            </g>
          </g>
        </g>
        <g class="cls-3">
          <g class="cls-52">
            <g class="cls-3">
              <path class="cls-19" d="M154.41,49.24,143,43a79.64,79.64,0,0,1,22.87-7,67.83,67.83,0,0,1,7.38-.64c5.53-.18,11.58,1.13,17.36.32a19.26,19.26,0,0,0,5.63-1.64l11.39,6.2A19.2,19.2,0,0,1,202,41.94c-5.79.81-11.83-.5-17.36-.32a67.62,67.62,0,0,0-7.38.64,79.64,79.64,0,0,0-22.87,7"/>
              <path class="cls-20" d="M207.64,40.3l-11.39-6.2.46-.22a16.47,16.47,0,0,0,1.85-1.11L210,39a17.41,17.41,0,0,1-1.85,1.11l-.47.22"/>
            </g>
          </g>
        </g>
        <g class="cls-3">
          <g class="cls-53">
            <g class="cls-3">
              <path class="cls-19" d="M154.41,49.24,143,43a79.64,79.64,0,0,1,22.87-7,67.83,67.83,0,0,1,7.38-.64c5.53-.18,11.58,1.13,17.36.32a19.26,19.26,0,0,0,5.63-1.64l11.39,6.2A19.2,19.2,0,0,1,202,41.94c-5.79.81-11.83-.5-17.36-.32a67.62,67.62,0,0,0-7.38.64,79.64,79.64,0,0,0-22.87,7"/>
            </g>
          </g>
        </g>
        <g class="cls-3">
          <g class="cls-54">
            <g class="cls-3">
              <path class="cls-19" d="M154.41,49.24,143,43a79.64,79.64,0,0,1,22.87-7,67.83,67.83,0,0,1,7.38-.64c5.53-.18,11.58,1.13,17.36.32a19.26,19.26,0,0,0,5.63-1.64l11.39,6.2A19.2,19.2,0,0,1,202,41.94c-5.79.81-11.83-.5-17.36-.32a67.62,67.62,0,0,0-7.38.64,79.64,79.64,0,0,0-22.87,7"/>
            </g>
          </g>
        </g>
        <g class="cls-3">
          <g class="cls-55">
            <g class="cls-3">
              <path class="cls-6" d="M123.67,328l-11.4-6.2c-7.93-4.31-14.85-10.72-21.21-17.06-18.9-18.87-35.47-40.35-52.54-61.14q-6.35-7.74-12.8-15.35c-4.06-4.75-8.91-9.17-12.18-14.66a19,19,0,0,1-2.83-9.52,11.31,11.31,0,0,1,.54-4.06l11.4,6.2a11.32,11.32,0,0,0-.55,4.06,19.18,19.18,0,0,0,2.84,9.52c3.26,5.49,8.11,9.91,12.17,14.66q6.48,7.6,12.81,15.34C67,270.61,83.55,292.09,102.46,311c6.36,6.34,13.27,12.75,21.21,17.06"/>
            </g>
          </g>
        </g>
        <g class="cls-3">
          <g class="cls-56">
            <g class="cls-3">
              <path class="cls-21" d="M127.37,67.77,116,61.57c3.29-3,6.69-5.77,10.22-8.39,1-.71,1.93-1.41,2.91-2.08l11.39,6.2c-1,.67-2,1.37-2.91,2.08-3.52,2.62-6.92,5.43-10.21,8.39"/>
              <path class="cls-20" d="M140.49,57.3,129.1,51.1A97,97,0,0,1,143,43l11.4,6.2a97.11,97.11,0,0,0-13.92,8.06"/>
              <path class="cls-19" d="M154.41,49.24,143,43a79.64,79.64,0,0,1,22.87-7,67.83,67.83,0,0,1,7.38-.64c5.53-.18,11.58,1.13,17.36.32a19.26,19.26,0,0,0,5.63-1.64l11.39,6.2A19.2,19.2,0,0,1,202,41.94c-5.79.81-11.83-.5-17.36-.32a67.62,67.62,0,0,0-7.38.64,79.64,79.64,0,0,0-22.87,7"/>
            </g>
          </g>
        </g>
        <g class="cls-3">
          <g class="cls-57">
            <g class="cls-3">
              <path class="cls-6" d="M123.67,328l-11.4-6.2c-7.93-4.31-14.85-10.72-21.21-17.06-18.9-18.87-35.47-40.35-52.54-61.14q-6.35-7.74-12.8-15.35c-4.06-4.75-8.91-9.17-12.18-14.66a19,19,0,0,1-2.83-9.52,11.31,11.31,0,0,1,.54-4.06l11.4,6.2a11.32,11.32,0,0,0-.55,4.06,19.18,19.18,0,0,0,2.84,9.52c3.26,5.49,8.11,9.91,12.17,14.66q6.48,7.6,12.81,15.34C67,270.61,83.55,292.09,102.46,311c6.36,6.34,13.27,12.75,21.21,17.06"/>
            </g>
          </g>
        </g>
        <g class="cls-3">
          <g class="cls-58">
            <g class="cls-3">
              <path class="cls-19" d="M24.2,204.34l-11.4-6.2a2.84,2.84,0,0,1,.86-.25,10.15,10.15,0,0,1,3.58.5q10.35,2.52,20.89,4.49c3.39.63,6.81,1.2,10.24,1.73l11.4,6.2c-3.43-.53-6.85-1.1-10.24-1.73q-10.53-2-20.9-4.49a10.08,10.08,0,0,0-3.58-.5,2.86,2.86,0,0,0-.85.25"/>
            </g>
          </g>
        </g>
        <g class="cls-3">
          <g class="cls-59">
            <g class="cls-3">
              <path d="M50.57,206.29l-11.39-6.2c.58.32,1.17.62,1.77.92l11.4,6.19c-.6-.29-1.19-.59-1.78-.91"/>
              <path d="M52.35,207.2,41,201a42.21,42.21,0,0,0,7.6,2.89l11.39,6.2a41.69,41.69,0,0,1-7.59-2.9"/>
            </g>
          </g>
        </g>
        <g class="cls-3">
          <g class="cls-60">
            <g class="cls-3">
              <path class="cls-12" d="M86.09,116.79l-11.4-6.2c4.4-6.26,8.91-12.44,13.61-18.48,3.91-5,8-10,12.17-14.75l11.4,6.2c-4.22,4.77-8.26,9.73-12.17,14.75-4.71,6-9.22,12.22-13.61,18.48"/>
              <path class="cls-16" d="M111.87,83.56l-11.4-6.2A192.7,192.7,0,0,1,116,61.57l11.4,6.2a192.7,192.7,0,0,0-15.5,15.79"/>
              <path class="cls-21" d="M127.37,67.77,116,61.57c3.29-3,6.69-5.77,10.22-8.39,1-.71,1.93-1.41,2.91-2.08l11.39,6.2c-1,.67-2,1.37-2.91,2.08-3.52,2.62-6.92,5.43-10.21,8.39"/>
            </g>
          </g>
        </g>
        <g class="cls-3">
          <g class="cls-61">
            <g class="cls-3">
              <path class="cls-6" d="M52,207.43l-11.39-6.2c-10.34-5.62-18.95-14.85-26.68-23.46L25.28,184C33,192.58,41.63,201.81,52,207.43"/>
            </g>
          </g>
        </g>
        <g class="cls-3">
          <g class="cls-62">
            <g class="cls-3">
              <path class="cls-9" d="M61.29,153.45l-11.39-6.2c1.34-1.91,2.65-3.85,3.94-5.78,6.9-10.34,13.73-20.72,20.85-30.88l11.4,6.2C79,127,72.13,137.33,65.23,147.67c-1.28,1.93-2.59,3.87-3.94,5.78"/>
              <path class="cls-12" d="M86.09,116.79l-11.4-6.2c4.4-6.26,8.91-12.44,13.61-18.48,3.91-5,8-10,12.17-14.75l11.4,6.2c-4.22,4.77-8.26,9.73-12.17,14.75-4.71,6-9.22,12.22-13.61,18.48"/>
            </g>
          </g>
        </g>
        <g class="cls-3">
          <g class="cls-63">
            <g class="cls-3">
              <path class="cls-16" d="M47.68,169.54l-11.4-6.2c.29-.25.57-.51.84-.77,1.6-1.5,3.12-3.1,4.58-4.75L53.1,164c-1.46,1.65-3,3.25-4.58,4.75l-.84.77"/>
              <path class="cls-12" d="M53.1,164l-11.4-6.2a121.13,121.13,0,0,0,8.2-10.57l11.39,6.2A119.12,119.12,0,0,1,53.1,164"/>
              <path class="cls-9" d="M61.29,153.45l-11.39-6.2c1.34-1.91,2.65-3.85,3.94-5.78,6.9-10.34,13.73-20.72,20.85-30.88l11.4,6.2C79,127,72.13,137.33,65.23,147.67c-1.28,1.93-2.59,3.87-3.94,5.78"/>
            </g>
          </g>
        </g>
        <g class="cls-3">
          <g class="cls-64">
            <g class="cls-3">
              <path class="cls-19" d="M24.2,204.34l-11.4-6.2a2.84,2.84,0,0,1,.86-.25,10.15,10.15,0,0,1,3.58.5q10.35,2.52,20.89,4.49c3.39.63,6.81,1.2,10.24,1.73l11.4,6.2c-3.43-.53-6.85-1.1-10.24-1.73q-10.53-2-20.9-4.49a10.08,10.08,0,0,0-3.58-.5,2.86,2.86,0,0,0-.85.25"/>
            </g>
          </g>
        </g>
        <g class="cls-3">
          <g class="cls-65">
            <g class="cls-3">
              <path class="cls-6" d="M123.67,328l-11.4-6.2c-7.93-4.31-14.85-10.72-21.21-17.06-18.9-18.87-35.47-40.35-52.54-61.14q-6.35-7.74-12.8-15.35c-4.06-4.75-8.91-9.17-12.18-14.66a19,19,0,0,1-2.83-9.52,11.31,11.31,0,0,1,.54-4.06l11.4,6.2a11.32,11.32,0,0,0-.55,4.06,19.18,19.18,0,0,0,2.84,9.52c3.26,5.49,8.11,9.91,12.17,14.66q6.48,7.6,12.81,15.34C67,270.61,83.55,292.09,102.46,311c6.36,6.34,13.27,12.75,21.21,17.06"/>
            </g>
          </g>
        </g>
        <g class="cls-3">
          <g class="cls-66">
            <g class="cls-3">
              <path class="cls-19" d="M24.2,204.34l-11.4-6.2a2.84,2.84,0,0,1,.86-.25,10.15,10.15,0,0,1,3.58.5q10.35,2.52,20.89,4.49c3.39.63,6.81,1.2,10.24,1.73l11.4,6.2c-3.43-.53-6.85-1.1-10.24-1.73q-10.53-2-20.9-4.49a10.08,10.08,0,0,0-3.58-.5,2.86,2.86,0,0,0-.85.25"/>
            </g>
          </g>
        </g>
        <g class="cls-3">
          <g class="cls-67">
            <g class="cls-3">
              <path class="cls-6" d="M123.67,328l-11.4-6.2c-7.93-4.31-14.85-10.72-21.21-17.06-18.9-18.87-35.47-40.35-52.54-61.14q-6.35-7.74-12.8-15.35c-4.06-4.75-8.91-9.17-12.18-14.66a19,19,0,0,1-2.83-9.52,11.31,11.31,0,0,1,.54-4.06l11.4,6.2a11.32,11.32,0,0,0-.55,4.06,19.18,19.18,0,0,0,2.84,9.52c3.26,5.49,8.11,9.91,12.17,14.66q6.48,7.6,12.81,15.34C67,270.61,83.55,292.09,102.46,311c6.36,6.34,13.27,12.75,21.21,17.06"/>
              <path class="cls-10" d="M22.65,206.23,11.25,200l.11-.29c.06-.12.11-.24.17-.35l11.4,6.2a3.78,3.78,0,0,0-.17.35c0,.1-.08.19-.11.29"/>
            </g>
          </g>
        </g>
        <g class="cls-3">
          <g class="cls-68">
            <g class="cls-3">
              <path class="cls-10" d="M22.65,206.23,11.25,200l.11-.29c.06-.12.11-.24.17-.35l11.4,6.2a3.78,3.78,0,0,0-.17.35c0,.1-.08.19-.11.29"/>
              <path class="cls-9" d="M22.93,205.59l-11.4-6.2a3,3,0,0,1,.22-.35l11.4,6.2a3,3,0,0,0-.22.35"/>
              <path class="cls-12" d="M23.15,205.24,11.75,199a2.78,2.78,0,0,1,.21-.27L23.35,205a2.69,2.69,0,0,0-.2.27"/>
              <path class="cls-16" d="M23.35,205,12,198.77a2.28,2.28,0,0,1,.22-.22l11.39,6.2c-.07.07-.15.14-.22.22"/>
              <path class="cls-21" d="M23.57,204.75l-11.39-6.2.26-.2,11.39,6.2-.26.2"/>
              <path class="cls-20" d="M23.83,204.55l-11.39-6.2a2.6,2.6,0,0,1,.36-.21l11.4,6.2a2.71,2.71,0,0,0-.37.21"/>
              <path class="cls-19" d="M24.2,204.34l-11.4-6.2a2.84,2.84,0,0,1,.86-.25,10.15,10.15,0,0,1,3.58.5q10.35,2.52,20.89,4.49c3.39.63,6.81,1.2,10.24,1.73l11.4,6.2c-3.43-.53-6.85-1.1-10.24-1.73q-10.53-2-20.9-4.49a10.08,10.08,0,0,0-3.58-.5,2.86,2.86,0,0,0-.85.25"/>
            </g>
          </g>
        </g>
        <g class="cls-3">
          <g class="cls-69">
            <g class="cls-3">
              <path d="M123.49,328.71l-11.4-6.2c-14.15-7.69-25.4-20.74-36.15-32.83C63.67,275.87,52.09,261.35,40.35,247c-5.73-7-11.51-14-17.42-20.83-4.85-5.63-11.45-11.15-12.68-19.48a14.58,14.58,0,0,1,.32-6.79L22,206.1a14.46,14.46,0,0,0-.33,6.79c1.24,8.33,7.84,13.85,12.69,19.48,5.91,6.84,11.68,13.82,17.42,20.83,11.74,14.35,23.32,28.87,35.59,42.68,10.75,12.09,22,25.14,36.15,32.83"/>
              <path d="M22,206.1l-11.4-6.2A6.92,6.92,0,0,1,11,199l11.4,6.2a6.92,6.92,0,0,0-.39.88"/>
              <path d="M22.36,205.22,11,199a5.09,5.09,0,0,1,.3-.5l.06-.08,11.39,6.2a.56.56,0,0,1-.05.08,5.09,5.09,0,0,0-.3.5"/>
              <path d="M22.71,204.64l-11.39-6.2c.08-.12.17-.23.26-.34L23,204.3l-.27.34"/>
              <path d="M23,204.3l-11.4-6.2.28-.28,11.4,6.2a3.7,3.7,0,0,0-.28.28"/>
              <path d="M23.26,204l-11.4-6.2.33-.26,11.39,6.2-.32.26"/>
              <path d="M23.58,203.76l-11.39-6.2a4,4,0,0,1,.45-.26L24,203.5a4.17,4.17,0,0,0-.46.26"/>
              <path d="M24,203.5l-11.4-6.2a3.89,3.89,0,0,1,1.06-.3,7.76,7.76,0,0,1,2.92.28L28,203.48a7.75,7.75,0,0,0-2.92-.28,3.51,3.51,0,0,0-1.05.3"/>
              <path d="M28,203.48l-11.39-6.2c1.13.3,2.22.71,3.08.94l11.39,6.2c-.85-.23-1.94-.64-3.08-.94"/>
              <path d="M31.09,204.42l-11.39-6.2.18,0c8,1.88,16,3.53,24.11,4.9l11.4,6.2c-8.12-1.37-16.15-3-24.11-4.9l-.19,0"/>
            </g>
          </g>
        </g>
        <g class="cls-3">
          <g class="cls-70">
            <g class="cls-3">
              <path class="cls-19" d="M31.48,176.94l-11.4-6.2a10.12,10.12,0,0,0,2.44-.06,20,20,0,0,0,5.67-1.75l11.4,6.2a20.12,20.12,0,0,1-5.67,1.75,10.12,10.12,0,0,1-2.44.06"/>
              <path class="cls-20" d="M39.59,175.13l-11.4-6.2a28,28,0,0,0,4-2.36l11.4,6.2a29.1,29.1,0,0,1-4,2.36"/>
              <path class="cls-21" d="M43.63,172.77l-11.4-6.2a38.74,38.74,0,0,0,4.05-3.23l11.4,6.2a40.94,40.94,0,0,1-4,3.23"/>
              <path class="cls-16" d="M47.68,169.54l-11.4-6.2c.29-.25.57-.51.84-.77,1.6-1.5,3.12-3.1,4.58-4.75L53.1,164c-1.46,1.65-3,3.25-4.58,4.75l-.84.77"/>
            </g>
          </g>
        </g>
        <g class="cls-3">
          <g class="cls-71">
            <g class="cls-3">
              <path class="cls-19" d="M31.48,176.94l-11.4-6.2a10.12,10.12,0,0,0,2.44-.06,20,20,0,0,0,5.67-1.75l11.4,6.2a20.12,20.12,0,0,1-5.67,1.75,10.12,10.12,0,0,1-2.44.06"/>
            </g>
          </g>
        </g>
        <g class="cls-3">
          <g class="cls-72">
            <g class="cls-3">
              <path class="cls-19" d="M31.48,176.94l-11.4-6.2a10.12,10.12,0,0,0,2.44-.06,20,20,0,0,0,5.67-1.75l11.4,6.2a20.12,20.12,0,0,1-5.67,1.75,10.12,10.12,0,0,1-2.44.06"/>
            </g>
          </g>
        </g>
        <g class="cls-3">
          <g class="cls-73">
            <g class="cls-3">
              <path class="cls-19" d="M31.48,176.94l-11.4-6.2a10.12,10.12,0,0,0,2.44-.06,20,20,0,0,0,5.67-1.75l11.4,6.2a20.12,20.12,0,0,1-5.67,1.75,10.12,10.12,0,0,1-2.44.06"/>
            </g>
          </g>
        </g>
        <g class="cls-3">
          <g class="cls-74">
            <g class="cls-3">
              <path class="cls-19" d="M31.48,176.94l-11.4-6.2a10.12,10.12,0,0,0,2.44-.06,20,20,0,0,0,5.67-1.75l11.4,6.2a20.12,20.12,0,0,1-5.67,1.75,10.12,10.12,0,0,1-2.44.06"/>
            </g>
          </g>
        </g>
        <g class="cls-3">
          <g class="cls-75">
            <g class="cls-3">
              <path d="M31.7,177l-11.39-6.2.08-.08L31.78,177a.6.6,0,0,1-.08.08"/>
              <path d="M31.78,177l-11.39-6.2a2.64,2.64,0,0,1,.29-.23l11.4,6.2a2,2,0,0,0-.3.23"/>
              <path d="M32.08,176.73l-11.4-6.2a4,4,0,0,1,.39-.23l11.4,6.2a2.65,2.65,0,0,0-.39.23"/>
              <path d="M32.47,176.5l-11.4-6.2a4.9,4.9,0,0,1,1.47-.34,19.32,19.32,0,0,0,5.52-1.69l11.39,6.2a19.26,19.26,0,0,1-5.51,1.69,4.61,4.61,0,0,0-1.47.34"/>
              <path d="M39.45,174.47l-11.39-6.2a25,25,0,0,0,2.21-1.19c.58-.36,1.16-.73,1.73-1.13l11.39,6.2c-.56.4-1.14.77-1.73,1.13a22.49,22.49,0,0,1-2.21,1.19"/>
              <path d="M43.39,172.15,32,166a40.29,40.29,0,0,0,4.15-3.3l11.39,6.2a39.24,39.24,0,0,1-4.15,3.3"/>
              <path d="M47.54,168.85l-11.39-6.2a57.66,57.66,0,0,0,4.77-4.86l11.4,6.2a57.77,57.77,0,0,1-4.78,4.86"/>
              <path d="M52.32,164l-11.4-6.2c2.9-3.29,5.54-6.86,8-10.33l1.23-1.74,11.4,6.2-1.24,1.74a129,129,0,0,1-8,10.33"/>
              <path d="M61.58,151.92l-11.4-6.2c5.53-7.89,10.65-16.12,16.06-24.09q3.66-5.4,7.4-10.75l11.4,6.2q-3.75,5.34-7.41,10.75c-5.4,8-10.52,16.2-16,24.09"/>
              <path d="M85,117.08l-11.4-6.2a382.54,382.54,0,0,1,26.1-33.66l11.4,6.2A382.54,382.54,0,0,0,85,117.08"/>
              <path d="M111.14,83.42l-11.4-6.2c1-1.1,2-2.2,3-3.28,4.12-4.51,8.43-8.86,13-12.93l11.4,6.2c-4.52,4.07-8.83,8.42-13,12.93-1,1.08-2,2.18-3,3.28"/>
              <path d="M127,67.21,115.64,61A133.12,133.12,0,0,1,129,50.37l11.4,6.2A133.12,133.12,0,0,0,127,67.21"/>
              <path d="M140.4,56.57,129,50.37a97.77,97.77,0,0,1,14.09-8.19l11.39,6.2a98.21,98.21,0,0,0-14.08,8.19"/>
              <path d="M154.48,48.38l-11.39-6.2,1.67-.77a78.07,78.07,0,0,1,20.85-6c.86-.13,1.73-.23,2.59-.32a73.91,73.91,0,0,1,11.31-.28c3.77.2,7.59.68,11.44.14.58-.09,1.16-.19,1.73-.32A15.75,15.75,0,0,0,196,33.46l11.39,6.2a15.67,15.67,0,0,1-3.26,1.12c-.58.13-1.15.23-1.73.32-3.85.54-7.68.06-11.44-.14a73.85,73.85,0,0,0-11.31.28c-.87.09-1.73.19-2.59.32a77.77,77.77,0,0,0-20.86,6l-1.67.77"/>
              <path d="M207.34,39.66,196,33.46A16.71,16.71,0,0,0,198.41,32l11.4,6.2a16.31,16.31,0,0,1-2.47,1.42"/>
              <path d="M209.81,38.24,198.41,32a20.11,20.11,0,0,0,2-1.58l11.4,6.2a20.11,20.11,0,0,1-2,1.58"/>
              <path d="M211.81,36.66l-11.4-6.2a25.07,25.07,0,0,0,2-2l11.4,6.2a26.88,26.88,0,0,1-2,2"/>
              <path d="M213.79,34.65l-11.4-6.2a35.15,35.15,0,0,0,2.39-3.06l11.39,6.2a34.64,34.64,0,0,1-2.38,3.06"/>
              <path d="M216.17,31.59l-11.39-6.2c3.87-5.52,6.81-12.42,10.61-17.82l11.39,6.2c-3.79,5.4-6.73,12.3-10.61,17.82"/>
              <path d="M226.78,13.77l-11.39-6.2a31.92,31.92,0,0,1,2.27-2.92l11.39,6.2a33.78,33.78,0,0,0-2.27,2.92"/>
              <path d="M229.05,10.85l-11.39-6.2.22-.24c.39-.43.81-.85,1.25-1.25l11.39,6.2c-.44.4-.86.82-1.25,1.25l-.22.24"/>
              <path d="M230.52,9.36l-11.39-6.2a15.76,15.76,0,0,1,1.58-1.25l11.39,6.2a17,17,0,0,0-1.58,1.25"/>
              <path d="M232.1,8.11l-11.39-6.2A11.87,11.87,0,0,1,222.52.85l11.4,6.2a12.47,12.47,0,0,0-1.82,1.06"/>
              <path d="M233.92,7.05,222.52.85a8.78,8.78,0,0,1,2.53-.78l11.4,6.2a8.59,8.59,0,0,0-2.53.78"/>
            </g>
          </g>
        </g>
        <g class="cls-3">
          <g class="cls-76">
            <g class="cls-3">
              <path class="cls-19" d="M31.48,176.94l-11.4-6.2a10.12,10.12,0,0,0,2.44-.06,20,20,0,0,0,5.67-1.75l11.4,6.2a20.12,20.12,0,0,1-5.67,1.75,10.12,10.12,0,0,1-2.44.06"/>
            </g>
          </g>
        </g>
        <g class="cls-3">
          <g class="cls-77">
            <g class="cls-3">
              <path class="cls-6" d="M52,207.43l-11.39-6.2c-10.34-5.62-18.95-14.85-26.68-23.46L25.28,184C33,192.58,41.63,201.81,52,207.43"/>
            </g>
          </g>
        </g>
        <polygon class="cls-20" points="25.28 183.97 13.89 177.77 20.08 170.74 31.48 176.94 25.28 183.97"/>
        <g class="cls-3">
          <g class="cls-78">
            <g class="cls-3">
              <path d="M50.36,207,39,200.8c-9.88-5.38-18.12-14.18-25.56-22.47l11.39,6.2c7.44,8.29,15.69,17.09,25.56,22.47"/>
            </g>
          </g>
        </g>
        <path d="M236.45,6.27a5.55,5.55,0,0,1,4.36,1.12c4.63,3.63,5.51,11.83,6.24,17.82,1,8.57,1.81,17,4.43,25a75.53,75.53,0,0,0,10.76,21.16A53.74,53.74,0,0,0,276.5,85.21c7.12,4.53,15,7.65,23,10.39s15.9,5.56,23.72,8.73c7.26,2.94,14.92,5.64,23.13,4.49a28.59,28.59,0,0,0,3.19-.64c4.45-1.18,9.52-3.49,14.33-4.16a13.18,13.18,0,0,1,7.78.94c3.79,1.85,2.63,6.57-.71,8.54,4.5.18,9,.24,13.55.24q3.38,0,6.72-.06a33.18,33.18,0,0,0,4.2-.18,10.25,10.25,0,0,0,2.51-.67c4-1.7,5.27-6.29,7.42-9.89a75.48,75.48,0,0,1,5.79-8.18c5.17-6.5,10.73-12.62,15.77-19.25,9.73-12.84,17.67-27.05,24.55-41.65a289.22,289.22,0,0,1,5.52,35c5.66,52.26,6.8,105.93,5.42,159.48-5.78-12.72-11.5-25.3-18.36-37.05-9.13-15.67-20.65-31.14-35.71-40.41-7.16-4.41-16.15-7.42-25.12-6.16a28.57,28.57,0,0,0-7.5,2.14c-6.26,2.75-9.33,8.15-9.51,15s.35,13.72.55,20.53c-5,.42-9.6.59-14.23.72-8.37.23-16.73.28-24.73-1.51a19.12,19.12,0,0,0-6.55-.68A17.47,17.47,0,0,0,314,184a119.33,119.33,0,0,0-10.94,8.77,306.52,306.52,0,0,0-22.23,21.37c-3.58,3.79-7.09,7.67-10.53,11.6q-2.82,3.23-5.57,6.5c-.71.84-2.12,2-2.17,3.13,0,.6.57,1.43.76,2a53,53,0,0,1,2.7,11.89,73.57,73.57,0,0,1,.5,7.46,11.39,11.39,0,0,1,0,3.14,6.82,6.82,0,0,1-1.39,1.63,65.16,65.16,0,0,1-20.33,14.8c-7.07,3.23-14.42,5-21.65,7.43a74.4,74.4,0,0,0-20.41,10.51c-13.56,9.75-25.55,22.22-39.49,31.29-5.71,3.72-12,7.07-18.37,8-7.37.89-13.9-1-19.72-3.9-14.94-7.55-26.65-21.14-37.81-33.7-12.27-13.81-23.85-28.33-35.59-42.68-5.74-7-11.51-14-17.42-20.83-4.85-5.63-11.45-11.15-12.69-19.48-.35-2.43-.54-5.84,1-8.17a3.36,3.36,0,0,1,2.43-1.52c2.08-.3,4.59.89,6.19,1.26,8,1.88,16,3.53,24.11,4.9-12.17-4.82-21.92-15.18-30.59-24.83,10.09,10.13,21,21.77,35.14,25.57a44.27,44.27,0,0,1-10.41-1q-10.53-2-20.9-4.49a10.08,10.08,0,0,0-3.58-.5,2.8,2.8,0,0,0-2.29,1.85,10.91,10.91,0,0,0-.66,4.35,19.18,19.18,0,0,0,2.84,9.52c3.26,5.49,8.11,9.91,12.17,14.66q6.48,7.6,12.81,15.34C67,270.61,83.55,292.09,102.46,311c8.52,8.5,18,17.11,29.66,20.65a29.5,29.5,0,0,0,12.78,1.15,22.33,22.33,0,0,0,3-.6c5.34-1.39,10.51-4.26,15.32-7.41,19.43-12.74,35.63-33.2,57.26-40.85,10.73-3.8,21.79-6,31.86-12.47a63.17,63.17,0,0,0,7.9-6.05,34.56,34.56,0,0,0,4.76-4.69c1.25-1.69.9-3.7.82-5.61a56.11,56.11,0,0,0-4.08-19.85,346.39,346.39,0,0,1,28.55-31.57q6.67-6.49,13.69-12.51c4.45-3.78,9.31-8.45,14.63-10.33a11.27,11.27,0,0,1,2.26-.55c3.71-.53,7.21.76,10.78,1.33a91.27,91.27,0,0,0,15.37.89c5.63-.05,11.28-.33,16.91-.41a11.08,11.08,0,0,0,1.3,0,2.75,2.75,0,0,0,.78-2.41c0-1.52-.09-3.05-.13-4.58q-.15-4.57-.28-9.17c-.12-4-.23-8.16,1.57-12,1.9-4.1,5.59-6.67,9.4-8.14a29.65,29.65,0,0,1,6.55-1.69,36.41,36.41,0,0,1,18.9,2.7c13.85,5.8,24.85,18,33.73,30.34,10.76,14.92,19,32,26,49.6q.56-22,.38-43.83c-.19-27-1.08-53.85-2.92-80.52-1.56-22.66-3.7-45.3-7.64-67.31a263.33,263.33,0,0,1-14.24,26.35,193.92,193.92,0,0,1-13.18,18.65C418.8,86.75,412.88,93,408,100c-2.21,3.18-3.6,6.82-5.77,10a9.67,9.67,0,0,1-7,4.17c-9.21.76-17.64.32-25.83,0,2-1.26,4.08-3,4.07-5.38s-2.08-3.35-3.94-3.77a16.3,16.3,0,0,0-5.95-.16,50.22,50.22,0,0,0-8.79,2.39,49,49,0,0,1-8.78,2.39c-8.45,1.05-16-1.77-23.1-4.64-7.59-3.07-15.25-5.84-23-8.48s-15.46-5.63-22.5-9.89c-10.78-6.52-18.85-17.41-24-29.56A80.82,80.82,0,0,1,247.41,35c-.92-7.54-1-15.73-3.93-22.5-1.39-3.2-3.65-6-7.29-5.48a12.64,12.64,0,0,0-6.93,4.57c-4,4.73-6.73,10.63-9.92,16-2.9,4.84-6.3,10-11.23,12.52A19.47,19.47,0,0,1,202,41.94c-5.79.81-11.83-.5-17.36-.32a67.62,67.62,0,0,0-7.38.64c-13.89,2-27.48,8.05-39.7,17.12C123.24,70,110.92,83.9,99.7,98.31,87.37,114.14,76.39,131,65.23,147.67c-5,7.46-10.25,15-16.71,21.1-4.3,4-9.25,7.35-14.6,8.11a18.12,18.12,0,0,1-2.22.16,3.46,3.46,0,0,1,2.24-.88,20.48,20.48,0,0,0,7.72-2.88c7.52-4.56,13.46-12.31,18.68-19.62,6-8.42,11.49-17.27,17.29-25.83,11.25-16.59,23-33,36.46-47.69,12.24-13.39,26.22-25.47,42.06-32.53a77.77,77.77,0,0,1,20.86-6c.86-.13,1.72-.23,2.59-.32A73.85,73.85,0,0,1,190.91,41c3.76.2,7.59.68,11.44.14.58-.09,1.15-.19,1.73-.32,13.15-3,16.7-20.77,25.19-30.17C231.22,8.45,233.87,6.63,236.45,6.27Z"/>
        <path class="cls-79" d="M235.63,7.13c4.2-.61,6.46,2.18,7.85,5.38,3,6.77,3,15,3.93,22.5a80.82,80.82,0,0,0,5.9,22.05c5.19,12.15,13.26,23,24,29.56,7,4.26,14.71,7.24,22.5,9.89s15.43,5.41,23,8.48c7.06,2.87,14.65,5.69,22.72,4.69a48.85,48.85,0,0,0,9.16-2.44,50.22,50.22,0,0,1,8.79-2.39,16.3,16.3,0,0,1,5.95.16c1.86.42,3.92,1.4,3.94,3.77s-2.07,4.12-4.07,4.66a118.57,118.57,0,0,0,24.92.87c3.63-.49,6.1-1.62,7.92-4.27,2.17-3.18,3.56-6.82,5.77-10,4.91-7.06,10.83-13.29,16.18-20a193.92,193.92,0,0,0,13.18-18.65,263.33,263.33,0,0,0,14.24-26.35c3.94,22,6.08,44.65,7.64,67.31,1.84,26.67,2.73,53.54,2.92,80.52q.17,21.87-.38,43.83c-7.06-17.6-15.27-34.68-26-49.6-8.88-12.31-19.88-24.54-33.73-30.34a36.41,36.41,0,0,0-18.9-2.7,29.65,29.65,0,0,0-6.55,1.69c-3.81,1.47-7.5,4-9.4,8.14-1.8,3.88-1.69,8.08-1.57,12q.14,4.59.28,9.17c0,1.53.09,3.06.13,4.58a8.29,8.29,0,0,1,0,1.84,3.71,3.71,0,0,1-2.13.53c-5.63.08-11.28.36-16.91.41a91.27,91.27,0,0,1-15.37-.89c-3.57-.57-7.07-1.86-10.78-1.33a11.27,11.27,0,0,0-2.26.55c-5.32,1.88-10.18,6.55-14.63,10.33q-7,6-13.69,12.51a399.39,399.39,0,0,0-28.5,31.13,61.86,61.86,0,0,1,4,20.29c.08,1.91.43,3.92-.82,5.61a34.56,34.56,0,0,1-4.76,4.69,63.17,63.17,0,0,1-7.9,6.05c-10.07,6.48-21.13,8.67-31.86,12.47-21.63,7.65-37.83,28.11-57.26,40.85-4.81,3.15-10,6-15.32,7.41a22.33,22.33,0,0,1-3,.6,29.5,29.5,0,0,1-12.78-1.15C120.5,328.07,111,319.46,102.46,311,83.55,292.09,67,270.61,49.92,249.81q-6.35-7.73-12.81-15.34c-4.06-4.75-8.91-9.17-12.17-14.66a19.18,19.18,0,0,1-2.84-9.52,10.91,10.91,0,0,1,.66-4.35,2.8,2.8,0,0,1,2.29-1.85,10.08,10.08,0,0,1,3.58.5q10.36,2.52,20.9,4.49c3.39.63,6.81,1.2,10.24,1.73C45.84,206.3,34.89,194.66,25.28,184l6.2-7a10.12,10.12,0,0,0,2.44-.06c5.35-.76,10.3-4.06,14.6-8.11,6.46-6.09,11.74-13.64,16.71-21.1C76.39,131,87.37,114.14,99.7,98.31,110.92,83.9,123.24,70,137.58,59.38c12.22-9.07,25.81-15.17,39.7-17.12a67.62,67.62,0,0,1,7.38-.64c5.53-.18,11.57,1.13,17.36.32a19.47,19.47,0,0,0,6.09-1.86c4.93-2.51,8.33-7.68,11.23-12.52,3.19-5.33,5.89-11.23,9.92-16C231,9.54,233.16,7.69,235.63,7.13Z"/>
      </g>
    </g>
    <ellipse class="cls-80" cx="147.11" cy="160.12" rx="44" ry="64.5"/>
    <circle class="cls-81" cx="140.61" cy="184.12" r="23.5"/>
  </g>
</svg>
