<svg id="Layer_1" data-name="Layer 1" xmlns="http://www.w3.org/2000/svg" xmlns:xlink="http://www.w3.org/1999/xlink" width="593.52" height="269.58" viewBox="0 0 593.52 269.58">
  <defs>
    <style>
      .cls-1 {
        fill: none;
      }

      .cls-2 {
        opacity: 0.94;
      }

      .cls-3 {
        isolation: isolate;
      }

      .cls-4 {
        clip-path: url(#clip-path);
      }

      .cls-5 {
        clip-path: url(#clip-path-2);
      }

      .cls-6 {
        fill: #434343;
      }

      .cls-7 {
        clip-path: url(#clip-path-3);
      }

      .cls-8 {
        clip-path: url(#clip-path-4);
      }

      .cls-9 {
        fill: #4f4f4f;
      }

      .cls-10 {
        fill: #4d4d4d;
      }

      .cls-11 {
        clip-path: url(#clip-path-5);
      }

      .cls-12 {
        clip-path: url(#clip-path-6);
      }

      .cls-13 {
        fill: #4a4a4a;
      }

      .cls-14 {
        clip-path: url(#clip-path-7);
      }

      .cls-15 {
        fill: #545454;
      }

      .cls-16 {
        clip-path: url(#clip-path-8);
      }

      .cls-17 {
        clip-path: url(#clip-path-9);
      }

      .cls-18 {
        clip-path: url(#clip-path-10);
      }

      .cls-19 {
        clip-path: url(#clip-path-11);
      }

      .cls-20 {
        clip-path: url(#clip-path-12);
      }

      .cls-21 {
        fill: #525252;
      }

      .cls-22 {
        clip-path: url(#clip-path-13);
      }

      .cls-23 {
        clip-path: url(#clip-path-14);
      }

      .cls-24 {
        clip-path: url(#clip-path-15);
      }

      .cls-25 {
        clip-path: url(#clip-path-16);
      }

      .cls-26 {
        clip-path: url(#clip-path-17);
      }

      .cls-27 {
        clip-path: url(#clip-path-18);
      }

      .cls-28 {
        clip-path: url(#clip-path-19);
      }

      .cls-29 {
        clip-path: url(#clip-path-20);
      }

      .cls-30 {
        clip-path: url(#clip-path-21);
      }

      .cls-31 {
        clip-path: url(#clip-path-22);
      }

      .cls-32 {
        clip-path: url(#clip-path-23);
      }

      .cls-33 {
        clip-path: url(#clip-path-24);
      }

      .cls-34 {
        clip-path: url(#clip-path-25);
      }

      .cls-35 {
        clip-path: url(#clip-path-26);
      }

      .cls-36 {
        clip-path: url(#clip-path-27);
      }

      .cls-37 {
        clip-path: url(#clip-path-28);
      }

      .cls-38 {
        clip-path: url(#clip-path-29);
      }

      .cls-39 {
        clip-path: url(#clip-path-30);
      }

      .cls-40 {
        clip-path: url(#clip-path-31);
      }

      .cls-41 {
        clip-path: url(#clip-path-32);
      }

      .cls-42 {
        clip-path: url(#clip-path-33);
      }

      .cls-43 {
        clip-path: url(#clip-path-34);
      }

      .cls-44 {
        clip-path: url(#clip-path-35);
      }

      .cls-45 {
        clip-path: url(#clip-path-36);
      }

      .cls-46 {
        clip-path: url(#clip-path-37);
      }

      .cls-47 {
        clip-path: url(#clip-path-38);
      }

      .cls-48 {
        clip-path: url(#clip-path-39);
      }

      .cls-49 {
        clip-path: url(#clip-path-40);
      }

      .cls-50 {
        clip-path: url(#clip-path-41);
      }

      .cls-51 {
        clip-path: url(#clip-path-42);
      }

      .cls-52 {
        clip-path: url(#clip-path-43);
      }

      .cls-53 {
        clip-path: url(#clip-path-44);
      }

      .cls-54 {
        fill: #454545;
      }

      .cls-55 {
        fill: #484848;
      }

      .cls-56 {
        clip-path: url(#clip-path-45);
      }

      .cls-57 {
        clip-path: url(#clip-path-46);
      }

      .cls-58 {
        clip-path: url(#clip-path-47);
      }

      .cls-59 {
        clip-path: url(#clip-path-48);
      }

      .cls-60 {
        fill: #575757;
      }

      .cls-61 {
        fill: #707070;
      }

      .cls-62 {
        clip-path: url(#clip-path-49);
      }

      .cls-63 {
        fill: #fff;
      }

      .cls-63, .cls-64 {
        stroke: #000;
        stroke-miterlimit: 10;
        stroke-width: 0.25px;
      }
    </style>
    <clipPath id="clip-path">
      <path class="cls-1" d="M567.29,6.49l11.39,6.2c.59.32,1.28,4.47,1.48,5.21,2.05,7.43,3.69,15,5.08,22.74a479,479,0,0,1,6.35,55.75,653.9,653.9,0,0,1,.66,65.42l-11.39-6.2a653.89,653.89,0,0,0-.67-65.42,476.79,476.79,0,0,0-6.35-55.75c-1.39-7.7-3-15.31-5.08-22.74C568.56,11,567.87,6.81,567.29,6.49Z"/>
    </clipPath>
    <clipPath id="clip-path-2">
      <path class="cls-1" d="M529.46,107.63l11.39,6.2c3.78,2.06,7.45,4.32,11,6.72,15.88,10.79,29.08,25.22,40.41,41.26l-11.39-6.2c-11.34-16-24.54-30.47-40.42-41.26C536.9,112,533.24,109.69,529.46,107.63Z"/>
    </clipPath>
    <clipPath id="clip-path-3">
      <path class="cls-1" d="M529.29,108.27l11.4,6.2A132.29,132.29,0,0,1,566.36,133c9.71,8.86,18.22,19.11,26.52,29.82l-11.4-6.2c-8.3-10.71-16.81-21-26.51-29.82A132.35,132.35,0,0,0,529.29,108.27Z"/>
    </clipPath>
    <clipPath id="clip-path-4">
      <path class="cls-1" d="M531,43.66a200,200,0,0,0,21.08-19.44l11.39,6.2a198.89,198.89,0,0,1-21.07,19.44Z"/>
    </clipPath>
    <clipPath id="clip-path-5">
      <path class="cls-1" d="M508.69,61.42c7-6.6,14.95-11.83,22.35-17.76l11.4,6.2C535,55.79,527.06,61,520.09,67.62Z"/>
    </clipPath>
    <clipPath id="clip-path-6">
      <path class="cls-1" d="M501.08,69.61c2.86-2.23,4.94-5.67,7.61-8.19l11.4,6.2c-2.68,2.52-4.76,6-7.61,8.19Z"/>
    </clipPath>
    <clipPath id="clip-path-7">
      <path class="cls-1" d="M460.17,73.85a274.33,274.33,0,0,0,29.49-.93l11.39,6.2a274.33,274.33,0,0,1-29.49.93Z"/>
    </clipPath>
    <clipPath id="clip-path-8">
      <path class="cls-1" d="M472.86,79.91l-11.4-6.2c5.23-.19,10.48-.44,15.72-.73,5.07-.29,10.25-.31,15.35-1,4.39-.7,7.5-1.84,10-4.64,1.26-1.38,2.35-2.94,3.64-4.31a88.25,88.25,0,0,1,10.3-9c8.79-6.83,17.71-13.35,25.95-21.05A220.7,220.7,0,0,0,567.1,5.39l11.4,6.2a220.7,220.7,0,0,1-24.67,27.59c-8.24,7.7-17.16,14.22-26,21a87.44,87.44,0,0,0-10.3,9c-1.3,1.37-2.38,2.93-3.64,4.31-2.51,2.79-5.62,3.94-10,4.64-5.11.72-10.28.74-15.35,1Q480.71,79.61,472.86,79.91Z"/>
    </clipPath>
    <clipPath id="clip-path-9">
      <path class="cls-1" d="M460.17,73.85l.09.05.08,0,.08,0,.07,0,.32.18q5.38,2.91,10.75,5.84h-.35l-11.39-6.2Z"/>
    </clipPath>
    <clipPath id="clip-path-10">
      <path class="cls-1" d="M462.73,68l11.4,6.2a2,2,0,0,1,.58.44c2.64,2.92-2.46,4.87-4.55,6l-11.4-6.2c2.1-1.18,7.19-3.13,4.56-6A2.22,2.22,0,0,0,462.73,68Z"/>
    </clipPath>
    <clipPath id="clip-path-11">
      <path class="cls-1" d="M458.77,73.8l1.05,0L471.21,80l-1,0Z"/>
    </clipPath>
    <clipPath id="clip-path-12">
      <path class="cls-1" d="M457.94,67.3c1.26,0,3.47,0,4.76.71l11.39,6.2c-1.28-.68-3.49-.66-4.76-.71Z"/>
    </clipPath>
    <clipPath id="clip-path-13">
      <path class="cls-1" d="M451.17,67.7a39.45,39.45,0,0,1,6.77-.4l11.39,6.2a39.34,39.34,0,0,0-6.76.4Z"/>
    </clipPath>
    <clipPath id="clip-path-14">
      <path class="cls-1" d="M431.55,72.13c6.53-1.3,13.08-3.51,19.62-4.43l11.4,6.2C456,74.82,449.48,77,443,78.33Z"/>
    </clipPath>
    <clipPath id="clip-path-15">
      <path class="cls-1" d="M529.46,107.63l11.39,6.2c-12.59-6.85-26.46-11.44-41.28-11.6a84.56,84.56,0,0,0-12.74.68c-5.72.81-11.45,2.47-16.16,5.76a12,12,0,0,0-5.32,8.23,27.73,27.73,0,0,0,0,5c.09,1.64.17,3.29.26,4.94s.62,3.91.29,5.54c-.23,1.17-.8,1.52-1.55,1.63-.57.08-1.24,0-1.94.06l-3.89.27-9.82.74c-5.56.41-11.12.8-16.66,1a146.53,146.53,0,0,1-16.11-.23,46.06,46.06,0,0,0-9.82.09,26.65,26.65,0,0,0-4.57,1.06c-6.56,2.17-12.91,6-19.07,9.54q-8.62,4.9-17,10.27a407.68,407.68,0,0,0-37.05,26.57l-11.4-6.2a409.08,409.08,0,0,1,37-26.57q8.42-5.37,17-10.27c6.16-3.5,12.52-7.37,19.07-9.54a26,26,0,0,1,4.58-1.05,45.4,45.4,0,0,1,9.82-.1,146.32,146.32,0,0,0,16.1.23c5.54-.19,11.1-.58,16.66-1l9.82-.74,3.89-.27c.7,0,1.37,0,1.94-.06.75-.11,1.33-.46,1.56-1.63.32-1.63-.21-3.93-.3-5.54s-.17-3.3-.25-4.94a26,26,0,0,1,0-5,12,12,0,0,1,5.31-8.23c4.71-3.29,10.45-5,16.16-5.76A84.56,84.56,0,0,1,488.17,96C503,96.19,516.87,100.78,529.46,107.63Z"/>
    </clipPath>
    <clipPath id="clip-path-16">
      <path class="cls-1" d="M350.4,63.19c8.9,1.81,18,3,27,4.26l11.39,6.2c-9-1.31-18.1-2.45-27-4.26Z"/>
    </clipPath>
    <clipPath id="clip-path-17">
      <path class="cls-1" d="M323.7,54c8.17,4.52,17.28,7.27,26.7,9.18l11.4,6.2c-9.42-1.91-18.53-4.66-26.71-9.18Z"/>
    </clipPath>
    <clipPath id="clip-path-18">
      <path class="cls-1" d="M336.37,60.19,325,54c1,.52,1.93,1,2.9,1.49,16.55,8,36.09,9.13,54.34,11.93,9.5,1.47,18.8,3.7,28.41,4.71a72.79,72.79,0,0,0,17.77-.41,107.21,107.21,0,0,0,12-2.43A96.79,96.79,0,0,1,451,67c1-.14,2-.26,3-.34,3-.23,6.62-.53,9.22.82l.08,0,11.4,6.2-.09,0c-2.6-1.35-6.25-1-9.21-.82-1,.08-2,.2-3.06.34a97.28,97.28,0,0,0-10.61,2.24,107,107,0,0,1-12,2.43,72.79,72.79,0,0,1-17.77.41c-9.61-1-18.92-3.24-28.41-4.71-18.25-2.8-37.8-3.94-54.34-11.93C338.29,61.21,337.33,60.71,336.37,60.19Z"/>
    </clipPath>
    <clipPath id="clip-path-19">
      <path class="cls-1" d="M335.46,60.42l-11.39-6.2a58.4,58.4,0,0,1-13.94-10.45,46,46,0,0,1-11-17.58c-2.25-6.74-1.93-14.88-5.81-20.75A10.18,10.18,0,0,0,289.66,2l11.4,6.2a10.18,10.18,0,0,1,3.62,3.42c3.88,5.87,3.56,14,5.8,20.75a45.89,45.89,0,0,0,11,17.58A58.35,58.35,0,0,0,335.46,60.42Z"/>
    </clipPath>
    <clipPath id="clip-path-20">
      <path class="cls-1" d="M283.18,1a10.51,10.51,0,0,1,6.45,1L301,8.2a10.48,10.48,0,0,0-6.44-1Z"/>
    </clipPath>
    <clipPath id="clip-path-21">
      <path class="cls-1" d="M283.05,1l.13,0,11.4,6.2-.14,0Z"/>
    </clipPath>
    <clipPath id="clip-path-22">
      <path class="cls-1" d="M289.86,1.15l11.4,6.2a10.58,10.58,0,0,0-6.68-1L283.18.14A10.65,10.65,0,0,1,289.86,1.15Z"/>
    </clipPath>
    <clipPath id="clip-path-23">
      <path class="cls-1" d="M272.23,6.26A22.45,22.45,0,0,1,283.05,1l11.39,6.2a22.42,22.42,0,0,0-10.81,5.27Z"/>
    </clipPath>
    <clipPath id="clip-path-24">
      <path class="cls-1" d="M237.76,30.73a34.51,34.51,0,0,0,19.73-9.31l11.39,6.2a34.51,34.51,0,0,1-19.72,9.31Z"/>
    </clipPath>
    <clipPath id="clip-path-25">
      <path class="cls-1" d="M114.86,252.67l-11.4-6.19q2.58,1.4,5.18,2.75c11.87,6.18,24.51,11.5,38.16,13a62.13,62.13,0,0,0,15.48-.28,92.35,92.35,0,0,0,24.37-7.37c25.15-11.12,48.43-28.9,74.61-36.06,13.21-3.62,26.61-5.85,39.63-11a103.44,103.44,0,0,0,9.79-4.46c2-1,4-2.14,5.9-3.33,1.51-.93,3.83-2,5-3.31,2.16-2.43.35-8.37-.39-10.87a26.45,26.45,0,0,0-4.25-8.43l11.4,6.2a26.45,26.45,0,0,1,4.25,8.43c.73,2.5,2.55,8.44.39,10.87-1.21,1.35-3.52,2.38-5,3.31q-2.89,1.77-5.89,3.33a104.6,104.6,0,0,1-9.79,4.46c-13,5.12-26.42,7.35-39.63,11-26.18,7.16-49.46,24.94-74.61,36.06a92,92,0,0,1-24.38,7.36,61.58,61.58,0,0,1-15.47.29c-13.65-1.51-26.29-6.83-38.16-13C118.3,254.53,116.58,253.61,114.86,252.67Z"/>
    </clipPath>
    <clipPath id="clip-path-26">
      <path class="cls-1" d="M237.76,30.73s.05,0,.07,0l.29.15.14.08.07,0,.25.13.11.07.11.05,10.36,5.64c-9.17,1.15-18.25.57-27.42,1.53l-11.4-6.2C219.52,31.3,228.6,31.88,237.76,30.73Z"/>
    </clipPath>
    <clipPath id="clip-path-27">
      <path class="cls-1" d="M205,32.93c1.79-.26,3.57-.48,5.36-.67l11.4,6.2q-2.69.28-5.37.67Z"/>
    </clipPath>
    <clipPath id="clip-path-28">
      <path class="cls-1" d="M154.73,48.39A169.82,169.82,0,0,1,205,32.93l11.39,6.2a169.76,169.76,0,0,0-50.24,15.46Z"/>
    </clipPath>
    <clipPath id="clip-path-29">
      <path class="cls-1" d="M104.82,81c15.69-12.69,32.28-24.1,49.91-32.62l11.4,6.2c-17.63,8.52-34.22,19.93-49.92,32.62Z"/>
    </clipPath>
    <clipPath id="clip-path-30">
      <path class="cls-1" d="M103.57,246.54c-23-12.5-44.48-27.69-66.28-42.14l11.39,6.2C70.49,225.05,92,240.24,115,252.74Z"/>
    </clipPath>
    <clipPath id="clip-path-31">
      <path class="cls-1" d="M58.46,122.8C73.57,108.39,88.71,94,104.82,81l11.39,6.2c-16.1,13-31.24,27.38-46.35,41.79Z"/>
    </clipPath>
    <clipPath id="clip-path-32">
      <path class="cls-1" d="M37.29,204.4c-6.48-4.28-13-8.54-19.54-12.66l11.4,6.19c6.57,4.13,13.06,8.39,19.53,12.67Z"/>
    </clipPath>
    <clipPath id="clip-path-33">
      <path class="cls-1" d="M25,172.11q12.71.85,25.49,1.3l11.4,6.2q-12.78-.44-25.5-1.3Z"/>
    </clipPath>
    <clipPath id="clip-path-34">
      <path class="cls-1" d="M17.75,191.74c-3.24-2.05-6.57-4-9.76-6.06l11.4,6.2c3.19,2.11,6.52,4,9.76,6.05Z"/>
    </clipPath>
    <clipPath id="clip-path-35">
      <path class="cls-1" d="M12.79,171.19q6.09.5,12.2.92l11.39,6.2q-6.09-.42-12.19-.92Z"/>
    </clipPath>
    <clipPath id="clip-path-36">
      <path class="cls-1" d="M5,170.72c2.63-.37,5.85.32,7.78.47l11.4,6.2c-1.93-.15-5.15-.84-7.79-.47Z"/>
    </clipPath>
    <clipPath id="clip-path-37">
      <path class="cls-1" d="M16.2,176.16,4.81,170c4.39-.14,8,.51,11.49.78q5.53.44,11.08.8,8.27.54,16.55.89l11.4,6.2q-8.28-.36-16.55-.89-5.55-.36-11.08-.8C24.19,176.67,20.6,176,16.2,176.16Z"/>
    </clipPath>
    <clipPath id="clip-path-38">
      <path class="cls-1" d="M16.26,148.87c15.83-2.22,29.94-14.37,42.2-26.07l11.4,6.2c-12.26,11.7-26.38,23.85-42.21,26.07Z"/>
    </clipPath>
    <clipPath id="clip-path-39">
      <path class="cls-1" d="M27.62,155.08s-6.63-3.61-11.36-6.21l11.39,6.2Z"/>
    </clipPath>
    <clipPath id="clip-path-40">
      <path class="cls-1" d="M8,185.68C4.71,183.51.6,180.4.66,175.53l11.4,6.2c-.06,4.87,4,8,7.33,10.15Z"/>
    </clipPath>
    <clipPath id="clip-path-41">
      <path class="cls-1" d="M13.7,149a14.46,14.46,0,0,0,2.56-.17c3.12,1.72,6.66,3.65,11.36,6.21a14.12,14.12,0,0,1-2.52.16Z"/>
    </clipPath>
    <clipPath id="clip-path-42">
      <path class="cls-1" d="M24.81,155.36l-11.4-6.2a5.44,5.44,0,0,1,2.93-1,41.86,41.86,0,0,0,10.48-2.92c18.62-7.86,33.65-25.56,48.84-39.63,15.63-14.48,31.77-28.45,49-40.34,16.81-11.57,34.71-21,53.34-26.92a164.43,164.43,0,0,1,26.9-6.12c10.76-1.43,20.17-1.17,29.72-1.9,1.31-.1,2.62-.23,3.94-.42a32.29,32.29,0,0,0,10.32-3.06,40,40,0,0,0,10-7.65c5-5,9.39-11,15.11-15.12a21.55,21.55,0,0,1,9.2-3.92l11.4,6.2a21.59,21.59,0,0,0-9.21,3.92c-5.72,4.08-10.1,10.08-15.11,15.12A39.74,39.74,0,0,1,260.32,33,32.29,32.29,0,0,1,250,36.09c-1.32.19-2.64.32-3.94.42-9.56.73-19,.47-29.72,1.9a164.43,164.43,0,0,0-26.9,6.12c-18.63,5.91-36.54,15.35-53.34,26.92-17.27,11.89-33.42,25.86-49,40.34-15.19,14.07-30.22,31.77-48.85,39.63a41.79,41.79,0,0,1-10.47,2.92A5.41,5.41,0,0,0,24.81,155.36Z"/>
    </clipPath>
    <clipPath id="clip-path-43">
      <path class="cls-1" d="M13.58,149h.12l11.4,6.2H25Z"/>
    </clipPath>
    <clipPath id="clip-path-44">
      <path class="cls-1" d="M.66,175.53c0-3.27,1.95-4.48,4.35-4.81l11.39,6.2c-2.39.33-4.3,1.54-4.34,4.81Z"/>
    </clipPath>
    <clipPath id="clip-path-45">
      <path class="cls-1" d="M13.58,149a1,1,0,0,1,.2.11l.19.1,11,6-.45,0L13.13,149Z"/>
    </clipPath>
    <clipPath id="clip-path-46">
      <path class="cls-1" d="M117.11,255l-11.4-6.2c-7.66-4.17-15-8.78-22.15-13.17C58.81,220.32,35.16,203.19,10.31,188c-4-2.43-9.12-5.3-10.16-10.69-.73-3.83,1.2-6.87,4.66-7.35l11.39,6.2c-3.46.48-5.39,3.52-4.65,7.35,1,5.39,6.17,8.26,10.16,10.69C46.55,209.39,70.2,226.51,95,241.84,102.07,246.23,109.44,250.84,117.11,255Z"/>
    </clipPath>
    <clipPath id="clip-path-47">
      <path class="cls-1" d="M15.85,161.75l-11.4-6.2c14.49,7.83,29.48,15.41,46.21,17.14l11.4,6.2C45.32,177.16,30.34,169.58,15.85,161.75Z"/>
    </clipPath>
    <clipPath id="clip-path-48">
      <path class="cls-1" d="M14.16,160.26Q9.48,157.71,5,155l11.4,6.2q4.53,2.73,9.21,5.29Z"/>
    </clipPath>
    <clipPath id="clip-path-49">
      <path class="cls-1" d="M24.79,166.89l-11.39-6.2c-3-1.65-6-3.38-8.95-5.14l11.4,6.2C18.79,163.51,21.76,165.24,24.79,166.89Z"/>
    </clipPath>
  </defs>
  <g>
    <g class="cls-2">
      <g class="cls-3">
        <g class="cls-3">
          <g class="cls-4">
            <g class="cls-3">
              <path d="M592.25,161.81l-11.39-6.2a653.89,653.89,0,0,0-.67-65.42,476.79,476.79,0,0,0-6.35-55.75c-1.39-7.7-3-15.31-5.08-22.74-.2-.74-.89-4.89-1.47-5.21l11.39,6.2c.59.32,1.28,4.47,1.48,5.21,2.05,7.43,3.69,15,5.08,22.74a479,479,0,0,1,6.35,55.75,653.9,653.9,0,0,1,.66,65.42"/>
            </g>
          </g>
        </g>
        <g class="cls-3">
          <g class="cls-5">
            <g class="cls-3">
              <path class="cls-6" d="M592.25,161.81l-11.39-6.2c-11.34-16-24.54-30.47-40.42-41.26-3.54-2.4-7.2-4.66-11-6.72l11.39,6.2c3.78,2.06,7.45,4.32,11,6.72,15.88,10.79,29.08,25.22,40.41,41.26"/>
            </g>
          </g>
        </g>
        <g class="cls-3">
          <g class="cls-7">
            <g class="cls-3">
              <path d="M592.88,162.82l-11.4-6.2c-8.3-10.71-16.81-21-26.51-29.82a132.35,132.35,0,0,0-25.68-18.53l11.4,6.2A132.29,132.29,0,0,1,566.36,133c9.71,8.86,18.22,19.11,26.52,29.82"/>
            </g>
          </g>
        </g>
        <g class="cls-3">
          <g class="cls-8">
            <g class="cls-3">
              <path class="cls-9" d="M521.69,66.14l-11.4-6.2C516.87,54,524.2,49.14,531,43.66q4.65-3.7,9.1-7.72l11.4,6.2q-4.45,4-9.1,7.72c-6.84,5.48-14.18,10.36-20.75,16.28"/>
              <path class="cls-10" d="M551.54,42.14l-11.4-6.2q6.2-5.58,12-11.72c1.46-1.56,2.89-3.14,4.31-4.75l11.4,6.2q-2.13,2.41-4.32,4.75-5.76,6.15-12,11.72"/>
            </g>
          </g>
        </g>
        <g class="cls-3">
          <g class="cls-11">
            <g class="cls-3">
              <path class="cls-10" d="M518.46,69.32l-11.4-6.2c.53-.59,1.06-1.17,1.63-1.7l1.6-1.48,11.4,6.2c-.54.49-1.08,1-1.6,1.48s-1.11,1.11-1.63,1.7"/>
              <path class="cls-9" d="M521.69,66.14l-11.4-6.2C516.87,54,524.2,49.14,531,43.66q4.65-3.7,9.1-7.72l11.4,6.2q-4.45,4-9.1,7.72c-6.84,5.48-14.18,10.36-20.75,16.28"/>
            </g>
          </g>
        </g>
        <g class="cls-3">
          <g class="cls-12">
            <g class="cls-3">
              <path class="cls-9" d="M511.92,76.22,500.52,70c.19-.13.38-.26.56-.41a10.41,10.41,0,0,0,.81-.68l11.4,6.2c-.27.24-.53.47-.81.68s-.37.28-.56.41"/>
              <path class="cls-10" d="M513.29,75.13l-11.4-6.2a24.11,24.11,0,0,0,1.93-2l11.4,6.2a25.86,25.86,0,0,1-1.93,2"/>
              <path class="cls-13" d="M515.22,73.15,503.82,67c1.1-1.24,2.14-2.58,3.24-3.83l11.4,6.2c-1.1,1.25-2.14,2.59-3.24,3.83"/>
              <path class="cls-10" d="M518.46,69.32l-11.4-6.2c.53-.59,1.06-1.17,1.63-1.7l1.6-1.48,11.4,6.2c-.54.49-1.08,1-1.6,1.48s-1.11,1.11-1.63,1.7"/>
            </g>
          </g>
        </g>
        <g class="cls-3">
          <g class="cls-14">
            <g class="cls-3">
              <path class="cls-15" d="M470.16,80l-11.39-6.2a270.35,270.35,0,0,0,30.89-.88c1.18-.09,2.41-.18,3.64-.36a18.66,18.66,0,0,0,5.41-1.5l11.39,6.2a18.48,18.48,0,0,1-5.41,1.5c-1.23.17-2.46.27-3.64.36a270.29,270.29,0,0,1-30.89.88"/>
            </g>
          </g>
        </g>
        <g class="cls-3">
          <g class="cls-16">
            <g class="cls-3">
              <path d="M472.86,79.91l-11.4-6.2c5.23-.19,10.48-.44,15.72-.73,5.07-.29,10.25-.31,15.35-1a22.24,22.24,0,0,0,6-1.68L510,76.47a22.06,22.06,0,0,1-6,1.68c-5.11.72-10.28.74-15.35,1q-7.87.43-15.72.73"/>
              <path d="M510,76.47l-11.39-6.2a13,13,0,0,0,1.81-1l11.39,6.2a12,12,0,0,1-1.81,1"/>
              <path d="M511.77,75.43l-11.39-6.2a13.39,13.39,0,0,0,1.21-1L513,74.47a12.13,12.13,0,0,1-1.21,1"/>
              <path d="M513,74.47l-11.39-6.2a12.33,12.33,0,0,0,1-1l.22-.24,11.4,6.2-.22.24a10.87,10.87,0,0,1-1,1"/>
              <path d="M514.16,73.27l-11.4-6.2c1-1.15,1.93-2.4,3-3.56l11.39,6.2c-1,1.16-1.93,2.41-3,3.56"/>
              <path d="M517.11,69.71l-11.39-6.2.46-.51c1.07-1.14,2.19-2.22,3.35-3.26l11.4,6.2c-1.16,1-2.28,2.12-3.35,3.26l-.47.51"/>
              <path d="M520.93,65.94l-11.4-6.2c2.24-2,4.6-3.88,7-5.71,8-6.26,16.22-12.26,23.88-19.15l11.39,6.2C544.1,48,535.93,54,527.88,60.23c-2.35,1.83-4.71,3.69-7,5.71"/>
              <path d="M551.75,41.08l-11.39-6.2c.69-.62,1.39-1.26,2.07-1.9,4.69-4.39,9.16-9,13.44-13.87l11.4,6.2c-4.28,4.84-8.75,9.48-13.44,13.87l-2.08,1.9"/>
              <path d="M567.27,25.31l-11.4-6.2c3.9-4.42,7.64-9,11.23-13.72l11.4,6.2c-3.59,4.71-7.33,9.3-11.23,13.72"/>
            </g>
          </g>
        </g>
        <g class="cls-3">
          <g class="cls-17">
            <g class="cls-3">
              <path class="cls-15" d="M470.16,80l-11.39-6.2a270.35,270.35,0,0,0,30.89-.88c1.18-.09,2.41-.18,3.64-.36a18.66,18.66,0,0,0,5.41-1.5l11.39,6.2a18.48,18.48,0,0,1-5.41,1.5c-1.23.17-2.46.27-3.64.36a270.29,270.29,0,0,1-30.89.88"/>
            </g>
          </g>
        </g>
        <g class="cls-3">
          <g class="cls-18">
            <g class="cls-3">
              <path d="M470.16,80.72l-11.4-6.2c.89-.5,2.32-1.14,3.47-1.93l11.39,6.2c-1.15.79-2.57,1.43-3.46,1.93"/>
              <path d="M473.62,78.79l-11.39-6.2A9.29,9.29,0,0,0,463,72l11.39,6.2a6.84,6.84,0,0,1-.77.6"/>
              <path d="M474.39,78.19,463,72a4.78,4.78,0,0,0,.39-.39l11.4,6.2c-.12.13-.26.26-.4.39"/>
              <path d="M474.79,77.8l-11.4-6.2a3.76,3.76,0,0,0,.25-.31L475,77.49a2.34,2.34,0,0,1-.24.31"/>
              <path d="M475,77.49l-11.39-6.2.17-.28,11.4,6.2a2.2,2.2,0,0,1-.18.28"/>
              <path d="M475.21,77.21,463.81,71a2.92,2.92,0,0,0,.14-.31l11.39,6.2a1.69,1.69,0,0,1-.13.31"/>
              <path d="M475.34,76.9,464,70.7a2.12,2.12,0,0,0-.63-2.23,2.22,2.22,0,0,0-.59-.44l11.4,6.2a2,2,0,0,1,.58.44,2.12,2.12,0,0,1,.63,2.23"/>
            </g>
          </g>
        </g>
        <g class="cls-3">
          <g class="cls-19">
            <g class="cls-3">
              <path class="cls-15" d="M470.16,80l-11.39-6.2a270.35,270.35,0,0,0,30.89-.88c1.18-.09,2.41-.18,3.64-.36a18.66,18.66,0,0,0,5.41-1.5l11.39,6.2a18.48,18.48,0,0,1-5.41,1.5c-1.23.17-2.46.27-3.64.36a270.29,270.29,0,0,1-30.89.88"/>
            </g>
          </g>
        </g>
        <g class="cls-3">
          <g class="cls-20">
            <g class="cls-3">
              <path class="cls-15" d="M354.74,67.77l-11.39-6.2c2.32.6,4.68,1.14,7,1.62,8.9,1.81,18,3,27,4.26s18,3.25,27.14,4.62a82,82,0,0,0,23.75.61c1.08-.15,2.16-.33,3.25-.55,6.53-1.3,13.08-3.51,19.62-4.43a39.45,39.45,0,0,1,6.77-.4,18.47,18.47,0,0,1,3.81.36l11.4,6.2a18.5,18.5,0,0,0-3.82-.36,39.34,39.34,0,0,0-6.76.4C456,74.82,449.48,77,443,78.33c-1.09.22-2.17.4-3.25.55A82,82,0,0,1,416,78.27c-9.1-1.37-18-3.31-27.15-4.62s-18.1-2.45-27-4.26q-3.57-.72-7.06-1.62"/>
              <path class="cls-21" d="M473.15,73.86l-11.4-6.2a3.94,3.94,0,0,1,.86.31L474,74.16a5.1,5.1,0,0,0-.86-.3"/>
              <path class="cls-9" d="M474,74.16,462.61,68l.12.06,11.4,6.2-.12-.07"/>
            </g>
          </g>
        </g>
        <g class="cls-3">
          <g class="cls-22">
            <g class="cls-3">
              <path class="cls-15" d="M354.74,67.77l-11.39-6.2c2.32.6,4.68,1.14,7,1.62,8.9,1.81,18,3,27,4.26s18,3.25,27.14,4.62a82,82,0,0,0,23.75.61c1.08-.15,2.16-.33,3.25-.55,6.53-1.3,13.08-3.51,19.62-4.43a39.45,39.45,0,0,1,6.77-.4,18.47,18.47,0,0,1,3.81.36l11.4,6.2a18.5,18.5,0,0,0-3.82-.36,39.34,39.34,0,0,0-6.76.4C456,74.82,449.48,77,443,78.33c-1.09.22-2.17.4-3.25.55A82,82,0,0,1,416,78.27c-9.1-1.37-18-3.31-27.15-4.62s-18.1-2.45-27-4.26q-3.57-.72-7.06-1.62"/>
            </g>
          </g>
        </g>
        <g class="cls-3">
          <g class="cls-23">
            <g class="cls-3">
              <path class="cls-15" d="M354.74,67.77l-11.39-6.2c2.32.6,4.68,1.14,7,1.62,8.9,1.81,18,3,27,4.26s18,3.25,27.14,4.62a82,82,0,0,0,23.75.61c1.08-.15,2.16-.33,3.25-.55,6.53-1.3,13.08-3.51,19.62-4.43a39.45,39.45,0,0,1,6.77-.4,18.47,18.47,0,0,1,3.81.36l11.4,6.2a18.5,18.5,0,0,0-3.82-.36,39.34,39.34,0,0,0-6.76.4C456,74.82,449.48,77,443,78.33c-1.09.22-2.17.4-3.25.55A82,82,0,0,1,416,78.27c-9.1-1.37-18-3.31-27.15-4.62s-18.1-2.45-27-4.26q-3.57-.72-7.06-1.62"/>
            </g>
          </g>
        </g>
        <g class="cls-3">
          <g class="cls-24">
            <g class="cls-3">
              <path d="M328.37,183.36l-11.4-6.2c7.85-6.32,15.76-12.22,23.8-17.78l11.39,6.2c-8,5.56-15.94,11.46-23.79,17.78"/>
              <path d="M352.16,165.58l-11.39-6.2q6.57-4.55,13.25-8.79,8.42-5.37,17-10.27c4.23-2.4,8.54-5,12.95-7l11.4,6.2c-4.41,2.08-8.73,4.65-13,7.05q-8.62,4.9-17,10.27-6.69,4.25-13.26,8.79"/>
              <path d="M395.41,139.47l-11.4-6.2a53.07,53.07,0,0,1,6.12-2.49,26,26,0,0,1,4.58-1.05,45.4,45.4,0,0,1,9.82-.1,146.32,146.32,0,0,0,16.1.23c5.54-.19,11.1-.58,16.66-1l9.82-.74,3.89-.27c.7,0,1.37,0,1.94-.06a2,2,0,0,0,.61-.17l11.4,6.2a2.39,2.39,0,0,1-.61.17c-.57.08-1.24,0-1.94.06l-3.89.27-9.82.74c-5.56.41-11.12.8-16.66,1a146.53,146.53,0,0,1-16.11-.23,46.06,46.06,0,0,0-9.82.09,26.65,26.65,0,0,0-4.57,1.06,53.07,53.07,0,0,0-6.12,2.49"/>
              <path d="M465,133.83l-11.4-6.2.21-.12,11.4,6.2-.21.12"/>
              <path d="M465.16,133.71l-11.4-6.2.14-.11,11.39,6.2-.13.11"/>
              <path d="M465.29,133.6l-11.39-6.2.11-.12,11.4,6.2-.12.12"/>
              <path d="M465.41,133.48l-11.4-6.2.11-.13,11.4,6.2-.11.13"/>
              <path d="M465.52,133.35l-11.4-6.2a1.74,1.74,0,0,0,.11-.18l11.4,6.2a1.74,1.74,0,0,0-.11.18"/>
              <path d="M465.63,133.17l-11.4-6.2a2.55,2.55,0,0,0,.13-.29l11.4,6.2c0,.1-.09.2-.13.29"/>
              <path d="M465.76,132.88l-11.4-6.2a4.6,4.6,0,0,0,.14-.51c.32-1.63-.21-3.93-.3-5.54s-.17-3.3-.25-4.94a26,26,0,0,1,0-5,10.88,10.88,0,0,1,.57-2.33l11.4,6.2a11.52,11.52,0,0,0-.58,2.33,27.73,27.73,0,0,0,0,5c.09,1.64.17,3.29.26,4.94s.62,3.91.29,5.54a3.15,3.15,0,0,1-.13.51"/>
              <path d="M465.93,114.57l-11.4-6.2a11.38,11.38,0,0,1,.64-1.42l11.4,6.2a10.09,10.09,0,0,0-.64,1.42"/>
              <path d="M466.57,113.15l-11.4-6.2a12.24,12.24,0,0,1,.71-1.15l11.4,6.2a10.45,10.45,0,0,0-.71,1.15"/>
              <path d="M467.28,112l-11.4-6.2a13,13,0,0,1,.85-1.08l11.4,6.2a11.22,11.22,0,0,0-.85,1.08"/>
              <path d="M468.13,110.92l-11.4-6.2a14,14,0,0,1,1.09-1.09l11.4,6.2a12.46,12.46,0,0,0-1.09,1.09"/>
              <path d="M469.22,109.83l-11.4-6.2a16.37,16.37,0,0,1,1.45-1.16l.12-.08,11.4,6.2-.12.08a15,15,0,0,0-1.45,1.16"/>
              <path d="M470.79,108.59l-11.4-6.2a28.58,28.58,0,0,1,4-2.3l11.39,6.2a28.48,28.48,0,0,0-4,2.3"/>
              <path d="M474.8,106.29l-11.39-6.2a41.86,41.86,0,0,1,12-3.38A84.56,84.56,0,0,1,488.17,96,77.94,77.94,0,0,1,507,98.59l11.4,6.2a78.08,78.08,0,0,0-18.83-2.56,84.56,84.56,0,0,0-12.74.68,42,42,0,0,0-12,3.38"/>
              <path d="M518.4,104.79,507,98.59a96,96,0,0,1,18.31,6.89l11.4,6.2a96.2,96.2,0,0,0-18.31-6.89"/>
              <path d="M536.71,111.68l-11.4-6.2q2.1,1,4.15,2.15l11.39,6.2q-2.05-1.11-4.14-2.15"/>
            </g>
          </g>
        </g>
        <g class="cls-3">
          <g class="cls-25">
            <g class="cls-3">
              <path class="cls-15" d="M354.74,67.77l-11.39-6.2c2.32.6,4.68,1.14,7,1.62,8.9,1.81,18,3,27,4.26s18,3.25,27.14,4.62a82,82,0,0,0,23.75.61c1.08-.15,2.16-.33,3.25-.55,6.53-1.3,13.08-3.51,19.62-4.43a39.45,39.45,0,0,1,6.77-.4,18.47,18.47,0,0,1,3.81.36l11.4,6.2a18.5,18.5,0,0,0-3.82-.36,39.34,39.34,0,0,0-6.76.4C456,74.82,449.48,77,443,78.33c-1.09.22-2.17.4-3.25.55A82,82,0,0,1,416,78.27c-9.1-1.37-18-3.31-27.15-4.62s-18.1-2.45-27-4.26q-3.57-.72-7.06-1.62"/>
            </g>
          </g>
        </g>
        <g class="cls-3">
          <g class="cls-26">
            <g class="cls-3">
              <path class="cls-9" d="M335.46,60.42l-11.39-6.2c.81.44,1.63.86,2.46,1.27l11.4,6.2c-.83-.41-1.65-.83-2.47-1.27"/>
              <path class="cls-21" d="M337.93,61.69l-11.4-6.2a87.76,87.76,0,0,0,16.82,6.08l11.39,6.2a87.91,87.91,0,0,1-16.81-6.08"/>
              <path class="cls-15" d="M354.74,67.77l-11.39-6.2c2.32.6,4.68,1.14,7,1.62,8.9,1.81,18,3,27,4.26s18,3.25,27.14,4.62a82,82,0,0,0,23.75.61c1.08-.15,2.16-.33,3.25-.55,6.53-1.3,13.08-3.51,19.62-4.43a39.45,39.45,0,0,1,6.77-.4,18.47,18.47,0,0,1,3.81.36l11.4,6.2a18.5,18.5,0,0,0-3.82-.36,39.34,39.34,0,0,0-6.76.4C456,74.82,449.48,77,443,78.33c-1.09.22-2.17.4-3.25.55A82,82,0,0,1,416,78.27c-9.1-1.37-18-3.31-27.15-4.62s-18.1-2.45-27-4.26q-3.57-.72-7.06-1.62"/>
            </g>
          </g>
        </g>
        <g class="cls-3">
          <g class="cls-27">
            <g class="cls-3">
              <path d="M336.37,60.19,325,54c.82.45,1.64.87,2.47,1.28l11.4,6.2c-.83-.41-1.66-.83-2.47-1.28"/>
              <path d="M338.84,61.47l-11.4-6.2.43.21A84.35,84.35,0,0,0,343.37,61l11.39,6.2a84.26,84.26,0,0,1-15.49-5.55l-.43-.21"/>
              <path d="M354.76,67.23,343.37,61c12.59,3.27,26,4.42,38.84,6.38,9.5,1.47,18.8,3.7,28.41,4.71a72.79,72.79,0,0,0,17.77-.41,107.21,107.21,0,0,0,12-2.43A96.79,96.79,0,0,1,451,67c1-.14,2-.26,3-.34a23.69,23.69,0,0,1,7.56.2L473,73.1a23.63,23.63,0,0,0-7.55-.2c-1,.08-2,.2-3.06.34a97.28,97.28,0,0,0-10.61,2.24,107,107,0,0,1-12,2.43,72.79,72.79,0,0,1-17.77.41c-9.61-1-18.92-3.24-28.41-4.71-12.81-2-26.25-3.11-38.85-6.38"/>
              <path d="M473,73.1l-11.39-6.2a8.08,8.08,0,0,1,1.54.56l11.39,6.2A7.84,7.84,0,0,0,473,73.1"/>
              <path d="M474.51,73.66l-11.39-6.2.12.06.08,0,11.4,6.2-.09,0-.12-.06"/>
            </g>
          </g>
        </g>
        <g class="cls-3">
          <g class="cls-28">
            <g class="cls-3">
              <path d="M335.46,60.42l-11.39-6.2a58.4,58.4,0,0,1-13.94-10.45,46,46,0,0,1-11-17.58c-2.25-6.74-1.93-14.88-5.81-20.75A10.18,10.18,0,0,0,289.66,2l11.4,6.2a10.18,10.18,0,0,1,3.62,3.42c3.88,5.87,3.56,14,5.8,20.75a45.89,45.89,0,0,0,11,17.58,58.35,58.35,0,0,0,13.93,10.45"/>
            </g>
          </g>
        </g>
        <g class="cls-3">
          <g class="cls-29">
            <g class="cls-3">
              <path class="cls-15" d="M294.44,7.19,283.05,1a11.48,11.48,0,0,1,4.5.2L299,7.39a11.52,11.52,0,0,0-4.51-.2"/>
              <path class="cls-21" d="M299,7.39l-11.4-6.2a9.53,9.53,0,0,1,1.78.66l11.39,6.2A9.43,9.43,0,0,0,299,7.39"/>
              <path class="cls-9" d="M300.72,8.05l-11.39-6.2.33.17,11.4,6.2-.34-.17"/>
            </g>
          </g>
        </g>
        <g class="cls-3">
          <g class="cls-30">
            <g class="cls-3">
              <path class="cls-15" d="M294.44,7.19,283.05,1a11.48,11.48,0,0,1,4.5.2L299,7.39a11.52,11.52,0,0,0-4.51-.2"/>
            </g>
          </g>
        </g>
        <g class="cls-3">
          <g class="cls-31">
            <g class="cls-3">
              <path d="M294.58,6.34,283.18.14a11.67,11.67,0,0,1,4.61.19l11.39,6.2a11.61,11.61,0,0,0-4.6-.19"/>
              <path d="M299.18,6.53,287.79.33a9.47,9.47,0,0,1,1.75.65l11.39,6.2a9.21,9.21,0,0,0-1.75-.65"/>
              <path d="M300.93,7.18,289.54,1l.32.17,11.4,6.2-.33-.17"/>
            </g>
          </g>
        </g>
        <g class="cls-3">
          <g class="cls-32">
            <g class="cls-3">
              <path class="cls-9" d="M282.49,13.45,271.1,7.25l1.13-1c.68-.57,1.38-1.11,2.1-1.61l11.4,6.2c-.72.5-1.43,1-2.1,1.61l-1.14,1"/>
              <path class="cls-21" d="M285.73,10.85l-11.4-6.2a25.29,25.29,0,0,1,3.55-2.05l11.39,6.2a25.77,25.77,0,0,0-3.54,2"/>
              <path class="cls-15" d="M289.27,8.8,277.88,2.6A18.17,18.17,0,0,1,283.05,1l11.39,6.2a18.37,18.37,0,0,0-5.17,1.61"/>
            </g>
          </g>
        </g>
        <g class="cls-3">
          <g class="cls-33">
            <g class="cls-3">
              <path class="cls-15" d="M167.72,53.82l-11.39-6.2A169.51,169.51,0,0,1,205,32.93c1.79-.26,3.57-.48,5.36-.67,9.18-1,18.26-.38,27.42-1.53a36.62,36.62,0,0,0,10.68-3.09l11.4,6.2a36.62,36.62,0,0,1-10.68,3.09c-9.17,1.15-18.25.57-27.42,1.53q-2.69.28-5.37.67a169.61,169.61,0,0,0-48.65,14.69"/>
              <path class="cls-21" d="M259.84,33.84l-11.4-6.2a33.34,33.34,0,0,0,4.75-2.74l11.39,6.2a33.24,33.24,0,0,1-4.74,2.74"/>
              <path class="cls-9" d="M264.58,31.1l-11.39-6.2a37.41,37.41,0,0,0,3.74-3l11.4,6.2a36.4,36.4,0,0,1-3.75,3"/>
              <path class="cls-10" d="M268.33,28.13l-11.4-6.2.56-.51c4.76-4.44,8.78-9.82,13.61-14.17l11.39,6.2c-4.83,4.35-8.84,9.73-13.61,14.17l-.55.51"/>
            </g>
          </g>
        </g>
        <g class="cls-3">
          <g class="cls-34">
            <g class="cls-3">
              <path d="M114.86,252.67l-11.4-6.19q2.58,1.4,5.18,2.75,2.11,1.11,4.26,2.16l11.39,6.2c-1.43-.7-2.84-1.42-4.25-2.16-1.74-.9-3.46-1.82-5.18-2.76"/>
              <path d="M124.29,257.59l-11.39-6.2a119.53,119.53,0,0,0,22.72,8.76l11.39,6.2a119.79,119.79,0,0,1-22.72-8.76"/>
              <path d="M147,266.35l-11.39-6.2a78.71,78.71,0,0,0,11.18,2.09,62.13,62.13,0,0,0,15.48-.28,92.35,92.35,0,0,0,24.37-7.37c1.33-.59,2.65-1.19,4-1.81L202,259c-1.31.62-2.64,1.22-4,1.81a92,92,0,0,1-24.38,7.36,61.58,61.58,0,0,1-15.47.29A79.11,79.11,0,0,1,147,266.35"/>
              <path d="M202,259l-11.39-6.2c16.63-7.85,32.55-18.25,49.16-26.08l11.39,6.19C234.56,240.73,218.65,251.13,202,259"/>
              <path d="M251.17,232.89l-11.39-6.19a131.68,131.68,0,0,1,21.48-8.17c13.21-3.62,26.61-5.85,39.63-11,2.11-.84,4.21-1.74,6.29-2.72l11.39,6.2c-2.07,1-4.17,1.88-6.28,2.72-13,5.12-26.42,7.35-39.63,11a132.66,132.66,0,0,0-21.49,8.16"/>
              <path d="M318.57,211l-11.39-6.2c1.17-.55,2.34-1.13,3.5-1.74,2-1,4-2.14,5.9-3.33,1.05-.65,2.5-1.35,3.69-2.17l11.4,6.2c-1.19.82-2.64,1.52-3.7,2.17q-2.89,1.77-5.89,3.33-1.74.91-3.51,1.74"/>
              <path d="M331.67,203.8l-11.4-6.2a8.24,8.24,0,0,0,.9-.7l11.4,6.2a9.33,9.33,0,0,1-.9.7"/>
              <path d="M332.57,203.1l-11.4-6.2a6.08,6.08,0,0,0,.44-.44h0l11.39,6.2h0c-.14.15-.28.29-.44.44"/>
              <path d="M333,202.65l-11.39-6.2a3,3,0,0,0,.22-.28l11.39,6.2a3,3,0,0,1-.22.28"/>
              <path d="M333.23,202.37l-11.39-6.2a4.05,4.05,0,0,0,.21-.35l11.4,6.2c-.07.12-.14.24-.22.35"/>
              <path d="M333.45,202l-11.4-6.2a3.14,3.14,0,0,0,.23-.53l11.4,6.2a4.23,4.23,0,0,1-.23.53"/>
              <path d="M333.68,201.49l-11.4-6.2c1-2.81-.42-7.54-1.06-9.7a26.45,26.45,0,0,0-4.25-8.43l11.4,6.2a26.45,26.45,0,0,1,4.25,8.43c.63,2.16,2.08,6.89,1.06,9.7"/>
            </g>
          </g>
        </g>
        <g class="cls-3">
          <g class="cls-35">
            <g class="cls-3">
              <path class="cls-15" d="M167.72,53.82l-11.39-6.2A169.51,169.51,0,0,1,205,32.93c1.79-.26,3.57-.48,5.36-.67,9.18-1,18.26-.38,27.42-1.53a36.62,36.62,0,0,0,10.68-3.09l11.4,6.2a36.62,36.62,0,0,1-10.68,3.09c-9.17,1.15-18.25.57-27.42,1.53q-2.69.28-5.37.67a169.61,169.61,0,0,0-48.65,14.69"/>
            </g>
          </g>
        </g>
        <g class="cls-3">
          <g class="cls-36">
            <g class="cls-3">
              <path class="cls-15" d="M167.72,53.82l-11.39-6.2A169.51,169.51,0,0,1,205,32.93c1.79-.26,3.57-.48,5.36-.67,9.18-1,18.26-.38,27.42-1.53a36.62,36.62,0,0,0,10.68-3.09l11.4,6.2a36.62,36.62,0,0,1-10.68,3.09c-9.17,1.15-18.25.57-27.42,1.53q-2.69.28-5.37.67a169.61,169.61,0,0,0-48.65,14.69"/>
            </g>
          </g>
        </g>
        <g class="cls-3">
          <g class="cls-37">
            <g class="cls-3">
              <path class="cls-21" d="M135.86,72.44l-11.4-6.2a227.15,227.15,0,0,1,30.27-17.85l1.6-.77,11.39,6.2-1.59.77a225.89,225.89,0,0,0-30.27,17.85"/>
              <path class="cls-15" d="M167.72,53.82l-11.39-6.2A169.51,169.51,0,0,1,205,32.93c1.79-.26,3.57-.48,5.36-.67,9.18-1,18.26-.38,27.42-1.53a36.62,36.62,0,0,0,10.68-3.09l11.4,6.2a36.62,36.62,0,0,1-10.68,3.09c-9.17,1.15-18.25.57-27.42,1.53q-2.69.28-5.37.67a169.61,169.61,0,0,0-48.65,14.69"/>
            </g>
          </g>
        </g>
        <g class="cls-3">
          <g class="cls-38">
            <g class="cls-3">
              <path class="cls-9" d="M96.33,104.26l-11.4-6.2C91.43,92.2,98,86.49,104.82,81c6.39-5.17,12.94-10.13,19.64-14.77l11.4,6.2c-6.7,4.64-13.25,9.6-19.65,14.77-6.77,5.48-13.38,11.19-19.88,17.05"/>
              <path class="cls-21" d="M135.86,72.44l-11.4-6.2a227.15,227.15,0,0,1,30.27-17.85l1.6-.77,11.39,6.2-1.59.77a225.89,225.89,0,0,0-30.27,17.85"/>
            </g>
          </g>
        </g>
        <g class="cls-3">
          <g class="cls-39">
            <g class="cls-3">
              <path class="cls-6" d="M114.86,252.67l-11.4-6.19C80.52,234,59.06,218.83,37.29,204.4c-6.48-4.28-13-8.54-19.54-12.66-3.24-2.05-6.57-4-9.76-6.06S.6,180.4.66,175.53a6.16,6.16,0,0,1,.33-2l11.4,6.2a5.91,5.91,0,0,0-.33,2c-.06,4.87,4,8,7.33,10.15s6.52,4,9.76,6.05c6.57,4.13,13.06,8.39,19.53,12.67,21.77,14.43,43.23,29.59,66.18,42.07"/>
            </g>
          </g>
        </g>
        <g class="cls-3">
          <g class="cls-40">
            <g class="cls-3">
              <path class="cls-10" d="M63.81,134.62l-11.39-6.2c2.06-1.85,4.07-3.74,6-5.62,8.75-8.35,17.52-16.68,26.47-24.74l11.4,6.2c-9,8.06-17.72,16.39-26.47,24.74-2,1.88-4,3.77-6,5.62"/>
              <path class="cls-9" d="M96.33,104.26l-11.4-6.2C91.43,92.2,98,86.49,104.82,81c6.39-5.17,12.94-10.13,19.64-14.77l11.4,6.2c-6.7,4.64-13.25,9.6-19.65,14.77-6.77,5.48-13.38,11.19-19.88,17.05"/>
            </g>
          </g>
        </g>
        <g class="cls-3">
          <g class="cls-41">
            <g class="cls-3">
              <path class="cls-6" d="M114.86,252.67l-11.4-6.19C80.52,234,59.06,218.83,37.29,204.4c-6.48-4.28-13-8.54-19.54-12.66-3.24-2.05-6.57-4-9.76-6.06S.6,180.4.66,175.53a6.16,6.16,0,0,1,.33-2l11.4,6.2a5.91,5.91,0,0,0-.33,2c-.06,4.87,4,8,7.33,10.15s6.52,4,9.76,6.05c6.57,4.13,13.06,8.39,19.53,12.67,21.77,14.43,43.23,29.59,66.18,42.07"/>
            </g>
          </g>
        </g>
        <g class="cls-3">
          <g class="cls-42">
            <g class="cls-3">
              <path class="cls-15" d="M14.48,177.46l-11.39-6.2A6.19,6.19,0,0,1,5,170.72c2.63-.37,5.85.32,7.78.47q6.09.5,12.2.92,12.71.85,25.49,1.3l11.4,6.2q-12.78-.44-25.5-1.3-6.09-.42-12.19-.92c-1.93-.15-5.15-.84-7.79-.47a6.27,6.27,0,0,0-1.92.54"/>
            </g>
          </g>
        </g>
        <g class="cls-3">
          <g class="cls-43">
            <g class="cls-3">
              <path class="cls-6" d="M114.86,252.67l-11.4-6.19C80.52,234,59.06,218.83,37.29,204.4c-6.48-4.28-13-8.54-19.54-12.66-3.24-2.05-6.57-4-9.76-6.06S.6,180.4.66,175.53a6.16,6.16,0,0,1,.33-2l11.4,6.2a5.91,5.91,0,0,0-.33,2c-.06,4.87,4,8,7.33,10.15s6.52,4,9.76,6.05c6.57,4.13,13.06,8.39,19.53,12.67,21.77,14.43,43.23,29.59,66.18,42.07"/>
            </g>
          </g>
        </g>
        <g class="cls-3">
          <g class="cls-44">
            <g class="cls-3">
              <path class="cls-15" d="M14.48,177.46l-11.39-6.2A6.19,6.19,0,0,1,5,170.72c2.63-.37,5.85.32,7.78.47q6.09.5,12.2.92,12.71.85,25.49,1.3l11.4,6.2q-12.78-.44-25.5-1.3-6.09-.42-12.19-.92c-1.93-.15-5.15-.84-7.79-.47a6.27,6.27,0,0,0-1.92.54"/>
            </g>
          </g>
        </g>
        <g class="cls-3">
          <g class="cls-45">
            <g class="cls-3">
              <path class="cls-15" d="M14.48,177.46l-11.39-6.2A6.19,6.19,0,0,1,5,170.72c2.63-.37,5.85.32,7.78.47q6.09.5,12.2.92,12.71.85,25.49,1.3l11.4,6.2q-12.78-.44-25.5-1.3-6.09-.42-12.19-.92c-1.93-.15-5.15-.84-7.79-.47a6.27,6.27,0,0,0-1.92.54"/>
            </g>
          </g>
        </g>
        <g class="cls-3">
          <g class="cls-46">
            <g class="cls-3">
              <path d="M16.2,176.16,4.81,170c4.39-.14,8,.51,11.49.78q5.53.44,11.08.8,8.27.54,16.55.89l11.4,6.2q-8.28-.36-16.55-.89-5.55-.36-11.08-.8c-3.51-.27-7.1-.93-11.5-.78"/>
            </g>
          </g>
        </g>
        <g class="cls-3">
          <g class="cls-47">
            <g class="cls-3">
              <path class="cls-15" d="M24.53,155.2,13.13,149a13.51,13.51,0,0,0,3.13-.13,45.2,45.2,0,0,0,13-4l11.4,6.2a45.16,45.16,0,0,1-13,4,13.42,13.42,0,0,1-3.12.13"/>
              <path class="cls-21" d="M40.64,151.05l-11.4-6.2a71.45,71.45,0,0,0,10.14-5.93l11.4,6.2a72.58,72.58,0,0,1-10.14,5.93"/>
              <path class="cls-9" d="M50.78,145.12l-11.4-6.2a132.25,132.25,0,0,0,13-10.5l11.39,6.2a132.42,132.42,0,0,1-13,10.5"/>
              <path class="cls-10" d="M63.81,134.62l-11.39-6.2c2.06-1.85,4.07-3.74,6-5.62,8.75-8.35,17.52-16.68,26.47-24.74l11.4,6.2c-9,8.06-17.72,16.39-26.47,24.74-2,1.88-4,3.77-6,5.62"/>
            </g>
          </g>
        </g>
        <g class="cls-3">
          <g class="cls-48">
            <g class="cls-3">
              <path class="cls-15" d="M24.53,155.2,13.13,149a13.51,13.51,0,0,0,3.13-.13,45.2,45.2,0,0,0,13-4l11.4,6.2a45.16,45.16,0,0,1-13,4,13.42,13.42,0,0,1-3.12.13"/>
            </g>
          </g>
        </g>
        <g class="cls-3">
          <g class="cls-49">
            <g class="cls-3">
              <path class="cls-6" d="M114.86,252.67l-11.4-6.19C80.52,234,59.06,218.83,37.29,204.4c-6.48-4.28-13-8.54-19.54-12.66-3.24-2.05-6.57-4-9.76-6.06S.6,180.4.66,175.53a6.16,6.16,0,0,1,.33-2l11.4,6.2a5.91,5.91,0,0,0-.33,2c-.06,4.87,4,8,7.33,10.15s6.52,4,9.76,6.05c6.57,4.13,13.06,8.39,19.53,12.67,21.77,14.43,43.23,29.59,66.18,42.07"/>
            </g>
          </g>
        </g>
        <g class="cls-3">
          <g class="cls-50">
            <g class="cls-3">
              <path class="cls-15" d="M24.53,155.2,13.13,149a13.51,13.51,0,0,0,3.13-.13,45.2,45.2,0,0,0,13-4l11.4,6.2a45.16,45.16,0,0,1-13,4,13.42,13.42,0,0,1-3.12.13"/>
            </g>
          </g>
        </g>
        <g class="cls-3">
          <g class="cls-51">
            <g class="cls-3">
              <path d="M24.81,155.36l-11.4-6.2.23-.17,11.4,6.2-.23.17"/>
              <path d="M25,155.19,13.64,149a5,5,0,0,1,.58-.33l11.4,6.2a3.74,3.74,0,0,0-.58.33"/>
              <path d="M25.62,154.86l-11.4-6.2a6.86,6.86,0,0,1,2.12-.52,41.86,41.86,0,0,0,10.48-2.92c.76-.32,1.52-.66,2.27-1l11.4,6.2q-1.12.54-2.28,1a41.79,41.79,0,0,1-10.47,2.92,6.79,6.79,0,0,0-2.12.52"/>
              <path d="M40.49,150.4l-11.4-6.2A73.88,73.88,0,0,0,39.78,138l11.4,6.2a75,75,0,0,1-10.69,6.24"/>
              <path d="M51.18,144.16,39.78,138a130.48,130.48,0,0,0,13-10.44l11.39,6.2a130.37,130.37,0,0,1-13,10.44"/>
              <path d="M64.16,133.72l-11.39-6.2c7.89-7.11,15.37-15,22.89-21.93q4.11-3.81,8.27-7.56l11.4,6.2q-4.17,3.75-8.27,7.56c-7.52,7-15,14.82-22.9,21.93"/>
              <path d="M95.33,104.23,83.93,98A408,408,0,0,1,124.19,65.6l11.4,6.2a406.86,406.86,0,0,0-40.26,32.43"/>
              <path d="M135.59,71.8l-11.4-6.2.51-.35a225.4,225.4,0,0,1,31.54-18.31l11.4,6.2A225.4,225.4,0,0,0,136.1,71.45l-.51.35"/>
              <path d="M167.64,53.14l-11.4-6.2A176.18,176.18,0,0,1,178,38.33a164.43,164.43,0,0,1,26.9-6.12c10.76-1.43,20.17-1.17,29.72-1.9,1.31-.1,2.62-.23,3.94-.42a32.92,32.92,0,0,0,9.6-2.7l11.4,6.2a33,33,0,0,1-9.6,2.7c-1.32.19-2.64.32-3.94.42-9.56.73-19,.47-29.72,1.9a164.43,164.43,0,0,0-26.9,6.12,176.18,176.18,0,0,0-21.8,8.61"/>
              <path d="M259.6,33.39l-11.4-6.2c.24-.12.48-.23.72-.36a29,29,0,0,0,3.38-2L263.7,31a29,29,0,0,1-3.38,2l-.72.36"/>
              <path d="M263.7,31l-11.4-6.2a42.49,42.49,0,0,0,4.11-3.28l11.39,6.2A42.37,42.37,0,0,1,263.7,31"/>
              <path d="M267.8,27.73l-11.39-6.2c.84-.76,1.66-1.55,2.46-2.35,4-4,7.61-8.68,11.82-12.47l11.4,6.2c-4.21,3.79-7.82,8.44-11.83,12.47-.8.8-1.62,1.59-2.46,2.35"/>
              <path d="M282.09,12.91l-11.4-6.2A36.31,36.31,0,0,1,274,4.06l.32-.23L285.7,10l-.33.23a37.62,37.62,0,0,0-3.28,2.65"/>
              <path d="M285.7,10l-11.4-6.2a25,25,0,0,1,3.48-2L289.18,8a24.47,24.47,0,0,0-3.48,2"/>
              <path d="M289.18,8l-11.4-6.2a19,19,0,0,1,5.4-1.67l11.4,6.2A19,19,0,0,0,289.18,8"/>
            </g>
          </g>
        </g>
        <g class="cls-3">
          <g class="cls-52">
            <g class="cls-3">
              <path class="cls-15" d="M24.53,155.2,13.13,149a13.51,13.51,0,0,0,3.13-.13,45.2,45.2,0,0,0,13-4l11.4,6.2a45.16,45.16,0,0,1-13,4,13.42,13.42,0,0,1-3.12.13"/>
            </g>
          </g>
        </g>
        <g class="cls-3">
          <g class="cls-53">
            <g class="cls-3">
              <path class="cls-6" d="M114.86,252.67l-11.4-6.19C80.52,234,59.06,218.83,37.29,204.4c-6.48-4.28-13-8.54-19.54-12.66-3.24-2.05-6.57-4-9.76-6.06S.6,180.4.66,175.53a6.16,6.16,0,0,1,.33-2l11.4,6.2a5.91,5.91,0,0,0-.33,2c-.06,4.87,4,8,7.33,10.15s6.52,4,9.76,6.05c6.57,4.13,13.06,8.39,19.53,12.67,21.77,14.43,43.23,29.59,66.18,42.07"/>
              <path class="cls-54" d="M12.39,179.72,1,173.52a4,4,0,0,1,.25-.55l11.4,6.2a3.07,3.07,0,0,0-.25.55"/>
              <path class="cls-55" d="M12.64,179.17,1.24,173a3.26,3.26,0,0,1,.24-.4l11.4,6.2a3.26,3.26,0,0,0-.24.4"/>
              <path class="cls-13" d="M12.88,178.77l-11.4-6.2.26-.33,11.4,6.2-.26.33"/>
              <path class="cls-10" d="M13.14,178.44l-11.4-6.2a2.91,2.91,0,0,1,.31-.3l11.39,6.2a2.83,2.83,0,0,0-.3.3"/>
              <path class="cls-9" d="M13.44,178.14l-11.39-6.2a2.31,2.31,0,0,1,.39-.31l11.4,6.19a4,4,0,0,0-.4.32"/>
              <path class="cls-21" d="M13.84,177.82l-11.4-6.19a3.77,3.77,0,0,1,.65-.37l11.39,6.2a4,4,0,0,0-.64.36"/>
              <path class="cls-15" d="M14.48,177.46l-11.39-6.2A6.19,6.19,0,0,1,5,170.72c2.63-.37,5.85.32,7.78.47q6.09.5,12.2.92,12.71.85,25.49,1.3l11.4,6.2q-12.78-.44-25.5-1.3-6.09-.42-12.19-.92c-1.93-.15-5.15-.84-7.79-.47a6.27,6.27,0,0,0-1.92.54"/>
            </g>
          </g>
        </g>
        <g class="cls-3">
          <g class="cls-56">
            <g class="cls-3">
              <path class="cls-15" d="M24.53,155.2,13.13,149a13.51,13.51,0,0,0,3.13-.13,45.2,45.2,0,0,0,13-4l11.4,6.2a45.16,45.16,0,0,1-13,4,13.42,13.42,0,0,1-3.12.13"/>
            </g>
          </g>
        </g>
        <g class="cls-3">
          <g class="cls-57">
            <g class="cls-3">
              <path d="M117.11,255l-11.4-6.2c-7.66-4.17-15-8.78-22.15-13.17C58.81,220.32,35.16,203.19,10.31,188c-4-2.43-9.12-5.3-10.16-10.69a7.25,7.25,0,0,1,.23-3.86l11.4,6.2a7.25,7.25,0,0,0-.23,3.86c1,5.39,6.17,8.26,10.16,10.69C46.55,209.39,70.2,226.51,95,241.84c7.11,4.39,14.48,9,22.15,13.17"/>
              <path d="M11.78,179.65l-11.4-6.2c.1-.26.21-.5.33-.74l11.4,6.2a4.91,4.91,0,0,0-.33.74"/>
              <path d="M12.11,178.91l-11.4-6.2a5.84,5.84,0,0,1,.33-.53l11.4,6.2a5.84,5.84,0,0,0-.33.53"/>
              <path d="M12.44,178.38,1,172.18a4.06,4.06,0,0,1,.36-.46l11.4,6.2a4.06,4.06,0,0,0-.36.46"/>
              <path d="M12.8,177.92l-11.4-6.2a5.44,5.44,0,0,1,.41-.42l11.4,6.2a4.07,4.07,0,0,0-.41.42"/>
              <path d="M13.21,177.5l-11.4-6.2c.17-.14.34-.28.52-.41l11.4,6.2c-.18.13-.36.27-.52.41"/>
              <path d="M13.73,177.09l-11.4-6.2a5.24,5.24,0,0,1,.77-.43l11.39,6.2a5.13,5.13,0,0,0-.76.43"/>
              <path d="M14.49,176.66,3.1,170.46a5.68,5.68,0,0,1,1.71-.5l11.39,6.2a5.57,5.57,0,0,0-1.71.5"/>
            </g>
          </g>
        </g>
        <g class="cls-3">
          <g class="cls-58">
            <g class="cls-3">
              <path d="M15.85,161.75l-11.4-6.2c3.84,2.07,7.72,4.13,11.65,6.06l11.39,6.2c-3.93-1.93-7.8-4-11.64-6.06"/>
              <path d="M27.49,167.81l-11.39-6.2a121.85,121.85,0,0,0,23.15,9l11.4,6.19a122.16,122.16,0,0,1-23.16-9"/>
              <path d="M50.65,176.8l-11.4-6.19a77.23,77.23,0,0,0,11.41,2.08l11.4,6.2a76,76,0,0,1-11.41-2.09"/>
            </g>
          </g>
        </g>
        <g class="cls-3">
          <g class="cls-59">
            <g class="cls-3">
              <path class="cls-6" d="M25.46,166.41l-11.39-6.2C11,158.53,7.94,156.77,5,155l11.4,6.2c3,1.8,6,3.56,9.11,5.24"/>
            </g>
          </g>
        </g>
        <polygon class="cls-60" points="16.35 161.17 4.95 154.97 13.13 149 24.53 155.2 16.35 161.17"/>
        <path class="cls-61" d="M294.44,7.19a9.89,9.89,0,0,1,10.24,4.45c3.88,5.87,3.56,14,5.8,20.75a45.89,45.89,0,0,0,11,17.58c10.91,11.16,25.2,16.36,40.27,19.42,8.9,1.81,18,3,27,4.26S406.85,76.9,416,78.27a82,82,0,0,0,23.75.61c1.08-.15,2.16-.33,3.25-.55,6.53-1.3,13.07-3.51,19.62-4.43a39.34,39.34,0,0,1,6.76-.4c1.51.06,4.34,0,5.38,1.17,2.64,2.92-2.46,4.87-4.55,5.33a270.29,270.29,0,0,0,30.89-.88c1.18-.09,2.41-.19,3.64-.36a15.85,15.85,0,0,0,7.79-3c2.85-2.23,4.93-5.67,7.61-8.19,7-6.6,14.95-11.83,22.35-17.76a198.89,198.89,0,0,0,21.07-19.44q5.41-5.79,10.43-12c.63-.78,3.92-5.68,4.65-5.78.64.13,1.36,4.48,1.57,5.23,2.05,7.43,3.69,15,5.08,22.74a479,479,0,0,1,6.35,55.75,653.9,653.9,0,0,1,.66,65.42c-11.33-16-24.53-30.47-40.41-41.26-15.33-10.41-33-18.11-52.27-18.32a84.56,84.56,0,0,0-12.74.68c-5.72.81-11.45,2.47-16.16,5.76a12,12,0,0,0-5.32,8.23,27.73,27.73,0,0,0,0,5c.09,1.64.17,3.29.26,4.94s.62,3.91.29,5.54c-.23,1.17-.8,1.52-1.55,1.63-.57.08-1.24,0-1.94.06l-3.89.27-9.82.74c-5.56.41-11.12.8-16.66,1a146.53,146.53,0,0,1-16.11-.23,46.06,46.06,0,0,0-9.82.09,26.65,26.65,0,0,0-4.57,1.06c-6.56,2.17-12.91,6-19.07,9.54q-8.62,4.9-17,10.27c-12.64,8-24.93,16.81-36.93,26.06a40.39,40.39,0,0,1,4.13,8.94c.73,2.5,2.55,8.44.39,10.87-1.21,1.35-3.52,2.38-5,3.31q-2.89,1.77-5.89,3.33a104.6,104.6,0,0,1-9.79,4.46c-13,5.12-26.42,7.35-39.63,11-26.18,7.16-49.46,24.94-74.61,36.06a92,92,0,0,1-24.38,7.36,61.58,61.58,0,0,1-15.47.29c-13.65-1.51-26.29-6.83-38.16-13-24.91-13-47.95-29.32-71.36-44.83-6.47-4.28-13-8.54-19.53-12.67-3.24-2-6.57-3.94-9.76-6.05S12,186.6,12.06,181.73c0-3.27,1.95-4.48,4.34-4.81,2.64-.37,5.86.32,7.79.47q6.09.5,12.19.92,12.72.85,25.5,1.3c-16.56-2.45-31.54-10-45.53-18.44l8.18-6a13.42,13.42,0,0,0,3.12-.13c15.83-2.22,30-14.37,42.21-26.07,15.11-14.41,30.25-28.77,46.35-41.79,15.7-12.69,32.29-24.1,49.92-32.62a169.76,169.76,0,0,1,50.24-15.46q2.69-.39,5.37-.67c9.17-1,18.25-.38,27.42-1.53a34.51,34.51,0,0,0,19.72-9.31c5.14-4.78,9.4-10.65,14.75-15.16A22.42,22.42,0,0,1,294.44,7.19Z"/>
        <g class="cls-3">
          <g class="cls-62">
            <g class="cls-3">
              <path d="M24.79,166.89l-11.39-6.2c-3-1.65-6-3.38-8.95-5.14l11.4,6.2c2.94,1.76,5.91,3.49,8.94,5.14"/>
            </g>
          </g>
        </g>
        <path d="M294.58,6.34a10.45,10.45,0,0,1,7.25,1.34c5.38,3.49,6.54,11,7.65,17.47,3,17.55,15.55,29.65,29.79,36.53,16.54,8,36.09,9.13,54.34,11.93,9.49,1.47,18.8,3.7,28.41,4.71a72.79,72.79,0,0,0,17.77-.41,107,107,0,0,0,12-2.43,97.28,97.28,0,0,1,10.61-2.24c1-.14,2-.26,3.06-.34,3-.23,6.61-.53,9.21.82a2.53,2.53,0,0,1,1.42,3.37,5.46,5.46,0,0,1-3.19,2.82q7.84-.28,15.72-.73c5.07-.29,10.24-.31,15.35-1,4.39-.7,7.5-1.85,10-4.64,1.26-1.38,2.34-2.94,3.64-4.31a87.44,87.44,0,0,1,10.3-9c8.79-6.83,17.71-13.35,26-21A220.7,220.7,0,0,0,578.5,11.59a165.58,165.58,0,0,1,7.22,27.86c7.27,39.71,8.9,81.73,7.16,123.37-8.3-10.71-16.81-21-26.52-29.82-14.51-13.25-32.1-24.12-51.48-28.31a75.54,75.54,0,0,0-26.3-1.14,63.06,63.06,0,0,0-9.21,2c-5.05,1.5-11.84,4.15-13.21,10.52-.55,2.51-.17,5.15-.05,7.58.18,3.51.36,7,.55,10.49-12.76,1.16-25.23,2.47-37.61,2.74-7.49.16-15.11-1.23-22.67-.17a29.9,29.9,0,0,0-7.34,2c-11.07,4.54-21.94,11.53-32.3,18.08s-20.5,13.6-30.43,21c-1.25.94-6.88,4.17-6.85,5.86,0,.74,1.46,2.28,1.8,2.92a26.27,26.27,0,0,1,1.11,2.41,34,34,0,0,1,2.15,13.26c-13.85,10-28.62,15.1-43.87,18.81-7.71,1.88-15.47,3.48-23.11,5.95a146.14,146.14,0,0,0-21.45,9.18c-13.08,6.66-25.74,14.46-38.84,21.05-10.73,5.4-22,10.23-33.33,11.83-1.61.22-3.21.38-4.82.47C141.43,271,116.92,255.42,95,241.84,70.2,226.51,46.55,209.39,21.71,194.2c-4-2.43-9.12-5.3-10.16-10.69-.74-3.83,1.19-6.87,4.65-7.35,4.4-.15,8,.51,11.5.78q5.54.44,11.08.8,8.27.54,16.55.89c-14.25-2.78-27.24-9.53-39.48-16.88,14.49,7.83,29.47,15.41,46.21,17.14a219.08,219.08,0,0,1-25.68-.58q-6.09-.42-12.19-.92c-1.93-.15-5.15-.84-7.79-.47-2.39.33-4.3,1.54-4.34,4.81-.06,4.87,4,8,7.33,10.15s6.52,4,9.76,6.05c6.57,4.13,13.06,8.39,19.53,12.67,23.41,15.51,46.45,31.87,71.36,44.83,11.87,6.18,24.51,11.5,38.16,13a61.58,61.58,0,0,0,15.47-.29,92,92,0,0,0,24.38-7.36c25.15-11.12,48.43-28.9,74.61-36.06,13.21-3.62,26.61-5.85,39.63-11a104.6,104.6,0,0,0,9.79-4.46q3-1.56,5.89-3.33c1.52-.93,3.83-2,5-3.31,2.16-2.43.34-8.37-.39-10.87a26.45,26.45,0,0,0-4.25-8.43,407.68,407.68,0,0,1,37.05-26.57q8.41-5.37,17-10.27c6.16-3.5,12.51-7.37,19.07-9.54a26.65,26.65,0,0,1,4.57-1.06,46.06,46.06,0,0,1,9.82-.09,146.53,146.53,0,0,0,16.11.23c5.54-.19,11.1-.58,16.66-1l9.82-.74,3.89-.27c.7,0,1.37,0,1.94-.06.75-.11,1.32-.46,1.55-1.63.33-1.63-.21-3.93-.29-5.54s-.17-3.3-.26-4.94a27.73,27.73,0,0,1,0-5,12,12,0,0,1,5.32-8.23c4.71-3.29,10.44-5,16.16-5.76a84.56,84.56,0,0,1,12.74-.68c19.27.21,36.94,7.91,52.27,18.32,15.88,10.79,29.08,25.22,40.41,41.26a653.9,653.9,0,0,0-.66-65.42,479,479,0,0,0-6.35-55.75c-1.39-7.7-3-15.31-5.08-22.74-.21-.75-.93-5.1-1.52-5.23-.78.1-4.07,5-4.7,5.78q-5,6.18-10.43,12a198.89,198.89,0,0,1-21.07,19.44C535,55.79,527.06,61,520.09,67.62c-2.68,2.52-4.76,6-7.61,8.19a15.85,15.85,0,0,1-7.79,3c-1.23.17-2.46.27-3.64.36-10.31.78-20.61,1.28-30.89,1.6,2.09-1.18,7.19-3.13,4.55-6-1-1.15-3.87-1.11-5.38-1.17a39.34,39.34,0,0,0-6.76.4C456,74.82,449.48,77,443,78.33c-1.09.22-2.17.4-3.25.55A82,82,0,0,1,416,78.27c-9.1-1.37-18-3.31-27.15-4.62s-18.1-2.45-27-4.26c-15.07-3.06-29.36-8.26-40.27-19.42a45.89,45.89,0,0,1-11-17.58c-2.24-6.74-1.92-14.88-5.8-20.75a9.89,9.89,0,0,0-10.24-4.45,22.42,22.42,0,0,0-10.81,5.27C278.28,17,274,22.84,268.88,27.62a34,34,0,0,1-19.17,9.23c-9.72,1.23-18.8.65-28,1.61q-2.69.28-5.37.67a169.76,169.76,0,0,0-50.24,15.46c-17.63,8.52-34.22,19.93-49.92,32.62-16.1,13-31.24,27.38-46.35,41.79-12.26,11.7-26.38,23.85-42.21,26.07-.94.13-1.89.23-2.84.29a5.41,5.41,0,0,1,2.93-1,41.79,41.79,0,0,0,10.47-2.92c18.63-7.86,33.66-25.56,48.85-39.63,15.62-14.48,31.77-28.45,49-40.34,16.8-11.57,34.71-21,53.34-26.92a164.43,164.43,0,0,1,26.9-6.12c10.75-1.43,20.16-1.17,29.72-1.9,1.3-.1,2.62-.23,3.94-.42A32.29,32.29,0,0,0,260.32,33a39.74,39.74,0,0,0,9.94-7.65c5-5,9.39-11,15.11-15.12A21.59,21.59,0,0,1,294.58,6.34Z"/>
      </g>
    </g>
    <ellipse class="cls-63" cx="128.38" cy="160.55" rx="44" ry="64.5"/>
    <circle class="cls-64" cx="121.88" cy="184.55" r="23.5"/>
  </g>
</svg>
