<svg id="Layer_1" data-name="Layer 1" xmlns="http://www.w3.org/2000/svg" width="855.43" height="940" viewBox="0 0 855.43 940">
  <defs>
    <style>
      .cls-1 {
        fill: #ffd51c;
        stroke-width: 30px;
      }

      .cls-1, .cls-2 {
        stroke: #e6e6e6;
      }

      .cls-1, .cls-2, .cls-3 {
        stroke-miterlimit: 10;
      }

      .cls-2, .cls-3 {
        fill: none;
      }

      .cls-2 {
        stroke-width: 65px;
      }

      .cls-3 {
        stroke: #000;
        stroke-width: 7px;
      }

      .cls-4 {
        fill: #fdffe2;
      }
    </style>
  </defs>
  <g>
    <path class="cls-1" d="M97.7,190.87l63,688.21a850.15,850.15,0,0,0,194.41,42.25,817.65,817.65,0,0,0,225.5-9.89q42.75-368.07,85.49-736.14c-62,36.84-159.52,81.64-281.74,85.35C260.5,264.41,160.86,224.48,97.7,190.87Z"/>
    <path class="cls-2" d="M677.59,325.89c-23.35-2,137.63,10.57,137.63,10.57S886.12,631.55,597.8,774"/>
    <path class="cls-3" d="M139.34,374.82s.37-56.13,21.1-58.89,39.17,12.67,40.87,93.58,4.34,398.54,4.34,398.54"/>
    <path class="cls-3" d="M249,422.88s3.75-56.1,30.11-58.08,48.75,14.14,46.17,95.09-17.82,398.6-17.82,398.6"/>
    <path class="cls-3" d="M377.7,410.88s6.67-59.07,34.19-59.07,50,18.85,43.36,104.31-38.18,420.4-38.18,420.4"/>
    <path class="cls-3" d="M496.89,373.84s10.79-60.4,41.86-57.77,55.44,24.28,43.19,112-66.3,430.78-66.3,430.78"/>
    <path class="cls-4" d="M100,81.16C86.06,167-45.17,212.54,16.3,261.66c88.65-38.72,237.93,44,203.62,94.62s-4.59,159.88-13.27,245.59-18,314.07,31.72,298.84,21-360.76,44.78-467.64S316.42,267,344,255.2s6.29,199,67.82,154.34,23.74-121,49.9-147.88,18.68,7.15,69.29,55.2,65.15,41.6,76.78-14.33,34.08-110.36,59.91-86.91,95.95,51.84,90,0S687.79,163.55,694,131.4,622.49,3.77,575.18,39.67s-52.38-2.41-124,41.49S369.46,30.41,349.84,45.47,272.05-53,229.92,31.72,119.72-13.36,112,27.89,100,81.16,100,81.16Z"/>
  </g>
</svg>
