<svg id="Layer_1" data-name="Layer 1" xmlns="http://www.w3.org/2000/svg" xmlns:xlink="http://www.w3.org/1999/xlink" width="147.58" height="140.3" viewBox="0 0 147.58 140.3">
  <defs>
    <style>
      .cls-1 {
        fill: none;
      }

      .cls-2 {
        opacity: 0.94;
      }

      .cls-3 {
        isolation: isolate;
      }

      .cls-4 {
        clip-path: url(#clip-path);
      }

      .cls-5 {
        clip-path: url(#clip-path-2);
      }

      .cls-6 {
        clip-path: url(#clip-path-3);
      }

      .cls-7 {
        fill: #434343;
      }

      .cls-8 {
        clip-path: url(#clip-path-4);
      }

      .cls-9 {
        clip-path: url(#clip-path-5);
      }

      .cls-10 {
        clip-path: url(#clip-path-6);
      }

      .cls-11 {
        clip-path: url(#clip-path-7);
      }

      .cls-12 {
        clip-path: url(#clip-path-8);
      }

      .cls-13 {
        clip-path: url(#clip-path-9);
      }

      .cls-14 {
        fill: #4f4f4f;
      }

      .cls-15 {
        fill: #525252;
      }

      .cls-16 {
        fill: #545454;
      }

      .cls-17 {
        fill: #4d4d4d;
      }

      .cls-18 {
        fill: #4a4a4a;
      }

      .cls-19 {
        clip-path: url(#clip-path-10);
      }

      .cls-20 {
        clip-path: url(#clip-path-11);
      }

      .cls-21 {
        clip-path: url(#clip-path-12);
      }

      .cls-22 {
        clip-path: url(#clip-path-13);
      }

      .cls-23 {
        clip-path: url(#clip-path-14);
      }

      .cls-24 {
        clip-path: url(#clip-path-15);
      }

      .cls-25 {
        clip-path: url(#clip-path-16);
      }

      .cls-26 {
        clip-path: url(#clip-path-17);
      }

      .cls-27 {
        clip-path: url(#clip-path-18);
      }

      .cls-28 {
        clip-path: url(#clip-path-19);
      }

      .cls-29 {
        clip-path: url(#clip-path-20);
      }

      .cls-30 {
        clip-path: url(#clip-path-21);
      }

      .cls-31 {
        clip-path: url(#clip-path-22);
      }

      .cls-32 {
        clip-path: url(#clip-path-23);
      }

      .cls-33 {
        clip-path: url(#clip-path-24);
      }

      .cls-34 {
        clip-path: url(#clip-path-25);
      }

      .cls-35 {
        clip-path: url(#clip-path-26);
      }

      .cls-36 {
        clip-path: url(#clip-path-27);
      }

      .cls-37 {
        clip-path: url(#clip-path-28);
      }

      .cls-38 {
        clip-path: url(#clip-path-29);
      }

      .cls-39 {
        clip-path: url(#clip-path-30);
      }

      .cls-40 {
        clip-path: url(#clip-path-31);
      }

      .cls-41 {
        clip-path: url(#clip-path-32);
      }

      .cls-42 {
        clip-path: url(#clip-path-33);
      }

      .cls-43 {
        clip-path: url(#clip-path-34);
      }

      .cls-44 {
        clip-path: url(#clip-path-35);
      }

      .cls-45 {
        clip-path: url(#clip-path-36);
      }

      .cls-46 {
        clip-path: url(#clip-path-37);
      }

      .cls-47 {
        fill: #484848;
      }

      .cls-48 {
        fill: #454545;
      }

      .cls-49 {
        clip-path: url(#clip-path-38);
      }

      .cls-50 {
        clip-path: url(#clip-path-39);
      }

      .cls-51 {
        clip-path: url(#clip-path-40);
      }

      .cls-52 {
        clip-path: url(#clip-path-41);
      }

      .cls-53 {
        clip-path: url(#clip-path-42);
      }

      .cls-54 {
        clip-path: url(#clip-path-43);
      }

      .cls-55 {
        clip-path: url(#clip-path-44);
      }

      .cls-56 {
        clip-path: url(#clip-path-45);
      }

      .cls-57 {
        clip-path: url(#clip-path-46);
      }

      .cls-58 {
        clip-path: url(#clip-path-47);
      }

      .cls-59 {
        clip-path: url(#clip-path-48);
      }

      .cls-60 {
        clip-path: url(#clip-path-49);
      }

      .cls-61 {
        clip-path: url(#clip-path-50);
      }

      .cls-62 {
        clip-path: url(#clip-path-51);
      }

      .cls-63 {
        clip-path: url(#clip-path-52);
      }

      .cls-64 {
        clip-path: url(#clip-path-53);
      }

      .cls-65 {
        clip-path: url(#clip-path-54);
      }

      .cls-66 {
        clip-path: url(#clip-path-55);
      }

      .cls-67 {
        clip-path: url(#clip-path-56);
      }

      .cls-68 {
        fill: #575757;
      }

      .cls-69 {
        clip-path: url(#clip-path-57);
      }

      .cls-70 {
        clip-path: url(#clip-path-58);
      }

      .cls-71 {
        fill: #707070;
      }

      .cls-72 {
        fill: #fff;
      }

      .cls-72, .cls-73 {
        stroke: #000;
        stroke-miterlimit: 10;
        stroke-width: 0.25px;
      }

      .cls-74 {
        fill: lime;
      }
    </style>
    <clipPath id="clip-path">
      <path class="cls-1" d="M146.92,115.46l-11.39-6.2a.31.31,0,0,1-.11-.09l11.4,6.2A.28.28,0,0,0,146.92,115.46Z"/>
    </clipPath>
    <clipPath id="clip-path-2">
      <path class="cls-1" d="M146.82,114.12l-11.4-6.2A148.52,148.52,0,0,0,135,90.11a79.11,79.11,0,0,0-2.64-15.65l11.39,6.2a78.38,78.38,0,0,1,2.64,15.65A148.51,148.51,0,0,1,146.82,114.12Z"/>
    </clipPath>
    <clipPath id="clip-path-3">
      <path class="cls-1" d="M135.42,107.92q-1.36-1.87-2.9-3.6l11.4,6.2q1.53,1.73,2.9,3.6Z"/>
    </clipPath>
    <clipPath id="clip-path-4">
      <path class="cls-1" d="M132.4,104.19l11.4,6.2.12.13-11.4-6.2Z"/>
    </clipPath>
    <clipPath id="clip-path-5">
      <path class="cls-1" d="M132.4,104.19a32.76,32.76,0,0,0-8.52-6.9l11.39,6.2a32.64,32.64,0,0,1,8.53,6.9l-8.63-4.69-1.38-.75-.54-.3-.35-.19-.17-.09A2.11,2.11,0,0,1,132.4,104.19Z"/>
    </clipPath>
    <clipPath id="clip-path-6">
      <path class="cls-1" d="M123.42,97.92l11.4,6.2a36,36,0,0,1,12,11.25l-11.4-6.2A35.89,35.89,0,0,0,123.42,97.92Z"/>
    </clipPath>
    <clipPath id="clip-path-7">
      <path class="cls-1" d="M132.71,73.46l11.4,6.2c-.09,0-.23,0-.45,0l-11.4-6.2C132.48,73.42,132.62,73.41,132.71,73.46Z"/>
    </clipPath>
    <clipPath id="clip-path-8">
      <path class="cls-1" d="M123.87,97.29l11.4,6.2a26.35,26.35,0,0,0-3.46-1.57,18.61,18.61,0,0,0-8.92-1,15.48,15.48,0,0,0-2,.41c-1.2.33-2.74.87-3.41,2.19s-.3,3.22-.17,4.64l-11.4-6.2c-.13-1.42-.51-3.3.17-4.64s2.22-1.86,3.41-2.19a15.28,15.28,0,0,1,2-.41,18.57,18.57,0,0,1,8.91,1A25,25,0,0,1,123.87,97.29Z"/>
    </clipPath>
    <clipPath id="clip-path-9">
      <path class="cls-1" d="M118.41,96.24,107,90a.29.29,0,0,0,.17,0c1.45,0,2.9-.11,4.36-.2,1.1-.06,2.24,0,3.36-.2l.79-.15a3.73,3.73,0,0,0,2.13-1.3,17.84,17.84,0,0,1,2.57-2.5c2.17-1.73,4.41-3.31,6.45-5.22a51.84,51.84,0,0,0,5.5-6.05l11.39,6.2a50.89,50.89,0,0,1-5.49,6c-2.05,1.91-4.28,3.49-6.45,5.21a18.53,18.53,0,0,0-2.58,2.51,3.73,3.73,0,0,1-2.13,1.3c-.26.06-.52.11-.79.15-1.11.15-2.26.14-3.36.2-1.45.09-2.9.15-4.35.2A.34.34,0,0,1,118.41,96.24Z"/>
    </clipPath>
    <clipPath id="clip-path-10">
      <path class="cls-1" d="M120,95.52l-11.39-6.2a48.25,48.25,0,0,0,6-.32l.71-.11c1.35-.24,1.87-1,2.8-2a20.25,20.25,0,0,1,2.27-2c2.08-1.63,4.19-3.16,6.14-5a51.05,51.05,0,0,0,5.74-6.43l11.4,6.2a50.36,50.36,0,0,1-5.75,6.43c-1.95,1.81-4.06,3.34-6.13,5a20.25,20.25,0,0,0-2.27,2c-.93,1-1.46,1.76-2.8,2l-.71.11A48.31,48.31,0,0,1,120,95.52Z"/>
    </clipPath>
    <clipPath id="clip-path-11">
      <path class="cls-1" d="M107.5,88.48l11.4,6.2c.46.25.41.7-.31.87l-11.4-6.2C107.92,89.18,108,88.73,107.5,88.48Z"/>
    </clipPath>
    <clipPath id="clip-path-12">
      <path class="cls-1" d="M107.5,88.48l11.4,6.2-.1-.05-11.4-6.2Z"/>
    </clipPath>
    <clipPath id="clip-path-13">
      <path class="cls-1" d="M118.41,96.24,107,90c-.25-.13-.19-.59.17-.69l11.4,6.2C118.22,95.65,118.16,96.11,118.41,96.24Z"/>
    </clipPath>
    <clipPath id="clip-path-14">
      <path class="cls-1" d="M106.48,88.4a2.57,2.57,0,0,1,.92,0l11.4,6.2a2.57,2.57,0,0,0-.92,0Z"/>
    </clipPath>
    <clipPath id="clip-path-15">
      <path class="cls-1" d="M105.37,88.5a10.4,10.4,0,0,1,1.11-.1l11.4,6.2a10.4,10.4,0,0,0-1.11.1Z"/>
    </clipPath>
    <clipPath id="clip-path-16">
      <path class="cls-1" d="M104.79,88.59l.58-.09,11.4,6.2-.58.09Z"/>
    </clipPath>
    <clipPath id="clip-path-17">
      <path class="cls-1" d="M101.33,89.42c1.16-.27,2.3-.62,3.46-.83l11.4,6.2c-1.17.21-2.3.56-3.46.83Z"/>
    </clipPath>
    <clipPath id="clip-path-18">
      <path class="cls-1" d="M100.17,89.63l1.16-.21,11.4,6.2-1.16.21Z"/>
    </clipPath>
    <clipPath id="clip-path-19">
      <path class="cls-1" d="M94.31,89.48a20.14,20.14,0,0,0,5.86.15l11.4,6.2a20.22,20.22,0,0,1-5.87-.15Z"/>
    </clipPath>
    <clipPath id="clip-path-20">
      <path class="cls-1" d="M85.32,120.09l-11.4-6.2a.4.4,0,0,1,.12-.51,89,89,0,0,1,15.84-10.22,8.46,8.46,0,0,1,2.37-.69,43.22,43.22,0,0,1,5.22,0c2.81-.06,5.64-.34,8.46-.53l11.4,6.2c-2.82.19-5.66.47-8.46.53a43.39,43.39,0,0,0-5.23,0,8.49,8.49,0,0,0-2.36.69,88.47,88.47,0,0,0-15.84,10.22A.38.38,0,0,0,85.32,120.09Z"/>
    </clipPath>
    <clipPath id="clip-path-21">
      <path class="cls-1" d="M87.18,88.29c2.39.33,4.74.82,7.13,1.19l11.39,6.2c-2.38-.37-4.74-.86-7.12-1.19Z"/>
    </clipPath>
    <clipPath id="clip-path-22">
      <path class="cls-1" d="M80.1,87a67.21,67.21,0,0,0,7.08,1.26l11.4,6.2a66.76,66.76,0,0,1-7.08-1.26Z"/>
    </clipPath>
    <clipPath id="clip-path-23">
      <path class="cls-1" d="M76.63,85.82A20.08,20.08,0,0,0,80.1,87l11.4,6.2A19.79,19.79,0,0,1,88,92Z"/>
    </clipPath>
    <clipPath id="clip-path-24">
      <path class="cls-1" d="M87.54,91l-11.4-6.2c.25.14.51.27.77.4,4,1.88,8.64,2.08,13,2.78,2.34.38,4.65.94,7,1.1a13.9,13.9,0,0,0,2.82-.13c1.42-.2,2.82-.56,4.29-.88a18.59,18.59,0,0,1,1.88-.38,4.16,4.16,0,0,1,2.37.17l11.4,6.2a4.16,4.16,0,0,0-2.37-.17c-.73.1-1.44.27-1.89.37-1.46.33-2.87.69-4.28.89a13.93,13.93,0,0,1-2.82.13c-2.39-.16-4.7-.72-7-1.1-4.34-.7-9-.9-13-2.78C88.05,91.23,87.79,91.1,87.54,91Z"/>
    </clipPath>
    <clipPath id="clip-path-25">
      <path class="cls-1" d="M76.63,85.82l.18.1L88,92c-.32-.15-.64-.31-1-.48l-11.4-6.2C76,85.51,76.31,85.67,76.63,85.82Z"/>
    </clipPath>
    <clipPath id="clip-path-26">
      <path class="cls-1" d="M87.08,91.54l-11.39-6.2a13.38,13.38,0,0,1-4.16-3.43,10.21,10.21,0,0,1-2.1-4.38c-.31-1.51-.47-3.68-1.79-4.4L79,79.33c1.31.72,1.48,2.89,1.79,4.4a10.31,10.31,0,0,0,2.09,4.38A13.5,13.5,0,0,0,87.08,91.54Z"/>
    </clipPath>
    <clipPath id="clip-path-27">
      <path class="cls-1" d="M66.78,72.9a2.1,2.1,0,0,1,.86.23L79,79.33a2,2,0,0,0-.85-.23Z"/>
    </clipPath>
    <clipPath id="clip-path-28">
      <path class="cls-1" d="M66.13,72.92a2.81,2.81,0,0,1,.65,0l11.4,6.2a2.79,2.79,0,0,0-.65,0Z"/>
    </clipPath>
    <clipPath id="clip-path-29">
      <path class="cls-1" d="M68,72.45l11.4,6.2-.2-.1a2.78,2.78,0,0,0-1.49-.17l-11.4-6.2a2.82,2.82,0,0,1,1.5.17Z"/>
    </clipPath>
    <clipPath id="clip-path-30">
      <path class="cls-1" d="M58.87,78.82c2.44-1.48,4.43-5.5,7.26-5.9l11.4,6.2c-2.83.4-4.82,4.42-7.26,5.9Z"/>
    </clipPath>
    <clipPath id="clip-path-31">
      <path class="cls-1" d="M55.84,79.85a7.8,7.8,0,0,0,3-1L70.27,85a7.9,7.9,0,0,1-3,1Z"/>
    </clipPath>
    <clipPath id="clip-path-32">
      <path class="cls-1" d="M53.4,80a22.54,22.54,0,0,0,2.44-.16l11.39,6.2a22.19,22.19,0,0,1-2.43.16Z"/>
    </clipPath>
    <clipPath id="clip-path-33">
      <path class="cls-1" d="M35.81,135.79l-11.39-6.2q.87.48,1.77.93a24.1,24.1,0,0,0,8.59,2.79,13.74,13.74,0,0,0,3.27-.09,21.61,21.61,0,0,0,6.05-1.89c5.57-2.53,10.79-6.45,16.59-8.11,3-.87,6.09-1.36,9.09-2.46a16.87,16.87,0,0,0,4.78-2.39c.5-.42.55-.37.59-1a5,5,0,0,0-.22-1.39,6.29,6.29,0,0,0-1-2.08l11.4,6.2a6.7,6.7,0,0,1,1,2.08,5,5,0,0,1,.21,1.39c0,.64-.09.59-.58,1A17,17,0,0,1,81.18,127c-3,1.1-6.07,1.59-9.1,2.46-5.8,1.66-11,5.58-16.58,8.11a21.71,21.71,0,0,1-6,1.89,13.84,13.84,0,0,1-3.28.09,24.32,24.32,0,0,1-8.58-2.79C37,136.42,36.4,136.11,35.81,135.79Z"/>
    </clipPath>
    <clipPath id="clip-path-34">
      <path class="cls-1" d="M47.63,80.34A50.9,50.9,0,0,1,53.4,80l11.39,6.2a50.6,50.6,0,0,0-5.76.33Z"/>
    </clipPath>
    <clipPath id="clip-path-35">
      <path class="cls-1" d="M24.45,91.78c6.93-5.55,14.77-10.14,23-11.41l11.4,6.2c-8.22,1.27-16,5.86-23,11.41Z"/>
    </clipPath>
    <clipPath id="clip-path-36">
      <path class="cls-1" d="M12,113.13h0l11.4,6.2h0Z"/>
    </clipPath>
    <clipPath id="clip-path-37">
      <path class="cls-1" d="M12,113.13c.38-.06.53-.55.28-.68l11.4,6.2c.25.13.1.62-.28.68Z"/>
    </clipPath>
    <clipPath id="clip-path-38">
      <path class="cls-1" d="M12.24,112.45l11.4,6.2-.11,0-11.4-6.2Z"/>
    </clipPath>
    <clipPath id="clip-path-39">
      <path class="cls-1" d="M13.82,101.45c3.5-3.31,6.89-6.68,10.63-9.67L35.85,98c-3.74,3-7.13,6.36-10.63,9.67Z"/>
    </clipPath>
    <clipPath id="clip-path-40">
      <path class="cls-1" d="M11.11,103.86c.94-.77,1.85-1.59,2.71-2.41l11.4,6.2c-.87.82-1.77,1.64-2.71,2.4Z"/>
    </clipPath>
    <clipPath id="clip-path-41">
      <path class="cls-1" d="M11,103.94l.1-.08,11.4,6.19-.1.09Z"/>
    </clipPath>
    <clipPath id="clip-path-42">
      <path class="cls-1" d="M6.07,112.83c2,.13,3.91.23,5.88.3l11.4,6.2q-3-.1-5.88-.3Z"/>
    </clipPath>
    <clipPath id="clip-path-43">
      <path class="cls-1" d="M11,103.94l11.4,6.2a21.66,21.66,0,0,1-3.34,2.24l-11.4-6.2A21.19,21.19,0,0,0,11,103.94Z"/>
    </clipPath>
    <clipPath id="clip-path-44">
      <path class="cls-1" d="M6.94,106.53l.73-.35,11.4,6.2-.73.35Z"/>
    </clipPath>
    <clipPath id="clip-path-45">
      <path class="cls-1" d="M3.55,112.64l2.52.19,11.4,6.2L15,118.84Z"/>
    </clipPath>
    <clipPath id="clip-path-46">
      <path class="cls-1" d="M1.91,112.49a7.69,7.69,0,0,1,1.64.15l11.4,6.2a7.79,7.79,0,0,0-1.65-.15Z"/>
    </clipPath>
    <clipPath id="clip-path-47">
      <path class="cls-1" d="M1.87,112.5h0l11.39,6.2h0Z"/>
    </clipPath>
    <clipPath id="clip-path-48">
      <path class="cls-1" d="M6.94,106.53l11.4,6.2a10.73,10.73,0,0,1-3,.88L4,107.41A10.76,10.76,0,0,0,6.94,106.53Z"/>
    </clipPath>
    <clipPath id="clip-path-49">
      <path class="cls-1" d="M3,109.19a24.65,24.65,0,0,0,9.11,3.22l11.4,6.2a24.59,24.59,0,0,1-9.11-3.22Z"/>
    </clipPath>
    <clipPath id="clip-path-50">
      <path class="cls-1" d="M12.79,118l-11.4-6.2c1.94,0,3.63.25,5.28.35l1.21.08,11.4,6.2-1.22-.08C16.42,118.23,14.73,117.93,12.79,118Z"/>
    </clipPath>
    <clipPath id="clip-path-51">
      <path class="cls-1" d="M3.38,107.48l.61-.07,11.39,6.2-.61.07Z"/>
    </clipPath>
    <clipPath id="clip-path-52">
      <path class="cls-1" d="M35.81,135.79l-11.39-6.2c-5.11-2.77-9.89-6.15-14.72-9.36q-2.22-1.47-4.44-2.9L3.2,116.05a5.94,5.94,0,0,1-2.27-1.83c-.46-.79-.43-1.45.94-1.72l11.4,6.2c-1.37.27-1.41.93-.94,1.72a5.94,5.94,0,0,0,2.27,1.83c.69.42,1.37.85,2,1.28q2.24,1.43,4.44,2.9C25.93,129.64,30.71,133,35.81,135.79Z"/>
    </clipPath>
    <clipPath id="clip-path-53">
      <path class="cls-1" d="M3.21,107.45a.43.43,0,0,0,.17,0l11.39,6.2a.38.38,0,0,1-.16,0Z"/>
    </clipPath>
    <clipPath id="clip-path-54">
      <path class="cls-1" d="M14.75,113l-11.39-6.2.63-.07c5.11-.72,9.26-5.67,13.1-9.32a92.67,92.67,0,0,1,13-10.53A50.86,50.86,0,0,1,41.92,81a35.35,35.35,0,0,1,5.8-1.37A61.75,61.75,0,0,1,54,79.27a15.22,15.22,0,0,0,1.54-.13A7.83,7.83,0,0,0,60.13,77a49.57,49.57,0,0,1,3.68-3.71,5.4,5.4,0,0,1,2.45-1.11l11.4,6.2a5.48,5.48,0,0,0-2.46,1.11,49.45,49.45,0,0,0-3.67,3.71A7.86,7.86,0,0,1,67,85.34c-.5.07-1,.11-1.54.13a62,62,0,0,0-6.3.34,35,35,0,0,0-5.79,1.37A50.86,50.86,0,0,0,41.5,93a92.67,92.67,0,0,0-13,10.53c-3.84,3.65-8,8.6-13.1,9.32Z"/>
    </clipPath>
    <clipPath id="clip-path-55">
      <path class="cls-1" d="M36.08,136.86l-11.4-6.2c-2.06-1.12-4-2.38-5.93-3.58-2.94-1.85-5.82-3.79-8.71-5.72s-5.7-3.5-8.41-5.42A3.11,3.11,0,0,1,0,113.23a1.52,1.52,0,0,1,1.38-1.45l11.4,6.2a1.5,1.5,0,0,0-1.38,1.44A3.1,3.1,0,0,0,13,122.14c2.71,1.92,5.64,3.57,8.4,5.42s5.77,3.87,8.72,5.72C32.05,134.48,34,135.74,36.08,136.86Z"/>
    </clipPath>
    <clipPath id="clip-path-56">
      <path class="cls-1" d="M14.61,113.65l-11.4-6.2a.37.37,0,0,1-.12-.13.39.39,0,0,1,.27-.56L14.75,113a.39.39,0,0,0-.26.56A.37.37,0,0,0,14.61,113.65Z"/>
    </clipPath>
    <clipPath id="clip-path-57">
      <path class="cls-1" d="M14.93,115.64l-11.4-6.2c-.63-.34-1.26-.7-1.88-1.07l11.4,6.2C13.67,114.93,14.29,115.29,14.93,115.64Z"/>
    </clipPath>
    <clipPath id="clip-path-58">
      <path class="cls-1" d="M14.59,116.31l-11.4-6.2c-.69-.37-1.36-.77-2-1.17-.3-.17-.11-.67.16-.71l11.4,6.2c-.27,0-.46.54-.17.71C13.22,115.54,13.9,115.94,14.59,116.31Z"/>
    </clipPath>
  </defs>
  <g>
    <g>
      <g class="cls-2">
        <g class="cls-3">
          <g class="cls-3">
            <g class="cls-4">
              <g class="cls-3">
                <path d="M146.92,115.46l-11.39-6.2a.31.31,0,0,1-.11-.09l11.4,6.2a.28.28,0,0,0,.1.09"/>
              </g>
            </g>
          </g>
          <g class="cls-3">
            <g class="cls-5">
              <g class="cls-3">
                <path d="M146.82,114.12l-11.4-6.2A148.52,148.52,0,0,0,135,90.11a79.11,79.11,0,0,0-2.64-15.65l11.39,6.2a78.38,78.38,0,0,1,2.64,15.65,148.51,148.51,0,0,1,.44,17.81"/>
              </g>
            </g>
          </g>
          <g class="cls-3">
            <g class="cls-6">
              <g class="cls-3">
                <path class="cls-7" d="M146.82,114.12l-11.4-6.2a35.92,35.92,0,0,0-11.55-10.63l11.4,6.2a36.13,36.13,0,0,1,11.55,10.63"/>
              </g>
            </g>
          </g>
          <g class="cls-3">
            <g class="cls-8">
              <g class="cls-3">
                <path class="cls-7" d="M146.82,114.12l-11.4-6.2a35.92,35.92,0,0,0-11.55-10.63l11.4,6.2a36.13,36.13,0,0,1,11.55,10.63"/>
              </g>
            </g>
          </g>
          <g class="cls-3">
            <g class="cls-9">
              <g class="cls-3">
                <path class="cls-7" d="M146.82,114.12l-11.4-6.2a35.92,35.92,0,0,0-11.55-10.63l11.4,6.2a36.13,36.13,0,0,1,11.55,10.63"/>
              </g>
            </g>
          </g>
          <g class="cls-3">
            <g class="cls-10">
              <g class="cls-3">
                <path d="M146.82,115.37l-11.4-6.2a35.89,35.89,0,0,0-12-11.25l11.4,6.2a36,36,0,0,1,12,11.25"/>
              </g>
            </g>
          </g>
          <g class="cls-3">
            <g class="cls-11">
              <g class="cls-3">
                <path d="M143.66,79.71l-11.4-6.2a.65.65,0,0,1,.4-.07l11.4,6.2a.65.65,0,0,0-.4.07"/>
                <path d="M144.06,79.64l-11.4-6.2,0,0,11.4,6.2,0,0"/>
                <polyline points="144.1 79.66 132.7 73.46 132.71 73.46 144.11 79.66 144.1 79.66"/>
              </g>
            </g>
          </g>
          <g class="cls-3">
            <g class="cls-12">
              <g class="cls-3">
                <path d="M117.33,108.12l-11.4-6.2c-.12-1.31-.45-3,0-4.3l11.39,6.2c-.47,1.3-.14,3,0,4.3"/>
                <path d="M117.35,103.82,106,97.62a3.45,3.45,0,0,1,.14-.34l0-.06,11.4,6.2,0,.06a2.07,2.07,0,0,0-.15.34"/>
                <path d="M117.53,103.42l-11.4-6.2.18-.29,11.4,6.19-.18.3"/>
                <path d="M117.71,103.12l-11.4-6.19a3,3,0,0,1,.22-.28l11.4,6.2-.22.27"/>
                <path d="M117.93,102.85l-11.4-6.2c.08-.09.18-.18.27-.27l11.4,6.2a3.44,3.44,0,0,0-.27.27"/>
                <path d="M118.2,102.58l-11.4-6.2a3.9,3.9,0,0,1,.4-.31l11.39,6.2a3.79,3.79,0,0,0-.39.31"/>
                <path d="M118.59,102.27l-11.39-6.2a5,5,0,0,1,.75-.43l11.39,6.2a5.59,5.59,0,0,0-.75.43"/>
                <path d="M119.34,101.84,108,95.64a9.74,9.74,0,0,1,1.56-.55,15.28,15.28,0,0,1,2-.41,17.91,17.91,0,0,1,7,.45l11.4,6.2a18,18,0,0,0-7-.45,15.48,15.48,0,0,0-2,.41,10.19,10.19,0,0,0-1.57.55"/>
                <path d="M129.91,101.33l-11.4-6.2c.65.17,1.28.37,1.9.6a25.22,25.22,0,0,1,2.51,1.07l11.39,6.2c-.81-.4-1.65-.76-2.5-1.08-.62-.22-1.26-.42-1.9-.59"/>
                <path d="M134.31,103l-11.39-6.2c.32.15.64.32,1,.49l11.4,6.2c-.32-.17-.64-.34-1-.49"/>
              </g>
            </g>
          </g>
          <g class="cls-3">
            <g class="cls-13">
              <g class="cls-3">
                <polyline class="cls-14" points="118.41 96.24 107.02 90.04 107.03 90.05 118.42 96.25 118.41 96.24"/>
                <path class="cls-15" d="M118.43,96.25,107,90.05l.06,0,11.4,6.2-.06,0"/>
                <path class="cls-16" d="M118.49,96.27l-11.4-6.2h.1c1.45,0,2.9-.11,4.36-.2,1.1-.06,2.24,0,3.36-.2l.79-.15a3.76,3.76,0,0,0,.82-.27l11.39,6.2a3.59,3.59,0,0,1-.82.27c-.26.06-.52.11-.79.15-1.11.15-2.26.14-3.36.2-1.45.09-2.9.15-4.35.2h-.1"/>
                <path class="cls-15" d="M127.91,95.46l-11.39-6.2A5.24,5.24,0,0,0,117,89l11.4,6.2a5.39,5.39,0,0,1-.52.3"/>
                <path class="cls-14" d="M128.43,95.16,117,89c.13-.09.26-.2.39-.31l11.4,6.2c-.13.11-.26.22-.39.31"/>
                <path class="cls-17" d="M128.82,94.85l-11.4-6.2c.12-.11.25-.24.37-.37l11.39,6.2c-.12.13-.24.26-.36.37"/>
                <path class="cls-18" d="M129.18,94.48l-11.39-6.2,0,0,.28-.33,11.4,6.2-.29.33,0,0"/>
                <path class="cls-17" d="M129.51,94.1l-11.4-6.2a18.17,18.17,0,0,1,1.45-1.46L131,92.64a19.86,19.86,0,0,0-1.44,1.46"/>
                <path class="cls-14" d="M131,92.64l-11.39-6.2c.27-.24.55-.48.84-.71,2-1.61,4.11-3.1,6-4.84l11.4,6.2c-1.94,1.74-4,3.23-6,4.83l-.85.72"/>
                <path class="cls-17" d="M137.84,87.09l-11.4-6.2.41-.38q1.71-1.59,3.25-3.35l11.4,6.2q-1.55,1.76-3.25,3.35l-.41.38"/>
                <path class="cls-18" d="M141.5,83.36l-11.4-6.2c.78-.87,1.52-1.78,2.25-2.7l11.39,6.2c-.72.92-1.47,1.83-2.24,2.7"/>
              </g>
            </g>
          </g>
          <g class="cls-3">
            <g class="cls-19">
              <g class="cls-3">
                <path d="M120,95.52l-11.39-6.2a48.25,48.25,0,0,0,6-.32l.71-.11a3.15,3.15,0,0,0,.85-.27l11.4,6.2a3.39,3.39,0,0,1-.85.27l-.71.11a48.31,48.31,0,0,1-6,.32"/>
                <path d="M127.56,94.82l-11.4-6.2a2.65,2.65,0,0,0,.44-.25l11.4,6.2a3.14,3.14,0,0,1-.44.25"/>
                <path d="M128,94.57l-11.4-6.2a4,4,0,0,0,.4-.32l11.4,6.2a4,4,0,0,1-.4.32"/>
                <path d="M128.4,94.25,117,88.05c.36-.32.7-.72,1.11-1.16.25-.26.52-.51.79-.76l11.39,6.2c-.27.24-.53.5-.78.76-.42.44-.75.84-1.11,1.16"/>
                <path d="M130.29,92.33l-11.39-6.2c.48-.43,1-.83,1.48-1.22,1.93-1.51,3.88-2.94,5.71-4.58l11.4,6.2c-1.83,1.64-3.78,3.07-5.71,4.58-.5.39-1,.79-1.49,1.22"/>
                <path d="M137.49,86.53l-11.4-6.2.43-.39q1.62-1.53,3.11-3.21l11.4,6.2q-1.49,1.68-3.12,3.21l-.42.39"/>
                <path d="M141,82.93l-11.4-6.2c.91-1,1.79-2.11,2.63-3.22l11.4,6.2c-.85,1.11-1.72,2.18-2.63,3.22"/>
              </g>
            </g>
          </g>
          <g class="cls-3">
            <g class="cls-20">
              <g class="cls-3">
                <path d="M118.59,95.55l-11.4-6.2a1,1,0,0,0,.28-.09l11.4,6.2a1,1,0,0,1-.28.09"/>
                <path d="M118.87,95.46l-11.4-6.2.13-.07,11.4,6.2-.13.07"/>
                <path d="M119,95.39l-11.4-6.2.07,0,11.39,6.19-.06.06"/>
                <path d="M119.06,95.33l-11.39-6.19,0,0,11.39,6.2a.08.08,0,0,1,0,0"/>
                <path d="M119.1,95.29l-11.39-6.2,0,0,11.4,6.2a.08.08,0,0,1,0,0"/>
                <path d="M119.14,95.25l-11.4-6.2s0,0,0,0l11.4,6.2s0,0,0,0"/>
                <path d="M119.16,95.22,107.76,89s0,0,0,0l11.4,6.2,0,0"/>
                <path d="M119.18,95.17,107.78,89c.06-.17,0-.36-.28-.49l11.4,6.2c.24.13.34.32.28.49"/>
              </g>
            </g>
          </g>
          <g class="cls-3">
            <g class="cls-21">
              <g class="cls-3">
                <path class="cls-15" d="M118.8,94.63l-11.4-6.2.07,0,11.39,6.2-.06,0"/>
                <path class="cls-14" d="M118.86,94.66l-11.39-6.2,0,0,11.4,6.2,0,0"/>
              </g>
            </g>
          </g>
          <g class="cls-3">
            <g class="cls-22">
              <g class="cls-3">
                <path d="M118.41,96.24,107,90a.34.34,0,0,1-.13-.42l11.4,6.2a.34.34,0,0,0,.12.42"/>
                <path d="M118.29,95.82l-11.4-6.2,0-.05,11.39,6.2a.08.08,0,0,0,0,0"/>
                <path d="M118.31,95.77l-11.39-6.2s0,0,0,0l11.4,6.2,0,0"/>
                <path d="M118.34,95.72l-11.4-6.2,0,0,11.4,6.2,0,0"/>
                <path d="M118.37,95.69,107,89.49a.08.08,0,0,1,0,0l11.39,6.2,0,0"/>
                <path d="M118.4,95.65,107,89.45l0,0,11.4,6.2,0,0"/>
                <path d="M118.45,95.62l-11.4-6.2.06,0,11.4,6.2s-.05,0-.06,0"/>
                <path d="M118.51,95.58l-11.4-6.2.08,0,11.4,6.2-.08,0"/>
              </g>
            </g>
          </g>
          <g class="cls-3">
            <g class="cls-23">
              <g class="cls-3">
                <path class="cls-16" d="M91.39,93.2,80,87l.11,0a67.21,67.21,0,0,0,7.08,1.26c2.39.33,4.74.82,7.13,1.19a20.14,20.14,0,0,0,5.86.15l1.16-.21c1.16-.27,2.3-.62,3.46-.83l.58-.09a10.4,10.4,0,0,1,1.11-.1,3.29,3.29,0,0,1,.83,0l11.4,6.2a3.29,3.29,0,0,0-.83,0,10.4,10.4,0,0,0-1.11.1l-.58.09c-1.17.21-2.3.56-3.46.83l-1.16.21a20.22,20.22,0,0,1-5.87-.15c-2.38-.37-4.74-.86-7.12-1.19a66.76,66.76,0,0,1-7.08-1.26l-.11,0"/>
                <path class="cls-15" d="M118.71,94.6l-11.4-6.2.09,0,11.4,6.2-.09,0"/>
              </g>
            </g>
          </g>
          <g class="cls-3">
            <g class="cls-24">
              <g class="cls-3">
                <path class="cls-16" d="M91.39,93.2,80,87l.11,0a67.21,67.21,0,0,0,7.08,1.26c2.39.33,4.74.82,7.13,1.19a20.14,20.14,0,0,0,5.86.15l1.16-.21c1.16-.27,2.3-.62,3.46-.83l.58-.09a10.4,10.4,0,0,1,1.11-.1,3.29,3.29,0,0,1,.83,0l11.4,6.2a3.29,3.29,0,0,0-.83,0,10.4,10.4,0,0,0-1.11.1l-.58.09c-1.17.21-2.3.56-3.46.83l-1.16.21a20.22,20.22,0,0,1-5.87-.15c-2.38-.37-4.74-.86-7.12-1.19a66.76,66.76,0,0,1-7.08-1.26l-.11,0"/>
              </g>
            </g>
          </g>
          <g class="cls-3">
            <g class="cls-25">
              <g class="cls-3">
                <path class="cls-16" d="M91.39,93.2,80,87l.11,0a67.21,67.21,0,0,0,7.08,1.26c2.39.33,4.74.82,7.13,1.19a20.14,20.14,0,0,0,5.86.15l1.16-.21c1.16-.27,2.3-.62,3.46-.83l.58-.09a10.4,10.4,0,0,1,1.11-.1,3.29,3.29,0,0,1,.83,0l11.4,6.2a3.29,3.29,0,0,0-.83,0,10.4,10.4,0,0,0-1.11.1l-.58.09c-1.17.21-2.3.56-3.46.83l-1.16.21a20.22,20.22,0,0,1-5.87-.15c-2.38-.37-4.74-.86-7.12-1.19a66.76,66.76,0,0,1-7.08-1.26l-.11,0"/>
              </g>
            </g>
          </g>
          <g class="cls-3">
            <g class="cls-26">
              <g class="cls-3">
                <path class="cls-16" d="M91.39,93.2,80,87l.11,0a67.21,67.21,0,0,0,7.08,1.26c2.39.33,4.74.82,7.13,1.19a20.14,20.14,0,0,0,5.86.15l1.16-.21c1.16-.27,2.3-.62,3.46-.83l.58-.09a10.4,10.4,0,0,1,1.11-.1,3.29,3.29,0,0,1,.83,0l11.4,6.2a3.29,3.29,0,0,0-.83,0,10.4,10.4,0,0,0-1.11.1l-.58.09c-1.17.21-2.3.56-3.46.83l-1.16.21a20.22,20.22,0,0,1-5.87-.15c-2.38-.37-4.74-.86-7.12-1.19a66.76,66.76,0,0,1-7.08-1.26l-.11,0"/>
              </g>
            </g>
          </g>
          <g class="cls-3">
            <g class="cls-27">
              <g class="cls-3">
                <path class="cls-16" d="M91.39,93.2,80,87l.11,0a67.21,67.21,0,0,0,7.08,1.26c2.39.33,4.74.82,7.13,1.19a20.14,20.14,0,0,0,5.86.15l1.16-.21c1.16-.27,2.3-.62,3.46-.83l.58-.09a10.4,10.4,0,0,1,1.11-.1,3.29,3.29,0,0,1,.83,0l11.4,6.2a3.29,3.29,0,0,0-.83,0,10.4,10.4,0,0,0-1.11.1l-.58.09c-1.17.21-2.3.56-3.46.83l-1.16.21a20.22,20.22,0,0,1-5.87-.15c-2.38-.37-4.74-.86-7.12-1.19a66.76,66.76,0,0,1-7.08-1.26l-.11,0"/>
              </g>
            </g>
          </g>
          <g class="cls-3">
            <g class="cls-28">
              <g class="cls-3">
                <path class="cls-16" d="M91.39,93.2,80,87l.11,0a67.21,67.21,0,0,0,7.08,1.26c2.39.33,4.74.82,7.13,1.19a20.14,20.14,0,0,0,5.86.15l1.16-.21c1.16-.27,2.3-.62,3.46-.83l.58-.09a10.4,10.4,0,0,1,1.11-.1,3.29,3.29,0,0,1,.83,0l11.4,6.2a3.29,3.29,0,0,0-.83,0,10.4,10.4,0,0,0-1.11.1l-.58.09c-1.17.21-2.3.56-3.46.83l-1.16.21a20.22,20.22,0,0,1-5.87-.15c-2.38-.37-4.74-.86-7.12-1.19a66.76,66.76,0,0,1-7.08-1.26l-.11,0"/>
              </g>
            </g>
          </g>
          <g class="cls-3">
            <g class="cls-29">
              <g class="cls-3">
                <path d="M85.32,120.09l-11.4-6.2a.29.29,0,0,1,0-.3l11.4,6.2a.29.29,0,0,0,0,.3"/>
                <path d="M85.29,119.79l-11.4-6.2,0-.06,11.4,6.2,0,.06"/>
                <path d="M85.32,119.73l-11.4-6.2,0,0,11.4,6.2,0,0"/>
                <path d="M85.35,119.68,74,113.48l0,0,11.4,6.2,0,0"/>
                <path d="M85.38,119.64,74,113.44a.08.08,0,0,1,0,0l11.39,6.2,0,0"/>
                <path d="M85.41,119.6,74,113.4l0,0c2-1.51,4-3,6.06-4.46l11.4,6.2c-2.07,1.44-4.1,2.95-6.06,4.46l0,0"/>
                <path d="M91.5,115.12l-11.4-6.2a69.81,69.81,0,0,1,9.6-5.67l11.39,6.2a69.12,69.12,0,0,0-9.59,5.67"/>
                <path d="M101.09,109.45l-11.39-6.2.18-.09a8.46,8.46,0,0,1,2.37-.69,43.22,43.22,0,0,1,5.22,0c2.81-.06,5.64-.34,8.46-.53l11.4,6.2c-2.82.19-5.66.47-8.46.53a43.39,43.39,0,0,0-5.23,0,8.49,8.49,0,0,0-2.36.69l-.19.09"/>
              </g>
            </g>
          </g>
          <g class="cls-3">
            <g class="cls-30">
              <g class="cls-3">
                <path class="cls-16" d="M91.39,93.2,80,87l.11,0a67.21,67.21,0,0,0,7.08,1.26c2.39.33,4.74.82,7.13,1.19a20.14,20.14,0,0,0,5.86.15l1.16-.21c1.16-.27,2.3-.62,3.46-.83l.58-.09a10.4,10.4,0,0,1,1.11-.1,3.29,3.29,0,0,1,.83,0l11.4,6.2a3.29,3.29,0,0,0-.83,0,10.4,10.4,0,0,0-1.11.1l-.58.09c-1.17.21-2.3.56-3.46.83l-1.16.21a20.22,20.22,0,0,1-5.87-.15c-2.38-.37-4.74-.86-7.12-1.19a66.76,66.76,0,0,1-7.08-1.26l-.11,0"/>
              </g>
            </g>
          </g>
          <g class="cls-3">
            <g class="cls-31">
              <g class="cls-3">
                <path class="cls-16" d="M91.39,93.2,80,87l.11,0a67.21,67.21,0,0,0,7.08,1.26c2.39.33,4.74.82,7.13,1.19a20.14,20.14,0,0,0,5.86.15l1.16-.21c1.16-.27,2.3-.62,3.46-.83l.58-.09a10.4,10.4,0,0,1,1.11-.1,3.29,3.29,0,0,1,.83,0l11.4,6.2a3.29,3.29,0,0,0-.83,0,10.4,10.4,0,0,0-1.11.1l-.58.09c-1.17.21-2.3.56-3.46.83l-1.16.21a20.22,20.22,0,0,1-5.87-.15c-2.38-.37-4.74-.86-7.12-1.19a66.76,66.76,0,0,1-7.08-1.26l-.11,0"/>
              </g>
            </g>
          </g>
          <g class="cls-3">
            <g class="cls-32">
              <g class="cls-3">
                <path class="cls-15" d="M87.67,91.85l-11.4-6.2A19.21,19.21,0,0,0,80,87l11.4,6.2a19.21,19.21,0,0,1-3.72-1.35"/>
                <path class="cls-16" d="M91.39,93.2,80,87l.11,0a67.21,67.21,0,0,0,7.08,1.26c2.39.33,4.74.82,7.13,1.19a20.14,20.14,0,0,0,5.86.15l1.16-.21c1.16-.27,2.3-.62,3.46-.83l.58-.09a10.4,10.4,0,0,1,1.11-.1,3.29,3.29,0,0,1,.83,0l11.4,6.2a3.29,3.29,0,0,0-.83,0,10.4,10.4,0,0,0-1.11.1l-.58.09c-1.17.21-2.3.56-3.46.83l-1.16.21a20.22,20.22,0,0,1-5.87-.15c-2.38-.37-4.74-.86-7.12-1.19a66.76,66.76,0,0,1-7.08-1.26l-.11,0"/>
              </g>
            </g>
          </g>
          <g class="cls-3">
            <g class="cls-33">
              <g class="cls-3">
                <path d="M87.54,91l-11.4-6.2q.28.17.57.3l11.4,6.2q-.28-.14-.57-.3"/>
                <path d="M88.11,91.26l-11.4-6.2.2.1a20.2,20.2,0,0,0,3.5,1.24L91.8,92.6a20.1,20.1,0,0,1-3.49-1.24l-.2-.1"/>
                <path d="M91.8,92.6,80.41,86.4c3.07.79,6.36,1,9.48,1.54,2.34.38,4.65.94,7,1.1a13.9,13.9,0,0,0,2.82-.13c1.42-.2,2.82-.56,4.29-.88a18.59,18.59,0,0,1,1.88-.38,5.3,5.3,0,0,1,2,0l11.4,6.2a5.3,5.3,0,0,0-2,0c-.73.1-1.44.27-1.89.37-1.46.33-2.87.69-4.28.89a13.93,13.93,0,0,1-2.82.13c-2.39-.16-4.7-.72-7-1.1-3.11-.5-6.4-.75-9.48-1.54"/>
                <path d="M119.27,93.86l-11.4-6.2a3,3,0,0,1,.36.13l11.4,6.2a1.91,1.91,0,0,0-.36-.13"/>
                <path d="M119.63,94l-11.4-6.2.06,0,11.4,6.2-.06,0"/>
              </g>
            </g>
          </g>
          <g class="cls-3">
            <g class="cls-34">
              <g class="cls-3">
                <path class="cls-14" d="M87.08,91.54l-11.39-6.2.58.31,11.4,6.2-.59-.31"/>
                <path class="cls-15" d="M87.67,91.85l-11.4-6.2A19.21,19.21,0,0,0,80,87l11.4,6.2a19.21,19.21,0,0,1-3.72-1.35"/>
              </g>
            </g>
          </g>
          <g class="cls-3">
            <g class="cls-35">
              <g class="cls-3">
                <path d="M87.08,91.54l-11.39-6.2a13.38,13.38,0,0,1-4.16-3.43,10.21,10.21,0,0,1-2.1-4.38c-.31-1.51-.47-3.68-1.79-4.4L79,79.33c1.31.72,1.48,2.89,1.79,4.4a10.31,10.31,0,0,0,2.09,4.38,13.5,13.5,0,0,0,4.16,3.43"/>
              </g>
            </g>
          </g>
          <g class="cls-3">
            <g class="cls-36">
              <g class="cls-3">
                <path class="cls-16" d="M77.53,79.12l-11.4-6.2a2.81,2.81,0,0,1,.65,0,2.65,2.65,0,0,1,.42.06l11.39,6.2a2.7,2.7,0,0,0-.41-.06,2.79,2.79,0,0,0-.65,0"/>
                <path class="cls-15" d="M78.59,79.16,67.2,73a1.66,1.66,0,0,1,.37.14L79,79.3a1.57,1.57,0,0,0-.38-.14"/>
                <path class="cls-14" d="M79,79.3l-11.4-6.2.07,0L79,79.33l-.07,0"/>
              </g>
            </g>
          </g>
          <g class="cls-3">
            <g class="cls-37">
              <g class="cls-3">
                <path class="cls-16" d="M77.53,79.12l-11.4-6.2a2.81,2.81,0,0,1,.65,0,2.65,2.65,0,0,1,.42.06l11.39,6.2a2.7,2.7,0,0,0-.41-.06,2.79,2.79,0,0,0-.65,0"/>
              </g>
            </g>
          </g>
          <g class="cls-3">
            <g class="cls-38">
              <g class="cls-3">
                <path d="M77.66,78.38l-11.4-6.2a3.15,3.15,0,0,1,1.15,0l11.39,6.2a3.1,3.1,0,0,0-1.14-.05"/>
                <path d="M78.8,78.43l-11.39-6.2a2.42,2.42,0,0,1,.35.12l.1.05,11.39,6.2-.1,0a2.06,2.06,0,0,0-.35-.12"/>
                <path d="M79.25,78.6,67.86,72.4l.09,0,11.4,6.2-.1-.05"/>
              </g>
            </g>
          </g>
          <g class="cls-3">
            <g class="cls-39">
              <g class="cls-3">
                <path class="cls-15" d="M69.63,85.37l-11.39-6.2c.21-.11.42-.22.63-.35l.27-.17,11.4,6.2-.27.17c-.21.13-.42.24-.64.35"/>
                <path class="cls-14" d="M70.54,84.85l-11.4-6.2a7.73,7.73,0,0,0,.8-.64l11.39,6.2a7.64,7.64,0,0,1-.79.64"/>
                <path class="cls-17" d="M71.33,84.21,59.94,78c1.18-1.06,2.29-2.54,3.51-3.63l11.39,6.2c-1.21,1.09-2.33,2.57-3.51,3.63"/>
                <path class="cls-14" d="M74.84,80.58l-11.39-6.2a7.58,7.58,0,0,1,.84-.68l11.4,6.2a8.73,8.73,0,0,0-.85.68"/>
                <path class="cls-15" d="M75.69,79.9l-11.4-6.2a4.75,4.75,0,0,1,.78-.45l11.39,6.2a4.67,4.67,0,0,0-.77.45"/>
                <path class="cls-16" d="M76.46,79.45l-11.39-6.2a3.63,3.63,0,0,1,1.06-.33l11.4,6.2a3.79,3.79,0,0,0-1.07.33"/>
              </g>
            </g>
          </g>
          <g class="cls-3">
            <g class="cls-40">
              <g class="cls-3">
                <path class="cls-16" d="M48.55,89.83l-11.4-6.2a37.6,37.6,0,0,1,10.38-3.27A48.51,48.51,0,0,1,53.4,80a22.54,22.54,0,0,0,2.44-.16,8.72,8.72,0,0,0,2.4-.68l11.39,6.2a8.53,8.53,0,0,1-2.4.68,22.19,22.19,0,0,1-2.43.16,48.39,48.39,0,0,0-5.87.35,37.49,37.49,0,0,0-10.38,3.27"/>
                <path class="cls-15" d="M69.63,85.37l-11.39-6.2c.21-.11.42-.22.63-.35l.27-.17,11.4,6.2-.27.17c-.21.13-.42.24-.64.35"/>
              </g>
            </g>
          </g>
          <g class="cls-3">
            <g class="cls-41">
              <g class="cls-3">
                <path class="cls-16" d="M48.55,89.83l-11.4-6.2a37.6,37.6,0,0,1,10.38-3.27A48.51,48.51,0,0,1,53.4,80a22.54,22.54,0,0,0,2.44-.16,8.72,8.72,0,0,0,2.4-.68l11.39,6.2a8.53,8.53,0,0,1-2.4.68,22.19,22.19,0,0,1-2.43.16,48.39,48.39,0,0,0-5.87.35,37.49,37.49,0,0,0-10.38,3.27"/>
              </g>
            </g>
          </g>
          <g class="cls-3">
            <g class="cls-42">
              <g class="cls-3">
                <path d="M35.81,135.79l-11.39-6.2q.87.48,1.77.93l.43.22L38,136.94l-.42-.22c-.6-.3-1.19-.61-1.78-.93"/>
                <path d="M38,136.94l-11.39-6.2A28.9,28.9,0,0,0,32,132.81L43.36,139A29.17,29.17,0,0,1,38,136.94"/>
                <path d="M43.36,139,32,132.81a18.55,18.55,0,0,0,2.81.5,13.74,13.74,0,0,0,3.27-.09,21.61,21.61,0,0,0,6.05-1.89l.51-.23L56,137.3l-.51.23a21.71,21.71,0,0,1-6,1.89,13.84,13.84,0,0,1-3.28.09,19,19,0,0,1-2.81-.5"/>
                <path d="M56,137.3l-11.4-6.2c3.87-1.83,7.58-4.27,11.45-6.09l11.4,6.2C63.59,133,59.88,135.47,56,137.3"/>
                <path d="M67.46,131.21,56.06,125a29.7,29.7,0,0,1,4.63-1.79c3-.87,6.09-1.36,9.09-2.46.79-.29,1.68-.62,2.54-1l11.39,6.2c-.86.41-1.75.74-2.53,1-3,1.1-6.07,1.59-9.1,2.46a29.59,29.59,0,0,0-4.62,1.79"/>
                <path d="M83.71,125.93l-11.39-6.2a12.34,12.34,0,0,0,1.71-1l11.4,6.2a12.46,12.46,0,0,1-1.72,1"/>
                <path d="M85.43,125,74,118.77c.18-.13.36-.26.53-.4l.35-.29,11.39,6.2-.34.29c-.17.14-.35.27-.53.4"/>
                <path d="M86.3,124.28l-11.39-6.2L75,118l11.4,6.2-.08.07"/>
                <path d="M86.38,124.21,75,118l0-.05,11.4,6.2,0,0"/>
                <path d="M86.42,124.16,75,118l0,0,11.4,6.2,0,0"/>
                <path d="M86.45,124.11l-11.4-6.2,0-.07,11.4,6.2,0,.07"/>
                <path d="M86.48,124l-11.4-6.2a1.88,1.88,0,0,0,.07-.48,5,5,0,0,0-.22-1.39,6.29,6.29,0,0,0-1-2.08l11.4,6.2a6.7,6.7,0,0,1,1,2.08,5,5,0,0,1,.21,1.39,2,2,0,0,1-.06.48"/>
              </g>
            </g>
          </g>
          <g class="cls-3">
            <g class="cls-43">
              <g class="cls-3">
                <path class="cls-16" d="M48.55,89.83l-11.4-6.2a37.6,37.6,0,0,1,10.38-3.27A48.51,48.51,0,0,1,53.4,80a22.54,22.54,0,0,0,2.44-.16,8.72,8.72,0,0,0,2.4-.68l11.39,6.2a8.53,8.53,0,0,1-2.4.68,22.19,22.19,0,0,1-2.43.16,48.39,48.39,0,0,0-5.87.35,37.49,37.49,0,0,0-10.38,3.27"/>
              </g>
            </g>
          </g>
          <g class="cls-3">
            <g class="cls-44">
              <g class="cls-3">
                <path class="cls-14" d="M32.1,101.18,20.7,95c1.22-1.1,2.47-2.18,3.75-3.2,1.45-1.17,2.95-2.29,4.47-3.34l11.4,6.2c-1.53,1-3,2.17-4.47,3.34-1.29,1-2.53,2.1-3.75,3.2"/>
                <path class="cls-15" d="M40.32,94.64l-11.4-6.2a59,59,0,0,1,8.23-4.81l11.4,6.2a59,59,0,0,0-8.23,4.81"/>
                <path class="cls-16" d="M48.55,89.83l-11.4-6.2a37.6,37.6,0,0,1,10.38-3.27A48.51,48.51,0,0,1,53.4,80a22.54,22.54,0,0,0,2.44-.16,8.72,8.72,0,0,0,2.4-.68l11.39,6.2a8.53,8.53,0,0,1-2.4.68,22.19,22.19,0,0,1-2.43.16,48.39,48.39,0,0,0-5.87.35,37.49,37.49,0,0,0-10.38,3.27"/>
              </g>
            </g>
          </g>
          <g class="cls-3">
            <g class="cls-45">
              <g class="cls-3">
                <path class="cls-16" d="M23.35,119.33,12,113.13l.14,0,11.4,6.2-.14,0"/>
              </g>
            </g>
          </g>
          <g class="cls-3">
            <g class="cls-46">
              <g class="cls-3">
                <path class="cls-16" d="M23.35,119.33,12,113.13l.14,0,11.4,6.2-.14,0"/>
                <path class="cls-15" d="M23.49,119.29l-11.4-6.2.07,0,11.39,6.2-.06,0"/>
                <path class="cls-14" d="M23.55,119.25l-11.39-6.2.05,0,11.39,6.2a.1.1,0,0,1-.05,0"/>
                <path class="cls-17" d="M23.6,119.21,12.21,113l0,0,11.39,6.2a.08.08,0,0,1,0,0"/>
                <path class="cls-18" d="M23.64,119.17,12.25,113l0,0,11.4,6.2,0,0"/>
                <path class="cls-47" d="M23.68,119.13l-11.4-6.2,0-.05,11.4,6.2,0,0"/>
                <path class="cls-48" d="M23.71,119.08l-11.4-6.2,0-.07,11.4,6.2,0,.07"/>
                <path class="cls-7" d="M23.74,119l-11.4-6.2a.27.27,0,0,0-.1-.36l11.4,6.2a.29.29,0,0,1,.1.36"/>
              </g>
            </g>
          </g>
          <g class="cls-3">
            <g class="cls-49">
              <g class="cls-3">
                <path d="M23.53,118.61l-11.4-6.2h0l11.4,6.2h0"/>
                <path d="M23.58,118.62l-11.4-6.2.05,0,11.4,6.2-.05,0"/>
                <polyline points="23.63 118.64 12.23 112.44 12.24 112.45 23.64 118.64 23.63 118.64"/>
              </g>
            </g>
          </g>
          <g class="cls-3">
            <g class="cls-50">
              <g class="cls-3">
                <path class="cls-17" d="M24,108.76l-11.39-6.2,1.19-1.11c2.3-2.17,4.55-4.37,6.88-6.47l11.4,6.2c-2.33,2.1-4.58,4.3-6.88,6.47L24,108.76"/>
                <path class="cls-14" d="M32.1,101.18,20.7,95c1.22-1.1,2.47-2.18,3.75-3.2,1.45-1.17,2.95-2.29,4.47-3.34l11.4,6.2c-1.53,1-3,2.17-4.47,3.34-1.29,1-2.53,2.1-3.75,3.2"/>
              </g>
            </g>
          </g>
          <g class="cls-3">
            <g class="cls-51">
              <g class="cls-3">
                <path class="cls-14" d="M21,111.22,9.56,105a29.79,29.79,0,0,0,3.07-2.46L24,108.76A30.79,30.79,0,0,1,21,111.22"/>
                <path class="cls-17" d="M24,108.76l-11.39-6.2,1.19-1.11c2.3-2.17,4.55-4.37,6.88-6.47l11.4,6.2c-2.33,2.1-4.58,4.3-6.88,6.47L24,108.76"/>
              </g>
            </g>
          </g>
          <g class="cls-3">
            <g class="cls-52">
              <g class="cls-3">
                <path class="cls-14" d="M21,111.22,9.56,105a29.79,29.79,0,0,0,3.07-2.46L24,108.76A30.79,30.79,0,0,1,21,111.22"/>
              </g>
            </g>
          </g>
          <g class="cls-3">
            <g class="cls-53">
              <g class="cls-3">
                <path class="cls-16" d="M13.27,118.7l-11.4-6.2a7.47,7.47,0,0,1,1.68.14l2.52.19c2,.13,3.91.23,5.88.3l11.4,6.2q-3-.1-5.88-.3L15,118.84a7.52,7.52,0,0,0-1.68-.14"/>
              </g>
            </g>
          </g>
          <g class="cls-3">
            <g class="cls-54">
              <g class="cls-3">
                <path class="cls-15" d="M18.54,112.64l-11.4-6.2A17,17,0,0,0,9.56,105l11.4,6.2a17,17,0,0,1-2.42,1.42"/>
                <path class="cls-14" d="M21,111.22,9.56,105a29.79,29.79,0,0,0,3.07-2.46L24,108.76A30.79,30.79,0,0,1,21,111.22"/>
              </g>
            </g>
          </g>
          <g class="cls-3">
            <g class="cls-55">
              <g class="cls-3">
                <path class="cls-16" d="M14.67,113.67l-11.4-6.2h.11l.61-.07a10.84,10.84,0,0,0,3.15-1l11.4,6.2a10.9,10.9,0,0,1-3.16,1l-.61.07h-.1"/>
                <path class="cls-15" d="M18.54,112.64l-11.4-6.2A17,17,0,0,0,9.56,105l11.4,6.2a17,17,0,0,1-2.42,1.42"/>
              </g>
            </g>
          </g>
          <g class="cls-3">
            <g class="cls-56">
              <g class="cls-3">
                <path class="cls-16" d="M13.27,118.7l-11.4-6.2a7.47,7.47,0,0,1,1.68.14l2.52.19c2,.13,3.91.23,5.88.3l11.4,6.2q-3-.1-5.88-.3L15,118.84a7.52,7.52,0,0,0-1.68-.14"/>
              </g>
            </g>
          </g>
          <g class="cls-3">
            <g class="cls-57">
              <g class="cls-3">
                <path class="cls-16" d="M13.27,118.7l-11.4-6.2a7.47,7.47,0,0,1,1.68.14l2.52.19c2,.13,3.91.23,5.88.3l11.4,6.2q-3-.1-5.88-.3L15,118.84a7.52,7.52,0,0,0-1.68-.14"/>
              </g>
            </g>
          </g>
          <g class="cls-3">
            <g class="cls-58">
              <g class="cls-3">
                <path class="cls-16" d="M13.27,118.7l-11.4-6.2a7.47,7.47,0,0,1,1.68.14l2.52.19c2,.13,3.91.23,5.88.3l11.4,6.2q-3-.1-5.88-.3L15,118.84a7.52,7.52,0,0,0-1.68-.14"/>
              </g>
            </g>
          </g>
          <g class="cls-3">
            <g class="cls-59">
              <g class="cls-3">
                <path class="cls-16" d="M14.67,113.67l-11.4-6.2h.11l.61-.07a10.84,10.84,0,0,0,3.15-1l11.4,6.2a10.9,10.9,0,0,1-3.16,1l-.61.07h-.1"/>
              </g>
            </g>
          </g>
          <g class="cls-3">
            <g class="cls-60">
              <g class="cls-3">
                <path d="M14.42,115.39,3,109.19c.56.31,1.12.6,1.69.87l11.39,6.2q-.84-.41-1.68-.87"/>
                <path d="M16.1,116.26l-11.39-6.2a25.22,25.22,0,0,0,4.87,1.88l11.4,6.2a25.31,25.31,0,0,1-4.88-1.88"/>
                <path d="M21,118.14l-11.4-6.2a16.84,16.84,0,0,0,2.55.47l11.4,6.2a16.61,16.61,0,0,1-2.55-.47"/>
              </g>
            </g>
          </g>
          <g class="cls-3">
            <g class="cls-61">
              <g class="cls-3">
                <path d="M12.79,118l-11.4-6.2c1.94,0,3.63.25,5.28.35l1.21.08,11.4,6.2-1.22-.08c-1.64-.1-3.33-.4-5.27-.35"/>
              </g>
            </g>
          </g>
          <g class="cls-3">
            <g class="cls-62">
              <g class="cls-3">
                <path class="cls-16" d="M14.67,113.67l-11.4-6.2h.11l.61-.07a10.84,10.84,0,0,0,3.15-1l11.4,6.2a10.9,10.9,0,0,1-3.16,1l-.61.07h-.1"/>
              </g>
            </g>
          </g>
          <g class="cls-3">
            <g class="cls-63">
              <g class="cls-3">
                <path class="cls-7" d="M35.81,135.79l-11.39-6.2c-5.11-2.77-9.89-6.15-14.72-9.36q-2.22-1.47-4.44-2.9L3.2,116.05a5.94,5.94,0,0,1-2.27-1.83,1.31,1.31,0,0,1-.23-1l11.4,6.2a1.23,1.23,0,0,0,.23,1,5.94,5.94,0,0,0,2.27,1.83c.69.42,1.37.85,2,1.28q2.24,1.43,4.44,2.9c4.84,3.21,9.62,6.59,14.72,9.36"/>
                <path class="cls-48" d="M12.1,119.39.7,113.19l0-.09,11.4,6.2a.36.36,0,0,0,0,.09"/>
                <path class="cls-47" d="M12.14,119.3.74,113.1.79,113l11.39,6.2,0,.07"/>
                <path class="cls-18" d="M12.18,119.23.79,113l0-.07,11.39,6.2a.18.18,0,0,1-.05.07"/>
                <path class="cls-17" d="M12.23,119.16.84,113l.07-.07,11.39,6.2a.23.23,0,0,1-.07.07"/>
                <path class="cls-14" d="M12.3,119.09.91,112.89l.1-.08,11.4,6.2-.11.08"/>
                <path class="cls-15" d="M12.41,119,1,112.81l.2-.11,11.4,6.2a1,1,0,0,0-.2.11"/>
                <path class="cls-16" d="M12.61,118.9l-11.4-6.2a2.88,2.88,0,0,1,.66-.2l11.4,6.2a2.73,2.73,0,0,0-.66.2"/>
              </g>
            </g>
          </g>
          <g class="cls-3">
            <g class="cls-64">
              <g class="cls-3">
                <polyline class="cls-14" points="14.61 113.65 3.21 107.45 3.22 107.45 14.62 113.65 14.61 113.65"/>
                <path class="cls-15" d="M14.62,113.65l-11.4-6.2,0,0,11.4,6.2-.05,0"/>
                <path class="cls-16" d="M14.67,113.67l-11.4-6.2h.11l.61-.07a10.84,10.84,0,0,0,3.15-1l11.4,6.2a10.9,10.9,0,0,1-3.16,1l-.61.07h-.1"/>
              </g>
            </g>
          </g>
          <g class="cls-3">
            <g class="cls-65">
              <g class="cls-3">
                <path d="M14.75,113l-11.39-6.2.63-.07a10.74,10.74,0,0,0,3.06-.94l11.4,6.2a10.74,10.74,0,0,1-3.06.94l-.64.07"/>
                <path d="M18.45,112l-11.4-6.2a16.66,16.66,0,0,0,2.29-1.34l11.4,6.2A17.28,17.28,0,0,1,18.45,112"/>
                <path d="M20.74,110.61l-11.4-6.2a29.81,29.81,0,0,0,2.82-2.27l11.4,6.2a29.81,29.81,0,0,1-2.82,2.27"/>
                <path d="M23.56,108.34l-11.4-6.2c1.73-1.56,3.35-3.27,4.93-4.77q1.25-1.19,2.52-2.34l11.4,6.2q-1.28,1.15-2.52,2.34c-1.58,1.5-3.21,3.21-4.93,4.77"/>
                <path d="M31,101.23,19.61,95a91,91,0,0,1,9-7.17L40,94.06a90.88,90.88,0,0,0-9,7.17"/>
                <path d="M40,94.06l-11.39-6.2c.5-.35,1-.68,1.51-1A59.47,59.47,0,0,1,37,83l11.39,6.2A60.19,60.19,0,0,0,41.5,93c-.51.33-1,.67-1.52,1"/>
                <path d="M48.38,89.15,37,83a42.2,42.2,0,0,1,4.93-2,35.35,35.35,0,0,1,5.8-1.37A61.75,61.75,0,0,1,54,79.27a15.22,15.22,0,0,0,1.54-.13,8.68,8.68,0,0,0,2.54-.72l11.4,6.2a8.77,8.77,0,0,1-2.54.72c-.5.07-1,.11-1.54.13a62,62,0,0,0-6.3.34,35,35,0,0,0-5.79,1.37,42.34,42.34,0,0,0-4.94,2"/>
                <path d="M69.49,84.62l-11.4-6.2a7.14,7.14,0,0,0,1.06-.62L70.55,84a7.69,7.69,0,0,1-1.06.62"/>
                <path d="M70.55,84l-11.4-6.2a7.7,7.7,0,0,0,.81-.63l11.39,6.19a7.73,7.73,0,0,1-.8.64"/>
                <path d="M71.35,83.36,60,77.17l.17-.17c1.07-1,2-2.23,3.07-3.21L74.6,80c-1.09,1-2,2.2-3.07,3.21l-.18.16"/>
                <path d="M74.6,80l-11.4-6.2c.2-.17.4-.34.61-.5l.25-.19,11.4,6.2-.26.19c-.2.16-.41.32-.6.5"/>
                <path d="M75.46,79.3l-11.4-6.2a7.73,7.73,0,0,1,.88-.51l11.4,6.2a7,7,0,0,0-.88.51"/>
                <path d="M76.34,78.79l-11.4-6.2a5,5,0,0,1,1.32-.41l11.4,6.2a5,5,0,0,0-1.32.41"/>
              </g>
            </g>
          </g>
          <g class="cls-3">
            <g class="cls-66">
              <g class="cls-3">
                <path d="M36.08,136.86l-11.4-6.2c-2.06-1.12-4-2.38-5.93-3.58-2.94-1.85-5.82-3.79-8.71-5.72s-5.7-3.5-8.41-5.42A3.11,3.11,0,0,1,0,113.23a1.69,1.69,0,0,1,.11-.48L11.51,119a1.7,1.7,0,0,0-.1.47A3.1,3.1,0,0,0,13,122.14c2.71,1.92,5.64,3.57,8.4,5.42s5.77,3.87,8.72,5.72c1.9,1.2,3.87,2.46,5.93,3.58"/>
                <path d="M11.51,119,.12,112.75a.72.72,0,0,1,.09-.2l11.39,6.2-.09.2"/>
                <path d="M11.6,118.75.21,112.55a.6.6,0,0,1,.09-.15l11.39,6.2-.09.15"/>
                <path d="M11.69,118.6.3,112.4l.09-.12,11.4,6.2-.1.12"/>
                <path d="M11.79,118.48l-11.4-6.2.12-.11,11.39,6.2a1.14,1.14,0,0,0-.11.11"/>
                <path d="M11.9,118.37.51,112.17l.14-.12,11.4,6.2-.15.12"/>
                <path d="M12.05,118.25l-11.4-6.2.22-.12,11.39,6.2-.21.12"/>
                <path d="M12.26,118.13.87,111.93a1.49,1.49,0,0,1,.52-.15l11.4,6.2a1.55,1.55,0,0,0-.53.15"/>
              </g>
            </g>
          </g>
          <g class="cls-3">
            <g class="cls-67">
              <g class="cls-3">
                <path d="M14.61,113.65l-11.4-6.2a.37.37,0,0,1-.12-.13.47.47,0,0,1,0-.33l11.4,6.2a.42.42,0,0,0,0,.33.37.37,0,0,0,.12.13"/>
                <path d="M14.48,113.19,3.08,107s0,0,0-.06l11.4,6.2a.14.14,0,0,0,0,.06"/>
                <path d="M14.5,113.13l-11.4-6.2,0,0,11.39,6.2s0,0,0,0"/>
                <path d="M14.52,113.1,3.13,106.9l0,0,11.4,6.2,0,0"/>
                <path d="M14.55,113.06l-11.4-6.2,0,0,11.4,6.2,0,0"/>
                <path d="M14.58,113l-11.4-6.2,0,0,11.4,6.2,0,0"/>
                <path d="M14.61,113l-11.4-6.2,0,0,11.4,6.2-.05,0"/>
                <path d="M14.66,113l-11.4-6.2.1,0L14.75,113l-.09,0"/>
              </g>
            </g>
          </g>
          <polygon class="cls-68" points="13.05 114.57 1.65 108.37 3.1 107.32 14.49 113.52 13.05 114.57"/>
          <g class="cls-3">
            <g class="cls-69">
              <g class="cls-3">
                <path class="cls-7" d="M14.93,115.64l-11.4-6.2c-.63-.34-1.26-.7-1.88-1.07l11.4,6.2c.62.36,1.24.72,1.88,1.07"/>
              </g>
            </g>
          </g>
          <g class="cls-3">
            <g class="cls-70">
              <g class="cls-3">
                <path d="M14.59,116.31l-11.4-6.2c-.69-.37-1.36-.77-2-1.17A.34.34,0,0,1,1,108.5l11.39,6.2a.37.37,0,0,0,.12.44c.67.4,1.35.8,2,1.17"/>
                <path d="M12.43,114.7,1,108.5l0-.06,11.39,6.2,0,.06"/>
                <path d="M12.46,114.64l-11.39-6.2,0,0,11.39,6.2,0,0"/>
                <path d="M12.49,114.59,1.1,108.39l0,0,11.4,6.2s0,0,0,0"/>
                <path d="M12.53,114.55l-11.4-6.2,0,0,11.4,6.2,0,0"/>
                <path d="M12.56,114.51l-11.4-6.2,0,0,11.4,6.2,0,0"/>
                <path d="M12.6,114.48l-11.4-6.2.05,0,11.39,6.2,0,0"/>
                <path d="M12.64,114.46l-11.39-6.2.07,0,11.4,6.2-.08,0"/>
              </g>
            </g>
          </g>
          <path d="M77.66,78.38a2.78,2.78,0,0,1,1.49.17c1.36.6,1.83,2.23,2.11,3.72a11.44,11.44,0,0,0,2.38,5.56,13.79,13.79,0,0,0,4.67,3.53c4,1.88,8.63,2.08,13,2.78,2.35.38,4.66.94,7,1.1a13.93,13.93,0,0,0,2.82-.13c1.41-.2,2.82-.56,4.28-.89.45-.1,1.16-.27,1.89-.37,1.12-.16,2.31-.15,2.78.54a.81.81,0,0,1-.11,1.13,48.31,48.31,0,0,0,6-.32l.71-.11c1.34-.24,1.87-1,2.8-2a20.25,20.25,0,0,1,2.27-2c2.07-1.63,4.18-3.16,6.13-5a50.36,50.36,0,0,0,5.75-6.43c.36-.15.5-.07.55.09a76.76,76.76,0,0,1,2.81,16,151.11,151.11,0,0,1,.43,19.3.41.41,0,0,1-.34.4.33.33,0,0,1-.29-.13c-3.55-5.05-7.88-9.33-13.34-11.93a19,19,0,0,0-9.87-1.91c-.4,0-.87.08-1.37.15a6.11,6.11,0,0,0-3.89,1.68,2.59,2.59,0,0,0-.49,1.89c0,1.06.1,2.11.17,3.17a.44.44,0,0,1-.32.4c-2.9.18-5.79.48-8.65.55a43.25,43.25,0,0,0-5.34,0,8,8,0,0,0-2.27.67,86.59,86.59,0,0,0-15.38,9.89,7.62,7.62,0,0,1,1.15,4.35.42.42,0,0,1-.16.33,29.36,29.36,0,0,1-10.18,4.33,47.24,47.24,0,0,0-10.74,3.68c-5.29,2.73-10.78,6.73-16.51,7.53a13.75,13.75,0,0,1-1.7.14c-6.64.17-12.51-3.69-17.78-7-2.95-1.85-5.83-3.79-8.72-5.72s-5.69-3.5-8.4-5.42a3.1,3.1,0,0,1-1.62-2.72A1.5,1.5,0,0,1,12.79,118c1.94,0,3.63.25,5.27.35l1.22.08a35.16,35.16,0,0,1-6.73-3.27c-.29-.17-.1-.67.17-.71,3.56,2.06,7,3.76,10.81,4.18.4,0,.25.66-.12.72-2-.07-4-.17-5.94-.3L15,118.84a7.94,7.94,0,0,0-1.62-.15c-1.43.28-1.47.94-1,1.73a5.94,5.94,0,0,0,2.27,1.83c.69.42,1.37.85,2,1.28q2.24,1.43,4.44,2.9c5.39,3.58,10.72,7.36,16.5,10.29a24.32,24.32,0,0,0,8.58,2.79,13.84,13.84,0,0,0,3.28-.09,21.71,21.71,0,0,0,6-1.89c5.57-2.53,10.78-6.45,16.58-8.11,3-.87,6.1-1.36,9.1-2.46A17,17,0,0,0,86,124.57c.49-.42.55-.37.58-1a5,5,0,0,0-.21-1.39,6.7,6.7,0,0,0-1-2.08.38.38,0,0,1,.12-.51,88.47,88.47,0,0,1,15.84-10.22,8.49,8.49,0,0,1,2.36-.69,43.39,43.39,0,0,1,5.23,0c2.8-.06,5.64-.34,8.46-.53-.13-1.42-.51-3.31.17-4.64s2.21-1.86,3.41-2.19a15.48,15.48,0,0,1,2-.41,18.61,18.61,0,0,1,8.92,1c6.16,2.25,11.09,6.84,15,12.2a148.51,148.51,0,0,0-.44-17.81,78.38,78.38,0,0,0-2.64-15.65,50.89,50.89,0,0,1-5.49,6c-2.05,1.91-4.28,3.49-6.45,5.21a18.53,18.53,0,0,0-2.58,2.51,3.73,3.73,0,0,1-2.13,1.3c-.26.06-.52.11-.79.15-1.11.15-2.26.14-3.36.2-1.45.09-2.9.15-4.35.2-.44,0-.44-.61,0-.73.77-.18.77-.68.21-.92a2.57,2.57,0,0,0-.92,0,10.4,10.4,0,0,0-1.11.1l-.58.09c-1.17.21-2.3.56-3.46.83l-1.16.21a20.22,20.22,0,0,1-5.87-.15c-2.38-.37-4.74-.86-7.12-1.19a66.76,66.76,0,0,1-7.08-1.26,15.5,15.5,0,0,1-8.58-5.12,10.31,10.31,0,0,1-2.09-4.38c-.37-1.79-.53-4.51-2.65-4.63a2.79,2.79,0,0,0-.65,0c-2.83.4-4.82,4.42-7.26,5.9a7.9,7.9,0,0,1-3,1,22.19,22.19,0,0,1-2.43.16,49.45,49.45,0,0,0-5.69.32C50.68,87.8,42.8,92.41,35.85,98c-3.74,3-7.13,6.36-10.63,9.67-2.88,2.73-6.15,5.45-9.84,6l-.61.07a.27.27,0,0,1-.28-.16.39.39,0,0,1,.26-.56l.64-.07c5.11-.72,9.26-5.67,13.1-9.32A92.67,92.67,0,0,1,41.5,93a50.86,50.86,0,0,1,11.82-5.86,35,35,0,0,1,5.79-1.37,62,62,0,0,1,6.3-.34c.52,0,1-.06,1.54-.13a7.86,7.86,0,0,0,4.58-2.14,49.45,49.45,0,0,1,3.67-3.71A5.48,5.48,0,0,1,77.66,78.38Z"/>
          <path class="cls-71" d="M77.53,79.12a2.79,2.79,0,0,1,.65,0c2.12.12,2.28,2.84,2.65,4.63a10.31,10.31,0,0,0,2.09,4.38,15.5,15.5,0,0,0,8.58,5.12,66.76,66.76,0,0,0,7.08,1.26c2.38.33,4.74.82,7.12,1.19a20.22,20.22,0,0,0,5.87.15l1.16-.21c1.16-.27,2.29-.62,3.46-.83l.58-.09a10.4,10.4,0,0,1,1.11-.1,2.57,2.57,0,0,1,.92,0c.56.24.56.74-.21.92-.44.12-.44.74,0,.73,1.45,0,2.9-.11,4.35-.2,1.1-.06,2.25,0,3.36-.2.27,0,.53-.09.79-.15a3.73,3.73,0,0,0,2.13-1.3,18.53,18.53,0,0,1,2.58-2.51c2.17-1.72,4.4-3.3,6.45-5.21a50.89,50.89,0,0,0,5.49-6,78.38,78.38,0,0,1,2.64,15.65,148.51,148.51,0,0,1,.44,17.81c-3.92-5.36-8.85-10-15-12.2a18.61,18.61,0,0,0-8.92-1,15.48,15.48,0,0,0-2,.41c-1.2.33-2.74.87-3.41,2.19s-.3,3.22-.17,4.64c-2.82.19-5.66.47-8.46.53a43.39,43.39,0,0,0-5.23,0,8.49,8.49,0,0,0-2.36.69,88.47,88.47,0,0,0-15.84,10.22.38.38,0,0,0-.12.51,6.7,6.7,0,0,1,1,2.08,5,5,0,0,1,.21,1.39c0,.64-.09.59-.58,1A17,17,0,0,1,81.18,127c-3,1.1-6.07,1.59-9.1,2.46-5.8,1.66-11,5.58-16.58,8.11a21.71,21.71,0,0,1-6,1.89,13.84,13.84,0,0,1-3.28.09,24.32,24.32,0,0,1-8.58-2.79c-5.78-2.93-11.11-6.71-16.5-10.29q-2.2-1.47-4.44-2.9c-.68-.43-1.36-.86-2-1.28a5.94,5.94,0,0,1-2.27-1.83c-.47-.79-.43-1.45.94-1.72a7.52,7.52,0,0,1,1.68.14l2.52.19q2.93.19,5.88.3c.43-.06.58-.68.18-.72-3.84-.42-7.25-2.12-10.48-4l1.44-1a.27.27,0,0,0,.28.16l.61-.07c3.69-.51,7-3.23,9.84-6,3.5-3.31,6.89-6.68,10.63-9.67C42.8,92.41,50.68,87.8,58.93,86.56a48.39,48.39,0,0,1,5.87-.35,22.19,22.19,0,0,0,2.43-.16,7.9,7.9,0,0,0,3-1C72.71,83.54,74.7,79.52,77.53,79.12Z"/>
        </g>
      </g>
      <ellipse class="cls-72" cx="34.55" cy="112.24" rx="10.26" ry="15.03"/>
      <circle class="cls-73" cx="33.04" cy="117.83" r="5.48"/>
    </g>
    <g>
      <path class="cls-74" d="M52.49,26.17,52.14,46.3l12.69.22-.09,5.14-12.69-.22-.36,20.3-3.59-.06.36-20.3-12.7-.23L35.85,46l12.7.23L48.9,26.1Z"/>
      <path class="cls-74" d="M83.63,23h-.11l-6.44,5.12-.85-5.76L84.32,16l4.21.07-1,55.68-4.77-.08Z"/>
    </g>
  </g>
</svg>
