<svg id="Layer_1" data-name="Layer 1" xmlns="http://www.w3.org/2000/svg" width="755.51" height="826.72" viewBox="0 0 755.51 826.72">
  <defs>
    <style>
      .cls-1, .cls-2, .cls-3 {
        fill: none;
        stroke-miterlimit: 10;
      }

      .cls-1, .cls-2 {
        stroke: #e6e6e6;
      }

      .cls-1 {
        stroke-width: 30px;
      }

      .cls-2 {
        stroke-width: 65px;
      }

      .cls-3 {
        stroke: #000;
        stroke-width: 7px;
      }
    </style>
  </defs>
  <g>
    <path class="cls-1" d="M15,95.72c1.06-41.31,162.88-69.29,250-77,135.59-12,316.61,5.14,322,49,4.85,39.5-132.76,100.05-261,111C174.34,191.68,13.94,137.13,15,95.72Z"/>
    <g>
      <path class="cls-1" d="M22.55,114.34,83.39,768.1a832.21,832.21,0,0,0,187.76,40.13A802.3,802.3,0,0,0,489,798.84q41.28-349.64,82.57-699.29c-59.9,35-154.07,77.55-272.11,81.08C179.8,184.2,83.56,146.27,22.55,114.34Z"/>
      <path class="cls-2" d="M582.63,242.6c-22.54-1.9,132.93,10,132.93,10S784,533,505.57,668.29"/>
      <path class="cls-3" d="M62.77,289.08s.36-53.32,20.38-55.94,37.84,12,39.48,88.9,4.19,378.59,4.19,378.59"/>
      <path class="cls-3" d="M168.69,334.74s3.62-53.3,29.08-55.18S244.86,293,242.36,369.9s-17.21,378.64-17.21,378.64"/>
      <path class="cls-3" d="M293,323.34s6.44-56.12,33-56.12,48.33,17.91,41.88,99.1S331,765.67,331,765.67"/>
      <path class="cls-3" d="M408.11,288.15s10.42-57.38,40.42-54.87,53.55,23.06,41.73,106.35-64,409.22-64,409.22"/>
    </g>
  </g>
</svg>
