<svg id="Layer_1" data-name="Layer 1" xmlns="http://www.w3.org/2000/svg" xmlns:xlink="http://www.w3.org/1999/xlink" width="639" height="665" viewBox="0 0 639 665">
  <defs>
    <style>
      .cls-1 {
        fill: #8cc63f;
      }

      .cls-2 {
        fill: #f9edbb;
      }

      .cls-3 {
        fill: #167c0b;
      }

      .cls-4 {
        fill: #c7b299;
      }

      .cls-15, .cls-5 {
        fill: none;
      }

      .cls-15, .cls-5, .cls-6 {
        stroke: #000;
        stroke-miterlimit: 10;
      }

      .cls-5, .cls-6 {
        stroke-width: 0.5px;
      }

      .cls-7 {
        fill: #009245;
      }

      .cls-8 {
        fill: #fff;
      }

      .cls-9 {
        fill: #c69c6d;
      }

      .cls-10 {
        fill: #ed1c24;
      }

      .cls-11 {
        fill: #1b1464;
      }

      .cls-12 {
        fill: #ffbb6b;
      }

      .cls-13 {
        fill: #754c24;
      }

      .cls-14 {
        fill: url(#Golden_Ring);
      }

      .cls-15 {
        stroke-width: 5px;
      }
    </style>
    <radialGradient id="Golden_Ring" data-name="Golden Ring" cx="310.16" cy="638.67" r="19.5" gradientTransform="translate(-55.78 -284.86) scale(1.18 1.21)" gradientUnits="userSpaceOnUse">
      <stop offset="0.74" stop-color="#fff" stop-opacity="0"/>
      <stop offset="0.76" stop-color="#fff" stop-opacity="0.01"/>
      <stop offset="0.77" stop-color="#fff" stop-opacity="0.04"/>
      <stop offset="0.79" stop-color="#fff" stop-opacity="0.1"/>
      <stop offset="0.79" stop-color="#fff" stop-opacity="0.18"/>
      <stop offset="0.8" stop-color="#fff" stop-opacity="0.28"/>
      <stop offset="0.81" stop-color="#fff" stop-opacity="0.4"/>
      <stop offset="0.82" stop-color="#fff" stop-opacity="0.5"/>
      <stop offset="0.82" stop-color="#dbc01f"/>
      <stop offset="0.83" stop-color="#f1dc3a"/>
      <stop offset="0.84" stop-color="#f5e13f"/>
      <stop offset="0.84" stop-color="#dbc01f"/>
      <stop offset="0.85" stop-color="#e1cb46"/>
      <stop offset="0.87" stop-color="#e9d976"/>
      <stop offset="0.89" stop-color="#f0e4a0"/>
      <stop offset="0.91" stop-color="#f5eec3"/>
      <stop offset="0.93" stop-color="#faf5dd"/>
      <stop offset="0.95" stop-color="#fdfbf0"/>
      <stop offset="0.98" stop-color="#fefefb"/>
      <stop offset="1" stop-color="#fff"/>
    </radialGradient>
  </defs>
  <g>
    <path class="cls-1" d="M462.66,527.09c19.69-1.38,37.41,7.5,44.84,22.41,5.06,10.16,3.91,20.24,3,25l-20,22-35,27.23L427,613.51l-24.5,3.22V586l17.69-12.93L382,568.71l29-4.48,24-13Z"/>
    <path class="cls-2" d="M192,467c2,43.06,41.06,88.94,78,95,11.87,2,21.37-.57,49,4,24.1,4,27.37,7.64,43,7,8.22-.34,9.92-1.46,42-7,17.35-3,21.18-3.42,24-4,29.39-6,63.88-53.21,64-95,.18-62.69-77-120-150-120C270.45,347,189,402,192,467Z"/>
    <g>
      <path d="M243.5,413.78l-6.28,0,.1.73c11.59-3.28,23.89-1.36,35.62-3.78,6.13-1.27,11.84-4.09,18.17-4.36,5.76-.25,11.3,1.35,16.54,3.63,4.83,2.1,9.46,4.68,14.37,6.61a72.89,72.89,0,0,0,16.52,4.09c12.21,1.71,24.61,1.49,36.91,1.26,14.59-.27,29.4-.52,43.65-4,.47-.11.27-.83-.2-.72-12.87,3.15-26.23,3.62-39.42,3.9-12.6.27-25.31.64-37.86-.79a80.18,80.18,0,0,1-17.21-3.65c-5.19-1.78-10-4.45-15-6.71a43.55,43.55,0,0,0-15-4.32c-6.09-.41-11.58,1.5-17.32,3.23-13,3.93-26.93,1.21-40,4.9a.38.38,0,0,0,.1.74l6.28,0a.38.38,0,0,0,0-.75Z"/>
      <path d="M280.09,412.42l-4.94-.45c-.45,0-.48.61-.1.74,8.25,2.94,17.23,2.71,25.69,4.76,4.38,1.07,8.39,3.27,12.78,4.25a33.66,33.66,0,0,0,13.74-.17c4.7-.92,9.26-2.42,13.93-3.48a73.37,73.37,0,0,1,14.32-1.66c10-.26,20,.85,29.9,2,11.2,1.26,22.57,2.46,33.36,5.9.46.15.66-.58.2-.72-9.28-3-19-4.23-28.64-5.36-10.05-1.18-20.16-2.41-30.29-2.55a90,90,0,0,0-14,.78,123,123,0,0,0-13.79,3.2c-4.75,1.24-9.61,2.26-14.54,1.94s-9-2.37-13.58-3.9c-9.34-3.14-19.56-2.36-28.86-5.67l-.1.73,4.94.45c.48.05.48-.7,0-.75Z"/>
      <path d="M322.21,432c2.31-1.3,5.22-1,7.73-.55s5.14,1.29,7.7,2a118.32,118.32,0,0,0,16.39,3,212.54,212.54,0,0,0,36.12.6,76.66,76.66,0,0,0,9.09-.75c1.45-.26,4.29-.74,4.39-2.66,0-.48-.73-.48-.75,0-.1,1.94-5.06,2.14-6.34,2.24-2.89.23-5.79.4-8.68.54-5.84.29-11.68.42-17.52.31-11.34-.21-22.77-1.28-33.73-4.31-4.43-1.22-10.38-3.47-14.78-1a.38.38,0,0,0,.38.65Z"/>
      <path d="M333.4,425.24c-8.68-.42-16.92,2.18-25.2,4.42-8.67,2.36-17.37,3.54-26.34,2.47a55.06,55.06,0,0,1-7.42-1.38c-1-.27-2.08-.57-3.1-.92-.56-.19-1.12-.38-1.67-.59l-.54-.22c-.4-.16-2.6-.94-1.1-2,.4-.27,0-.92-.37-.65a1.56,1.56,0,0,0,.11,2.85,24.3,24.3,0,0,0,6.08,2.15A59.71,59.71,0,0,0,288,433.31a63,63,0,0,0,14.49-1.45c4.73-1,9.35-2.48,14-3.7A56.43,56.43,0,0,1,333.4,426c.48,0,.48-.73,0-.75Z"/>
      <path d="M280.51,420.85a38.73,38.73,0,0,1,21.16-.75c5.21,1.28,13.33,4.92,12.86,11.48a.38.38,0,0,0,.48.36,172.74,172.74,0,0,1,22.84-6.6c.47-.1.28-.83-.2-.72a172.74,172.74,0,0,0-22.84,6.6l.47.36c.46-6.5-7-10.41-12.29-11.91a39.29,39.29,0,0,0-22.68.45c-.46.16-.26.88.2.73Z"/>
      <path d="M304.39,414.57a41.49,41.49,0,0,0,9.15,1.05c2.31,0,5.08-.27,6.92-1.84.62-.53,1-1.25,1.56-1.83a5.38,5.38,0,0,1,2.6-1.35,21.8,21.8,0,0,1,5.81-.5c3.82,0,7.61.59,11.42.86s7.61.32,11.16-1c.44-.17.25-.9-.2-.73-6.57,2.52-14.09.5-20.88.19-3-.13-7-.37-9.64,1.36-1.22.79-1.76,2.21-3,2.95a9.84,9.84,0,0,1-4,1.08,36,36,0,0,1-10.69-.93c-.47-.1-.67.62-.2.72Z"/>
      <path d="M319.59,441.71c6.93-2.62,13.93-5.13,21.26-6.39a59.07,59.07,0,0,1,12.1-.81c3.92.13,7.88.52,11.79,0,2.63-.36,6.74-1.12,8-3.86.19-.43-.45-.82-.65-.38-.8,1.75-3,2.48-4.7,3a27.09,27.09,0,0,1-7.23.79c-4.92,0-9.79-.51-14.7-.05-9,.84-17.63,3.84-26.07,7-.45.17-.26.9.2.73Z"/>
      <path d="M359.9,427.07l-9.21,1.3.2.73c6.86-1.62,14-.69,21-.08,6.43.56,13.27,1.17,19.46-1.08.45-.16.26-.88-.2-.72-6.38,2.32-13.45,1.56-20.06,1s-13.7-1.4-20.37.17c-.48.12-.26.79.2.73l9.21-1.3c.48-.07.28-.79-.2-.73Z"/>
      <path d="M390.82,406.87a15.51,15.51,0,0,1-8.24-.51c-1.73-.58-4.69-1.89-4.72-4.08,0-.81.56-1.59,0-2.34s-1.93-.87-2.83-.88c-3.52,0-7.1.42-10.61.64-.48,0-.49.78,0,.75l5.71-.36a49.32,49.32,0,0,1,5.29-.27,2.92,2.92,0,0,1,1.25.21c.64.36.59.79.54,1.39a7.32,7.32,0,0,0-.11,1.06,3.57,3.57,0,0,0,.84,1.9c2.85,3.51,9,4.11,13.06,3.21.48-.1.28-.82-.2-.72Z"/>
      <path d="M367.54,404.51a13.47,13.47,0,0,1-9.28-1.36,4.42,4.42,0,0,1-1.47-1.35c-.34-.53-.43-1.17-.8-1.68a3.81,3.81,0,0,0-2.8-1.29,17.21,17.21,0,0,0-4.47.3c-2.05.33-4.1.69-6.15,1L330,402.27c-.47.08-.27.81.2.73l12.3-2.07,6.4-1.08a12,12,0,0,1,5.17-.1c1.58.48,1.51,1.91,2.47,3a7.24,7.24,0,0,0,2.65,1.74,15.07,15.07,0,0,0,8.53.77c.47-.09.27-.82-.2-.72Z"/>
      <path d="M363.35,409.64a5.34,5.34,0,0,0-4.44.65.37.37,0,0,0,.19.69l11.63,1.31a24.88,24.88,0,0,0,10.45-.66,55.08,55.08,0,0,1,10.12-2.44,46.87,46.87,0,0,1,10.85,0c.48.06.47-.69,0-.75a47.23,47.23,0,0,0-20.37,2.2,21.39,21.39,0,0,1-5.23,1.16,33.33,33.33,0,0,1-5.82-.27l-11.63-1.31.19.7a4.68,4.68,0,0,1,3.86-.57c.47.12.67-.61.2-.72Z"/>
      <path d="M306,398.13c-5.63,1.39-11.4.06-17.06-.37-4.13-.31-9.42-.53-13,2-.38.28,0,.93.38.64,3.72-2.69,9.42-2.24,13.74-1.82,5.33.52,10.8,1.56,16.1.25a.38.38,0,0,0-.2-.73Z"/>
      <path d="M310.16,405.19a56,56,0,0,0,21.16.9c.47-.07.27-.79-.2-.72a55.16,55.16,0,0,1-20.76-.9c-.47-.11-.67.61-.2.72Z"/>
      <path d="M308,403.66l-2.33-4.84c-.21-.44-.85-.06-.64.38l2.32,4.84c.21.43.86,0,.65-.38Z"/>
      <path d="M358.19,409.9v-.61a.38.38,0,0,0-.11-.26.35.35,0,0,0-.27-.11.38.38,0,0,0-.26.11.36.36,0,0,0-.11.26v.61a.39.39,0,0,0,.11.27.41.41,0,0,0,.26.11.44.44,0,0,0,.27-.11.4.4,0,0,0,.11-.27Z"/>
      <path d="M341.24,429.12l-7.5-8.57c-.32-.37-.85.17-.53.53l7.5,8.57c.32.37.85-.17.53-.53Z"/>
      <path d="M364.87,429a51.14,51.14,0,0,1,11.95-9.72.38.38,0,0,0-.38-.65,52,52,0,0,0-12.1,9.84c-.32.36.21.89.53.53Z"/>
      <path d="M288,426.62l-11.08-6.08c-.43-.23-.81.42-.38.65l11.08,6.08c.42.23.8-.41.38-.65Z"/>
      <path d="M332.11,419.15a9.41,9.41,0,0,1-4.09-.06,4.75,4.75,0,0,1-2.86-1.55c-.28-.39-.93,0-.65.38a5.42,5.42,0,0,0,3.21,1.87,10.31,10.31,0,0,0,4.59.09c.47-.1.27-.83-.2-.73Z"/>
      <path d="M336.7,449a19.75,19.75,0,0,1-7.73-.46.37.37,0,0,0-.2.72,20.2,20.2,0,0,0,7.93.49c.48-.07.48-.82,0-.75Z"/>
      <path d="M306.77,438.17a37.42,37.42,0,0,1-11.12,2.3c-.47,0-.48.77,0,.75A37.75,37.75,0,0,0,307,438.89c.45-.17.25-.89-.2-.72Z"/>
      <path d="M343.29,438.69l-9.53,2.16a.38.38,0,0,0,0,.73l17.05,3.08c.47.09.67-.64.2-.72L334,440.85v.73l9.53-2.16c.47-.11.27-.83-.2-.73Z"/>
      <path d="M312.82,440.54a4.9,4.9,0,0,1-1.37-4.26,6.76,6.76,0,0,1,2.82-4c.8-.59,1.72-.95,2.55-1.49.5-.33,1-.85.72-1.48a2.34,2.34,0,0,0-1.55-1,14.93,14.93,0,0,0-3-.46,61.53,61.53,0,0,0-8.48-.09c-.48,0-.48.78,0,.75a60.23,60.23,0,0,1,7.11,0,24.31,24.31,0,0,1,3.41.34c.41.08,2.25.44,1.64,1.11a4.11,4.11,0,0,1-1.18.69c-.45.24-.89.49-1.31.77a10.09,10.09,0,0,0-1.92,1.65,6.38,6.38,0,0,0-1.67,3.72,5.78,5.78,0,0,0,1.67,4.26c.33.36.86-.17.53-.53Z"/>
      <path d="M365.61,445.64a51.79,51.79,0,0,0,16.78-3.85c.44-.19.06-.84-.38-.65a50.54,50.54,0,0,1-16.4,3.75c-.48,0-.48.79,0,.75Z"/>
      <path d="M353.58,436.74c7.76,4.85,16.69,2.71,24.71-.21.45-.17.26-.89-.2-.72-7.82,2.84-16.55,5-24.13.28-.41-.26-.79.39-.38.65Z"/>
      <path d="M281,434.76a72.87,72.87,0,0,0,12.71,2.13,58.69,58.69,0,0,0,12.64-.06,11.15,11.15,0,0,0,4.66-1.75c2-1.24,4.06-1,6.23-.32,4.58,1.35,9.12,2.83,13.67,4.24a.37.37,0,0,0,.2-.72c-4.55-1.42-9.09-2.9-13.67-4.25a9.17,9.17,0,0,0-5.13-.4c-1.63.48-2.84,1.73-4.51,2.17a28.18,28.18,0,0,1-6.55.59c-2.2,0-4.41,0-6.6-.18A72.81,72.81,0,0,1,281.18,434a.37.37,0,0,0-.2.72Z"/>
      <path d="M353.37,446.7c-3.12-1.86-7.29-1.63-10.74-1.21-4.89.6-9.54,1.62-14.47.69-2.05-.39-4.08-.92-6.17-1.15a25.32,25.32,0,0,0-6.62.27c-4.79.76-9.46,2-14.3,2.57a97.57,97.57,0,0,1-16.48.44c-.48,0-.48.72,0,.75a101.6,101.6,0,0,0,27.33-2.33,40.71,40.71,0,0,1,7.28-1.06,29.9,29.9,0,0,1,7,.88,32.32,32.32,0,0,0,6.11.84,41.6,41.6,0,0,0,6.68-.62c4.34-.66,9.93-1.82,14,.58a.38.38,0,0,0,.38-.65Z"/>
      <path d="M319,453.59c10.19-.39,20.4-.75,30.55.37,5.09.57,10.13,1.43,15.17,2.32,4.1.72,8.82,2,12.85.32,1.08-.44,2.61-1.39,2.14-2.78-.54-1.58-2.67-2-4.11-1.94-.48,0-.48.78,0,.75a4.06,4.06,0,0,1,2.85.75c1,.85.37,1.74-.58,2.26a11.25,11.25,0,0,1-6.09.94c-4.28-.26-8.55-1.35-12.78-2a152.07,152.07,0,0,0-25.3-2.09c-4.9,0-9.8.2-14.7.39-.48,0-.48.77,0,.75Z"/>
    </g>
    <g>
      <path d="M274,389.6l-4.46,0,.1.73c8.26-3.42,17.56-1.35,26-4.17,4.24-1.42,8-4.2,12.58-4.4,4-.17,7.7,1.48,11,3.57s6.43,4.63,9.81,6.7a38.21,38.21,0,0,0,11.47,4.55c8.62,2,17.59,1.84,26.38,1.61,10.81-.29,21.91-.55,32.2-4.24.45-.16.26-.89-.2-.73-9.37,3.37-19.41,3.86-29.27,4.14-9.09.27-18.35.62-27.31-1.16a39.1,39.1,0,0,1-12.27-4.44c-3.42-2-6.49-4.53-9.81-6.68a22.85,22.85,0,0,0-9.86-4c-4.22-.44-7.87,1.24-11.59,3-4.83,2.25-9.83,2.82-15.1,3.14-4.8.3-9.72.54-14.22,2.41a.38.38,0,0,0,.1.74l4.46,0a.38.38,0,0,0,0-.75Z"/>
      <path d="M300.09,388.18l-3.52-.48c-.37-.05-.5.54-.19.7,5.73,3,12.43,2.9,18.44,5.07,3,1.08,5.52,3.11,8.49,4.24a15.64,15.64,0,0,0,9.26.32,86.08,86.08,0,0,0,9.58-3.44,36.3,36.3,0,0,1,10.29-2.19c7.39-.49,14.78.7,22,1.89,8.21,1.36,16.64,2.7,24.24,6.26.43.2.81-.44.37-.65-6.55-3.07-13.7-4.5-20.79-5.72s-14.22-2.5-21.42-2.63a43.85,43.85,0,0,0-10.09.87,65.75,65.75,0,0,0-9.61,3.32c-3.2,1.23-6.58,2.33-10.05,2.06-3.63-.29-6.39-2.33-9.52-3.94-6.53-3.35-14.34-2.71-20.85-6.1l-.19.69,3.52.48c.48.06.47-.69,0-.75Z"/>
      <path d="M330.21,408.65c3.13-2.54,8.15.53,11.26,1.7a61,61,0,0,0,12.27,3.13,108,108,0,0,0,26,.35c2.27-.21,8.29-.06,8.45-3.45,0-.48-.72-.48-.75,0-.09,1.82-3,2.2-4.4,2.37-2.13.26-4.27.43-6.4.58a119.6,119.6,0,0,1-12.7.3,68.19,68.19,0,0,1-24.48-4.91c-2.91-1.22-6.93-2.88-9.75-.6-.37.3.16.83.53.53Z"/>
      <path d="M338.05,401.64c-8.14-.55-15.15,4-22.67,6.35a29.94,29.94,0,0,1-12.23,1.16,29.16,29.16,0,0,1-6.12-1.38,24.86,24.86,0,0,1-2.88-1.18c-.91-.44-3.95-1.62-2.51-3.17.33-.35-.2-.88-.53-.53-2.32,2.49,2.29,4.23,4,5a29.48,29.48,0,0,0,10.1,2.21,30.68,30.68,0,0,0,10.55-1.41c3.44-1.08,6.71-2.6,10.06-3.89,3.92-1.52,8-2.66,12.21-2.37.48,0,.48-.72,0-.75Z"/>
      <path d="M300.5,397a19.29,19.29,0,0,1,16.11-.26c4.51,2.07,8.13,6.45,7.9,11.6a.37.37,0,0,0,.56.32,95.76,95.76,0,0,1,16.18-6.9c.46-.15.26-.87-.2-.72a95.48,95.48,0,0,0-16.36,7l.57.32c.24-5.4-3.54-10.07-8.27-12.25a20,20,0,0,0-16.86.27c-.44.21-.06.85.37.64Z"/>
      <path d="M317.36,390.4a17.53,17.53,0,0,0,8.3.92,5.62,5.62,0,0,0,3-1.49,8,8,0,0,0,1.14-1.79,3.84,3.84,0,0,1,2.34-1.92c3.36-1.11,7.31-.1,10.71.34,3.14.41,6.41.61,9.27-1,.42-.24,0-.88-.38-.65-6,3.35-13.11-1.23-19.44.46a4.7,4.7,0,0,0-3,2.06c-.84,1.37-1.33,2.47-3,3-2.79.95-6.09.14-8.8-.7-.46-.14-.66.58-.2.73Z"/>
      <path d="M328.33,418.87c6.46-3.59,13.28-7.21,20.82-7.54,3.67-.16,7.38.7,11,.06,2.43-.43,5.21-1.64,6-4.18.15-.46-.58-.66-.72-.2-1.08,3.36-5.7,3.89-8.66,3.85-3.49-.05-6.88-.52-10.37,0-6.66.95-12.68,4.17-18.49,7.39a.38.38,0,0,0,.38.65Z"/>
      <path d="M356.89,403.57l-6.56,1.37.2.72c9.37-3.22,19.87,3.54,28.88-1.25.43-.23,0-.87-.38-.65-4.43,2.36-9.68,1.58-14.44.95s-9.65-1.36-14.26.23a.37.37,0,0,0,.2.72l6.56-1.37c.47-.09.27-.82-.2-.72Z"/>
      <path d="M378.91,382.34a7.6,7.6,0,0,1-5.85-.56c-1.57-.81-3.18-2.3-3.24-4.19,0-.81.4-1.68,0-2.46a2,2,0,0,0-1.74-1,20.69,20.69,0,0,0-3.68.24l-4.29.4c-.48.05-.48.8,0,.75l4.29-.4a13,13,0,0,1,4-.19c1.36.32.56,2,.67,2.94a4.67,4.67,0,0,0,.75,2,8.38,8.38,0,0,0,9.27,3.12c.46-.14.26-.87-.2-.72Z"/>
      <path d="M362.33,379.86a6.92,6.92,0,0,1-6.75-1.67c-1.39-1.48-.9-3.85-3.32-4.28s-4.94.7-7.13,1.24l-9.51,2.36a.37.37,0,0,0,.2.72l9.27-2.3c1.46-.36,2.91-.75,4.37-1.08s3.57-.66,4.25,1.1a8.19,8.19,0,0,0,1,2.4,6.31,6.31,0,0,0,2,1.62,7.87,7.87,0,0,0,5.79.61.37.37,0,0,0-.2-.72Z"/>
      <path d="M359.4,385.25a3.1,3.1,0,0,0-3.32.73.38.38,0,0,0,.17.63l8.17,1.35a12.52,12.52,0,0,0,7.15-.42,39.24,39.24,0,0,1,6.75-2.61,22.32,22.32,0,0,1,8.58-.19c.47.08.68-.65.2-.73A23.12,23.12,0,0,0,373.18,386a15.34,15.34,0,0,1-3.62,1.46,13.51,13.51,0,0,1-4.7-.13c-2.81-.44-5.61-.93-8.41-1.39l.16.63a2.38,2.38,0,0,1,2.59-.55c.46.16.66-.56.2-.72Z"/>
      <path d="M318.53,373.16c-4.09,1.47-8.33,0-12.46-.43-3.05-.3-6.77-.17-9,2.22-.33.35.2.88.53.53,2.44-2.59,6.74-2.3,10-1.81,3.69.56,7.54,1.53,11.19.21.45-.16.25-.89-.2-.72Z"/>
      <path d="M321.48,380.54a27.85,27.85,0,0,0,15.11.95c.48-.1.28-.83-.19-.73a27.06,27.06,0,0,1-14.73-.94c-.45-.17-.65.56-.19.72Z"/>
      <path d="M320.12,379.05,318.47,374c-.15-.46-.88-.26-.73.2l1.66,5.09c.15.45.87.26.72-.2Z"/>
      <path d="M355.81,385.51v-.64a.39.39,0,0,0-.11-.27.44.44,0,0,0-.27-.11.41.41,0,0,0-.26.11.4.4,0,0,0-.11.27v.64a.38.38,0,0,0,.11.26.33.33,0,0,0,.26.11.35.35,0,0,0,.27-.11.41.41,0,0,0,.11-.26Z"/>
      <path d="M343.77,405.79l-5.35-9a.37.37,0,0,0-.64.38l5.34,9a.38.38,0,0,0,.65-.38Z"/>
      <path d="M360.59,405.52a44.3,44.3,0,0,1,8.51-10.2c.36-.32-.17-.85-.53-.53a44.86,44.86,0,0,0-8.63,10.35c-.25.41.4.79.65.38Z"/>
      <path d="M305.86,403.15,298,396.76c-.37-.3-.91.23-.53.53l7.89,6.39c.37.31.9-.22.53-.53Z"/>
      <path d="M337.1,395.25c-1.66.53-4,0-4.83-1.7-.2-.44-.85-.06-.64.38.93,2,3.72,2.67,5.67,2,.46-.14.26-.87-.2-.72Z"/>
      <path d="M340.3,426.58a9.47,9.47,0,0,1-5.37-.49.37.37,0,1,0-.2.72,10.15,10.15,0,0,0,5.77.49c.47-.09.27-.81-.2-.72Z"/>
      <path d="M319,415.27a19.3,19.3,0,0,1-7.8,2.37c-.47.05-.48.8,0,.75a20.11,20.11,0,0,0,8.18-2.47.38.38,0,0,0-.38-.65Z"/>
      <path d="M345.06,415.78l-6.78,2.27a.38.38,0,0,0,0,.73L350.41,422a.37.37,0,0,0,.2-.72l-12.13-3.24v.73l6.78-2.28c.46-.15.26-.87-.2-.72Z"/>
      <path d="M323.53,417.79a7,7,0,0,1-.84-5.42,8.73,8.73,0,0,1,3.35-4.68c.58-.45,1.14-1.12.76-1.89a2.77,2.77,0,0,0-1.91-1.18,24.11,24.11,0,0,0-7.39-.31c-.48,0-.48.79,0,.75a23.12,23.12,0,0,1,7.19.29,2.67,2.67,0,0,1,1.26.56c.52.52-.11,1-.53,1.32a11,11,0,0,0-1.91,1.82,8,8,0,0,0-.63,9.12c.26.41.9,0,.65-.38Z"/>
      <path d="M361,423.05A27.82,27.82,0,0,0,373,419c.41-.26,0-.91-.37-.65A27,27,0,0,1,361,422.3c-.48,0-.48.8,0,.75Z"/>
      <path d="M352.29,413.63a11.41,11.41,0,0,0,8.4,3.14c3.39-.19,6.5-1.76,9.44-3.34.43-.23.05-.87-.38-.65-2.73,1.47-5.61,3-8.75,3.22a10.63,10.63,0,0,1-8.18-2.9c-.35-.32-.89.21-.53.53Z"/>
      <path d="M300.7,411.61c5.49,2.11,12.16,3.31,18,2.19a6,6,0,0,0,3-1.41,5,5,0,0,1,1.76-1.31,4.31,4.31,0,0,1,2.89.47c3.3,1.4,6.53,3,9.78,4.48.44.2.82-.45.38-.65-3.27-1.5-6.52-3.07-9.82-4.5a5.24,5.24,0,0,0-3.24-.57c-1.19.29-1.83,1.28-2.79,1.95-1.36.94-3.16,1-4.76,1.07a36.7,36.7,0,0,1-5-.11,37.35,37.35,0,0,1-10-2.33c-.45-.18-.64.55-.19.72Z"/>
      <path d="M352.4,424.25c-2.57-2.21-6.3-1.68-9.35-1-2.42.54-4.87,1.19-7.36.73-2-.37-3.89-1.27-5.92-1.55-4.26-.59-8.38,1.64-12.44,2.55a47.28,47.28,0,0,1-14,.92c-.48,0-.47.71,0,.75a47.47,47.47,0,0,0,12.65-.63,49.72,49.72,0,0,0,6.24-1.62,19.66,19.66,0,0,1,6.41-1.32c2.11.05,4,.92,6.05,1.43a13.24,13.24,0,0,0,5.5.13c3.61-.62,8.51-2.62,11.73.15.36.31.89-.21.53-.53Z"/>
      <path d="M327.81,431.4a138.57,138.57,0,0,1,15.25-.31,77.13,77.13,0,0,1,14.62,2.45c3.54.89,8.29,3,11.8,1.07a2.58,2.58,0,0,0-1.37-5c-.48,0-.48.79,0,.75a2.07,2.07,0,0,1,2.35,1.74c0,1.07-1.09,1.77-1.95,2.1-1.87.73-3.92.31-5.8-.16-3.78-.95-7.53-2-11.37-2.72-7.79-1.46-15.65-1.15-23.53-.7-.48,0-.48.78,0,.75Z"/>
    </g>
    <ellipse class="cls-2" cx="334.5" cy="260.5" rx="134.5" ry="128.5"/>
    <path class="cls-2" d="M547.94,477.79a1.5,1.5,0,0,0,0-3,1.5,1.5,0,0,0,0,3Z"/>
    <path d="M356.72,278.58c4.81,2.47,8.44,7.65,14.17,8.06,3.14.22,6.72-1.14,9.69.35,1.37.69,2.34,1.95,3.75,2.63a8.44,8.44,0,0,0,4.05.78c.48,0,.48-.77,0-.75a7.65,7.65,0,0,1-4.71-1.27c-1.14-.78-2-1.81-3.33-2.32-2.76-1.05-5.8-.13-8.64-.14-6,0-9.68-5.46-14.6-8-.43-.22-.81.43-.38.65Z"/>
    <path d="M337.25,279.27c-2.54,1-2,3.85-3.3,5.8-.88,1.35-2.73,1.93-4.08,2.69a42.46,42.46,0,0,0-3.89,2.46,53.11,53.11,0,0,0-6.54,5.62c-2.1,2.08-4.41,4.28-7.51,4.53-.48,0-.48.79,0,.75a11.12,11.12,0,0,0,6.49-3.27c2.31-2.07,4.39-4.33,6.87-6.2a42.6,42.6,0,0,1,3.82-2.58c1.3-.79,2.73-1.39,4-2.21a4.7,4.7,0,0,0,2-2.55c.54-1.52.6-3.61,2.33-4.31.44-.18.25-.91-.2-.73Z"/>
    <path class="cls-3" d="M208,134c-13.13,28.85-3.45,35.56-15,72-9.09,28.66-19.86,40.12-15,45,5.81,5.84,20.81-11.6,56-16,12.59-1.58,21.34-.68,33-7,7.5-4.07,9.71-7.6,18-10s12.1-.7,24-1a110.87,110.87,0,0,0,26-3.45c16-4.36,18.3-10.17,35.39-15.17A95.85,95.85,0,0,1,390,195c42.09-3.38,54-2,54-2,8.1,1.86,20,3.94,22,0,.88-1.75-.49-4.16-3-8-6.75-10.32-10.12-15.48-15-20-11.23-10.4-20-24.13-32-43-14.17-22.25-10.6-28.69-23-41-4.82-4.79-9.41-8-15-16-8.59-12.3-6.65-17.45-12-21-8.89-5.9-19.5,4.82-46,12-19,5.16-35.94,5.69-46,6-28.43.89-38.11-4.3-45,3-6.55,6.93-2.41,14.91-5,34C222,113.74,216,116.32,208,134Z"/>
    <g>
      <path d="M329.65,347.34H357c12.19,0,25.38-.33,35-7.78,2-1.53,3.9-3.65,3.79-6.15a9.23,9.23,0,0,0-1.85-4.46c-3.09-4.8-6.77-10-12.37-11.13-4.12-.82-8.28.82-12.13,2.5q-16,7-31.22,15.49a15.33,15.33,0,0,1-5.72,2.27,31.58,31.58,0,0,1-3.64-.05,27.92,27.92,0,0,0-8.65,1.78c-1.82.58-4,2.79-2.41,3.88a2.5,2.5,0,0,0,1.08.35l10.18,1.7"/>
      <path d="M329.65,347.72h20.86c6.09,0,12.2.11,18.27-.33A52.29,52.29,0,0,0,384.91,344a31.54,31.54,0,0,0,7-3.89c1.84-1.38,3.74-3.17,4.2-5.52.5-2.55-1.1-4.77-2.42-6.79a38.93,38.93,0,0,0-4.69-6.08,15.28,15.28,0,0,0-5.87-3.9,14.12,14.12,0,0,0-8.46.12,66,66,0,0,0-8.87,3.58q-4.57,2.06-9.09,4.24-9,4.37-17.81,9.24a23.79,23.79,0,0,1-5.17,2.46c-1.9.5-3.83.09-5.76.19a24.17,24.17,0,0,0-5.13.95,13.87,13.87,0,0,0-4.07,1.52c-1.28.87-2.93,3.09-.79,4.05a9.88,9.88,0,0,0,2.29.45l2.91.49,5.82,1c.47.08.67-.64.2-.72L320,343.83c-.76-.13-2-.11-2.2-1-.17-.67.31-1.19.78-1.63a9.42,9.42,0,0,1,4-1.77,27.06,27.06,0,0,1,4.46-1,37.13,37.13,0,0,1,4.35,0c2.61,0,4.82-1.13,7.05-2.37a338.73,338.73,0,0,1,32.08-15.86c2.91-1.23,6-2.4,9.25-2.28a12,12,0,0,1,7.33,3,28,28,0,0,1,4.87,5.61c1.38,2,3.48,4.45,3.48,7,0,2.8-2.5,4.89-4.58,6.36a31.18,31.18,0,0,1-6.87,3.64,52.94,52.94,0,0,1-15,3c-6.06.45-12.16.33-18.23.34H329.65a.38.38,0,0,0,0,.75Z"/>
    </g>
    <path d="M331.74,301.58c4.56-.52,8.15,3.11,12.5,3.75,2.21.33,4-.46,5.95-1.36a13.94,13.94,0,0,1,8.9-1c.47.1.68-.62.2-.72a14.36,14.36,0,0,0-7.39.26c-2.66.83-4.86,2.58-7.79,2.06-4.28-.75-7.83-4.24-12.37-3.72-.48.06-.48.81,0,.75Z"/>
    <g>
      <path d="M215.76,238.53A40.17,40.17,0,0,0,220,264.8c1.64,3,3.72,6,3.63,9.38s-3.89,6.78-6.77,5c7.38,13.11,6.21,29.16,5,44.16a6,6,0,0,0,.48,3.7c1.46,2.38,6.17,3.27,5.11,5.86a19.64,19.64,0,0,1-15.15-14c-.64-2.42-.8-5-1.46-7.38-1-3.58-3-6.77-4.57-10.14-2.81-6-4.16-12.66-5.1-19.27a175.35,175.35,0,0,1-1-40.89c.7,1.74,3.19,1.56,5,1.07l10.66-2.86"/>
      <path d="M215.4,238.43a40.86,40.86,0,0,0,2.49,22.79c1.5,3.58,4.14,6.81,5.11,10.58a6.14,6.14,0,0,1-1.12,5.75c-1.21,1.4-3.07,2.26-4.8,1.28a.38.38,0,0,0-.52.51c4,7.27,5.53,15.52,5.79,23.76.13,4,0,8.06-.26,12.08-.13,2.07-.29,4.15-.46,6.22-.14,1.67-.55,3.6.08,5.21a6.43,6.43,0,0,0,2.75,2.81c1.13.75,3.19,1.7,2.61,3.36l.46-.26a19.4,19.4,0,0,1-13.14-9.46c-1.58-2.78-2.09-5.76-2.63-8.87a30.56,30.56,0,0,0-3.08-8.79,66.93,66.93,0,0,1-4.06-9.17,70.56,70.56,0,0,1-2.39-9.71,161.8,161.8,0,0,1-2.28-21.4,176.43,176.43,0,0,1,.57-23.89l-.7.19c1,2,3.49,1.72,5.28,1.28,3.62-.88,7.21-1.93,10.81-2.9a.37.37,0,0,0-.2-.72l-8.58,2.3c-1.8.48-5.53,2-6.66-.34-.18-.36-.67-.14-.7.19a174.11,174.11,0,0,0,1.47,43.92,64.29,64.29,0,0,0,6.08,19.23,34.94,34.94,0,0,1,3.72,10,27.9,27.9,0,0,0,2.44,8.57,20.13,20.13,0,0,0,13.85,10.28.39.39,0,0,0,.46-.26c.83-2.37-2.15-3.59-3.66-4.69a4.47,4.47,0,0,1-1.77-2.05,7.85,7.85,0,0,1-.13-3.13c.17-2.07.35-4.14.49-6.21.58-8.34.81-16.83-.85-25.07A44.56,44.56,0,0,0,217.21,279l-.51.51c2.73,1.54,5.73-.6,6.84-3.18,1.59-3.68-.89-7.64-2.66-10.75a40.33,40.33,0,0,1-4.76-26.92c.08-.48-.64-.68-.72-.2Z"/>
    </g>
    <g>
      <path d="M458.43,195.11c0,4.19-1.36,8.31-1.19,12.5a34,34,0,0,0,2.35,9.68q6.29,18,12.58,36a14.37,14.37,0,0,1,1.11,5.3c-.18,3.27-2.59,6.08-2.9,9.34-.13,1.35-.12,3.1-1.38,3.6a3.07,3.07,0,0,1-1.62,0l-6.05-1.06a20.76,20.76,0,0,0-1.27-23.59c-2.92-3.63-7.35-6.82-7.39-11.48,0-2.09.89-4.25.13-6.19a7.68,7.68,0,0,0-2-2.58l-13.08-12.41a12,12,0,0,1-2.92-3.6,10.49,10.49,0,0,1-.5-5.48,42,42,0,0,1,3.67-13.08,10,10,0,0,0,10.19,3.09,43.13,43.13,0,0,1,4.53-1.54c1.58-.28,3.47.2,4.14,1.65"/>
      <path d="M458.06,195.11a70.79,70.79,0,0,1-.95,8.33,22.86,22.86,0,0,0,.31,8.08,74.71,74.71,0,0,0,2.54,8l2.94,8.41,6,17.07c1,2.81,2,5.61,2.94,8.42s1.48,5.27.4,8.13c-.89,2.38-2,4.48-2.25,7.06a4.88,4.88,0,0,1-.43,2c-.66,1.1-2.2.58-3.2.4l-4.89-.85.22.55a21.1,21.1,0,0,0,2.86-14.49,20.79,20.79,0,0,0-2.65-7.36,36.14,36.14,0,0,0-4.74-5.75c-1.89-2.05-3.89-4.39-4.06-7.31-.17-2.7,1.23-5.36-.55-7.8a26.25,26.25,0,0,0-3.24-3.26L445.38,221,438,214c-1.39-1.34-2.77-2.7-3.23-4.65a15.94,15.94,0,0,1,.15-5.88,42.15,42.15,0,0,1,3.4-11.18l-.59.08A10.47,10.47,0,0,0,446,195.9a17.57,17.57,0,0,0,5.1-1.44c1.79-.64,4.3-1,5.39,1,.23.42.88,0,.65-.38-1.76-3.25-5.72-1.47-8.28-.55a9.71,9.71,0,0,1-10.64-2.72.38.38,0,0,0-.59.07,42.82,42.82,0,0,0-3.06,9.13c-.57,2.69-1.2,5.79-.56,8.51.71,3,3.43,5,5.55,7l7.42,7c1.28,1.21,2.58,2.41,3.83,3.64a5.35,5.35,0,0,1,1.86,4.86c-.27,2.6-.61,4.76.63,7.18a28.41,28.41,0,0,0,4.82,6,21.7,21.7,0,0,1,4.52,6.87A20.49,20.49,0,0,1,461,270.3a.38.38,0,0,0,.23.55l4.66.82c1,.17,2.3.62,3.3.19,1.8-.77,1.39-3.45,1.75-5,.59-2.56,2.2-4.79,2.62-7.41s-.66-5.21-1.52-7.67c-4.23-12.11-8.59-24.18-12.68-36.33a25.69,25.69,0,0,1-1.69-10.18c.24-3.41,1.12-6.75,1.14-10.18a.38.38,0,0,0-.75,0Z"/>
    </g>
    <path class="cls-2" d="M197.61,256.38c-3.17,2.81-1.18,8.36-3.38,12-.63,1-1.6,1.9-1.91,3.07a6.14,6.14,0,0,0,.26,3.14L196.67,290a14,14,0,0,0,1.61,4.18c2.45,3.69,7.9,4.41,10.36,8.09a75.44,75.44,0,0,1-3-12.43l-6.09-32.83c-.22-1.22-.59-2.63-1.73-3.13s-2.67,1.16-1.68,1.91"/>
    <path class="cls-2" d="M458.72,208.34c1.27,4.08,5.86,6.14,8.09,9.79,2.05,3.36,1.83,7.57,1.54,11.5l-1,14.26-3.23-16.38a33.12,33.12,0,0,0-1.64-6.22c-1.37-3.38-3.85-6.45-4-10.09a21.86,21.86,0,0,0,3.27,9.39"/>
    <path class="cls-2" d="M339.67,532.85a1.5,1.5,0,0,0,0-3,1.5,1.5,0,0,0,0,3Z"/>
    <path class="cls-2" d="M335.54,534.91a1.5,1.5,0,0,0,0-3,1.5,1.5,0,0,0,0,3Z"/>
    <path class="cls-4" d="M224.61,395l13.82-11.9L259,417a156.75,156.75,0,0,0,52,21q14-1,28-2,15.06-1,30-2a38,38,0,0,0,21-4c4.81-2.55,7.77-5.58,12-10a105.17,105.17,0,0,0,15-20q2.92-15.42,5.86-30.84l16.4,10.45c-3.45,10.25-7.11,26.59-3.26,45.39a81.37,81.37,0,0,0,3.26,11.5L453.71,453a76.62,76.62,0,0,0,38.05,20l-13.15,42.45a103.07,103.07,0,0,1-44.47,44.76A297.05,297.05,0,0,1,353,572.83c-13.68-.34-28.4-1.21-44-2.83-15-1.56-29-3.64-42-6l-24-13a48.57,48.57,0,0,1-29.51-28.26,63.3,63.3,0,0,1-17.71-34.61L223,462a44.64,44.64,0,0,0,16-27,96.2,96.2,0,0,0-14.39-40Z"/>
    <path class="cls-5" d="M251,515c11.78,9.67,41.36,31.24,85,36,57.78,6.3,100-21.28,111-29"/>
    <path class="cls-5" d="M331.5,539.5a34.17,34.17,0,0,0,28,0"/>
    <path class="cls-1" d="M215.34,526.87A164.5,164.5,0,0,0,193.5,538.5c-1.29.82-5.19,3.32-10,7-6.24,4.77-9.41,7.23-12,11a31.08,31.08,0,0,0-5,13l25,29,31,25L251,613.28l24.5,3.22V585.76l-17.69-12.93L296,568.49,267,564l-24-13Z"/>
    <path class="cls-6" d="M209.64,615.5l-20.14-8.23,25-22.17,21.62,30.4,3.16-5.88L252,605.05l24.5,3.22V625l-71,12.27-38,8.37-7-12.37,12-8,24.28-9.77,17.71-.13Z"/>
    <path class="cls-6" d="M465.36,617.5l20.14-8.23-25-22.17-21.62,30.4-3.16-5.88L423,607.05l-24.5,3.22V627l71,12.27,38,8.37,7-12.37-12-8-24.28-9.77-17.71-.13Z"/>
    <polygon class="cls-7" points="203.01 151.4 407.97 107.5 419.19 129.04 424.85 138.72 199.4 186 203.01 151.4"/>
    <g>
      <path class="cls-8" d="M277.79,308.33a27.38,27.38,0,0,1-10.29-2c-8.76-3.52-15.18-11.36-18.08-22.06s-1.92-23,2.75-34.63c7.76-19.29,23.85-32.26,40-32.26a27.63,27.63,0,0,1,10.3,2c8.76,3.53,15.18,11.36,18.07,22.06s1.93,23-2.75,34.64c-7.76,19.29-23.84,32.25-40,32.25Z"/>
      <path class="cls-9" d="M292.19,217.54a27.4,27.4,0,0,1,10.25,2c8.72,3.51,15.12,11.31,18,22s1.92,23-2.75,34.56a56.87,56.87,0,0,1-17.07,23.44c-7.09,5.63-15.2,8.74-22.83,8.74a27.21,27.21,0,0,1-10.25-2c-18-7.25-24.87-32.61-15.25-56.53a56.84,56.84,0,0,1,17.07-23.43c7.09-5.64,15.2-8.74,22.83-8.74m0-.25c-15.7,0-32.22,12.67-40.13,32.33-9.69,24.08-2.8,49.54,15.39,56.86a27.58,27.58,0,0,0,10.34,2c15.7,0,32.22-12.67,40.14-32.34,9.68-24.08,2.79-49.53-15.4-56.85a27.58,27.58,0,0,0-10.34-2Z"/>
    </g>
    <path class="cls-2" d="M248.51,280.85,314,285l-20.17,19.22A31.44,31.44,0,0,1,267,306a32.65,32.65,0,0,1-18.49-25.15Z"/>
    <path class="cls-2" d="M251,258l72-2q-1-6-2-12a35.09,35.09,0,0,0-18.47-24.73A27.19,27.19,0,0,0,290,216a27.6,27.6,0,0,0-16,5,23.58,23.58,0,0,0-16.35,17.88Q254.32,248.44,251,258Z"/>
    <path d="M287.41,280.5a4.5,4.5,0,1,0-4.5-4.5,4.55,4.55,0,0,0,4.5,4.5Z"/>
    <circle class="cls-10" cx="376.5" cy="143.5" r="19.5"/>
    <g>
      <path class="cls-8" d="M397.13,284c-10.63,0-21.84-3.77-31.57-10.6-21.15-14.86-29.24-39.93-18-55.89,5.63-8,15.51-12.6,27.12-12.6,10.63,0,21.85,3.76,31.58,10.59,21.15,14.86,29.23,39.93,18,55.89C418.63,279.39,408.74,284,397.13,284Z"/>
      <path class="cls-9" d="M374.66,204.77V205h0c10.6,0,21.79,3.76,31.49,10.58,21.1,14.81,29.17,39.81,18,55.71-5.6,8-15.45,12.55-27,12.55-10.6,0-21.79-3.75-31.5-10.57-10.23-7.19-17.73-17-21.12-27.49s-2.28-20.54,3.13-28.23c5.6-8,15.44-12.55,27-12.55v-.25m0,0c-11.27,0-21.32,4.25-27.22,12.66-11.27,16-3.18,41.14,18.06,56.06,10.11,7.11,21.39,10.62,31.64,10.62,11.28,0,21.32-4.25,27.22-12.65,11.27-16,3.19-41.15-18.05-56.07-10.12-7.1-21.39-10.62-31.65-10.62Z"/>
    </g>
    <path class="cls-2" d="M373.62,278.8,401,283.93a31.41,31.41,0,0,0,23.47-13.12,32.9,32.9,0,0,0,4.91-16.3C429.58,247.61,373.62,278.8,373.62,278.8Z"/>
    <path class="cls-2" d="M419,227c-21.18,12.8-67.61,29.63-69.64,25.24a46.1,46.1,0,0,1-3.94-17.42,38.26,38.26,0,0,1,3.78-17.77,25.08,25.08,0,0,1,8.7-10.32,26,26,0,0,1,17.1-4,23.93,23.93,0,0,1,12.55.41,30.52,30.52,0,0,1,13.24,8.36Z"/>
    <path d="M392,258.27a4.5,4.5,0,1,0-4.5-4.5,4.55,4.55,0,0,0,4.5,4.5Z"/>
    <g>
      <path d="M264.38,228c13,5.27,27.37-1,40.73-5.2a133,133,0,0,1,58.43-4.62,21.66,21.66,0,0,0,5.32.35,19.62,19.62,0,0,0,5.31-1.66l17.87-7.5c2.1-.88,4.52-2.19,4.7-4.46.12-1.6-1-3-2.19-4.08-7.94-6.93-20.13-4-30.09-.58-24.23,8.29-48.69,17.2-74.26,18.56-9.32.49-20.09.6-25.94,7.88"/>
      <path d="M264.28,228.4c8.75,3.47,18.2,1.83,27-.72,4.63-1.35,9.17-3,13.77-4.41a132.3,132.3,0,0,1,45-5.93c5,.21,10,.81,15,1.46a14.72,14.72,0,0,0,7.12-.66c2.44-.87,4.81-2,7.2-3,4.61-1.94,9.36-3.69,13.87-5.85,3-1.43,5.25-4.19,2.91-7.34-2.14-2.88-5.95-4.58-9.38-5.26a30.84,30.84,0,0,0-11.25.2,82,82,0,0,0-12.22,3.4c-4.77,1.63-9.53,3.28-14.31,4.89-9.62,3.23-19.3,6.29-29.17,8.69a163.6,163.6,0,0,1-29.92,4.6c-7.3.38-15.52.37-21.9,4.46a17,17,0,0,0-3.95,3.51c-.3.37.23.91.53.53,5-6.05,13.22-7,20.56-7.5,4.37-.27,8.73-.44,13.09-.93,4.54-.51,9.05-1.23,13.53-2.12,18.8-3.74,36.64-10.56,54.82-16.44,7.15-2.32,15.53-4.47,22.87-1.76,3.1,1.15,9.78,5.29,5.71,9-1.62,1.47-3.93,2.15-5.91,3l-7.1,3-7.1,3c-2.28,1-4.58,2-7.09,2.08a51,51,0,0,1-7.38-.81q-3.5-.42-7-.66a133.61,133.61,0,0,0-28.4,1.13,164.44,164.44,0,0,0-27.36,6.93c-8.61,2.83-17.85,5.86-27,4.52a27.55,27.55,0,0,1-6.24-1.68c-.45-.18-.64.54-.2.72Z"/>
    </g>
    <g>
      <polygon class="cls-11" points="93.13 120.42 194.14 261.38 284.26 394.46 314.94 438.38 305.73 449.77 86.41 126.28 38.36 57.99 0 0 27.85 31.46 93.13 120.42"/>
      <polygon class="cls-12" points="282.4 434.78 432.13 665 447.32 665 456 651.68 305.77 419.24 282.4 434.78"/>
      <ellipse class="cls-13" cx="311.1" cy="484.83" rx="28.98" ry="29.53"/>
      <ellipse class="cls-14" cx="311.1" cy="484.83" rx="23.07" ry="23.5"/>
      <line class="cls-15" x1="311.69" y1="485.43" x2="310.51" y2="530.02"/>
      <path d="M307.44,528.63c1.65-1.39,3.75-3.27,6.1-3,1.59.18,3.08,1.45,2.36,3.15-1,2.38-3.9,2.41-6,1.87-.83-.21-2.48-.48-3.05-1.23s1.06-1.65,1.57-2c3.33-2.11,8.38-3.12,12.12-1.5,1.32.57,2.61,1.65,2.59,3.21a3.13,3.13,0,0,1-2.62,2.74c-3.71.78-3.57-5.13-.35-5.63l-.8-2.89-7.95,2.14a1.52,1.52,0,0,0-.9,2.21,9.18,9.18,0,0,0,12,2.4,1.52,1.52,0,0,0,0-2.59,13.66,13.66,0,0,0-13.87-1.37,1.51,1.51,0,0,0-.69,1.7,7.38,7.38,0,0,0,7.72,5.37,7.46,7.46,0,0,0,6.35-7,1.51,1.51,0,0,0-1.1-1.45c-2.7-.54-5.77-.76-8.18.86a6.09,6.09,0,0,0-2.47,6.29A4.42,4.42,0,0,0,316,535c2.49-.82,4.35-3.16,5.59-5.37a1.5,1.5,0,0,0-2.59-1.51,9.46,9.46,0,0,1-3.35,3.77c-1,.57-2.33.38-2.48-1a3.09,3.09,0,0,1,1.65-3c1.62-.85,3.64-.59,5.35-.24l-1.1-1.45a4.41,4.41,0,0,1-3.74,4,4.36,4.36,0,0,1-4.44-3.21l-.69,1.69A10.74,10.74,0,0,1,321,530.14v-2.59a6.13,6.13,0,0,1-7.93-1.33l-.89,2.2,7.95-2.14c1.91-.51,1.06-3.18-.8-2.89-5.56.86-6.49,10.27-.64,11.46a6.45,6.45,0,0,0,6.76-3.17,5.83,5.83,0,0,0-1.73-7.26,11.91,11.91,0,0,0-7.85-2.2,18,18,0,0,0-9.8,3.2c-1.41,1.05-2.77,2.6-2.3,4.5.41,1.65,1.94,2.5,3.42,3,3.36,1.24,7.68,1.72,10.31-1.24a5.56,5.56,0,0,0,1.41-5.17,5.42,5.42,0,0,0-3.4-3.49c-3.87-1.49-7.36,1.07-10.2,3.45-1.47,1.25.66,3.36,2.13,2.12Z"/>
    </g>
    <path class="cls-7" d="M166.4,560.2a91.63,91.63,0,0,1,30.87-3.33c1.93.1,1.92-2.9,0-3a94.07,94.07,0,0,0-31.67,3.44c-1.84.55-1.06,3.45.8,2.89Z"/>
    <path class="cls-7" d="M166.13,569.64a30.88,30.88,0,0,0,11.45-.65,1.5,1.5,0,1,0-.8-2.89,28.92,28.92,0,0,1-10.65.54,1.51,1.51,0,0,0-1.5,1.5,1.53,1.53,0,0,0,1.5,1.5Z"/>
    <path class="cls-7" d="M511.4,541.13a43.87,43.87,0,0,0-17-.91,33.89,33.89,0,0,0-14.78,5.21c-1.58,1.09-.08,3.69,1.51,2.59a31.48,31.48,0,0,1,13.68-4.86,41,41,0,0,1,15.83.86,1.5,1.5,0,0,0,.8-2.89Z"/>
    <path class="cls-7" d="M512.35,552a32.92,32.92,0,0,0-23-1.9,1.5,1.5,0,0,0,.8,2.89,29.73,29.73,0,0,1,20.73,1.6c1.73.82,3.26-1.76,1.51-2.59Z"/>
    <path class="cls-7" d="M412,573.1H422.1a.38.38,0,0,0,0-.75H412a.38.38,0,0,0,0,.75Z"/>
    <path class="cls-7" d="M256.79,573.82l-11-1.76c-.47-.07-.68.65-.2.72l11,1.76c.47.08.68-.64.2-.72Z"/>
    <path class="cls-2" d="M473.53,452.36c-16.41,52.4-29.07,63.09-42.42,66.76s-64.53,6.32-64.53,6.32l-38.16-10L313.08,499.9l-4.39-16,5.21-21.82,19.4-1.9,18,11.23,8.41,14.92s18.88,4.65,36-4.61,24.6-17.07,24.6-17.07l10.44-14,8.6-15.36L441,420.11l7.56-26.72L470.36,420,477,431.92Z"/>
    <path class="cls-2" d="M228.06,459.65c-32.76,44.07-48.23,50-62.05,49.06s-63-15.3-63-15.3l-32.72-22-9.38-19.7L62,435.12l12.11-18.88,18.93,4.59,13.3,16.54,3,16.86s16.3,10.61,35.51,7.51,28.86-8,28.86-8l14.47-9.79,13.19-11.67L208,418.48l15.95-22.73,11.82,32.3,2.35,13.45Z"/>
  </g>
</svg>
