<svg id="Layer_1" data-name="Layer 1" xmlns="http://www.w3.org/2000/svg" width="426.43" height="413" viewBox="0 0 426.43 413">
  <defs>
    <style>
      .cls-1 {
        fill: #ffd51c;
      }

      .cls-1, .cls-2 {
        stroke: #e6e6e6;
        stroke-width: 30px;
      }

      .cls-1, .cls-2, .cls-3 {
        stroke-miterlimit: 10;
      }

      .cls-2, .cls-3 {
        fill: none;
      }

      .cls-3 {
        stroke: #000;
        stroke-width: 7px;
      }

      .cls-4 {
        fill: #fdffe2;
      }
    </style>
  </defs>
  <g>
    <path class="cls-1" d="M45.29,80.47l29.2,290.17a428,428,0,0,0,90.13,17.81,415.76,415.76,0,0,0,104.53-4.17Q289,229.11,308.79,73.91c-28.75,15.53-74,34.42-130.61,36C120.77,111.48,74.57,94.65,45.29,80.47Z"/>
    <path class="cls-2" d="M314.12,137.4c-10.82-.84,63.81,4.46,63.81,4.46s32.87,124.41-100.8,184.48"/>
    <path class="cls-3" d="M64.6,158s.17-23.66,9.78-24.83,18.16,5.35,19,39.46,2,168,2,168"/>
    <path class="cls-3" d="M115.43,178.3s1.74-23.66,14-24.49,22.6,6,21.41,40.09S142.53,362,142.53,362"/>
    <path class="cls-3" d="M175.1,173.24s3.09-24.91,15.85-24.91,23.19,7.95,20.1,44-17.7,177.25-17.7,177.25"/>
    <path class="cls-3" d="M230.35,157.62s5-25.47,19.41-24.36,25.7,10.24,20,47.21-30.73,181.62-30.73,181.62"/>
    <path class="cls-4" d="M46.35,34.22C39.9,70.41-20.94,89.61,7.56,110.32,48.65,94,117.86,128.89,102,150.21s-2.13,67.41-6.15,103.55-8.34,132.42,14.71,126,9.71-152.11,20.76-197.17,15.42-70,28.22-75,2.92,83.89,31.44,65.07,11-51,23.13-62.35,8.66,3,32.13,23.27,30.2,17.54,35.59-6S297.58,81,309.55,90.91s44.49,21.86,41.71,0S318.85,69,321.71,55.4,288.58,1.59,266.65,16.73s-24.28-1-57.47,17.49-37.9-21.4-47-15-36.06-41.52-55.59-5.8-51.09-19-54.68-1.61S46.35,34.22,46.35,34.22Z"/>
  </g>
</svg>
