<svg id="Layer_1" data-name="Layer 1" xmlns="http://www.w3.org/2000/svg" width="437" height="313" viewBox="0 0 437 313">
  <defs>
    <style>
      .cls-1 {
        isolation: isolate;
      }

      .cls-2 {
        fill: #3b2612;
      }

      .cls-3 {
        fill: #523519;
      }

      .cls-4 {
        fill: #593a1b;
      }

      .cls-5 {
        fill: #603e1e;
      }

      .cls-6 {
        fill: #754c24;
        stroke: #000;
        stroke-miterlimit: 10;
        stroke-width: 0.75px;
      }
    </style>
  </defs>
  <g>
    <g class="cls-1">
      <polygon class="cls-2" points="216.35 305.98 207.04 289.65 212.41 213.75 221.72 230.07 216.35 305.98"/>
      <polygon class="cls-3" points="240.64 26.06 231.33 9.74 421.37 193.84 430.68 210.17 240.64 26.06"/>
      <polygon class="cls-2" points="224.3 127.19 214.99 110.87 231.33 9.74 240.64 26.06 224.3 127.19"/>
      <polygon class="cls-4" points="26.55 109.89 17.24 93.57 214.99 110.87 224.3 127.19 26.55 109.89"/>
      <polygon class="cls-2" points="16.66 219.77 7.35 203.45 17.24 93.57 26.55 109.89 16.66 219.77"/>
      <polygon class="cls-5" points="240.64 26.06 430.68 210.17 216.35 305.98 221.72 230.07 16.66 219.77 26.55 109.89 224.3 127.19 240.64 26.06"/>
    </g>
    <path class="cls-6" d="M25.32,131.28,419,196Z"/>
    <path class="cls-6" d="M14,183l346,59Z"/>
    <path class="cls-6" d="M223,111l130.89,20.28Z"/>
    <path class="cls-6" d="M232,63.5h0Z"/>
    <path class="cls-6" d="M218.64,261.46l61.94,14.76Z"/>
    <path d="M247.29,213.28V139.83h32.4v73.45Zm49,0V139.83h32.2v73.45Z"/>
  </g>
</svg>
