<svg id="Layer_1" data-name="Layer 1" xmlns="http://www.w3.org/2000/svg" width="1920.96" height="1102" viewBox="0 0 1920.96 1102">
  <defs>
    <style>
      .cls-1 {
        fill: aqua;
      }

      .cls-2 {
        fill: #fff;
      }

      .cls-3 {
        fill: #d3ff8d;
      }

      .cls-4 {
        fill: #39b54a;
      }

      .cls-5 {
        fill: gray;
      }

      .cls-6 {
        fill: #17d400;
      }

      .cls-7 {
        fill: #bfbfbf;
      }

      .cls-8 {
        fill: #999;
      }

      .cls-9 {
        fill: #4d4d4d;
      }

      .cls-10, .cls-12 {
        fill: #a67c52;
      }

      .cls-10, .cls-11 {
        stroke: red;
        stroke-miterlimit: 10;
        stroke-width: 3px;
      }

      .cls-11 {
        fill: #ff0;
      }

      .cls-13 {
        fill: #f9ffc6;
      }
    </style>
  </defs>
  <g>
    <g>
      <rect class="cls-1" x="1.46" y="-3.5" width="1919" height="1101"/>
      <path d="M1920-3V1097H2V-3H1920m1-1H1V1098H1921V-4Z"/>
    </g>
    <path class="cls-2" d="M1558.9,264c5.07,0,32-5.46,34.87,5.06s18.66,22.7,30.49,10.51-5.07-23-5.07-23,2.25-13.55,15.21-10.84,41.7,13.55,34.37,1.36-30.48-10.84-35-10.84-15.75-5.42-14.62-8.12-12.39-8.81-20.85-4.74-16.34,10.83-28.17,5.41-48.78-8.13-46.08-6.77,3.31,6.19,3.83,18.28S1553.83,264,1558.9,264Z"/>
    <path class="cls-2" d="M1009.4,116.11c5,.88,32.78-1.31,33.29,12.45s13.36,31.89,27.75,18.57.12-29.93.12-29.93,5.24-16.69,17.42-11,38.14,24.35,33.62,7.69-27.67-19-32.09-19.75-14.34-9.57-12.63-12.8-10.27-13.26-19.52-9.6-18.53,10.82-29,1.93S982,54.9,984.38,57.08s1.89,8.39-.29,23.74S1004.39,115.23,1009.4,116.11Z"/>
    <path class="cls-2" d="M1012.69,117.68c-7.91,0-49.88-9.7-54.38,9S929.22,167,910.77,145.36s7.91-40.93,7.91-40.93S915.16,80.36,895,85.17s-65,24.08-53.59,2.41,47.53-19.26,54.52-19.26,24.55-9.63,22.8-14.45,19.33-15.65,32.5-8.42,25.49,19.26,43.94,9.63,76.07-14.46,71.86-12-5.17,11-6,32.51S1020.6,117.68,1012.69,117.68Z"/>
    <path class="cls-3" d="M1695,921c41.81-14.18,89.83-47.89,138-35,8.15,2.18,30.06,9.38,55,2a85.58,85.58,0,0,0,33-19v229H1V891.06c5.36.6,13.44,1.36,23.26,1.66C65.79,894,96.09,886.06,106,884c46.7-9.76,91,17.6,128,32,108,42,137.91-32.58,303-14,98.39,11.08,140.15,43.46,237,25,37-7.06,39.34-13.41,74-22,124.67-30.92,184,29.09,311,38,158,11.08,156.57-75.44,311-56C1577.47,900.53,1617.18,947.38,1695,921Z"/>
    <path class="cls-4" d="M1675.33,978.9q13-64.06,23.65-131.62,1.74-11.1,3.39-22.13L1669.24,966,1685.8,799.9,1655.48,966V811L1638.1,976.69Z"/>
    <path class="cls-5" d="M1584.14,947.36c-29.57,13.55-17.71,59.45-11.14,54.11s73,0,73,0l18.07-29.72L1646,938l-23.33,9.41h-38.53Z"/>
    <path class="cls-6" d="M1632.28,990.9q-12.94-58-23.61-119.12-1.74-10-3.39-20l33.09,127.43L1621.82,828.9l30.28,150.29V838.92l17.35,150Z"/>
    <path class="cls-7" d="M1701,961.9c29.57,10,17.71,43.88,11.14,39.94s-73,0-73,0L1621,979.9,1639.09,955l23.33,6.95H1701Z"/>
    <g>
      <ellipse class="cls-8" cx="1158.5" cy="322.25" rx="447" ry="105.5"/>
      <path class="cls-7" d="M711.5,321.82,811.68,988a2120.57,2120.57,0,0,0,309.19,40.89,2125.38,2125.38,0,0,0,358.65-9.57l136-712.54a1395,1395,0,0,1-448.1,82.61A1397.2,1397.2,0,0,1,711.5,321.82Z"/>
      <path class="cls-9" d="M705.84,305.41c-7.17-5.52,76.89-173,241.95-238.8,52.58-21,111.85-31,143-36.27,72.3-12.25,113.75-19.27,166.66-8,55.07,11.73,121.11,43,121.11,43h0c-46.48-25.24,98.63,44.18,137.17,79.31,40.13,36.56,57.59,79,92.52,163.78,1,2.43,3.35,8.25,1.93,9.09-5.48,3.24-51.58-76.37-113.27-135.1-22.39-21.32-111.05-103.49-245.15-121.45-56.52-7.57-106.79,1.46-207.33,19.5-70.66,12.69-104.44,25.21-135,43.93-24.74,15.16-33.65,26-77.27,67.59C753.72,266.78,709.92,308.56,705.84,305.41Z"/>
      <polygon class="cls-9" points="816.5 618.75 846.58 885.75 1438.06 918.23 1504.08 563.75 802.5 505.75 816.5 618.75"/>
      <g>
        <path class="cls-2" d="M906.11,551l-.5,11.41-35.8-.48-.52,15.65,28.69.66-.19,14.23-29.08-.29-1.38,35.77-12.28-.12L858,549.93Z"/>
        <path class="cls-2" d="M939.68,553.63,933.76,635l-17.56-1.53,7.11-81.27Z"/>
        <path class="cls-2" d="M965.11,617.8a14.35,14.35,0,0,0,.27,2.1,11.79,11.79,0,0,0,.42,1.44,4.12,4.12,0,0,0,.63,1.13,10.65,10.65,0,0,1,.82,1.22,5,5,0,0,0,1.77,1.75,6.9,6.9,0,0,0,2.13.74,18,18,0,0,0,2.61.23c1,0,2,.07,3,.16a10.31,10.31,0,0,0,4.58-.57,14.63,14.63,0,0,0,3.75-2.07A11.38,11.38,0,0,0,987.8,621a7.05,7.05,0,0,0,1.15-3.1q.06-.75.21-1.86c.1-.74.16-1.49.2-2.23a10.2,10.2,0,0,0-.14-2.16,3.5,3.5,0,0,0-.73-1.69c-.36-.44-.79-1-1.29-1.59a10.8,10.8,0,0,0-1.93-1.87,17.08,17.08,0,0,0-7.44-3.23q-3.95-.73-6.42-1.46a19.48,19.48,0,0,1-4.16-1.64,14.18,14.18,0,0,1-2.89-2.05c-.82-.75-1.7-1.66-2.64-2.7a15.77,15.77,0,0,1-3.84-7.59,29.32,29.32,0,0,1-.58-8.75q.56-4.15,1.38-8.13a15.64,15.64,0,0,1,3.23-6.89,14.41,14.41,0,0,1,7.18-4.35q4.77-1.43,13.2-.59a79.91,79.91,0,0,1,10.44,2.39A16.28,16.28,0,0,1,999,565a12.91,12.91,0,0,1,3.4,5.72,46.94,46.94,0,0,1,1.61,9l-12.5-1.09a11,11,0,0,0-1.72-4.7,10.16,10.16,0,0,0-2.68-2.74,11.27,11.27,0,0,0-2.61-1.3,8.75,8.75,0,0,1-1.38-.5,11.37,11.37,0,0,0-3.74-.67,12.9,12.9,0,0,0-3.47.42,9.71,9.71,0,0,0-2.85,1.25,7.64,7.64,0,0,0-2,1.75,8.83,8.83,0,0,0-1.34,2.76,22.91,22.91,0,0,0-.66,2.94,17.48,17.48,0,0,0-.23,2.65,6.07,6.07,0,0,0,.15,1.72,7.34,7.34,0,0,0,1.24,3.23,14.61,14.61,0,0,0,2.32,2.65,15.28,15.28,0,0,0,2.84,2,14.36,14.36,0,0,0,3,1.29q3.56,1.11,5.65,1.7a36.59,36.59,0,0,1,3.5,1.13c.93.36,1.74.71,2.43,1a23.72,23.72,0,0,1,2.6,1.47,22.86,22.86,0,0,1,8.53,8.8,20.48,20.48,0,0,1,2,11.07,23.23,23.23,0,0,1-5,12.54,24.33,24.33,0,0,1-11.68,8c-1.16.37-2,.65-2.54.85a5.05,5.05,0,0,1-1.53.34,13.41,13.41,0,0,1-1.92-.06l-3.87-.34q-4.57-.4-7.6-.89a32.09,32.09,0,0,1-5.17-1.23,12.5,12.5,0,0,1-3.68-2,24.71,24.71,0,0,1-3.22-3.1,36.67,36.67,0,0,1-2.54-3.3,9.41,9.41,0,0,1-1.24-2.66,12.63,12.63,0,0,1-.43-3.16c0-1.2,0-2.72,0-4.55Z"/>
        <path class="cls-2" d="M1036.73,564.37l-.16,32.13,21.64,0,1.88-31.18L1076,566l-2.74,78.2-15.94-.59,1-32.66-22.25-.45L1034,642.62l-14.25-1.09,2.79-78.2Z"/>
        <path class="cls-2" d="M1175.23,632.78a34.41,34.41,0,0,1-2.24,10.76,14.12,14.12,0,0,1-5.09,6.38,19,19,0,0,1-8.37,2.86,63.7,63.7,0,0,1-12.41.09,45.63,45.63,0,0,1-5.84-.93,35.61,35.61,0,0,1-6-1.93,23.72,23.72,0,0,1-5.35-3.12,14,14,0,0,1-3.85-4.56,16.6,16.6,0,0,1-1.64-6.39,85.85,85.85,0,0,1-.35-8.86c0-3.15.17-6.27.44-9.38s.51-5.79.71-8q.82-8.43,1.75-15.15a32.31,32.31,0,0,1,3.46-11.32,15.88,15.88,0,0,1,7.55-6.86q5-2.26,14-1.68a123.37,123.37,0,0,1,12.51,1.3,18,18,0,0,1,8,3,11.81,11.81,0,0,1,4.1,6.26,38,38,0,0,1,1.09,10.89l-12.82-.82a5,5,0,0,1-.23-1.39,5.37,5.37,0,0,0-.11-1.09c-.07-.34-.17-.72-.3-1.15a6.16,6.16,0,0,0-.85-1.6,5.46,5.46,0,0,0-1.91-1.94,11.68,11.68,0,0,0-4.58-1c-1.63-.15-3-.21-4.29-.21a19,19,0,0,0-3.3.29,11.26,11.26,0,0,0-2.67.84,11.49,11.49,0,0,0-2.35,1.47,11.8,11.8,0,0,0-3.24,5.52,52,52,0,0,0-1.71,7.9q-.6,4.24-.78,8.35c-.13,2.74-.27,5.07-.44,7s-.31,4-.41,5.84-.11,3.6,0,5.17a17.73,17.73,0,0,0,.61,4.15,5.06,5.06,0,0,0,1.64,2.69,15.29,15.29,0,0,0,1.56,1.07,5.26,5.26,0,0,0,1.47.55,8.88,8.88,0,0,0,1.89.16c.71,0,1.65.05,2.81.15,2.08.18,3.88.36,5.4.52a9.73,9.73,0,0,0,3.87-.23,5.5,5.5,0,0,0,2.75-2,15.55,15.55,0,0,0,2.15-4.84Z"/>
        <path class="cls-2" d="M1198.5,589.07a15.71,15.71,0,0,1,2.6-3.67,17,17,0,0,1,4.44-3.36,24.87,24.87,0,0,1,6.2-2.28,25.18,25.18,0,0,1,8-.43q9.78.85,15.55,3.16a17,17,0,0,1,8.68,7.31q2.91,5,3.3,13.49a171.21,171.21,0,0,1-.78,21.68,126.29,126.29,0,0,1-2.36,16.42,25.26,25.26,0,0,1-5.06,11,17.79,17.79,0,0,1-9.63,5.71q-6.08,1.53-16,.35a17.23,17.23,0,0,1-9.77-2.06A19,19,0,0,1,1197,650a31.86,31.86,0,0,1-3.9-9.52,60.37,60.37,0,0,1-1.6-11.39,94.5,94.5,0,0,1,.2-12,106.48,106.48,0,0,1,1.5-11.44,75.67,75.67,0,0,1,2.42-9.62,31,31,0,0,1,2.85-6.55Zm5.9,38.92q.49,2.19,1,5a32.39,32.39,0,0,0,1.42,5.5,13.58,13.58,0,0,0,2.67,4.58,6.79,6.79,0,0,0,4.66,2.19,30,30,0,0,0,7.09-.23,10.2,10.2,0,0,0,5.77-2.75,8.92,8.92,0,0,0,2-3,36.11,36.11,0,0,0,1.51-4.36,46.75,46.75,0,0,0,1.15-5.38c.3-1.95.54-4,.72-6a109.51,109.51,0,0,0,.51-16.38q-.42-5.8-2.17-8.63A7.46,7.46,0,0,0,1226,595a49.9,49.9,0,0,0-7.13-1.08q-6.81-.58-9.89,4.41t-4.07,16.27Z"/>
        <path class="cls-2" d="M1316,587l-.85,47.52q-.09,3.3-.38,6.62a46.18,46.18,0,0,1-1,6.44,29.38,29.38,0,0,1-2,6,16.79,16.79,0,0,1-3.56,5c-.76.67-1.38,1.2-1.87,1.61a12.29,12.29,0,0,1-1.42,1,8.3,8.3,0,0,1-1.49.75c-.53.2-1.18.44-1.93.7-1.13.3-1.94.53-2.44.69s-1,.29-1.46.4-1.11.21-1.92.3-2,.27-3.7.53c-.88.12-1.66.24-2.36.37a12.91,12.91,0,0,1-2,.2c-.65,0-1.37,0-2.15,0a26.13,26.13,0,0,1-2.7-.29,40,40,0,0,1-5-1,17.37,17.37,0,0,1-3.93-1.72,29.71,29.71,0,0,1-3.46-2.18,12.51,12.51,0,0,1-2.37-2.26,11.26,11.26,0,0,1-1.62-2.74,31.83,31.83,0,0,1-1.24-3.73,30.77,30.77,0,0,1-.76-4.22q-.3-2.52-.42-5.16c-.08-1.75-.14-3.4-.17-4.94s0-2.73,0-3.6L1265,586l13.62.29-.92,52.77c-.09,4.09.58,7.18,2,9.27s4.11,3.18,8.07,3.26,6.91-.88,9.19-3,3.45-5.28,3.54-9.37l.31-52.72Z"/>
        <path class="cls-2" d="M1353.21,591.11l11.57,37.46L1371.2,594l15,2.61-13.34,76.48-11.71-3.38-13.85-37.06-6.3,34.9-14.71-2.74,13.23-76.43Z"/>
        <path class="cls-2" d="M1454.68,599.29l-.61,12.75-19.83-.29-1.49,65.06-12.18-.21-.3-65.17-19,.49.47-12.86Z"/>
        <path class="cls-2" d="M842.58,642.9l.53-6.1,612.2,53.56-.53,6.1Z"/>
      </g>
    </g>
    <g>
      <polygon class="cls-10" points="-7.31 148.03 1089.09 68 1123.19 481.08 -7.31 439.01 -7.31 181.5 -7.31 148.03"/>
      <g>
        <path class="cls-11" d="M110,188.51l.19,16.89L90.72,207l2.6,86.09L81.37,294,77,207.92l-18.59,2.52-.33-17Z"/>
        <path class="cls-11" d="M133.05,188.21l28.08,2.53q2.53.31,4,.6a14.82,14.82,0,0,1,2.53.7,9.1,9.1,0,0,1,1.94,1.06,18.4,18.4,0,0,0,2.2,1.33,18.89,18.89,0,0,1,8.15,9.71,21.74,21.74,0,0,1,1.09,4.44,55.05,55.05,0,0,1,.61,5.81c.11,2,.17,4.05.16,6.08s-.05,3.8-.14,5.34a36.36,36.36,0,0,1-3.51,13.53,22.24,22.24,0,0,1-7.64,8.71,9.21,9.21,0,0,1-4.1,1.15c-1.81.17-3.55.41-5.22.73.18.45.62,1.42,1.29,2.93s1.73,3.94,3.18,7.28,3.35,7.86,5.73,13.53,5.35,13,8.9,22L165.24,294l-13-29.66c-.41-.89-.86-2-1.36-3.45s-1-2.83-1.56-4.22-1.05-2.65-1.5-3.76a13.56,13.56,0,0,0-1.06-2.19,9.21,9.21,0,0,1-.85-.87,1.15,1.15,0,0,0-.45-.41,5.89,5.89,0,0,0-.59-.14,6.78,6.78,0,0,0-1.07-.09l-2-.29-3.55,40.45-12.68-1.87ZM153,229.07c.26,0,.78.05,1.54.13s1.62.12,2.57.14,1.89,0,2.93-.05a14.88,14.88,0,0,0,2.65-.32,5.65,5.65,0,0,0,4-2.53,10.52,10.52,0,0,0,2-5.61c.08-.88.14-1.68.19-2.4a10.11,10.11,0,0,0-.11-2.25,12.53,12.53,0,0,0-.64-2.45,13.09,13.09,0,0,0-1.56-2.9,6,6,0,0,0-2-2,11.39,11.39,0,0,0-2.69-1.16,23.64,23.64,0,0,0-2.9-.65c-1-.15-1.85-.29-2.66-.44l-10.89-1.11-1.81,22.66Z"/>
        <path class="cls-11" d="M218.35,187.41l-.71,108.08-17.31-.31,1.89-108Z"/>
        <path class="cls-11" d="M265.65,190.19a13.24,13.24,0,0,1,8.33,3.12,20.86,20.86,0,0,1,5.37,7.45,37.3,37.3,0,0,1,2.78,10.51,77.49,77.49,0,0,1,.54,12.28,42.32,42.32,0,0,1-1.85,10.59,27.19,27.19,0,0,1-4.4,8.6,20.18,20.18,0,0,1-7,5.75,21.19,21.19,0,0,1-9.48,2.11l-9.09,0-1.79,43.52-11.68-.21L240.62,189Zm-7.89,42.69a12.31,12.31,0,0,0,5.29-.67,8.34,8.34,0,0,0,3.49-2.44,9.57,9.57,0,0,0,1.9-3.73,21.44,21.44,0,0,0,.72-4.44,31.64,31.64,0,0,0-.36-4.89,17.35,17.35,0,0,0-1.5-5,11.42,11.42,0,0,0-3.13-4,8.74,8.74,0,0,0-5.16-1.84l-4.3-.21-.57,27.05Z"/>
        <path class="cls-11" d="M347.22,268.8a24.11,24.11,0,0,0,.39,2.74c.15.69.32,1.3.5,1.86a6.14,6.14,0,0,0,.69,1.43,15.53,15.53,0,0,1,.88,1.53,5.68,5.68,0,0,0,1.84,2.15,5.5,5.5,0,0,0,2.14.76,12,12,0,0,0,2.57,0c.94-.07,1.94-.09,3-.08a7.91,7.91,0,0,0,4.45-1.21,14.94,14.94,0,0,0,3.55-3.1,15.14,15.14,0,0,0,2.44-4.08,11.77,11.77,0,0,0,.93-4.21c0-.66.05-1.48.1-2.47s.06-2,.05-3a18.36,18.36,0,0,0-.27-2.84,5.25,5.25,0,0,0-.82-2.16c-.38-.54-.83-1.19-1.36-2a12.27,12.27,0,0,0-2-2.28,16.29,16.29,0,0,0-3-2.1,13.89,13.89,0,0,0-4.48-1.43,54.16,54.16,0,0,1-6.38-1.3,16.08,16.08,0,0,1-4.18-1.76,14.14,14.14,0,0,1-3-2.42c-.85-.92-1.77-2-2.76-3.32a22.75,22.75,0,0,1-4.23-9.64,51.53,51.53,0,0,1-1.12-11.5c.19-3.69.48-7.32.85-10.87a25.53,25.53,0,0,1,2.73-9.43,15.33,15.33,0,0,1,6.77-6.44q4.58-2.37,12.89-2.09a60.17,60.17,0,0,1,10.39,2.13,14.36,14.36,0,0,1,6.38,3.94,17.73,17.73,0,0,1,3.69,7.22A79.13,79.13,0,0,1,383,214.65l-12.32-.22a17.27,17.27,0,0,0-2-6,11.49,11.49,0,0,0-2.8-3.35,9.66,9.66,0,0,0-2.64-1.47,7.64,7.64,0,0,1-1.39-.52,8.49,8.49,0,0,0-3.71-.52,10.11,10.11,0,0,0-3.36.89,9.35,9.35,0,0,0-2.73,1.94,9.75,9.75,0,0,0-1.82,2.51,14.24,14.24,0,0,0-1.15,3.77c-.22,1.34-.37,2.66-.46,3.95a30.52,30.52,0,0,0-.06,3.53,10.92,10.92,0,0,0,.26,2.25,11.58,11.58,0,0,0,1.41,4.15,18.08,18.08,0,0,0,2.44,3.27,15.64,15.64,0,0,0,2.92,2.43,11.59,11.59,0,0,0,3.06,1.41q3.54,1.11,5.64,1.68a30,30,0,0,1,3.5,1.15c.94.39,1.76.77,2.45,1.13a22.42,22.42,0,0,1,2.64,1.7,26.2,26.2,0,0,1,8.91,10.78,34.64,34.64,0,0,1,2.63,14.43,38.71,38.71,0,0,1-4.09,17.05,27.1,27.1,0,0,1-10.94,11.72c-1.12.6-1.93,1.05-2.44,1.38a4.12,4.12,0,0,1-1.48.6,11.09,11.09,0,0,1-1.89.1l-3.81-.07c-3-.05-5.5-.2-7.5-.43a23.35,23.35,0,0,1-5.14-1.11,11,11,0,0,1-3.73-2.21,27.56,27.56,0,0,1-3.35-3.79c-1.18-1.65-2.08-3-2.7-4.1a14.13,14.13,0,0,1-1.38-3.39,21.65,21.65,0,0,1-.61-4.14c-.11-1.58-.2-3.59-.29-6Z"/>
        <path class="cls-11" d="M452.2,188.2l2.14,62.86c.07,2.9.09,5.83,0,8.78a84.27,84.27,0,0,1-.59,8.6,51,51,0,0,1-1.64,8.09,24.48,24.48,0,0,1-3.17,6.9c-.7,1-1.28,1.73-1.73,2.31a15.21,15.21,0,0,1-1.32,1.53,8,8,0,0,1-1.42,1.13c-.51.32-1.13.7-1.85,1.12-1.09.51-1.87.9-2.34,1.15a14.87,14.87,0,0,1-1.41.67,14.09,14.09,0,0,1-1.87.59c-.78.21-2,.56-3.59,1.06q-1.27.38-2.28.72a9.32,9.32,0,0,1-2,.46c-.64.08-1.34.13-2.1.16a17,17,0,0,1-2.67-.11,30.72,30.72,0,0,1-5-.84,14.69,14.69,0,0,1-3.95-1.89A28.47,28.47,0,0,1,412,289a14.54,14.54,0,0,1-2.47-2.75,16.47,16.47,0,0,1-1.75-3.46q-.72-2-1.45-4.81a53.13,53.13,0,0,1-1-5.5q-.45-3.3-.74-6.78t-.47-6.5c-.13-2-.21-3.61-.26-4.76L402.15,192l13.37-.95,2.4,69.79q.25,8.11,2.53,12t8.11,3.51a10.81,10.81,0,0,0,8.81-4.89q3.13-4.61,2.89-12.72l-3-69.67Z"/>
        <path class="cls-11" d="M521.87,265a60.47,60.47,0,0,1-1.52,14.43,20,20,0,0,1-4.58,8.92,16.84,16.84,0,0,1-8,4.61,47.14,47.14,0,0,1-12.16,1.34,32.53,32.53,0,0,1-5.78-.66,27.55,27.55,0,0,1-6-2,21.07,21.07,0,0,1-5.44-3.6,17,17,0,0,1-4.06-5.64,27.55,27.55,0,0,1-2-8.28q-.63-5.43-.89-11.67c-.18-4.16-.22-8.3-.15-12.44s.13-7.69.18-10.69q.3-11.21.77-20.18a55.55,55.55,0,0,1,2.69-15.29,19.92,19.92,0,0,1,7-9.81q4.76-3.48,13.56-3.59a90,90,0,0,1,12.34.48,14.44,14.44,0,0,1,8,3.24,15.62,15.62,0,0,1,4.41,7.86,66,66,0,0,1,1.76,14.29l-12.62.17a8.34,8.34,0,0,1-.31-1.82,10.23,10.23,0,0,0-.17-1.42c-.09-.44-.22-.94-.37-1.49a8.9,8.9,0,0,0-.94-2,6.19,6.19,0,0,0-2-2.38q-1.23-.84-4.56-.9a31.92,31.92,0,0,0-4.21.16,13.6,13.6,0,0,0-3.21.7,9.9,9.9,0,0,0-2.57,1.37,12.26,12.26,0,0,0-2.21,2.18,18.13,18.13,0,0,0-2.83,7.6,90.09,90.09,0,0,0-1.18,10.6q-.33,5.67-.25,11.12c0,3.63.06,6.72,0,9.27s-.06,5.27,0,7.75.12,4.77.28,6.84a30.41,30.41,0,0,0,.85,5.42,7.11,7.11,0,0,0,1.78,3.4,13.83,13.83,0,0,0,1.59,1.25,4.14,4.14,0,0,0,1.48.59,7.1,7.1,0,0,0,1.86,0,22,22,0,0,1,2.77-.09c2.05,0,3.83.09,5.32.16a7.37,7.37,0,0,0,3.78-.69,6.2,6.2,0,0,0,2.57-2.92,25.65,25.65,0,0,0,1.81-6.6Z"/>
        <path class="cls-11" d="M589,265a60,60,0,0,1-1.52,14.43,20,20,0,0,1-4.58,8.92,16.79,16.79,0,0,1-8,4.61,47.11,47.11,0,0,1-12.15,1.34,32.64,32.64,0,0,1-5.79-.66,27.55,27.55,0,0,1-6-2,21.07,21.07,0,0,1-5.44-3.6,17,17,0,0,1-4.06-5.64,27.29,27.29,0,0,1-2-8.28q-.64-5.43-.9-11.67T538.36,250q.1-6.2.19-10.69.29-11.21.76-20.18A55.92,55.92,0,0,1,542,203.86a19.92,19.92,0,0,1,7-9.81q4.75-3.48,13.56-3.59a90.2,90.2,0,0,1,12.35.48,14.44,14.44,0,0,1,8,3.24,15.56,15.56,0,0,1,4.42,7.86A66.07,66.07,0,0,1,589,216.33l-12.62.17a9,9,0,0,1-.31-1.82,10.23,10.23,0,0,0-.17-1.42c-.09-.44-.21-.94-.37-1.49a8.49,8.49,0,0,0-.94-2,6.1,6.1,0,0,0-2-2.38q-1.23-.84-4.56-.9a31.76,31.76,0,0,0-4.2.16,13.8,13.8,0,0,0-3.22.7,9.9,9.9,0,0,0-2.57,1.37,12.6,12.6,0,0,0-2.21,2.18,18.13,18.13,0,0,0-2.82,7.6,90,90,0,0,0-1.19,10.6c-.21,3.78-.3,7.49-.25,11.12s.06,6.72,0,9.27-.06,5.27,0,7.75.11,4.77.27,6.84a29.47,29.47,0,0,0,.86,5.42,7,7,0,0,0,1.77,3.4,13.83,13.83,0,0,0,1.59,1.25,4.19,4.19,0,0,0,1.49.59,7,7,0,0,0,1.85,0,22.2,22.2,0,0,1,2.77-.09c2,0,3.83.09,5.33.16a7.37,7.37,0,0,0,3.78-.69,6.25,6.25,0,0,0,2.57-2.92,26.14,26.14,0,0,0,1.8-6.6Z"/>
        <path class="cls-11" d="M652.55,188.7l-.66,15.56L621.13,204l1.42,33.21,24.89-2.27.55,16.38-24.64-.7,1.15,32.09,28.43-.76.2,10.83-45.25.53.29-103.46Z"/>
        <path class="cls-11" d="M683.77,268.8a24.11,24.11,0,0,0,.39,2.74c.15.69.32,1.3.5,1.86a6.14,6.14,0,0,0,.69,1.43,15.53,15.53,0,0,1,.88,1.53,5.76,5.76,0,0,0,1.84,2.15,5.5,5.5,0,0,0,2.14.76,12.05,12.05,0,0,0,2.57,0c.94-.07,1.94-.09,3-.08a7.91,7.91,0,0,0,4.45-1.21,14.75,14.75,0,0,0,3.55-3.1,15.14,15.14,0,0,0,2.44-4.08,11.77,11.77,0,0,0,.93-4.21c0-.66,0-1.48.1-2.47s.06-2,0-3a18.36,18.36,0,0,0-.27-2.84,5.25,5.25,0,0,0-.82-2.16c-.38-.54-.83-1.19-1.36-2a12.27,12.27,0,0,0-2-2.28,16.29,16.29,0,0,0-3-2.1,13.89,13.89,0,0,0-4.48-1.43,54.16,54.16,0,0,1-6.38-1.3,16.08,16.08,0,0,1-4.18-1.76,14.14,14.14,0,0,1-3-2.42c-.85-.92-1.77-2-2.76-3.32a22.75,22.75,0,0,1-4.23-9.64,51.53,51.53,0,0,1-1.12-11.5c.19-3.69.48-7.32.85-10.87a25.53,25.53,0,0,1,2.73-9.43,15.33,15.33,0,0,1,6.77-6.44q4.59-2.37,12.9-2.09a60.23,60.23,0,0,1,10.38,2.13,14.36,14.36,0,0,1,6.38,3.94,17.73,17.73,0,0,1,3.69,7.22,77.85,77.85,0,0,1,2.14,11.72l-12.32-.22a17.27,17.27,0,0,0-2-6,11.49,11.49,0,0,0-2.8-3.35,9.66,9.66,0,0,0-2.64-1.47,7.64,7.64,0,0,1-1.39-.52,8.49,8.49,0,0,0-3.71-.52,10.11,10.11,0,0,0-3.36.89,9.48,9.48,0,0,0-2.73,1.94,10,10,0,0,0-1.82,2.51,14.24,14.24,0,0,0-1.15,3.77c-.21,1.34-.37,2.66-.46,3.95a32.94,32.94,0,0,0-.06,3.53,10.92,10.92,0,0,0,.26,2.25,11.41,11.41,0,0,0,1.42,4.15,17.58,17.58,0,0,0,2.43,3.27,15.64,15.64,0,0,0,2.92,2.43,11.59,11.59,0,0,0,3.06,1.41q3.54,1.11,5.64,1.68a29.35,29.35,0,0,1,3.5,1.15c.94.39,1.76.77,2.45,1.13a21.62,21.62,0,0,1,2.64,1.7,26.2,26.2,0,0,1,8.91,10.78A34.64,34.64,0,0,1,721,263.51a38.71,38.71,0,0,1-4.09,17.05A27.1,27.1,0,0,1,706,292.28c-1.12.6-1.93,1.05-2.44,1.38a4.12,4.12,0,0,1-1.48.6,11,11,0,0,1-1.88.1l-3.82-.07c-3-.05-5.5-.2-7.5-.43a23.35,23.35,0,0,1-5.14-1.11,11,11,0,0,1-3.73-2.21,27.56,27.56,0,0,1-3.35-3.79c-1.18-1.65-2.08-3-2.7-4.1a14.55,14.55,0,0,1-1.38-3.39,21.65,21.65,0,0,1-.61-4.14c-.1-1.58-.2-3.59-.29-6Z"/>
        <path class="cls-11" d="M786,188.08l.23,15.12-35.12,2.88.47,20.73,28.15-1.95.7,18.82-28.5,2.47.88,47.4-12,1-2-103.17Z"/>
        <path class="cls-11" d="M852.18,188.2l2.13,62.86q.12,4.35.05,8.78a84.27,84.27,0,0,1-.59,8.6,51,51,0,0,1-1.64,8.09,24.48,24.48,0,0,1-3.17,6.9c-.71,1-1.28,1.73-1.73,2.31a14,14,0,0,1-1.33,1.53,7.6,7.6,0,0,1-1.41,1.13c-.51.32-1.13.7-1.85,1.12-1.09.51-1.87.9-2.35,1.15a13.66,13.66,0,0,1-1.4.67,14.09,14.09,0,0,1-1.87.59c-.79.21-2,.56-3.59,1.06-.85.25-1.61.49-2.29.72a9.1,9.1,0,0,1-2,.46c-.64.08-1.34.13-2.11.16a16.87,16.87,0,0,1-2.66-.11,30.72,30.72,0,0,1-5-.84,14.56,14.56,0,0,1-3.95-1.89,28.47,28.47,0,0,1-3.53-2.53,14.54,14.54,0,0,1-2.47-2.75,16,16,0,0,1-1.75-3.46,49.08,49.08,0,0,1-1.45-4.81,50.57,50.57,0,0,1-1-5.5q-.45-3.3-.74-6.78c-.19-2.31-.34-4.48-.47-6.5s-.21-3.61-.26-4.76L802.13,192l13.37-.95,2.4,69.79q.26,8.11,2.53,12t8.11,3.51a10.81,10.81,0,0,0,8.81-4.89q3.14-4.61,2.89-12.72l-3-69.67Z"/>
        <path class="cls-11" d="M884.47,190.26l4.24,84.81,34.56-1.58.51,18.29L873.36,294l-1.61-103.7Z"/>
        <path class="cls-11" d="M952.39,190.26l4.25,84.81,34.55-1.58.52,18.29L941.29,294l-1.61-103.7Z"/>
        <path class="cls-11" d="M1023.69,271.73l-.41,23.75-16.82-.3.42-23.74Zm1.38-73-.39,22-.88,44.72-16.52-.29.68-44.72.38-22Z"/>
      </g>
      <g>
        <path class="cls-11" d="M109.53,322.79,111.1,369q.09,3.19,0,6.45a62.86,62.86,0,0,1-.43,6.32,38.91,38.91,0,0,1-1.2,6,18.18,18.18,0,0,1-2.34,5.08c-.52.7-.94,1.27-1.27,1.7a12.84,12.84,0,0,1-1,1.12,5.83,5.83,0,0,1-1,.83l-1.37.83c-.79.37-1.37.65-1.72.84a10.62,10.62,0,0,1-1,.49,10.89,10.89,0,0,1-1.38.44q-.87.22-2.64.78c-.62.18-1.18.36-1.68.53a7.14,7.14,0,0,1-1.44.34c-.47.05-1,.09-1.55.11a12.46,12.46,0,0,1-2-.08,21.54,21.54,0,0,1-3.67-.62,10.63,10.63,0,0,1-2.91-1.39,19.84,19.84,0,0,1-2.59-1.86,10.18,10.18,0,0,1-1.82-2,12.17,12.17,0,0,1-1.29-2.55c-.35-1-.71-2.14-1.07-3.53a40.8,40.8,0,0,1-.74-4c-.22-1.62-.4-3.29-.54-5s-.25-3.29-.35-4.78-.15-2.66-.19-3.5l-1.21-45.87,9.83-.7,1.76,51.31q.2,6,1.86,8.87t6,2.58a8,8,0,0,0,6.49-3.6c1.53-2.26,2.24-5.37,2.12-9.35l-2.2-51.23Z"/>
        <path class="cls-11" d="M122.38,330.32l14.6.26-.21,11.73-2.55,14.37-9.92-.17-2.12-14.45Z"/>
        <path class="cls-11" d="M209.2,379.23a43.9,43.9,0,0,1-1.12,10.6,14.71,14.71,0,0,1-3.37,6.57,12.41,12.41,0,0,1-5.9,3.39,34.84,34.84,0,0,1-8.93,1,24,24,0,0,1-4.26-.48,20.47,20.47,0,0,1-4.43-1.44,15.94,15.94,0,0,1-4-2.64,12.67,12.67,0,0,1-3-4.15,20.17,20.17,0,0,1-1.47-6.09q-.48-4-.66-8.58t-.11-9.15q.07-4.56.14-7.86.21-8.24.56-14.83a40.54,40.54,0,0,1,2-11.25,14.57,14.57,0,0,1,5.12-7.21q3.5-2.56,10-2.64a66,66,0,0,1,9.08.35,10.57,10.57,0,0,1,5.87,2.38,11.5,11.5,0,0,1,3.25,5.78,49.57,49.57,0,0,1,1.29,10.51l-9.28.13a6.59,6.59,0,0,1-.23-1.34,6.85,6.85,0,0,0-.13-1.05,10.74,10.74,0,0,0-.27-1.09,6.3,6.3,0,0,0-.69-1.5,4.42,4.42,0,0,0-1.46-1.74,6.52,6.52,0,0,0-3.35-.67,24.37,24.37,0,0,0-3.1.12,10.86,10.86,0,0,0-2.36.51,7.45,7.45,0,0,0-1.89,1,9.43,9.43,0,0,0-1.63,1.6,13.3,13.3,0,0,0-2.07,5.59,66.53,66.53,0,0,0-.88,7.8q-.23,4.17-.18,8.17t0,6.82q0,3,0,5.7c0,1.83.09,3.5.2,5a21.92,21.92,0,0,0,.64,4,5.08,5.08,0,0,0,1.3,2.49A9.72,9.72,0,0,0,185,386a2.86,2.86,0,0,0,1.09.43,5.11,5.11,0,0,0,1.37,0,16.68,16.68,0,0,1,2-.07c1.51,0,2.82.07,3.92.12a5.44,5.44,0,0,0,2.78-.51,4.56,4.56,0,0,0,1.89-2.15,19.28,19.28,0,0,0,1.32-4.85Z"/>
        <path class="cls-11" d="M231.68,391.44,229.06,399l-10.73-1,24.17-74.49,8.48.34,12,77.36-11.56-.83-1.07-7.06Zm13.2-43.68L235.27,379l13.9,1.45Z"/>
        <path class="cls-11" d="M311.7,322.79,313.27,369q.08,3.19,0,6.45a62.86,62.86,0,0,1-.44,6.32,36.65,36.65,0,0,1-1.2,6,18.18,18.18,0,0,1-2.34,5.08c-.51.7-.93,1.27-1.27,1.7a11.34,11.34,0,0,1-1,1.12,5.5,5.5,0,0,1-1,.83c-.37.24-.83.51-1.36.83-.8.37-1.37.65-1.72.84a10,10,0,0,1-2.41.93q-.87.22-2.64.78c-.63.18-1.19.36-1.68.53a7.39,7.39,0,0,1-1.45.34c-.46.05-1,.09-1.54.11a12.42,12.42,0,0,1-2-.08,21.68,21.68,0,0,1-3.68-.62,10.63,10.63,0,0,1-2.91-1.39,20.54,20.54,0,0,1-2.59-1.86,10.5,10.5,0,0,1-1.82-2A11.69,11.69,0,0,1,279,392.3a36.13,36.13,0,0,1-1.07-3.53,38.07,38.07,0,0,1-.74-4c-.22-1.62-.41-3.29-.54-5s-.26-3.29-.35-4.78-.16-2.66-.19-3.5l-1.21-45.87,9.83-.7,1.76,51.31q.18,6,1.86,8.87c1.12,1.93,3.1,2.79,6,2.58a8,8,0,0,0,6.48-3.6c1.54-2.26,2.25-5.37,2.13-9.35l-2.2-51.23Z"/>
        <path class="cls-11" d="M353,366.69l14.09-1.94.68,16.9a25.34,25.34,0,0,1-3.45,9.28,14.87,14.87,0,0,1-5.94,5.35,32.88,32.88,0,0,1-5.23,2,37.57,37.57,0,0,1-6.7,1.27,28.56,28.56,0,0,1-6.7,0,8.47,8.47,0,0,1-3.81-1.5,8.76,8.76,0,0,1-2.41-2.93q-1-1.82-2.46-4.21a14.87,14.87,0,0,1-1.95-4.87,59.49,59.49,0,0,1-1.13-6.47c-.27-2.28-.47-4.57-.61-6.85s-.25-4.36-.31-6.24c-.22-3.85-.47-7.59-.76-11.2a93.67,93.67,0,0,1-.27-10.17,37.89,37.89,0,0,1,1.23-8.66,16,16,0,0,1,3.75-6.78,29.92,29.92,0,0,1,2.45-2.26,17,17,0,0,1,2.68-1.8,14.57,14.57,0,0,1,3.22-1.23,35.82,35.82,0,0,1,4.06-.75c2.9-.27,5.33-.42,7.27-.46a15.74,15.74,0,0,1,5.09.67c1.24.45,2.27.85,3.09,1.22a8.39,8.39,0,0,1,2,1.23,6.07,6.07,0,0,1,1.31,1.48,11,11,0,0,1,.92,1.88,20.22,20.22,0,0,1,1.27,5.29q.35,3,.6,6.78L354.64,343a11.24,11.24,0,0,0-1.24-5.41,4.75,4.75,0,0,0-2.73-2.18,8.19,8.19,0,0,0-3.68-.11c-1.36.23-2.75.5-4.17.8a7.09,7.09,0,0,0-4.73,3.22,15.22,15.22,0,0,0-1.88,6.37,61,61,0,0,0-.09,9.29q.31,5.37.62,11.92t.95,10.45a20.81,20.81,0,0,0,1.66,6.09,5.07,5.07,0,0,0,2.63,2.69,7.18,7.18,0,0,0,3.88.14,10.55,10.55,0,0,1,1.7-.16l1.29,0a4.94,4.94,0,0,0,1.53-.24,17.75,17.75,0,0,0,2.41-1l1.64-1.18a15.56,15.56,0,0,0,1.87-3,7.65,7.65,0,0,0,.79-2.82,2.64,2.64,0,0,0-.78-2.1,4,4,0,0,0-2.84-.85Z"/>
        <path class="cls-11" d="M391.21,324.1l1.36,31.22,15.6-1.52-.08-30.42,11.52-.58L421.23,399l-11.52.57-.78-31.79-16.06,1.17,0,31.39-10.32,0-1.59-76.16Z"/>
        <path class="cls-11" d="M473.29,323l.14,12.42-14.3,1.16,1.92,63.3-8.79.68-3.21-63.28-13.66,1.85-.25-12.53Z"/>
        <path class="cls-11" d="M546.1,323.15l-.48,11.44-22.62-.2,1,24.43,18.3-1.67.4,12-18.12-.51.85,23.59,20.9-.55.15,8-33.27.38.21-76.07Z"/>
        <path class="cls-11" d="M574.33,323.26l10.06,35.55,3-34,10.94,1.46-6.1,75.24-8.58-2.43-11.69-35-2.94,34.35-10.73-1.59,6-75.2Z"/>
        <path class="cls-11" d="M614.77,334.23a16.8,16.8,0,0,1,1.7-3.76,14.24,14.24,0,0,1,3-3.58,16.28,16.28,0,0,1,4.36-2.67,13.88,13.88,0,0,1,5.72-1,30.75,30.75,0,0,1,11.34,1.94,13.09,13.09,0,0,1,6.6,6.47c1.55,3.11,2.55,7.39,3,12.87s.59,12.51.44,21.11q-.16,9.36-.94,16.12a30.57,30.57,0,0,1-3.15,11.08,13.86,13.86,0,0,1-6.67,6.24q-4.31,1.9-11.53,1.49a9.63,9.63,0,0,1-7.14-1.28,15.63,15.63,0,0,1-5.06-5.77,35.66,35.66,0,0,1-3.24-9,77,77,0,0,1-1.68-11c-.32-3.83-.45-7.73-.41-11.67s.23-7.69.56-11.23.76-6.7,1.3-9.51a37.88,37.88,0,0,1,1.75-6.57Zm6,37.37c.31,1.39.63,3,.94,4.82a39.17,39.17,0,0,0,1.28,5.23,13.72,13.72,0,0,0,2.14,4.26,4.26,4.26,0,0,0,3.45,1.79,16.22,16.22,0,0,0,5.11-.74,7.33,7.33,0,0,0,4-3.08,9.94,9.94,0,0,0,1.28-3.09c.33-1.28.63-2.73.88-4.35s.45-3.38.58-5.3.21-3.89.25-5.89a144.09,144.09,0,0,0-.39-15.95c-.38-3.74-1-6.49-2-8.23a5.46,5.46,0,0,0-3.56-3.1,26.85,26.85,0,0,0-5.19-.52q-4.92-.09-6.92,5t-2.18,16.1Z"/>
        <path class="cls-11" d="M701.05,322.79,702.62,369q.09,3.19,0,6.45a62.86,62.86,0,0,1-.43,6.32,36.65,36.65,0,0,1-1.2,6,18.18,18.18,0,0,1-2.34,5.08c-.52.7-.94,1.27-1.27,1.7a12.84,12.84,0,0,1-1,1.12,5.83,5.83,0,0,1-1,.83l-1.37.83c-.79.37-1.37.65-1.72.84a10.62,10.62,0,0,1-1,.49,10.89,10.89,0,0,1-1.38.44c-.57.15-1.45.41-2.63.78-.63.18-1.19.36-1.69.53a7.14,7.14,0,0,1-1.44.34c-.47.05-1,.09-1.55.11a12.46,12.46,0,0,1-2-.08,21.72,21.72,0,0,1-3.67-.62,10.63,10.63,0,0,1-2.91-1.39,20.54,20.54,0,0,1-2.59-1.86,10.18,10.18,0,0,1-1.82-2,12.17,12.17,0,0,1-1.29-2.55c-.35-1-.71-2.14-1.07-3.53a40.8,40.8,0,0,1-.74-4c-.22-1.62-.4-3.29-.54-5s-.25-3.29-.35-4.78-.15-2.66-.19-3.5l-1.21-45.87,9.83-.7,1.77,51.31q.18,6,1.86,8.87t6,2.58a8,8,0,0,0,6.48-3.6c1.54-2.26,2.24-5.37,2.12-9.35l-2.2-51.23Z"/>
        <path class="cls-11" d="M742.39,366.69l14.1-1.94.67,16.9a25.34,25.34,0,0,1-3.45,9.28,14.91,14.91,0,0,1-5.93,5.35,32.63,32.63,0,0,1-5.24,2,37.45,37.45,0,0,1-6.69,1.27,28.64,28.64,0,0,1-6.71,0,8.48,8.48,0,0,1-3.8-1.5,8.65,8.65,0,0,1-2.41-2.93q-1-1.82-2.47-4.21a15.1,15.1,0,0,1-1.94-4.87,57.16,57.16,0,0,1-1.13-6.47c-.27-2.28-.48-4.57-.62-6.85s-.24-4.36-.3-6.24c-.22-3.85-.48-7.59-.76-11.2a88.85,88.85,0,0,1-.27-10.17,36.82,36.82,0,0,1,1.23-8.66,15.83,15.83,0,0,1,3.75-6.78,28.37,28.37,0,0,1,2.45-2.26,16.87,16.87,0,0,1,2.67-1.8,14.76,14.76,0,0,1,3.22-1.23,36.67,36.67,0,0,1,4.06-.75c2.91-.27,5.33-.42,7.28-.46a15.74,15.74,0,0,1,5.09.67c1.24.45,2.27.85,3.09,1.22a8.59,8.59,0,0,1,2,1.23,6,6,0,0,1,1.3,1.48,10.29,10.29,0,0,1,.92,1.88,20.21,20.21,0,0,1,1.28,5.29q.35,3,.6,6.78L744,343a11.37,11.37,0,0,0-1.23-5.41A4.81,4.81,0,0,0,740,335.4a8.23,8.23,0,0,0-3.69-.11c-1.36.23-2.75.5-4.17.8a7.14,7.14,0,0,0-4.73,3.22,15.23,15.23,0,0,0-1.87,6.37,61,61,0,0,0-.09,9.29q.3,5.37.62,11.92t.95,10.45a21.16,21.16,0,0,0,1.65,6.09,5.08,5.08,0,0,0,2.64,2.69,7.18,7.18,0,0,0,3.88.14,10.45,10.45,0,0,1,1.69-.16l1.3,0a5,5,0,0,0,1.53-.24,17.75,17.75,0,0,0,2.41-1l1.64-1.18a15,15,0,0,0,1.86-3,7.46,7.46,0,0,0,.79-2.82,2.63,2.63,0,0,0-.77-2.1,4.07,4.07,0,0,0-2.85-.85Z"/>
        <path class="cls-11" d="M780.56,324.1l1.37,31.22,15.59-1.52-.08-30.42L809,322.8,810.58,399l-11.52.57-.77-31.79-16.06,1.17-.05,31.39-10.32,0-1.58-76.16Z"/>
        <path class="cls-11" d="M885.6,322.7l.16,11.11-25.82,2.12.34,15.25L881,349.74l.51,13.84-21,1.82.65,34.85-8.86.76-1.48-75.86Z"/>
        <path class="cls-11" d="M911.64,322.2l-.53,79.47-12.72-.22L899.77,322Z"/>
        <path class="cls-11" d="M934.65,382.05a17.88,17.88,0,0,0,.29,2,12.58,12.58,0,0,0,.37,1.36,4.27,4.27,0,0,0,.5,1.05,10.46,10.46,0,0,1,.65,1.13,4.2,4.2,0,0,0,1.36,1.58,4,4,0,0,0,1.57.56,9.74,9.74,0,0,0,1.89,0q1-.07,2.19-.06a5.8,5.8,0,0,0,3.27-.89,10.87,10.87,0,0,0,2.61-2.28,11.19,11.19,0,0,0,1.8-3,8.57,8.57,0,0,0,.68-3.1c0-.48,0-1.09.07-1.81s.05-1.46,0-2.19a12.77,12.77,0,0,0-.2-2.09,3.9,3.9,0,0,0-.6-1.58l-1-1.45a9.8,9.8,0,0,0-1.48-1.68,11.65,11.65,0,0,0-2.22-1.54,10,10,0,0,0-3.29-1.05,40.15,40.15,0,0,1-4.7-1,11.82,11.82,0,0,1-3.07-1.29A10.65,10.65,0,0,1,933.2,363c-.62-.68-1.3-1.49-2-2.44a16.79,16.79,0,0,1-3.12-7.09,38.38,38.38,0,0,1-.82-8.46c.14-2.71.35-5.38.62-8a19,19,0,0,1,2-6.93,11.34,11.34,0,0,1,5-4.74q3.38-1.74,9.48-1.54a45.31,45.31,0,0,1,7.64,1.57,10.51,10.51,0,0,1,4.69,2.9,13,13,0,0,1,2.71,5.31,57,57,0,0,1,1.58,8.61l-9.06-.15a12.71,12.71,0,0,0-1.45-4.44,8.28,8.28,0,0,0-2.06-2.47,6.7,6.7,0,0,0-1.94-1.07,5.26,5.26,0,0,1-1-.39,6.24,6.24,0,0,0-2.73-.38,7.22,7.22,0,0,0-2.47.66,6.8,6.8,0,0,0-2,1.42,7.29,7.29,0,0,0-1.35,1.84A10.68,10.68,0,0,0,936,340c-.16,1-.27,2-.34,2.9a23.14,23.14,0,0,0,0,2.6,8.15,8.15,0,0,0,.18,1.65,8.55,8.55,0,0,0,1,3.05,12.89,12.89,0,0,0,1.79,2.41,11.83,11.83,0,0,0,2.14,1.79,8.64,8.64,0,0,0,2.25,1c1.74.55,3.13,1,4.15,1.24a19.62,19.62,0,0,1,2.58.84c.69.29,1.29.57,1.8.83a19,19,0,0,1,1.94,1.25,19.27,19.27,0,0,1,6.55,7.93A25.42,25.42,0,0,1,962,378.16a28.54,28.54,0,0,1-3,12.54,20,20,0,0,1-8,8.61c-.82.44-1.42.78-1.79,1a3.16,3.16,0,0,1-1.09.44,7.82,7.82,0,0,1-1.39.07l-2.8,0c-2.21,0-4-.14-5.52-.31a17.49,17.49,0,0,1-3.78-.82,8.21,8.21,0,0,1-2.74-1.63,19.82,19.82,0,0,1-2.47-2.78c-.86-1.21-1.52-2.22-2-3a10.26,10.26,0,0,1-1-2.49,15.54,15.54,0,0,1-.45-3c-.08-1.17-.15-2.64-.21-4.42Z"/>
        <path class="cls-11" d="M985.53,324.1l1.37,31.22,15.59-1.52-.08-30.42,11.52-.58,1.62,76.16-11.52.57-.77-31.79-16.06,1.17-.05,31.39-10.32,0-1.58-76.16Z"/>
        <path class="cls-11" d="M1040.69,384.2l-.3,17.47-12.37-.22.3-17.46Zm1-53.64-.28,16.15-.65,32.88-12.15-.21.5-32.88.28-16.16Z"/>
      </g>
    </g>
  </g>
  <path class="cls-12" d="M475.6,893.77c-6-1.21-66.1,152.78-66.1,152.78l36.87,14.25,79.75-190.25-39.88-7.74Z"/>
  <polygon class="cls-12" points="141.4 721.1 197.65 943.34 827.1 909.38 772.1 603.8 141.4 721.1"/>
  <path class="cls-13" d="M337,935.82c55.93-13.55,21,55,21,55s-20.86,31.88,0,31,402.07-10.25,402.07-10.25,37.7-49.4,9.81-68.21-69.9-28.06-14-53.49-400.72,9-413.3,9.9S322.59,939.31,337,935.82Z"/>
  <ellipse class="cls-5" cx="355.01" cy="916.72" rx="10.19" ry="9.18"/>
  <ellipse class="cls-5" cx="723.21" cy="899.29" rx="10.19" ry="9.18"/>
</svg>
