<svg id="Layer_1" data-name="Layer 1" xmlns="http://www.w3.org/2000/svg" width="1920.96" height="1102" viewBox="0 0 1920.96 1102">
  <defs>
    <style>
      .cls-1 {
        fill: aqua;
      }

      .cls-2 {
        fill: #fff;
      }

      .cls-3 {
        fill: #d3ff8d;
      }

      .cls-4 {
        fill: #39b54a;
      }

      .cls-5 {
        fill: gray;
      }

      .cls-6 {
        fill: #17d400;
      }

      .cls-7 {
        fill: #bfbfbf;
      }

      .cls-8 {
        fill: #999;
      }

      .cls-9 {
        fill: #4d4d4d;
      }

      .cls-10, .cls-12 {
        fill: #a67c52;
      }

      .cls-10, .cls-11 {
        stroke: red;
        stroke-miterlimit: 10;
        stroke-width: 3px;
      }

      .cls-11 {
        fill: #ff0;
      }

      .cls-13 {
        fill: #f9ffc6;
      }
    </style>
  </defs>
  <g>
    <g>
      <rect class="cls-1" x="1.46" y="0.5" width="1919" height="1101"/>
      <path d="M1920,1V1101H2V1H1920m1-1H1V1102H1921V0Z"/>
    </g>
    <path class="cls-2" d="M1558.9,268c5.07,0,32-5.46,34.87,5.06s18.66,22.7,30.49,10.51-5.07-23-5.07-23,2.25-13.55,15.21-10.84,41.7,13.55,34.37,1.36-30.48-10.84-35-10.84-15.75-5.42-14.62-8.12-12.39-8.81-20.85-4.74-16.34,10.83-28.17,5.41-48.78-8.13-46.08-6.77,3.31,6.19,3.83,18.28S1553.83,268,1558.9,268Z"/>
    <path class="cls-2" d="M1009.4,120.11c5,.88,32.78-1.31,33.29,12.45s13.36,31.89,27.75,18.57.12-29.93.12-29.93,5.24-16.69,17.42-11,38.14,24.35,33.62,7.69-27.67-19-32.09-19.75-14.34-9.57-12.63-12.8-10.27-13.26-19.52-9.6-18.53,10.82-29,1.93S982,58.9,984.38,61.08s1.89,8.39-.29,23.74S1004.39,119.23,1009.4,120.11Z"/>
    <path class="cls-2" d="M1012.69,121.68c-7.91,0-49.88-9.7-54.38,9S929.22,171,910.77,149.36s7.91-40.93,7.91-40.93S915.16,84.36,895,89.17s-65,24.08-53.59,2.41,47.53-19.26,54.52-19.26,24.55-9.63,22.8-14.45,19.33-15.65,32.5-8.42,25.49,19.26,43.94,9.63,76.07-14.46,71.86-12-5.17,11-6,32.51S1020.6,121.68,1012.69,121.68Z"/>
    <path class="cls-3" d="M1695,925c41.81-14.18,89.83-47.89,138-35,8.15,2.18,30.06,9.38,55,2a85.58,85.58,0,0,0,33-19v229H1V895.06c5.36.6,13.44,1.36,23.26,1.66C65.79,898,96.09,890.06,106,888c46.7-9.76,91,17.6,128,32,108,42,137.91-32.58,303-14,98.39,11.08,140.15,43.46,237,25,37-7.06,39.34-13.41,74-22,124.67-30.92,184,29.09,311,38,158,11.08,156.57-75.44,311-56C1577.47,904.53,1617.18,951.38,1695,925Z"/>
    <path class="cls-4" d="M1675.33,982.9q13-64.06,23.65-131.62,1.74-11.1,3.39-22.13L1669.24,970,1685.8,803.9,1655.48,970V815L1638.1,980.69Z"/>
    <path class="cls-5" d="M1584.14,951.36c-29.57,13.55-17.71,59.45-11.14,54.11s73,0,73,0l18.07-29.72L1646,942l-23.33,9.41h-38.53Z"/>
    <path class="cls-6" d="M1632.28,994.9q-12.94-58-23.61-119.12-1.74-10-3.39-20l33.09,127.43L1621.82,832.9l30.28,150.29V842.92l17.35,150Z"/>
    <path class="cls-7" d="M1701,965.9c29.57,10,17.71,43.88,11.14,39.94s-73,0-73,0L1621,983.9,1639.09,959l23.33,6.95H1701Z"/>
    <g>
      <ellipse class="cls-8" cx="1158.5" cy="326.25" rx="447" ry="105.5"/>
      <path class="cls-7" d="M711.5,325.82,811.68,992a2120.57,2120.57,0,0,0,309.19,40.89,2125.38,2125.38,0,0,0,358.65-9.57l136-712.54a1395,1395,0,0,1-448.1,82.61A1397.2,1397.2,0,0,1,711.5,325.82Z"/>
      <path class="cls-9" d="M705.84,309.41c-7.17-5.52,76.89-173,241.95-238.8,52.58-21,111.85-31,143-36.27,72.3-12.25,113.75-19.27,166.66-8,55.07,11.73,121.11,43,121.11,43h0c-46.48-25.24,98.63,44.18,137.17,79.31,40.13,36.56,57.59,79,92.52,163.78,1,2.43,3.35,8.25,1.93,9.09-5.48,3.24-51.58-76.37-113.27-135.1-22.39-21.32-111.05-103.49-245.15-121.45-56.52-7.57-106.79,1.46-207.33,19.5-70.66,12.69-104.44,25.21-135,43.93-24.74,15.16-33.65,26-77.27,67.59C753.72,270.78,709.92,312.56,705.84,309.41Z"/>
      <polygon class="cls-9" points="816.5 622.75 846.58 889.75 1438.06 922.23 1504.08 567.75 802.5 509.75 816.5 622.75"/>
      <g>
        <path class="cls-2" d="M906.11,555l-.49,11.41-35.81-.48-.52,15.65,28.69.66-.19,14.23-29.08-.29-1.38,35.77-12.28-.12L858,553.93Z"/>
        <path class="cls-2" d="M939.68,557.63,933.76,639l-17.56-1.53,7.11-81.27Z"/>
        <path class="cls-2" d="M965.11,621.8a14.35,14.35,0,0,0,.27,2.1,11.79,11.79,0,0,0,.42,1.44,3.92,3.92,0,0,0,.63,1.12,11.87,11.87,0,0,1,.82,1.23,5.07,5.07,0,0,0,1.77,1.75,6.9,6.9,0,0,0,2.13.74,18,18,0,0,0,2.61.23c1,0,2,.07,3,.16a10.31,10.31,0,0,0,4.58-.57,14.63,14.63,0,0,0,3.75-2.07,11.26,11.26,0,0,0,2.68-2.9,7,7,0,0,0,1.15-3.09q.06-.75.21-1.86c.1-.74.16-1.49.2-2.23a10.2,10.2,0,0,0-.14-2.16,3.5,3.5,0,0,0-.73-1.69c-.36-.43-.79-1-1.28-1.59a11.24,11.24,0,0,0-1.94-1.87,17.08,17.08,0,0,0-7.44-3.23q-3.95-.73-6.42-1.46a19.48,19.48,0,0,1-4.16-1.64,14.18,14.18,0,0,1-2.89-2.05c-.82-.75-1.7-1.66-2.64-2.71a15.69,15.69,0,0,1-3.84-7.58,29.32,29.32,0,0,1-.58-8.75q.56-4.15,1.38-8.13a15.64,15.64,0,0,1,3.23-6.89,14.41,14.41,0,0,1,7.18-4.35q4.77-1.43,13.2-.59a79.91,79.91,0,0,1,10.44,2.39A16.28,16.28,0,0,1,999,569a12.91,12.91,0,0,1,3.4,5.72,46.94,46.94,0,0,1,1.61,9l-12.5-1.09a11,11,0,0,0-1.72-4.7,10.16,10.16,0,0,0-2.68-2.74,11.27,11.27,0,0,0-2.61-1.3,8.75,8.75,0,0,1-1.38-.5,11.37,11.37,0,0,0-3.74-.67,12.9,12.9,0,0,0-3.47.42,9.71,9.71,0,0,0-2.85,1.25,7.64,7.64,0,0,0-2,1.75,8.83,8.83,0,0,0-1.34,2.76,22.91,22.91,0,0,0-.66,2.94,17.48,17.48,0,0,0-.23,2.65,6.07,6.07,0,0,0,.15,1.72,7.39,7.39,0,0,0,1.24,3.23,14.61,14.61,0,0,0,2.32,2.65,15.28,15.28,0,0,0,2.84,2,14.36,14.36,0,0,0,3,1.29q3.56,1.11,5.65,1.7a36.59,36.59,0,0,1,3.5,1.13c.93.36,1.75.71,2.43,1a25.91,25.91,0,0,1,2.6,1.48,22.86,22.86,0,0,1,8.53,8.8,20.48,20.48,0,0,1,2,11.07,23.23,23.23,0,0,1-5,12.54,24.33,24.33,0,0,1-11.68,8c-1.16.37-2,.65-2.54.85a4.77,4.77,0,0,1-1.53.34,15.07,15.07,0,0,1-1.92-.06l-3.87-.34q-4.57-.4-7.6-.89a32.09,32.09,0,0,1-5.17-1.23,12.5,12.5,0,0,1-3.68-2,24.71,24.71,0,0,1-3.22-3.1,36.67,36.67,0,0,1-2.54-3.3,9.41,9.41,0,0,1-1.24-2.66,12.63,12.63,0,0,1-.43-3.16c0-1.2,0-2.72,0-4.55Z"/>
        <path class="cls-2" d="M1036.73,568.37l-.16,32.13,21.64,0,1.88-31.18,16,.59-2.75,78.2-15.94-.59,1-32.66-22.25-.45L1034,646.62l-14.25-1.09,2.79-78.2Z"/>
        <path class="cls-2" d="M1175.23,636.78a34.41,34.41,0,0,1-2.24,10.76,14.12,14.12,0,0,1-5.09,6.38,19,19,0,0,1-8.37,2.86,62.91,62.91,0,0,1-12.41.09,45.63,45.63,0,0,1-5.84-.93,35.9,35.9,0,0,1-6-1.93,23.72,23.72,0,0,1-5.35-3.12,14,14,0,0,1-3.85-4.56,16.6,16.6,0,0,1-1.64-6.39,85.85,85.85,0,0,1-.35-8.86c0-3.15.17-6.27.44-9.38s.51-5.79.71-8q.82-8.43,1.75-15.15a32.25,32.25,0,0,1,3.46-11.32,15.88,15.88,0,0,1,7.55-6.86q5-2.26,14-1.68a120.54,120.54,0,0,1,12.51,1.3,18,18,0,0,1,8,3,11.81,11.81,0,0,1,4.1,6.26,38,38,0,0,1,1.09,10.89l-12.82-.82a5,5,0,0,1-.23-1.39,5.37,5.37,0,0,0-.11-1.09c-.07-.34-.17-.72-.3-1.15a5.87,5.87,0,0,0-.85-1.6,5.38,5.38,0,0,0-1.91-1.94,11.83,11.83,0,0,0-4.58-1c-1.62-.14-3-.2-4.29-.2a19,19,0,0,0-3.3.29,11.26,11.26,0,0,0-2.67.84,11.49,11.49,0,0,0-2.35,1.47,11.8,11.8,0,0,0-3.24,5.52,52,52,0,0,0-1.71,7.9q-.6,4.24-.78,8.35c-.13,2.74-.27,5.07-.44,7s-.31,4-.41,5.84-.11,3.59,0,5.17a17.73,17.73,0,0,0,.61,4.15,5.16,5.16,0,0,0,1.64,2.69,15.29,15.29,0,0,0,1.56,1.07,5.26,5.26,0,0,0,1.47.55,8.88,8.88,0,0,0,1.89.16c.71,0,1.65.05,2.81.15,2.08.18,3.89.36,5.4.52a9.73,9.73,0,0,0,3.87-.23,5.5,5.5,0,0,0,2.75-2,15.55,15.55,0,0,0,2.15-4.84Z"/>
        <path class="cls-2" d="M1198.5,593.07a15.71,15.71,0,0,1,2.6-3.67,17,17,0,0,1,4.44-3.36,24.87,24.87,0,0,1,6.2-2.28,25.18,25.18,0,0,1,8-.43q9.78.85,15.55,3.16a17,17,0,0,1,8.68,7.31q2.91,5,3.3,13.49a172.83,172.83,0,0,1-.77,21.68,127.43,127.43,0,0,1-2.37,16.41,25.25,25.25,0,0,1-5.06,11,17.8,17.8,0,0,1-9.62,5.71q-6.09,1.51-16,.35a17.23,17.23,0,0,1-9.77-2.06A19,19,0,0,1,1197,654a31.86,31.86,0,0,1-3.9-9.52,60.37,60.37,0,0,1-1.6-11.39,94.5,94.5,0,0,1,.2-12,106.48,106.48,0,0,1,1.5-11.44,75.67,75.67,0,0,1,2.42-9.62,31,31,0,0,1,2.85-6.55Zm5.9,38.92q.49,2.19,1,5a32.39,32.39,0,0,0,1.42,5.5,13.58,13.58,0,0,0,2.67,4.58,6.79,6.79,0,0,0,4.66,2.19,30,30,0,0,0,7.09-.23,10.2,10.2,0,0,0,5.77-2.75,8.92,8.92,0,0,0,2-3,36.11,36.11,0,0,0,1.51-4.36,46.75,46.75,0,0,0,1.15-5.38c.3-1.95.54-4,.72-6a109.51,109.51,0,0,0,.51-16.38q-.42-5.8-2.17-8.63A7.46,7.46,0,0,0,1226,599a49.9,49.9,0,0,0-7.13-1.08q-6.81-.58-9.89,4.41t-4.07,16.27Z"/>
        <path class="cls-2" d="M1316,591l-.85,47.52c-.06,2.2-.19,4.4-.38,6.62a46.18,46.18,0,0,1-1,6.44,29.59,29.59,0,0,1-2,6,16.79,16.79,0,0,1-3.56,5c-.76.67-1.38,1.2-1.87,1.61a12.29,12.29,0,0,1-1.42,1,8.3,8.3,0,0,1-1.49.75c-.53.2-1.18.44-1.93.7-1.13.3-1.94.53-2.44.69s-1,.29-1.46.4-1.11.21-1.92.3-2,.27-3.7.53c-.88.12-1.66.25-2.35.37a13.15,13.15,0,0,1-2,.2c-.65,0-1.37,0-2.15,0a26.13,26.13,0,0,1-2.7-.29,40,40,0,0,1-5-1,17.56,17.56,0,0,1-3.93-1.72,29.71,29.71,0,0,1-3.46-2.18,12.51,12.51,0,0,1-2.37-2.26,11.26,11.26,0,0,1-1.62-2.74,31.83,31.83,0,0,1-1.24-3.73,30.77,30.77,0,0,1-.76-4.22q-.3-2.52-.42-5.16c-.08-1.76-.14-3.4-.17-4.94s0-2.73,0-3.6L1265,590l13.62.29-.91,52.77c-.1,4.09.57,7.18,2,9.27s4.11,3.18,8.07,3.26,6.91-.88,9.19-3,3.45-5.28,3.54-9.37l.31-52.72Z"/>
        <path class="cls-2" d="M1353.21,595.11l11.57,37.46L1371.2,598l15,2.61-13.34,76.47-11.71-3.37-13.85-37.06-6.3,34.9-14.71-2.74,13.23-76.43Z"/>
        <path class="cls-2" d="M1454.68,603.29l-.61,12.74-19.83-.28-1.49,65.06-12.18-.21-.3-65.17-19,.49.47-12.86Z"/>
        <path class="cls-2" d="M842.58,646.9l.53-6.1,612.2,53.56-.53,6.1Z"/>
      </g>
    </g>
    <polygon class="cls-10" points="-46.5 237.06 831.2 154 858.5 582.75 -46.5 539.1 -46.5 271.81 -46.5 237.06"/>
    <g>
      <path class="cls-11" d="M92.4,374.57l.17,21.68-21.78,2.08L73.46,508.8,60.07,510,55.42,399.58,34.6,402.86,34.27,381Z"/>
      <path class="cls-11" d="M118.64,374.32l31.45,3.17c1.9.26,3.4.52,4.51.76a14.43,14.43,0,0,1,2.84.9,9.53,9.53,0,0,1,2.16,1.35,19.8,19.8,0,0,0,2.47,1.69q6.06,3.92,9.1,12.44a31.5,31.5,0,0,1,1.21,5.69c.32,2.38.55,4.87.66,7.47s.18,5.2.17,7.79-.07,4.88-.17,6.86a52.54,52.54,0,0,1-4,17.37,27.92,27.92,0,0,1-8.58,11.2,9.4,9.4,0,0,1-4.6,1.49,50.3,50.3,0,0,0-5.85.95q.32.85,1.44,3.75t3.54,9.34q2.4,6.43,6.38,17.34t9.92,28.2L154.41,510,140,472c-.45-1.14-1-2.61-1.51-4.43s-1.13-3.62-1.74-5.41-1.17-3.39-1.67-4.81a18.58,18.58,0,0,0-1.18-2.82,9.43,9.43,0,0,1-.94-1.11,1.45,1.45,0,0,0-.51-.52,4.15,4.15,0,0,0-.66-.18,6.82,6.82,0,0,0-1.2-.11l-2.24-.37-4.09,51.92L110,501.78Zm22.21,52.38c.29,0,.87.06,1.73.16s1.81.16,2.87.18,2.12,0,3.29-.07a14.79,14.79,0,0,0,3-.42q2.53-.29,4.47-3.26a14.8,14.8,0,0,0,2.24-7.21c.09-1.12.16-2.15.22-3.08a15.65,15.65,0,0,0-.12-2.88,19.48,19.48,0,0,0-.71-3.15,18.23,18.23,0,0,0-1.74-3.71,7.12,7.12,0,0,0-2.23-2.58,11.34,11.34,0,0,0-3-1.49,22,22,0,0,0-3.24-.82c-1.08-.19-2.07-.38-3-.56l-12.2-1.4L130.3,425.5Z"/>
      <path class="cls-11" d="M214.6,373.21,213.5,511.9l-19.4-.34,2.42-138.66Z"/>
      <path class="cls-11" d="M268,376.79a13.75,13.75,0,0,1,9.33,4,26.79,26.79,0,0,1,6,9.54,53.15,53.15,0,0,1,3.08,13.48,115,115,0,0,1,.58,15.76,61.73,61.73,0,0,1-2.1,13.6,37.65,37.65,0,0,1-5,11.05,23.77,23.77,0,0,1-7.86,7.4,21.39,21.39,0,0,1-10.62,2.73H251.21l-2.13,55.86L236,510l3.94-134.58Zm-9,54.81a12.27,12.27,0,0,0,5.93-.88,9.6,9.6,0,0,0,3.92-3.15,13.2,13.2,0,0,0,2.14-4.78,32.87,32.87,0,0,0,.81-5.71,45,45,0,0,0-.38-6.27,25,25,0,0,0-1.67-6.46,14.38,14.38,0,0,0-3.5-5.1,9.06,9.06,0,0,0-5.77-2.35l-4.81-.25L255,431.36Z"/>
      <path class="cls-11" d="M400.27,374l.21,19.4-39.35,3.8.46,26.6,31.56-2.59.73,24.15-31.95,3.26.86,60.81-13.51,1.37-2-132.39Z"/>
      <path class="cls-11" d="M432.58,494.11l-4,13.14-16.36-1.72,37.12-130.1,12.92.56,18,135-17.62-1.41L461,497.23Zm20.29-76.28-14.76,54.53,21.16,2.49Z"/>
      <path class="cls-11" d="M520.65,373.21l-1.1,138.69-19.39-.34,2.42-138.66Z"/>
      <path class="cls-11" d="M556.47,376.94,561,485.74l38.72-2.11.53,23.46-56.49,3L542.22,377Z"/>
      <path class="cls-11" d="M670.8,374.83l-.79,20-34.46-.26,1.5,42.62,27.89-3,.57,21-27.6-.82,1.19,41.18L671,494.48l.19,13.9-50.69.8.61-132.77Z"/>
      <path class="cls-11" d="M716.78,374a45.23,45.23,0,0,1,9.32,1,21,21,0,0,1,6.85,2.87,19.59,19.59,0,0,1,5.15,5.05,53,53,0,0,1,4.31,7.44,38.07,38.07,0,0,1,3.06,11.15q1,7,1.39,14.8c.25,5.22.34,10.49.24,15.8s-.17,10.1-.25,14.39q-.09,5-.09,8.55t-.19,7.36q-.17,3.81-.56,8.67t-1.17,12.47a40.63,40.63,0,0,1-1.41,6.75,34.36,34.36,0,0,1-2.69,6.56,23.51,23.51,0,0,1-3.9,5.39,14.67,14.67,0,0,1-5.05,3.43,34.92,34.92,0,0,1-4.52,1.61c-1.65.48-3.3.94-4.95,1.36a46.87,46.87,0,0,1-4.73,1,23.86,23.86,0,0,1-4,.32l-21.42-.38,2.37-135.95ZM709,480.89c.52-.16,1.3-.37,2.37-.63s2.16-.59,3.28-1,2.2-.79,3.25-1.26a10.54,10.54,0,0,0,2.38-1.35l1.84-1.49a11,11,0,0,0,2.12-2.55,25.23,25.23,0,0,0,2.16-4.49,42.88,42.88,0,0,0,1.91-7.25c.24-1.41.53-3.11.86-5.11s.63-4.18.9-6.55.5-4.79.65-7.27a64.41,64.41,0,0,0,.07-7.2q-.4-8.22-.89-13.31t-1.08-8.4a31.43,31.43,0,0,0-1.36-5.31,39.8,39.8,0,0,0-1.77-4,6.63,6.63,0,0,0-3.08-2.72,14.46,14.46,0,0,0-4.52-1.31,32.33,32.33,0,0,0-4.65-.25c-1.5,0-2.69.09-3.57.19Z"/>
      <path class="cls-11" d="M785.25,481.42l-.53,30.47-18.84-.33.53-30.47ZM787,387.79,786.5,416l-1.11,57.39-18.51-.32.89-57.4.49-28.19Z"/>
    </g>
    <g>
      <path class="cls-11" d="M46.91,246.59l11.17,45.59,3.5-43.65,12.26,1.83-7,96.58-9.62-3.1L44.19,299,40.8,343.06l-12-2,7-96.51Z"/>
      <path class="cls-11" d="M92.47,260.69a23,23,0,0,1,1.92-4.82,17.87,17.87,0,0,1,3.42-4.61,18.46,18.46,0,0,1,4.9-3.44,13.94,13.94,0,0,1,6.4-1.29q7.94.15,12.71,2.47t7.37,8.28q2.59,6,3.32,16.5t.43,27.09q-.21,12-1.1,20.69a43.91,43.91,0,0,1-3.55,14.22,16.76,16.76,0,0,1-7.5,8q-4.83,2.47-12.92,1.95a9.57,9.57,0,0,1-8-1.63,19.28,19.28,0,0,1-5.66-7.38,50.85,50.85,0,0,1-3.6-11.49,110,110,0,0,1-1.85-14q-.52-7.39-.43-15t.66-14.4q.56-6.81,1.48-12.21a53.65,53.65,0,0,1,2-8.43Zm6.66,47.94q.51,2.69,1,6.18a55.84,55.84,0,0,0,1.41,6.72A18.94,18.94,0,0,0,104,327a4.58,4.58,0,0,0,3.87,2.27,15.74,15.74,0,0,0,5.72-1,8.48,8.48,0,0,0,4.52-4,14.25,14.25,0,0,0,1.44-4q.57-2.49,1-5.59t.67-6.81c.15-2.46.24-5,.29-7.56q.23-13.26-.39-20.46t-2.17-10.56c-1-2.24-2.36-3.56-4-4a26.51,26.51,0,0,0-5.81-.66q-5.52-.11-7.77,6.43t-2.5,20.66Z"/>
      <path class="cls-11" d="M190.86,246.19l.12,15.95-16,1.52,2,81.23-9.85.89-3.41-81.19L148.35,267l-.24-16.07Z"/>
      <path class="cls-11" d="M273,246.38l-.58,14.69-25.34-.2,1.11,31.34,20.5-2.19.42,15.45-20.3-.61.88,30.28,23.43-.77.14,10.21-37.28.6.46-97.63Z"/>
      <path class="cls-11" d="M304.9,246.59l11.17,45.59,3.5-43.65,12.26,1.83-7.05,96.58-9.61-3.1-13-44.87-3.39,44.09-12-2,7-96.51Z"/>
      <path class="cls-11" d="M350.45,260.69a24.15,24.15,0,0,1,1.92-4.82,18.38,18.38,0,0,1,8.32-8.05,14,14,0,0,1,6.41-1.29q7.93.15,12.71,2.47t7.37,8.28q2.6,6,3.31,16.5t.44,27.09q-.21,12-1.11,20.69a43.66,43.66,0,0,1-3.55,14.22,16.75,16.75,0,0,1-7.49,8q-4.84,2.47-12.93,1.95a9.58,9.58,0,0,1-8-1.63,19.26,19.26,0,0,1-5.65-7.38,50.33,50.33,0,0,1-3.61-11.49,110,110,0,0,1-1.85-14q-.51-7.39-.42-15t.65-14.4q.57-6.81,1.48-12.21a56,56,0,0,1,2-8.43Zm6.66,47.94c.35,1.79.69,3.85,1,6.18a57.85,57.85,0,0,0,1.41,6.72A18.94,18.94,0,0,0,362,327a4.56,4.56,0,0,0,3.87,2.27,15.69,15.69,0,0,0,5.71-1,8.44,8.44,0,0,0,4.52-4,13.64,13.64,0,0,0,1.44-4q.57-2.49,1-5.59t.66-6.81q.22-3.69.29-7.56.24-13.26-.39-20.46t-2.17-10.56q-1.54-3.36-4-4a26.44,26.44,0,0,0-5.81-.66q-5.52-.11-7.77,6.43t-2.49,20.66Z"/>
      <path class="cls-11" d="M447.44,245.91l1.62,59.31q.09,4.11,0,8.28c-.05,2.74-.22,5.44-.51,8.12a52.94,52.94,0,0,1-1.36,7.63,24.86,24.86,0,0,1-2.63,6.52c-.58.91-1.06,1.64-1.43,2.19a13.15,13.15,0,0,1-1.09,1.44,6.91,6.91,0,0,1-1.17,1.07c-.42.31-.93.66-1.53,1.07-.89.48-1.54.84-1.93,1.08a10.37,10.37,0,0,1-1.16.64,10.67,10.67,0,0,1-1.54.56c-.65.2-1.63.53-3,1-.7.24-1.33.46-1.88.68a7,7,0,0,1-1.62.44,17.25,17.25,0,0,1-1.74.16,14.41,14.41,0,0,1-2.19-.1,22.51,22.51,0,0,1-4.12-.79,11.32,11.32,0,0,1-3.25-1.77,22.69,22.69,0,0,1-2.9-2.39,12.9,12.9,0,0,1-2-2.58,15.87,15.87,0,0,1-1.43-3.27c-.4-1.23-.8-2.74-1.19-4.53-.3-1.38-.57-3.1-.82-5.18s-.44-4.22-.59-6.4-.28-4.23-.38-6.14-.17-3.4-.2-4.48l-1.23-58.87,11-.92L419,314.53q.19,7.67,2.06,11.37t6.67,3.29a8.77,8.77,0,0,0,7.28-4.63q2.59-4.35,2.4-12l-2.32-65.73Z"/>
      <path class="cls-11" d="M493.91,302.28l15.8-2.52.7,21.68a35.74,35.74,0,0,1-3.89,11.92,17.76,17.76,0,0,1-6.67,6.88,35.22,35.22,0,0,1-5.86,2.61,37.71,37.71,0,0,1-7.51,1.64,27.64,27.64,0,0,1-7.51.06,8.65,8.65,0,0,1-4.26-1.91,10.89,10.89,0,0,1-2.69-3.75c-.72-1.55-1.63-3.35-2.75-5.41a20.44,20.44,0,0,1-2.17-6.23q-.8-3.9-1.24-8.3t-.68-8.79c-.15-2.93-.25-5.6-.32-8q-.36-7.41-.82-14.37c-.3-4.63-.4-9-.27-13a54.2,54.2,0,0,1,1.4-11.12,21.62,21.62,0,0,1,4.22-8.7,35.18,35.18,0,0,1,2.75-2.91,19.09,19.09,0,0,1,3-2.32,14.85,14.85,0,0,1,3.62-1.58,35.16,35.16,0,0,1,4.55-1q4.88-.54,8.15-.61a15.38,15.38,0,0,1,5.7.85c1.39.56,2.54,1.08,3.46,1.55a9.93,9.93,0,0,1,2.27,1.57,8,8,0,0,1,1.46,1.89,15.32,15.32,0,0,1,1,2.42,29.43,29.43,0,0,1,1.42,6.78c.25,2.56.46,5.46.65,8.7l-11.67,1.6c-.11-3.16-.56-5.47-1.37-6.94a5.5,5.5,0,0,0-3.06-2.79,8,8,0,0,0-4.12-.13c-1.53.3-3.08.65-4.67,1a8.17,8.17,0,0,0-5.31,4.15,21.43,21.43,0,0,0-2.12,8.18,90.07,90.07,0,0,0-.13,11.92q.33,6.88.66,15.3t1,13.4a29.93,29.93,0,0,0,1.83,7.82,6.09,6.09,0,0,0,3,3.44,7,7,0,0,0,4.34.17,9.92,9.92,0,0,1,1.9-.21l1.45,0a5,5,0,0,0,1.72-.31,19.88,19.88,0,0,0,2.7-1.29l1.84-1.53a20.74,20.74,0,0,0,2.1-3.82,10.78,10.78,0,0,0,.89-3.63,3.63,3.63,0,0,0-.86-2.69,4.16,4.16,0,0,0-3.18-1.08Z"/>
      <path class="cls-11" d="M537.08,247.68l1.43,40.06,17.48-2v-39l12.9-.77,1.6,97.72-12.9.77-.78-40.8-18,1.56-.14,40.28H527.11l-1.56-97.72Z"/>
      <path class="cls-11" d="M655.31,245.8l.15,14.26-28.93,2.8.34,19.55,23.2-1.9.54,17.76-23.49,2.39.63,44.72-9.93,1L616.37,249Z"/>
      <path class="cls-11" d="M684.77,245.2l-.81,102-14.26-.24,1.78-102Z"/>
      <path class="cls-11" d="M710.66,322a23.89,23.89,0,0,0,.32,2.59c.12.65.26,1.23.41,1.75a5.65,5.65,0,0,0,.56,1.35,15,15,0,0,1,.72,1.45,5.24,5.24,0,0,0,1.52,2,4,4,0,0,0,1.76.71,8.6,8.6,0,0,0,2.11,0,21.82,21.82,0,0,1,2.46-.08,6,6,0,0,0,3.67-1.15,13,13,0,0,0,2.93-2.94,14.78,14.78,0,0,0,2-3.86,13,13,0,0,0,.78-4c0-.62,0-1.4.08-2.33s0-1.87,0-2.8a19,19,0,0,0-.21-2.68,5.42,5.42,0,0,0-.67-2c-.31-.5-.69-1.12-1.12-1.86a11.38,11.38,0,0,0-1.65-2.14,13.14,13.14,0,0,0-2.48-2,10.88,10.88,0,0,0-3.69-1.34,37.86,37.86,0,0,1-5.25-1.21,12.51,12.51,0,0,1-3.44-1.65,12.32,12.32,0,0,1-2.44-2.28c-.7-.86-1.45-1.9-2.26-3.12a23.13,23.13,0,0,1-3.47-9.09,55.77,55.77,0,0,1-.9-10.85q.25-5.24.73-10.26a26.8,26.8,0,0,1,2.27-8.9,13.75,13.75,0,0,1,5.58-6.1q3.8-2.24,10.63-2a43.79,43.79,0,0,1,8.55,2,11.58,11.58,0,0,1,5.25,3.7,17.5,17.5,0,0,1,3,6.81,84.72,84.72,0,0,1,1.74,11.05l-10.15-.18a18,18,0,0,0-1.61-5.69,10.19,10.19,0,0,0-2.31-3.15,7.29,7.29,0,0,0-2.17-1.38,6.06,6.06,0,0,1-1.14-.49,6.26,6.26,0,0,0-3.05-.49,7.29,7.29,0,0,0-2.77.86,7.62,7.62,0,0,0-2.25,1.83,9.2,9.2,0,0,0-1.51,2.37,15.16,15.16,0,0,0-.95,3.56c-.19,1.26-.32,2.51-.39,3.73a31.81,31.81,0,0,0-.06,3.33,12.44,12.44,0,0,0,.21,2.12,11.83,11.83,0,0,0,1.16,3.91,16.58,16.58,0,0,0,2,3.09,13.78,13.78,0,0,0,2.39,2.28,8.75,8.75,0,0,0,2.52,1.32c2,.7,3.5,1.22,4.65,1.58a22.63,22.63,0,0,1,2.88,1.07c.77.37,1.44.73,2,1.07a17.59,17.59,0,0,1,2.17,1.59,24.12,24.12,0,0,1,7.32,10.15A36.91,36.91,0,0,1,741.33,317a40.9,40.9,0,0,1-3.41,16.09,24.66,24.66,0,0,1-9,11.09c-.93.56-1.6,1-2,1.3a3.26,3.26,0,0,1-1.22.57,7.51,7.51,0,0,1-1.55.1l-3.14-.06a54.78,54.78,0,0,1-6.18-.39,16.78,16.78,0,0,1-4.23-1,8.59,8.59,0,0,1-3.07-2.07,25.64,25.64,0,0,1-2.76-3.57q-1.44-2.33-2.21-3.87a14.6,14.6,0,0,1-1.13-3.19,23.77,23.77,0,0,1-.49-3.9c-.09-1.5-.16-3.39-.23-5.67Z"/>
      <path class="cls-11" d="M768.11,247.68l1.44,40.06,17.48-2v-39l12.9-.77,1.6,97.72-12.91.77-.77-40.8-18,1.56-.14,40.28H758.15l-1.56-97.72Z"/>
    </g>
  </g>
  <g>
    <path class="cls-12" d="M475.6,893.77c-6-1.21-66.1,152.78-66.1,152.78l36.87,14.25,79.75-190.25-39.88-7.74Z"/>
    <polygon class="cls-12" points="141.4 721.1 197.65 943.34 827.1 909.38 772.1 603.8 141.4 721.1"/>
    <g>
      <path class="cls-13" d="M337,935.82c55.93-13.55,21,55,21,55s-20.86,31.88,0,31,402.07-10.25,402.07-10.25,37.7-49.4,9.81-68.21-69.9-28.06-14-53.49-400.72,9-413.3,9.9S322.59,939.31,337,935.82Z"/>
      <ellipse class="cls-5" cx="355.01" cy="916.72" rx="10.19" ry="9.18"/>
      <ellipse class="cls-5" cx="723.21" cy="899.29" rx="10.19" ry="9.18"/>
    </g>
  </g>
</svg>
