<svg xmlns="http://www.w3.org/2000/svg" xmlns:xlink="http://www.w3.org/1999/xlink" width="1920" height="1102" viewBox="0 0 1920 1102">
  <defs>
    <style>
      .cls-1 {
        isolation: isolate;
      }

      .cls-2 {
        fill: aqua;
      }

      .cls-3 {
        fill: #fff;
      }

      .cls-4 {
        opacity: 0.75;
        mix-blend-mode: soft-light;
      }

      .cls-5 {
        fill: url(#radial-gradient);
      }

      .cls-12, .cls-6 {
        fill: none;
      }

      .cls-7 {
        fill: #ffff20;
      }

      .cls-8, .cls-9 {
        fill: #a67c52;
      }

      .cls-8 {
        stroke: red;
        stroke-width: 3px;
      }

      .cls-12, .cls-8 {
        stroke-miterlimit: 10;
      }

      .cls-10 {
        fill: #f9ffc6;
      }

      .cls-11 {
        fill: gray;
      }

      .cls-12 {
        stroke: #000;
      }
    </style>
    <radialGradient id="radial-gradient" cx="736.58" cy="396.94" r="92.14" gradientTransform="translate(-851.9 -275.04) scale(1.58 1.75)" gradientUnits="userSpaceOnUse">
      <stop offset="0.03" stop-color="#fff"/>
      <stop offset="0.05" stop-color="#fffff4"/>
      <stop offset="0.16" stop-color="#fdffbc"/>
      <stop offset="0.28" stop-color="#fcff8a"/>
      <stop offset="0.39" stop-color="#fbff5f"/>
      <stop offset="0.51" stop-color="#faff3d"/>
      <stop offset="0.63" stop-color="#faff22"/>
      <stop offset="0.75" stop-color="#f9ff0f"/>
      <stop offset="0.87" stop-color="#f9ff04"/>
      <stop offset="1" stop-color="#f9ff00"/>
    </radialGradient>
  </defs>
  <g class="cls-1">
    <g id="Layer_1" data-name="Layer 1">
      <polygon class="cls-2" points="1920 1102 0 1102 0 551 0 0 1920 0 1920 1102"/>
      <path class="cls-3" d="M1557.94,268c5.07,0,32-5.46,34.87,5.06s18.66,22.7,30.49,10.51-5.07-23-5.07-23,2.25-13.55,15.21-10.84,41.7,13.55,34.37,1.36-30.48-10.84-35-10.84-15.75-5.42-14.62-8.12-12.4-8.81-20.85-4.74-16.34,10.83-28.17,5.41-48.78-8.13-46.08-6.77,3.31,6.19,3.82,18.28S1552.87,268,1557.94,268Z"/>
      <path class="cls-3" d="M90.36,219.09c8.87,0,55.94-7.81,61,7.25s32.63,32.54,53.32,15.07-8.87-33-8.87-33,3.94-19.42,26.61-15.53,72.91,19.41,60.1,1.94-53.31-15.53-61.14-15.53-27.54-7.77-25.57-11.65-21.67-12.61-36.45-6.79-28.58,15.53-49.27,7.76S24.76,157,29.48,158.91s5.8,8.88,6.69,26.21S81.5,219.09,90.36,219.09Z"/>
      <path class="cls-3" d="M1008.44,120.11c5,.88,32.78-1.31,33.29,12.45s13.36,31.89,27.75,18.57.12-29.93.12-29.93,5.23-16.69,17.42-11,38.14,24.35,33.62,7.69-27.67-19-32.09-19.75-14.34-9.57-12.63-12.8-10.27-13.26-19.52-9.6-18.53,10.82-29,1.93-46.33-18.75-44-16.57,1.89,8.39-.29,23.74S1003.43,119.23,1008.44,120.11Z"/>
      <path class="cls-3" d="M1011.73,121.68c-7.91,0-49.88-9.7-54.38,9S928.26,171,909.81,149.36s7.9-40.93,7.9-40.93S914.2,84.36,894,89.17s-65,24.08-53.59,2.41,47.53-19.26,54.52-19.26,24.55-9.63,22.79-14.45S937,42.22,950.22,49.45s25.48,19.26,43.94,9.63,76.07-14.46,71.86-12-5.17,11-6,32.51S1019.64,121.68,1011.73,121.68Z"/>
      <g>
        <image class="cls-4" width="372" height="316" transform="translate(130 254)" xlink:href="screen_start_11.png"/>
        <g>
          <path class="cls-5" d="M315.75,274.5C406.46,274.5,480,336,480,411.75S406.46,549,315.75,549,151.5,487.55,151.5,411.75,225,274.5,315.75,274.5Z"/>
          <g>
            <path class="cls-6" d="M315.75,274.5C406.46,274.5,480,336,480,411.75S406.46,549,315.75,549,151.5,487.55,151.5,411.75,225,274.5,315.75,274.5Z"/>
            <g>
              <path class="cls-7" d="M315.75,277.83c.5-.43.21-1.42-1.15-1.19l-1,1.67Z"/>
              <path class="cls-7" d="M306.5,275c-1.58.91-3.33,2.43-2.21,3.88,1.49-1.68,1.9-1.07,3.53-3,1.36-.22,2.4.48,2.19,1.1.47-.44,2.12.31,2.84-.74a6.09,6.09,0,0,0-6.4-.1C305.93,275.77,306.4,275.3,306.5,275Z"/>
              <path class="cls-7" d="M184.52,325.83l.75-.5A2.72,2.72,0,0,0,184.52,325.83Z"/>
              <path class="cls-7" d="M148.77,401.46c0-.65-.12-.94-.27-1C148.55,401.09,148.61,401.6,148.77,401.46Z"/>
              <path class="cls-7" d="M146.58,416.14c0-.32.06-.59.09-.87A1,1,0,0,0,146.58,416.14Z"/>
              <path class="cls-7" d="M184.52,325.83l-1.94,1.3C182.88,327.61,183.68,326.56,184.52,325.83Z"/>
              <path class="cls-7" d="M288.62,280.7a3.7,3.7,0,0,0,1.11-.61c-.36.13-.71.24-1.08.34A1.31,1.31,0,0,1,288.62,280.7Z"/>
              <path class="cls-7" d="M212.3,300.79l.57-.38a4.06,4.06,0,0,0,.12-.88Z"/>
              <path class="cls-7" d="M237.48,286.8c-.63.2-.26,1.57-.24,2.23a2,2,0,0,1,.91-1.43A2.08,2.08,0,0,0,237.48,286.8Z"/>
              <path class="cls-7" d="M281.52,276l.76-.35C282.08,275.79,281.75,275.92,281.52,276Z"/>
              <path class="cls-7" d="M195.59,313a1,1,0,0,0-.52-.21A.71.71,0,0,0,195.59,313Z"/>
              <path class="cls-7" d="M347.21,283.71a1.09,1.09,0,0,0,0-.24C347.07,283.58,347,283.67,347.21,283.71Z"/>
              <path class="cls-7" d="M315.75,274.14l.45-.07a4.17,4.17,0,0,0,.1-.78Z"/>
              <path class="cls-7" d="M148.84,443.44a.53.53,0,0,0,0-.13C148.49,442.65,148.62,443,148.84,443.44Z"/>
              <path class="cls-7" d="M348.76,552.1c-1.48-.41-.42-1,.45-1.53s1.55-1.14-.6-1.49C349.09,549.57,345.2,551.81,348.76,552.1Z"/>
              <path class="cls-7" d="M287.89,280.62c-.37.07-.74.14-1.12.18A3.81,3.81,0,0,0,287.89,280.62Z"/>
              <path class="cls-7" d="M348.61,549.08h0l-.44-.06Z"/>
              <path class="cls-7" d="M179.61,497.82a2,2,0,0,0,0-.89C179.56,497,179.52,497.27,179.61,497.82Z"/>
              <path class="cls-7" d="M156.64,457.69l.25,1.13A5.18,5.18,0,0,0,156.64,457.69Z"/>
              <path class="cls-7" d="M198.34,512.93c.41.47.46.75,1.24,1.13a1.11,1.11,0,0,0-.1-.29A1.55,1.55,0,0,1,198.34,512.93Z"/>
              <path class="cls-7" d="M218.64,527.09c-.06-.16-.17-.31-.25-.47l-.71-.34Z"/>
              <path class="cls-7" d="M413.19,308.3a4.35,4.35,0,0,1-.22-1.65C412.73,307.69,409.68,306.11,413.19,308.3Z"/>
              <path class="cls-7" d="M288.5,279.92a.89.89,0,0,1-.61.7l.76-.19C288.69,280.21,288.68,280,288.5,279.92Z"/>
              <path class="cls-7" d="M206.09,504.94l2.75,2.45A28,28,0,0,0,206.09,504.94Z"/>
              <path class="cls-7" d="M467,451.11c.05-.28.12-.56.15-.84A1.3,1.3,0,0,0,467,451.11Z"/>
              <path class="cls-7" d="M217.85,513.53a5.77,5.77,0,0,0,1.2,2,1.49,1.49,0,0,0,.56-.07Z"/>
              <path class="cls-7" d="M413,306.63a0,0,0,0,1,0,0A0,0,0,0,0,413,306.63Z"/>
              <path class="cls-7" d="M390,298c3.16,1.49,2.25-.94,3.37-1.6,4.05,1.37,1.18,2.08,2.06,3.55,2.58.64,5.11.16,6.83,1.14,0,.34.27.62-.31.74a7.05,7.05,0,0,1,2.54.61,29.68,29.68,0,0,1,2.73,1.41,14.63,14.63,0,0,0,5.67,2.16,1,1,0,0,1,.11.62,4,4,0,0,1,.94-2.41c1.37.86,3.16.67,3,2-.81-.57-1.15-.21-1.74-.15l1.7.49c.31,2.28-2.26-.76-2.95.32,1.51.66,3.29,1.19,4.88,1.85a11.89,11.89,0,0,1,3.88,2.37c-.59,1.67-5.09-3-3.26.21-.92-.93-1.82-1.88-2.8-2.75,1,3.83-1.84-1.43-1.2,2.42a21.52,21.52,0,0,0,4.43,2.92,14.56,14.56,0,0,1,4.33,3c1.47,0,.57-1.33,2.05-1.36a7.49,7.49,0,0,1,3.19,2.44,6.08,6.08,0,0,1,.8,2.43c.23,1.53.3,2.81,3,3.71,1.74.1,3.61-1.07,5.54,2.37l-2.27.47a5.12,5.12,0,0,0,3.54,1.92c.9.15,1.73.43,3,2.74-1.18-.16-3.09-2.37-2.76-1.67,1.15,3.44,2.42.94,4.15,2.84l-.93,1.53c.88.94,1.83,1.86,2.83,2.79l1.52,1.4,1.48,1.48c1,1,2,2,3,3s1.88,2.19,2.77,3.34c-.6,0-1.6-.49-1.27.91,4.79,5.49,7.9,13.27,9.72,19.92l2.35,1.87c.21.57-.19,1.3-.7.79.49,2.7.91-.21,1.94.78.67,1.39,0,2.18-.8,1.44a31.08,31.08,0,0,1,2.27,3.64,30.61,30.61,0,0,1,2.18,4.57,38,38,0,0,1,1.51,4.85,17.6,17.6,0,0,1,.26,4.42l-.63-.86c.27,3.89,3.79,3.81,3,7.67l-.37-.66c.23,2.13.36,4.33.55,6.51.09,1.09.25,2.18.29,3.27s.07,2.16.1,3.22.05,2.11,0,3.14-.17,2-.3,3a17.63,17.63,0,0,1-1.34,5.29c1,.69.57,2.78.26,4.77s-.75,3.88.67,4.39a23.89,23.89,0,0,1-1.34,2.53l-1.07,1.54a13.88,13.88,0,0,0-1,1.9c-.2.42-.41.9-.65,1.48s-.49,1.26-.85,2c-.61,1.69,1.06,3.07.75,5.36l-1.49-.4c.25,1.14.39,2.25.58,3.4l-2.27.95-.3,2.13c.35-.76,1.22-1.46,1.6-1.19a10.07,10.07,0,0,1-2.24,4.81c-1,1.33-2.06,2.19-2.44,2.07-.31,1.27-.7,2.52-1,3.79s-.68,2.57-1.13,3.8c-.24-.22-.24-.64-.18-1.14s.16-1.11.2-1.66c-.17,2.23-.67,2.2-1.1,2.14s-.88-.19-1.15,1.82c.55-.29.68.67.91.9a13.73,13.73,0,0,0-2.73,3.32,32.67,32.67,0,0,0-2.53,4.56l-.57-1.1c-3.36,4.64-6.41,10.33-10.75,15.2,1.88-1.45,3,.13,1.83,1.73l-1.73-.48c-.05,1.61,1.77-1.14,1,1.63-.86.89-1.51.86-1.84.47a2.07,2.07,0,0,1-.1-1.87c-.48.9-1.06,1.71-1.59,2.57-.47-.2-.19-.88-.52-1.43,0,.78-1.22,1.43-2.36,2.19a8,8,0,0,0-1.55,1.24,2.29,2.29,0,0,0-.73,1.58L436,495c-2.34,2.24-3.92,4-5.51,5.52a54.06,54.06,0,0,1-5.07,4.74c.8,1.16-1,2.22-1.58,4.12-1.71,1-3.66,1.9-5.6,2.93l-3,1.56a30.72,30.72,0,0,0-3,1.82c-2.42,2.41-.18,1.55-1,3.05-.89-1-4.91,1.56-3.26-.48-1.2.77-2.17,1.41-3.06,2l-2.57,1.6c-1.7,1.08-3.46,2.44-6.53,4.43.94.13,1.84,0,1.62.54-1.11.77-2.95.83-3,.19l.26-.28a15.25,15.25,0,0,1-2.69,1.73,27.26,27.26,0,0,1-3.1,1.19c-1.08.34-2.19.63-3.3.9s-2.27.44-3.39.65c-4.47.87-8.71,1.41-11.38,3.7l.31-.24c-2,1.11-4,2.12-6.07,3.19-3,.63,1.54-1.43-.87-1.57a17.6,17.6,0,0,1-4.56,2,31.51,31.51,0,0,1-4.14.93,27.09,27.09,0,0,0-8,1.83,8.58,8.58,0,0,0-4.78-.9,25.68,25.68,0,0,0-2.9.32c-1,.11-2.05.27-3.11.45l-3.18.52-1.58.23-1.55.11a15.81,15.81,0,0,1-5.51-.47l.4.86c-1.56,1-2-.41-3.14-.59.18.69,1.76.77.78,1.27a66,66,0,0,1-10.36.32c-1.75-.08-3.5-.18-5.26-.34s-3.5-.45-5.26-.7l-2.62-.39-2.61-.51-5.19-1L286.5,539,284,538.4l-2.51-.66c-2.45-.59-3.38.4-4.44,1.13s-2.26,1.14-5.15-.63l2.14-1.19a38.67,38.67,0,0,1-7.72-1.06,73.47,73.47,0,0,1-7.53-2.17c-2.47-.85-4.94-1.65-7.36-2.54s-4.91-1.54-7.37-2.18c.7-.12.91-.57,1.81-.18a8.38,8.38,0,0,0-4.19-2.18c-1.68-.4-3.17-.6-3.4-.15-1.37-.78.05-1-.61-1.82a6.65,6.65,0,0,0-3.39-1.24c-1.24-.23-2.3-.55-2.52-1.33-.08-.27.7-.07,1.08,0-1.48-.14-5.58-3.16-5.09-1.32a24.13,24.13,0,0,0-4.64-2.76c-.77-.38-1.51-.75-2.2-1.16a8,8,0,0,1-1.81-1.51c-1.23.11-2.49-.93-3.64-1.81s-2.15-1.68-3-1c.76-.84-.31-2.18-1.89-3.37a17.25,17.25,0,0,0-4.86-2.66c1,0-1.17-1.84.15-2-.53-.41-1.06-.8-1.57-1.12a12,12,0,0,0-1.39-.84c-.84-.39-1.48-.43-1.68.17a7.27,7.27,0,0,0-2.23-3.09,24.75,24.75,0,0,0-2.89-2.06c-1.91-1.23-3.62-2.34-3.3-4.59a88.82,88.82,0,0,1-16.32-16c1-.52,2.18,1.09,3.34,2.63s2.42,2.91,3.27,2.06c-1.2-1.22-2.43-2.2-3.47-3.23l-3.07-2.9a22.05,22.05,0,0,1-2.74-3.16,25.65,25.65,0,0,1-2.43-4c-.57-1.71,1.31.41,2,.69a31.15,31.15,0,0,1-2.77-4.21c-.41-.73-.81-1.44-1.2-2.15s-.69-1.47-1-2.2c-.66-1.45-1.37-2.87-2.07-4.26a31.68,31.68,0,0,0-2.24-4.08c.2-.06.66.47,1.06,1-.52-1.09-.74-2.7-1.65-2.21l.7,1c-.32,1.16-1.52.35-2.69-.81s-2.27-2.65-2.67-2.63c1.72.52,1.4-1,1.23-2.39s-.12-2.66,2.09-1.65c-.41-.69-1.12-1.51-1.74-1.14-.12-1.2.17-1.66,1.23-.73a8.5,8.5,0,0,0-1.92-3.08,5,5,0,0,1-1.33-3c.49-.1.84.63,1.49.89a16.64,16.64,0,0,1-1.9-2.79,9.82,9.82,0,0,1-.7-1.79,10.14,10.14,0,0,1-.24-1.05,10.87,10.87,0,0,1-.09-1.19c.33.15.65-.3.79.68a24.55,24.55,0,0,0-1-3.89c-.43-1.23-.92-2.41-1.25-3.64a18.72,18.72,0,0,1-1-8.21c2.22,1.77.65-2.16,2.51-2.52-.11-.55-.24-1.1-.32-1.66l-.23-1.66-1,1.33a20.06,20.06,0,0,0-.44-4.22,17.35,17.35,0,0,1-.23-2,6.59,6.59,0,0,1,.31-1.92c.2.76.36,1.5.59,2.24,0-1.84.09-3.68.13-5.53l-1,3.06c-.68-3.08-2.38.13-1.5-3.82.06.42.12-.34.36-1.37a7.44,7.44,0,0,1,1.37-3h0c-.33-1.54-.82-3.2.15-5.29.7-.44,1.93.86,2.39.57-.61-.85-.35-2.58-.1-4.36s.69-3.56.12-4.68a1.3,1.3,0,0,0,1.39.84l-.89-1.51c.76-1.23,1-1.36,1.69-.92,1.45-3.88-2.72.54-.18-3.84,0,.4.22.29.14,1.11a61.14,61.14,0,0,0,2.32-6.83,23.54,23.54,0,0,1,2.67-6.38c2.27-.43-1.26,3.77.83,3,1.24-3,2.06-6.31,3.33-9.45a35.33,35.33,0,0,1,4.47-8.82l-.8.9c-.88-1.09,0-2,1.28-2.88s2.81-2,3.22-3.7c-.29.77.61,1.71.49,1.36.68-.84,1.36-1.7,2-2.63s1.27-1.93,1.9-3,1.34-2.22,2.09-3.44,1.57-2.54,2.51-3.92c0,.35,0,.71,0,1.07a29.5,29.5,0,0,0,3.51-3.13l1.79-1.8c.6-.56,1.2-1.06,1.75-1.49.11-1.05,1.34-2.08-.05-2.12a15.2,15.2,0,0,0,3-1.46,20,20,0,0,0,2.54-1.81,54,54,0,0,0,4.24-4.33,41.3,41.3,0,0,1,4.2-4.17,13.79,13.79,0,0,1,5.25-2.57c-.73.54-1.41,1.76-.82,1.34,1.59-1.47,3.29-2.8,5-4.16-1.07-.68-1.1-.12-2.74-.11a7.69,7.69,0,0,1,2.93-3.38c-2.05,2.26,1,1.54,2.42,1.4-.37-.19-.21-.74-.49-1,4,0-.72-2.28,4-3.49l.09.66c.68-.58,1.25-1.26,1.9-1.87a7.74,7.74,0,0,1,2.22-1.52c1.33.8-1.34,1.43-.91,2.44,2.27-1.28,3.39-4.74,6.16-4.61-.86.8-2.26,1.61-3.08,2.45,3,.16,3.08-.33,4.93-.93l-.19.05,4.3-1.27-1.2.1a5.61,5.61,0,0,1,1.59-2.54,9.49,9.49,0,0,1,2.3-1.32,12.84,12.84,0,0,0,5.19-3.26c-3.22,3.62-.2,1.41.05,2.94,1.21,0,3-.17,2.68.4,1.52-1.86,3.53-.37,5.71-3,.29.42,2.13-.65,2.07.66,2.44-1.21-.87-.61-.85-1.26a7.83,7.83,0,0,1,3.09-1.46c.59-.15,1.2-.28,1.84-.38l2-.23a18.09,18.09,0,0,0,8.22-2.58,27,27,0,0,0,5.11-3,21.8,21.8,0,0,1,5-2.65c1.76.46-1,2-1,2a14.19,14.19,0,0,0,3.64-.19,16.66,16.66,0,0,0,3.39-1c-.44.5.13.78,1,1.21,1.94-.41,1.07-2,3.77-1.61a8.1,8.1,0,0,1-1.71,2.21c1.12-.41,2.23-.87,3.36-1.33a33.93,33.93,0,0,1,3.46-1.26c.72.77-1.33,1.43-2.11,2.07,1.33-.33,3.05-.71,4.55-1.18s2.75-.93,3.13-1.63l-1.79-.37c1-.13.6,1.12-.12,1.41-2.23,1.21-3.39-.13-3.58-.62l1.7-.5c-1-1.33-2.76-1-4.67-.37-1,.33-2,.74-2.92,1.1a10.62,10.62,0,0,1-2.78.8l1.16-2.28-3.32,2.24c-.83-.42-1.54-1.49.14-2.05-2.67-.63-2.11,1-4.44.29-.27-.13-.18-.25,0-.37l-2.32,1.08c.39-.52-.68-1.37.88-1.36a10.55,10.55,0,0,0-5.38,1.17c-1.35.64-2.35,1.21-3.35.62l.33-.21c-5.87,2.12-.24,1.63-4.29,4.43-1.31-.95-2.63-1.87-4-2.79l-.18,1.63c-.63.12-1.88.36-1.83-.29-2,1.65.58.52-.47,1.85-1.68-.29-3.64.56-5.35,1.15s-3.19,1-3.92-.05c-.66,1.43,3.08-.08.24,1.71-1.77-2.15-3.39,1.75-6.43,1.61.31-1.56,3.09-1.84,0-2-.77,2.66-5.28,1.62-7.33,3,.32.87-.82,1.49-2.4,2.31a47.65,47.65,0,0,0-5.34,2.81c0-.35-1.81.3-4,1.21l-3.5,1.43c-1.17.49-2.25,1-3.14,1.32l-.06-.32c.32,2-3.21,3.55-5.3,5.46-.5-1-.32-1.62.7-2.88l-2.22,1.47a5.15,5.15,0,0,1-2,2.66l-.21-1.51a30.28,30.28,0,0,0-4,3.72,21,21,0,0,1-5,3.69c.61,1.15,4.95.62,1.82,4.21-.57-.44-1.45-1.25-.65-2.25-.26.33-.77,1.35-1.6,1.63l.76-2.09c-1.92.87-.23,1.43-1.57,2.36-.6-.79-1.4.2-1.71-.55.27-.33,1.38-.57,1.63-1.27a16.61,16.61,0,0,1-2.57,1.36,5.17,5.17,0,0,1-2.14.58c.49.32.86,1-.07,2-2.59,2.37-1.69-.1-3.59.89-.2,1-2.28,2.13-1.32,3.23-.74.71-1.36.35-1.92.34-.42.89-2,2.34-3,3.69s-1.61,2.34-.34,2.14l.4-.27c0,.08-.11.16-.16.26h0a18.91,18.91,0,0,1-2.72,3.63,43.18,43.18,0,0,1-3.19,3.31L178,333.78c-.53.56-1,1.12-1.56,1.69a26.28,26.28,0,0,0-2.72,3.59l-.39-.29c-1.56,3.22-4.25,6.63-4.59,9.37-.54.88-2.06,1.62-2.33.94-1.12,2.49-.7,3.05-3.29,6.09.53-2.81-1.13.47.77-2.76-2,2.9-3.23,3.24-3.6,7.28-.57-1.72-2.6,1.75-2.94,3.45.59-.65,1.25-1.26,1.87-1.89-.68,1.77-1.38,3.27-2.11,4.79L156,364.55a13.62,13.62,0,0,0-2.31,4.76,40.87,40.87,0,0,0-.69,4.86c-.08.78-.19,1.54-.28,2.29a14.88,14.88,0,0,1-.4,2.17,8,8,0,0,1-2.23,3.81c.62,2.14,1.85-3.63,2.7-1.61a10.73,10.73,0,0,1-1.14,2.27c-.44.73-.9,1.42-1.36,2a13.73,13.73,0,0,0-1.85,2.79,5,5,0,0,0,0,4.57,6.31,6.31,0,0,1,.3,4.73c.71-.54,2.25-.89,2.5,2.66-.51,3.22-2.85,3.85-3.13,1.7,0-.81.24-1.18.44-1.12-.11-1.1-.24-2.55-1-1.29l.55.5c-.77,1.59-1.09,6.24-2,5.1.5,2.59.92,1.13,1.33-.73a22.41,22.41,0,0,0-.6,5.54c0,.85,0,1.71,0,2.63a27.4,27.4,0,0,1-.12,3c.3-.73,1-1.39,1-.69-.52,6.53,1.15,2.82,1.77,7.14-.67,2.55-2.23-.7-1.07,3.64-.31,2.76-1.53.77-2.09-.28a11,11,0,0,1,.43,1.47A10.66,10.66,0,0,1,147,428a14.7,14.7,0,0,1,.07,2.72,27.67,27.67,0,0,0-.24,4.47c-.31-.68-.62-1.36-.88-2.06a20,20,0,0,1,.94,3.35l.91-1.44c.06,1.28.28,2.33-.21,2.41,1,1.11,1.73-1.37,3.3.9-.3,1.79,1.87,4.73.49,5.7-.88-5.22-1.38,1-2.8-3.3a9.17,9.17,0,0,1,.81,3.11c-.11.23-.36-.09-.54-.4,0,2.66.6,3.11,1.35,3.52a4.12,4.12,0,0,1,1.21.87,6,6,0,0,1,1.3,2.4c-1.06-.36-1.21,1.69-.75,2.45-.67-2,1.08-1.43,2.34.16a5.61,5.61,0,0,0,1.15,3.08,5.58,5.58,0,0,1,1.2,1.77l-.45-2c1.08.3,1.59,1.87,2.71,3.88-.56.46-1.22-1.75-1.19-.87,1.17.9,1.41,2.35,1.66,4s.48,3.42,1.77,4.78c.26,1.74-1.4.9-1.06,2.39,2.95,3,1,4.53,4.09,7.7.37-1.68,0-1.69,2.57.24l-2.18-2.75-1.09-1.38-1-1.44c1.19,1.05,2.48,2,3.75,3a23.77,23.77,0,0,0-1.92-2.51,9.26,9.26,0,0,1-1.37-2.12c1.86,1.39,1.49,1.33,1.88,0a3.84,3.84,0,0,0,.49,2.17,9.53,9.53,0,0,0,1.39,1.69,7.71,7.71,0,0,1,2.53,3.86l-2.54,1.51c.85,2.46,2.46,4.09,4.19,5.82a28.53,28.53,0,0,1,5.51,6.17c-.33-.62-.6-1.3-.89-1.95,1.4,0,2.64,3,4.36,4.26-.87.49-.3,1.73-.17,2.82.42-.52,3.2,3.53,5,2.61l1,3c3.43,4,6.15,2.18,9.66,5.63-1.84-.18-.59,1.85-3.63.2,1.26,1.12,2.27,2.25,2.74,1.75.17.55,1.26,1.07,2.37,1.65s2.31,1.15,2.61,2c.82.1,1.65-.57,3,.65,0,.29-.3.38-.3.38.3-.37,2.69,1.27,2.07-.59a10,10,0,0,0,2.8,3.65,26.86,26.86,0,0,0,4.17,3c1.48.91,3,1.79,4.19,2.74a9.87,9.87,0,0,1,2.94,3l2.55,1.23,1.32.65,1.34.61c1.79.8,3.51,1.62,5,2.36-.32.16-.23.43-.73,0a3.34,3.34,0,0,0,3.76.82c1-.29,2.05-.54,4.13,1,1.69,2.58-2.82-.4-1.6.86-.37,1.6,1.07,2.25,3,2.71s4.1,1,5.35,2.53l-.85-.16c1,1.07,2.67,1.32,4.53,1.59.94.13,1.92.25,2.93.45.5.1,1,.22,1.51.37a12.84,12.84,0,0,1,1.53.48s-.3.2-.19.46a20,20,0,0,1,6.17.15c2.29.28,4.7.67,6.74,1-1.57.88-2,.14-1.57,1.6,1.84.33,0-2.13,3.67-1.5,1,1,3.44,2.15,3.48,3.58l-3.44-.74c1.32,2.15,4.45,1,6.18,1.72l-.4.71a14.92,14.92,0,0,0,5.63-.08,13.43,13.43,0,0,1,2.41-.21,23.22,23.22,0,0,1,3.42.34l-.5-.67c3.4-1.46,2.45,1.47,5.75.5l.69,2.1,5-.65c1-.13,2.11-.24,3.16-.32s2.08-.21,3-.24c-2.2,1.4-6.62,1.61-9.43,2.2,2.06.21,7,.66,8.19-.31-.85.15-1.94.54-2.73.14a17.48,17.48,0,0,1,4.52-1.4,25.05,25.05,0,0,1,5.56-.2c-.45,1.91,2.23,2.21,5.38,2.41s6.77.12,8.31,1.59a51.79,51.79,0,0,1,11.1-.82c1.9,0,3.85-.05,5.85-.11,1,0,2-.09,3.06-.17s2.07-.26,3.13-.44c-3.42-2.5,2.47-.45,1.49-3.4,1.92-.48,2.67-.54,2.88-.37,2.06.28,4.13.46,6.22.69,1.59.6-1.73,1-1.42,1.66,4.36-.61,2.06.92,5.1,1.16-.81-.94,1.16-1.89,3.7-2.06l-3.75-.56a6.89,6.89,0,0,1,5.67-.86,7.65,7.65,0,0,0,2.36.24,8.71,8.71,0,0,0,3.34-1.26l-1.64,1.46c1.46-.72,4.32-1.46,7.05-2.57s5.35-2.48,6.4-4.15c.64.14,1.62.66.39,1.36a53,53,0,0,0,10.83-5.33c3.51-2,6.7-4,9.7-4.61l-.19.92c1.2-.8,1.56-2.36,3.47-2.53.07.32-.15.93.45.66.54-.6,2.7-2.9,4.53-3.46-.31.52-.64,1-1,1.52a18.44,18.44,0,0,0,4.37-2.46,23.13,23.13,0,0,0,3.22-2.88,56.93,56.93,0,0,1,5.88-6.13c.62.91,2.22.66,4,0a26.84,26.84,0,0,0,2.69-1.22c.85-.46,1.63-1,2.26-1.34l.12.31c7.07-5.18,10.16-10.95,15.06-17.24a15.36,15.36,0,0,0,4.19-2.73c1.43-1.32,2.94-3,4.48-4.67s3-3.68,4.47-5.46,2.85-3.62,4.3-5.08c-1,.79-1.31-1.13-.69-2.42,1.38-1.36,1.41-5.21,3-3.91l-.39.55a4.56,4.56,0,0,0,3.12-2.3c.85-1.3,1.57-2.89,2.32-4.23l-2.1-1.66c3.53-2.6,5.46-7.55,6.78-12.11.76-2.25,1.19-4.49,1.89-6.3a11.9,11.9,0,0,1,1.14-2.4,5.22,5.22,0,0,1,1.42-1.67c-.15-2.05.57-4.32.32-6.33l1.36.43c.73-2.58,1.31-4.51,1.76-6.64a73.53,73.53,0,0,0,1-7.76c.29.49.6,1,.85,1.47.49-3.77-3.59-5.12-3.4-8.45l2.14-.91c0-1.61.2-3.23.39-4.85l.14-1.22.08-1.23.12-2.45c0-.81.05-1.63,0-2.45a14.21,14.21,0,0,0-.19-2.43,20.86,20.86,0,0,0-1.25-4.74,1.29,1.29,0,0,1,1.12,1.24c-.06-.77,0-1.9-.11-3.14s-.21-2.6-.4-3.81a9.3,9.3,0,0,0-.83-2.94c-.42-.65-.94-.89-1.6-.49.92-.21.62-1.86-.11-3.85a27.14,27.14,0,0,0-1.33-3.09c-.55-1-1.07-1.95-1.5-2.73l1.49.15c-2.53-2.35-2.9-2.32-4.7-6-.13-1,.79-1.16.86.17a3.64,3.64,0,0,0-1.22-2.68,5.4,5.4,0,0,1-1.46-3.11l1.37,1c-1.14-3.1-1.49-2.69-3.12-4a6.28,6.28,0,0,1-.84-1.64,12.24,12.24,0,0,1-.63-2c-.28-1.36-.29-2.64.17-3.14a4.65,4.65,0,0,1-3.16-3.08c.3-.45.9,0,1.2.28a15.91,15.91,0,0,0-3.43-5.67,9.24,9.24,0,0,1-2.75-4.55,1.06,1.06,0,0,0,.36-1c2.28,3.75,4,6.81,3.74,6.6,1.16-.64-.5-3.84,2.5-2.27-2.37-2-6.62-5.1-8.15-8.22a1.58,1.58,0,0,1,.11-.63l.32.21a4.65,4.65,0,0,0-1.42-1.69,11.16,11.16,0,0,0-1.39-2.55c.6-.95-2-3.61-3.1-5-1,1-2.32-.91-1.82,1.47-.1-.27.36.15,1.1,1.05a3.54,3.54,0,0,0,.58.5l-.17,0c.73.89,1.68,2.07,2.74,3.42a5.27,5.27,0,0,1-3.34-3.47c-1.25-.17-2.58-.35-3.29-.48,0-3-2.21-7.31-1.82-8.55-2.16-1.7-4.38-4-6.78-5.72a27.27,27.27,0,0,0-3.49-2.28,8.68,8.68,0,0,0-3.36-1c-1.36-.74-.81-1.71-1-2.4.83.37,1.59,1.09,2.2,1.12-1.38-.73-3.08-2.22-4.75-3.28s-3.2-1.82-4-1.31c-2.48-3,2.74,0-1.59-3l.91,0a18.13,18.13,0,0,0-5.5-4.69,44,44,0,0,0-6.21-2.5c-1-.38-2.11-.73-3.19-1.11a26.38,26.38,0,0,1-3.17-1.37,23.42,23.42,0,0,1-6.28-4.66c.59.58.89.86.88,1.21-5.3-3.85-11.64-6.25-17.89-8.53-1.58-.52-3.16-1.06-4.72-1.61l-2.34-.85c-.78-.26-1.56-.53-2.33-.81-1.55-.56-3.08-1.16-4.57-1.83s-3-1.29-4.46-2.05a6.58,6.58,0,0,0-3.6-.77c-.89.14-1.66.49-2.84.67l-.41-1.65-4.09.82c-2.74,0-4.83-1.25-7.16-2.51a13.82,13.82,0,0,0-3.78-1.5,11.11,11.11,0,0,0-4.69-.06l.73,1.14a19.86,19.86,0,0,0-2.21-.33l-2.49-.18c-1.57-.14-2.77-.36-2.51-.92-.27.16-.9,1-1.8.34v-.79c-2,.2-4.07.61-6.08.91-2.29-.43-2.07-1.21-2.12-1.94s-.37-1.51-3.8-1.64c-2.58.25-7.27,2.15-6.31,2.7,1,.06,2.59.55,2.65,1.34l-2.29.36c-.43,2.32-2.09,4.67,3.32,6.41l3.83-1.34c.4.38.79.77,1.18,1.17-1.06,0-2.13,0-3.19,0,1.77,1.1,2.94.18,4.26-.36a2.5,2.5,0,0,0,1.51,1.34l3.87-2c.38.94-1.8,1.7.64,2.36,1.83-.89-1.5-2.19,1.44-2.6,1.73,1.25,1.1,2.05,3.32,1.37.23.63-.26,1-1.12,1.14,1.95-.5,5,.18,6.13-.85,1.69,1.57,6.41.61,5.86,2.76a11.29,11.29,0,0,1,5.31-.86c-1.81,1-.22,1.34,1.64,1.77s4,1.06,3.27,2.32c1.39-.89,3.52-.67,5.82-.24a30.38,30.38,0,0,0,6.95,1.15c-.28.11-.83.36-1.15.14,2.21.8,2.61,1.78,3.9,2.65.87-1.75,4.51-1.11,6.77-1.52,2.05,2.79-2.42,1.54-2.17,3.58.39-1.55,5.17.26,4.74-1.32,1.63,1.87,1.57,1.2,2,3.11,1.27-2.13,2,.41,4.28-.27,2.43,2.37-.16,2.4,3.31,3.13.58.7.09.91-.54.95A10.81,10.81,0,0,1,390,298Zm65.55,48.17,0,0-1-1.37Zm3.79,5.86c-.4-.75-.95-1.66-1.54-2.61.28-.47.84-.51,1.19.11C458.49,349.38,459.11,350.94,459.31,352Zm-.62-18.12c.88.82.9,1.31.77,1.61-.36-.43-.8-.92-1.39-1.54a1.77,1.77,0,0,0-.23,0A1.89,1.89,0,0,1,458.69,333.91Z"/>
              <path class="cls-7" d="M455.94,333.37a4.63,4.63,0,0,1-.37-.32,5.87,5.87,0,0,0,.18.75l.6.05Z"/>
              <path class="cls-7" d="M185.39,325.24l-.12.09a.7.7,0,0,1,.36-.1A1,1,0,0,1,185.39,325.24Z"/>
              <polygon class="cls-7" points="468.83 443.7 469.17 443.79 469.03 443.13 468.83 443.7"/>
              <path class="cls-7" d="M219,304.07a1,1,0,0,0,.63.05A1.17,1.17,0,0,0,219,304.07Z"/>
              <path class="cls-7" d="M233.79,296.21l2.35-.58A17,17,0,0,0,233.79,296.21Z"/>
              <path class="cls-7" d="M245.82,291.56a1.78,1.78,0,0,0,0-.65h0Z"/>
              <path class="cls-7" d="M165,453.33a2.42,2.42,0,0,0,.24.42C165.93,454.7,165.55,454,165,453.33Z"/>
              <path class="cls-7" d="M155,394.65a14.19,14.19,0,0,1,.37,2C155.58,395.62,155.74,394.8,155,394.65Z"/>
              <path class="cls-7" d="M205.8,504.67h0l.32.26Z"/>
              <path class="cls-7" d="M155,399.47a5.69,5.69,0,0,0,.33-1.47,5.9,5.9,0,0,0,0-1.32c-.12.43-.25.9-.34,1.37A5.22,5.22,0,0,0,155,399.47Z"/>
              <path class="cls-7" d="M300,279.53l.63,0a.3.3,0,0,1,.05-.23Z"/>
              <path class="cls-7" d="M300.69,279.32l.68-.21C301.05,279.13,300.78,279.16,300.69,279.32Z"/>
              <path class="cls-7" d="M302.79,278.67l-1.42.44C301.87,279.08,302.49,279.09,302.79,278.67Z"/>
              <path class="cls-7" d="M283,281l-.1.54A.84.84,0,0,0,283,281Z"/>
              <path class="cls-7" d="M278,282.14c1.24-.12,3.24.48,4.87-.16l.09-.43C282.28,282.45,279,281.07,278,282.14Z"/>
              <path class="cls-7" d="M255.14,281.64c1.47-.32,2.92-.71,4.39-1-.9-.31-2.12-.72-.18-1.41C253.44,279.4,260.8,280,255.14,281.64Z"/>
              <path class="cls-7" d="M241.79,285.72c2.13-1.18-.33-.71-.33-1.05C240.23,285.74,239.94,286,241.79,285.72Z"/>
              <path class="cls-7" d="M165.49,349.7l-1-.86C163.69,350.55,164.94,349.11,165.49,349.7Z"/>
              <polygon class="cls-7" points="163.09 369.61 164.47 368.31 163.7 367.09 163.09 369.61"/>
              <polygon class="cls-7" points="150.78 377.32 150.83 376.46 150.42 379.68 150.78 377.32"/>
              <path class="cls-7" d="M214.2,525.87l.37-1.64C213.36,523.77,212.17,525.11,214.2,525.87Z"/>
              <path class="cls-7" d="M283.39,550a3.87,3.87,0,0,0,4,1.13C285.78,550.79,284.25,549.94,283.39,550Z"/>
              <polygon class="cls-7" points="473.57 466.01 473.39 467.62 474.23 464.83 473.57 466.01"/>
            </g>
          </g>
        </g>
      </g>
      <polygon class="cls-8" points="1921 214.19 3091.59 154 3128 464.68 1921 433.04 1921 239.37 1921 214.19"/>
      <g>
        <path class="cls-9" d="M911.79,742C900,739.34,782,1075,782,1075l72.39,31L1011,691.37l-78.3-16.88Z"/>
        <polygon class="cls-9" points="255.56 365.66 366 850 1602 776 1494 110 255.56 365.66"/>
        <g>
          <path d="M431.14,399.13l4.53,20.43L372,435.7l6.51,28,51.12-12.44,6.41,25.29-51.63,13.28,14.54,64-21.82,5.61-31.8-139.32Z"/>
          <path d="M491.83,387.87,520,534.78l-31.84,5.62-26-147.3Z"/>
          <path d="M567.31,489.44a26.48,26.48,0,0,0,1.47,3.59,20.1,20.1,0,0,0,1.43,2.34,7.64,7.64,0,0,0,1.65,1.7,21.64,21.64,0,0,1,2,1.78,9.37,9.37,0,0,0,4,2.27,12.6,12.6,0,0,0,4.13.29,31.29,31.29,0,0,0,4.72-.84q2.56-.63,5.45-1.14a18.77,18.77,0,0,0,7.83-3.19,26.76,26.76,0,0,0,5.67-5.45A20.53,20.53,0,0,0,609,484.4a12.91,12.91,0,0,0,.56-6q-.24-1.35-.51-3.39c-.18-1.36-.41-2.71-.71-4.05a18.28,18.28,0,0,0-1.27-3.76,6.36,6.36,0,0,0-2.09-2.64c-.84-.6-1.85-1.33-3-2.21a20.85,20.85,0,0,0-4.31-2.39,32.42,32.42,0,0,0-6.11-1.79,33.11,33.11,0,0,0-8.6-.39q-7.32.56-12.07.46a37.15,37.15,0,0,1-8.13-.93,26.73,26.73,0,0,1-6.1-2.26q-2.71-1.42-6-3.54a28.84,28.84,0,0,1-10.39-11.61,53.92,53.92,0,0,1-5.19-15.22q-1-7.62-1.4-15a28.66,28.66,0,0,1,2.44-13.74q2.88-6.3,10.66-11.1t23.09-7.32a147,147,0,0,1,19.62-.72,29.77,29.77,0,0,1,12.79,3.12,23.6,23.6,0,0,1,8.74,8.52,86.31,86.31,0,0,1,7.12,15.15l-22.66,4a20.39,20.39,0,0,0-5.27-7.51,18.33,18.33,0,0,0-6-3.57,20.32,20.32,0,0,0-5.24-1.07,18.56,18.56,0,0,1-2.68-.22,20.69,20.69,0,0,0-6.95.58,23.44,23.44,0,0,0-5.93,2.39,18,18,0,0,0-4.47,3.57,14.85,14.85,0,0,0-2.67,4,16.31,16.31,0,0,0-1.07,5.52,45.46,45.46,0,0,0,.23,5.52,34.26,34.26,0,0,0,.85,4.81,12.43,12.43,0,0,0,1.08,3,13.69,13.69,0,0,0,3.74,5.14,26.28,26.28,0,0,0,5.36,3.59,28.8,28.8,0,0,0,6,2.28,26.36,26.36,0,0,0,6,.85c4.55.19,8.15.29,10.81.32s4.91.14,6.74.34,3.42.43,4.8.68a49.89,49.89,0,0,1,5.3,1.38q12.14,3.7,19.28,11.53a37.59,37.59,0,0,1,8.76,18.67,42.44,42.44,0,0,1-2.86,24.56,44.45,44.45,0,0,1-16.87,19.71c-1.89,1.21-3.26,2.11-4.11,2.72a8.93,8.93,0,0,1-2.55,1.33,25.2,25.2,0,0,1-3.43.79l-7,1.24q-8.28,1.46-13.88,2a58.08,58.08,0,0,1-9.73.28,22.81,22.81,0,0,1-7.44-1.7,46.59,46.59,0,0,1-7.19-4,72.22,72.22,0,0,1-6.06-4.64,17.28,17.28,0,0,1-3.46-4.12,23.56,23.56,0,0,1-2.25-5.39q-.93-3.18-2.16-8.06Z"/>
          <path d="M668.79,360.84l15,57,38.35-10.19-11.47-56.11L739.15,345,771.4,484.79l-28.52,6.51L729.17,433l-39.63,9.77,11.51,58-25.76,4.82L643.13,365.73Z"/>
          <path d="M771.24,354.55l36.51-6.44,3.84,21.76-1.05,27.73L785.72,402l-10.64-25.66Z"/>
          <path d="M859.57,325.44l38.27,60.84-5-64.2,27.84-2.5,12.66,141.76L911,460.92l-42.13-59.05,5.4,64.78-27.35,2.13L834.1,327.15Z"/>
          <path d="M1064.27,287.49a55.82,55.82,0,0,1,8.37-.92,25.48,25.48,0,0,1,6.56.65,27.89,27.89,0,0,1,5.65,2.07c1.79.88,3.7,2,5.71,3.21a36.55,36.55,0,0,1,9.91,8.87,29.14,29.14,0,0,1,5.39,12.16q.53,3,1.51,7c.65,2.67,1.19,5.38,1.62,8.15a67.75,67.75,0,0,1,.77,8,14.6,14.6,0,0,1-1,6.39c-.43,1.06-.71,1.73-.85,2a7.62,7.62,0,0,1-.66,1c-.3.39-.81,1.11-1.52,2.17s-1.86,2.86-3.45,5.42q6.68,2.07,12.33,11a64.37,64.37,0,0,1,8.26,21.59,35.54,35.54,0,0,1-.93,19.45,36.28,36.28,0,0,1-10.52,15.48A6.76,6.76,0,0,0,1110,423c-.18.4-.36.78-.55,1.12a4,4,0,0,1-1.22,1.19,14,14,0,0,1-3.4,1.48q-13.47,4.59-17.88,5.37l-50.53,10.49-28.55-143.5Zm5.3,60.54q6.63-1.36,9.67-4.07a11.84,11.84,0,0,0,3.85-6.29,19.08,19.08,0,0,0,.09-7.62c-.49-2.82-1-5.63-1.49-8.45a15.39,15.39,0,0,0-5.72-9.33q-4.52-3.51-13.73-1.61l-26.58,5.42,7.78,37.3Zm11.92,62.89a26.22,26.22,0,0,0,8.93-3.57,21.74,21.74,0,0,0,6.12-5.76,19,19,0,0,0,3.08-6.71,16.79,16.79,0,0,0,.2-6.76,13.52,13.52,0,0,0-2.83-5.8,22.53,22.53,0,0,0-5.84-5.23,26.31,26.31,0,0,0-8.18-3.29,23.08,23.08,0,0,0-10,0l-24.74,5.85,6.89,37Z"/>
          <path d="M1214.15,262l3,21.35-56.49,10.33,11.66,44.58,45-11.74,5.46,22-45.38,7.63,10.85,43.15,51.94-10.92,3.32,14.62-82.86,16.46L1133.05,279Z"/>
          <path d="M1330,241.57l3,21.35-56.49,10.33,11.66,44.58,45-11.74,5.46,22-45.38,7.63,10.85,43.15L1356.06,368l3.32,14.62-82.86,16.47-27.65-140.51Z"/>
          <path d="M1371.85,234.55l52.19-6.33q4.74-.47,7.55-.58a34,34,0,0,1,4.83.07,19.45,19.45,0,0,1,3.85.76,38.25,38.25,0,0,0,4.4,1,30.53,30.53,0,0,1,17.58,10.34,24.14,24.14,0,0,1,3.22,5.65,57.81,57.81,0,0,1,2.7,7.68q1.14,4.07,2,8.19t1.19,7.3a40.2,40.2,0,0,1-2.76,19.58,35.56,35.56,0,0,1-11.63,14.48,21.86,21.86,0,0,1-7.22,3q-4.92,1.28-9.37,2.81.69.81,3.17,3.52c1.64,1.81,4.25,4.74,7.8,8.78s8.29,9.49,14.2,16.36,13.35,15.79,22.33,26.75l-28.12,3-31.89-35.73a49.81,49.81,0,0,1-3.43-4.21q-2-2.62-4-5.18c-1.38-1.7-2.64-3.23-3.77-4.57a16.28,16.28,0,0,0-2.55-2.62,13.1,13.1,0,0,1-1.78-.89,2.26,2.26,0,0,0-1-.39c-.25,0-.62,0-1.11,0a17.46,17.46,0,0,0-2,.25l-3.75.29,4.52,56.14-23.78,1.87Zm47.68,48.52c.48-.08,1.43-.2,2.86-.36s3-.39,4.74-.7,3.47-.66,5.37-1.09a35.49,35.49,0,0,0,4.77-1.35,11.33,11.33,0,0,0,6.61-4.82,12.24,12.24,0,0,0,2.11-8.3c-.09-1.22-.2-2.33-.31-3.33a10.62,10.62,0,0,0-.81-3A14.7,14.7,0,0,0,1443,257a18.14,18.14,0,0,0-3.66-3.39,10.15,10.15,0,0,0-4.21-2,25.07,25.07,0,0,0-5.26-.65c-1.86-.05-3.69,0-5.49.13s-3.47.24-5,.32l-20.27,2.28,2.85,31.4Z"/>
          <path d="M476.63,619.53l4.95,22.86-35.24,8.9,28.23,115.93-21.67,5.39L421.45,657.35l-33.4,9.88-5.26-23Z"/>
          <path d="M514.88,613.52l52.2-6.32c3.15-.32,5.67-.51,7.54-.59a34.18,34.18,0,0,1,4.84.07,19.49,19.49,0,0,1,3.84.76,38.75,38.75,0,0,0,4.4,1,30.58,30.58,0,0,1,17.59,10.34,24.87,24.87,0,0,1,3.22,5.65,59.25,59.25,0,0,1,2.69,7.68q1.14,4.07,2,8.19t1.19,7.3a40.2,40.2,0,0,1-2.76,19.58A35.48,35.48,0,0,1,600,681.69a21.68,21.68,0,0,1-7.21,3q-4.92,1.27-9.38,2.81.69.81,3.17,3.52c1.64,1.81,4.25,4.74,7.8,8.78s8.29,9.49,14.2,16.36,13.35,15.79,22.33,26.75l-28.11,3-31.9-35.73a49.81,49.81,0,0,1-3.43-4.21c-1.29-1.75-2.64-3.48-4-5.18s-2.64-3.23-3.77-4.58a15.9,15.9,0,0,0-2.55-2.6,14.92,14.92,0,0,1-1.78-.9,2.26,2.26,0,0,0-.95-.39c-.25,0-.62,0-1.11,0a17.46,17.46,0,0,0-2,.25l-3.75.29L552,749l-23.78,1.87ZM562.56,662c.48-.08,1.43-.2,2.86-.36s3-.39,4.74-.7,3.47-.66,5.37-1.08a38.22,38.22,0,0,0,4.77-1.35,11.44,11.44,0,0,0,6.62-4.83,12.29,12.29,0,0,0,2.1-8.3c-.09-1.22-.19-2.33-.31-3.33a10.62,10.62,0,0,0-.81-3,14.7,14.7,0,0,0-1.84-3.11,17.85,17.85,0,0,0-3.66-3.38,10,10,0,0,0-4.21-2,25,25,0,0,0-5.26-.65c-1.86,0-3.69,0-5.49.13s-3.47.24-5,.33l-20.28,2.27L545,664Z"/>
          <path d="M667.07,584.83,695.2,731.75l-31.83,5.61-26-147.29Z"/>
          <path d="M750.48,574.11q9.21-1.43,16.13,1.33a31.68,31.68,0,0,1,11.89,8.24,42.19,42.19,0,0,1,8,13.3,79.66,79.66,0,0,1,4.34,16.48,45,45,0,0,1-.5,15,35.11,35.11,0,0,1-5.74,13.21,36.9,36.9,0,0,1-11.27,10.24,51.31,51.31,0,0,1-16.8,6.16l-16.7,3.13,8.58,59.68-21.49,3.79L704.26,581.24Zm-2.84,60.68a30.67,30.67,0,0,0,9.53-2.75,16.32,16.32,0,0,0,5.74-4.53,12.39,12.39,0,0,0,2.46-5.72,23.15,23.15,0,0,0,.1-6.28,32,32,0,0,0-2-6.51,20,20,0,0,0-4.13-6.32,17.8,17.8,0,0,0-6.83-4.31,20.17,20.17,0,0,0-9.95-.7l-8,1.21,6.33,36.9Z"/>
        </g>
        <g>
          <path class="cls-10" d="M639.67,818.62C749.49,789.09,681,938.5,681,938.5s-41,69.5,0,67.5,789.52-22.34,789.52-22.34,74-107.66,19.26-148.66-137.25-61.15-27.51-116.58S675.42,738,650.71,740,611.34,826.23,639.67,818.62Z"/>
          <circle class="cls-11" cx="675" cy="777" r="20"/>
          <circle class="cls-11" cx="1398" cy="739" r="20"/>
        </g>
      </g>
      <g>
        <line class="cls-12" x1="270.5" y1="460.5" x2="1514.5" y2="269.5"/>
        <line class="cls-12" x1="295.5" y1="567.5" x2="1547.5" y2="443.5"/>
        <line class="cls-12" x1="328.5" y1="711.5" x2="1568.5" y2="605.5"/>
      </g>
    </g>
  </g>
</svg>
