<svg id="Layer_1" data-name="Layer 1" xmlns="http://www.w3.org/2000/svg" width="1920" height="1102" viewBox="0 0 1920 1102">
  <defs>
    <style>
      .cls-1 {
        fill: aqua;
      }

      .cls-2 {
        fill: #fff;
      }

      .cls-3 {
        fill: #d3ff8d;
      }

      .cls-4 {
        fill: #39b54a;
      }

      .cls-5 {
        fill: gray;
      }

      .cls-6 {
        fill: #17d400;
      }

      .cls-7 {
        fill: #bfbfbf;
      }

      .cls-13, .cls-8 {
        fill: #a67c52;
      }

      .cls-8, .cls-9 {
        stroke: red;
        stroke-width: 3px;
      }

      .cls-10, .cls-11, .cls-12, .cls-8, .cls-9 {
        stroke-miterlimit: 10;
      }

      .cls-9 {
        fill: #ff0;
      }

      .cls-10 {
        fill: #c7b299;
        stroke-width: 30px;
      }

      .cls-10, .cls-11 {
        stroke: #e6e6e6;
      }

      .cls-11, .cls-12 {
        fill: none;
      }

      .cls-11 {
        stroke-width: 65px;
      }

      .cls-12 {
        stroke: #000;
        stroke-width: 7px;
      }

      .cls-14 {
        fill: #f9ffc6;
      }
    </style>
  </defs>
  <g>
    <g>
      <rect class="cls-1" x="0.5" y="0.5" width="1919" height="1101"/>
      <path d="M1919,1V1101H1V1H1919m1-1H0V1102H1920V0Z"/>
    </g>
    <path class="cls-2" d="M1557.94,268c5.07,0,32-5.46,34.87,5.06s18.66,22.7,30.49,10.51-5.07-23-5.07-23,2.25-13.55,15.21-10.84,41.7,13.55,34.37,1.36-30.48-10.84-35-10.84-15.75-5.42-14.62-8.12-12.4-8.81-20.85-4.74-16.34,10.83-28.17,5.41-48.78-8.13-46.08-6.77,3.31,6.19,3.82,18.28S1552.87,268,1557.94,268Z"/>
    <path class="cls-2" d="M90.36,219.09c8.87,0,55.94-7.81,61,7.25s32.63,32.54,53.32,15.07-8.87-33-8.87-33,4-19.42,26.61-15.53,72.91,19.41,60.1,1.94-53.31-15.53-61.14-15.53-27.54-7.77-25.57-11.65-21.67-12.62-36.45-6.79-28.58,15.53-49.27,7.76S24.76,157,29.48,158.91s5.8,8.88,6.69,26.21S81.5,219.09,90.36,219.09Z"/>
    <path class="cls-2" d="M1008.44,120.11c5,.88,32.78-1.31,33.29,12.45s13.36,31.89,27.75,18.57.12-29.93.12-29.93,5.23-16.69,17.42-11,38.14,24.35,33.62,7.69-27.67-19-32.09-19.75-14.34-9.57-12.63-12.8-10.27-13.26-19.52-9.6-18.53,10.82-29,1.93-46.33-18.75-44-16.57,1.89,8.39-.29,23.74S1003.43,119.23,1008.44,120.11Z"/>
    <path class="cls-2" d="M1011.73,121.68c-7.91,0-49.88-9.7-54.38,9S928.26,171,909.81,149.36s7.91-40.93,7.91-40.93S914.2,84.36,894,89.17s-65,24.08-53.59,2.41,47.53-19.26,54.52-19.26,24.55-9.63,22.8-14.45,19.32-15.65,32.5-8.42,25.48,19.26,43.94,9.63,76.07-14.46,71.86-12-5.17,11-6,32.51S1019.64,121.68,1011.73,121.68Z"/>
    <path class="cls-3" d="M1694,925c41.81-14.18,89.83-47.89,138-35,8.15,2.18,30.06,9.38,55,2a85.58,85.58,0,0,0,33-19v229H0V895.06c5.36.6,13.44,1.36,23.26,1.66C64.83,898,95.13,890.06,105,888c46.7-9.76,91,17.6,128,32,108,42,137.91-32.58,303-14,98.39,11.08,140.15,43.46,237,25,37-7.06,39.34-13.41,74-22,124.67-30.92,184,29.09,311,38,158,11.08,156.57-75.44,311-56C1576.51,904.53,1616.22,951.38,1694,925Z"/>
    <path class="cls-4" d="M317.77,946.42q13-64.06,23.65-131.61,1.74-11.1,3.39-22.13L311.67,933.49l16.57-166.07L297.92,933.49v-155L280.54,944.21Z"/>
    <path class="cls-5" d="M226.58,914.89C197,928.44,208.87,974.33,215.44,969s73,0,73,0l18.07-29.73-18.07-33.79-23.33,9.41H226.58Z"/>
    <path class="cls-6" d="M274.72,958.42q-12.95-58-23.61-119.11-1.74-10-3.39-20l33.09,127.44-16.55-150.3,30.28,150.3V806.44l17.35,150Z"/>
    <path class="cls-7" d="M343.39,929.42c29.57,10,17.71,43.88,11.14,39.94s-73,0-73,0l-18.07-21.94,18.07-24.94,23.33,6.94h38.53Z"/>
    <path class="cls-4" d="M1674.37,982.9q13-64.06,23.65-131.62,1.74-11.1,3.39-22.13L1668.27,970l16.57-166.06L1654.52,970V815l-17.38,165.72Z"/>
    <path class="cls-5" d="M1583.18,951.36c-29.57,13.55-17.71,59.45-11.14,54.11s73,0,73,0l18.07-29.72L1645,942l-23.33,9.41h-38.53Z"/>
    <path class="cls-6" d="M1631.32,994.9q-12.94-58-23.61-119.12-1.74-10-3.39-20l33.09,127.43L1620.86,832.9l30.28,150.29V842.92l17.35,150Z"/>
    <path class="cls-7" d="M1700,965.9c29.57,10,17.71,43.88,11.14,39.94s-73,0-73,0l-18.07-21.94L1638.13,959l23.33,6.95H1700Z"/>
  </g>
  <polygon class="cls-8" points="-24.11 187.13 853.59 104.07 880.89 532.82 -24.11 489.17 -24.11 221.88 -24.11 187.13"/>
  <g>
    <path class="cls-9" d="M114.79,324.64l.17,21.68L93.17,348.4l2.68,110.47-13.39,1.2L77.81,349.65,57,352.93l-.33-21.85Z"/>
    <path class="cls-9" d="M141,324.39l31.45,3.17c1.9.26,3.4.52,4.51.76a14.1,14.1,0,0,1,2.83.9,9.38,9.38,0,0,1,2.17,1.35,19.8,19.8,0,0,0,2.47,1.69q6.06,3.92,9.09,12.44a30.55,30.55,0,0,1,1.22,5.69c.32,2.38.55,4.87.66,7.47s.18,5.19.17,7.79-.07,4.88-.17,6.86a52.54,52.54,0,0,1-4,17.37,27.92,27.92,0,0,1-8.58,11.2,9.4,9.4,0,0,1-4.6,1.49,50.3,50.3,0,0,0-5.85.95q.32.86,1.44,3.75t3.54,9.34q2.4,6.43,6.38,17.34t9.92,28.2l-16.9-2.07-14.46-38c-.45-1.14-1-2.61-1.51-4.43s-1.13-3.62-1.74-5.41-1.17-3.39-1.67-4.81a18.58,18.58,0,0,0-1.18-2.82,9.43,9.43,0,0,1-.94-1.11,1.38,1.38,0,0,0-.52-.52,3.7,3.7,0,0,0-.65-.18,6.82,6.82,0,0,0-1.2-.11l-2.24-.37-4.09,51.92-14.2-2.37Zm22.21,52.38c.29,0,.87.06,1.72.16s1.82.16,2.88.18,2.12,0,3.29-.07a14.79,14.79,0,0,0,3-.42q2.53-.28,4.47-3.26a14.83,14.83,0,0,0,2.24-7.21c.09-1.12.16-2.15.22-3.08a15.65,15.65,0,0,0-.12-2.88,19.48,19.48,0,0,0-.71-3.15,18.23,18.23,0,0,0-1.74-3.71,7.12,7.12,0,0,0-2.23-2.58,11.34,11.34,0,0,0-3-1.49,22,22,0,0,0-3.24-.82c-1.08-.19-2.07-.38-3-.56l-12.2-1.4-2.09,29.09Z"/>
    <path class="cls-9" d="M237,323.28,235.88,462l-19.39-.34L218.91,323Z"/>
    <path class="cls-9" d="M290.35,326.86a13.75,13.75,0,0,1,9.33,4,26.79,26.79,0,0,1,6,9.54,53.59,53.59,0,0,1,3.08,13.48,115,115,0,0,1,.58,15.76,61.73,61.73,0,0,1-2.1,13.6,37.65,37.65,0,0,1-5,11,23.77,23.77,0,0,1-7.86,7.4,21.39,21.39,0,0,1-10.62,2.73H273.6l-2.13,55.86L258.38,460l3.94-134.58Zm-9,54.81a12.27,12.27,0,0,0,5.93-.88,9.6,9.6,0,0,0,3.92-3.15,13.2,13.2,0,0,0,2.14-4.78,32.87,32.87,0,0,0,.81-5.71,45,45,0,0,0-.38-6.27,25,25,0,0,0-1.67-6.46,14.38,14.38,0,0,0-3.5-5.1,9.06,9.06,0,0,0-5.77-2.35l-4.81-.25-.72,34.71Z"/>
    <path class="cls-9" d="M422.66,324.1l.21,19.4-39.35,3.8.46,26.6,31.56-2.59.72,24.15-31.94,3.26.85,60.81-13.5,1.37-2-132.39Z"/>
    <path class="cls-9" d="M455,444.18l-4,13.14L434.6,455.6l37.12-130.1,12.92.56,18,135L485,459.61l-1.6-12.31Zm20.29-76.28L460.5,422.43l21.16,2.49Z"/>
    <path class="cls-9" d="M543,323.28,541.94,462l-19.4-.34L525,323Z"/>
    <path class="cls-9" d="M578.86,327l4.51,108.8,38.72-2.11.53,23.46-56.49,3L564.61,327.1Z"/>
    <path class="cls-9" d="M693.19,324.9l-.79,20-34.46-.26,1.5,42.62,27.89-3,.57,21-27.61-.82,1.2,41.18,31.86-1.06.19,13.9-50.7.8.62-132.77Z"/>
    <path class="cls-9" d="M739.17,324.06a45.23,45.23,0,0,1,9.32,1,21,21,0,0,1,6.85,2.87,19.59,19.59,0,0,1,5.15,5.05,53,53,0,0,1,4.31,7.44,38.07,38.07,0,0,1,3.06,11.15q1,7,1.39,14.8c.25,5.22.34,10.49.24,15.8s-.17,10.1-.25,14.39q-.09,5-.09,8.55t-.19,7.36q-.16,3.81-.56,8.67t-1.17,12.47a40.63,40.63,0,0,1-1.41,6.75,34.36,34.36,0,0,1-2.69,6.56,23.81,23.81,0,0,1-3.9,5.39,14.67,14.67,0,0,1-5.05,3.43,34.92,34.92,0,0,1-4.52,1.61c-1.65.48-3.3.94-5,1.36a46.7,46.7,0,0,1-4.72,1,23.86,23.86,0,0,1-4,.32l-21.42-.38L717,323.68ZM731.38,431c.52-.16,1.3-.37,2.37-.63s2.16-.59,3.28-1,2.2-.79,3.25-1.26a10.54,10.54,0,0,0,2.38-1.35l1.83-1.5a10.46,10.46,0,0,0,2.13-2.54,25.23,25.23,0,0,0,2.16-4.49,43.85,43.85,0,0,0,1.91-7.25c.24-1.41.53-3.11.86-5.11s.62-4.18.9-6.55.5-4.79.65-7.27a66.9,66.9,0,0,0,.07-7.2q-.4-8.22-.89-13.31t-1.08-8.4a31.43,31.43,0,0,0-1.36-5.31,39.8,39.8,0,0,0-1.77-4,6.63,6.63,0,0,0-3.08-2.72,14.46,14.46,0,0,0-4.52-1.31,32.33,32.33,0,0,0-4.65-.25c-1.5,0-2.69.09-3.57.19Z"/>
    <path class="cls-9" d="M807.64,431.49,807.11,462l-18.84-.33.53-30.47Zm1.75-93.63-.5,28.19-1.11,57.39-18.51-.32.89-57.4.49-28.19Z"/>
  </g>
  <g>
    <path class="cls-9" d="M69.3,196.66l11.17,45.59L84,198.6l12.26,1.83-7,96.58-9.62-3.1L66.57,249l-3.38,44.09-12-2,7-96.51Z"/>
    <path class="cls-9" d="M114.86,210.76a23,23,0,0,1,1.92-4.82,17.87,17.87,0,0,1,3.42-4.61,18.57,18.57,0,0,1,4.89-3.44,14,14,0,0,1,6.41-1.29q7.94.15,12.71,2.47t7.37,8.28q2.59,6,3.32,16.5t.43,27.09q-.21,12-1.1,20.69a43.64,43.64,0,0,1-3.56,14.22,16.7,16.7,0,0,1-7.49,8q-4.83,2.47-12.93,1.95a9.56,9.56,0,0,1-8-1.63,19.28,19.28,0,0,1-5.66-7.38,50.85,50.85,0,0,1-3.6-11.49,110,110,0,0,1-1.85-14q-.52-7.4-.43-15t.66-14.4q.56-6.81,1.48-12.21a53.65,53.65,0,0,1,2-8.43Zm6.66,47.94q.51,2.69,1,6.18A55.84,55.84,0,0,0,124,271.6a18.75,18.75,0,0,0,2.38,5.45,4.59,4.59,0,0,0,3.87,2.28,15.74,15.74,0,0,0,5.72-1,8.48,8.48,0,0,0,4.52-4,14.25,14.25,0,0,0,1.44-4q.57-2.49,1-5.59t.67-6.81q.21-3.69.29-7.56.22-13.26-.39-20.46t-2.17-10.56c-1-2.24-2.36-3.56-4-4a26.51,26.51,0,0,0-5.81-.66q-5.52-.1-7.77,6.43t-2.5,20.66Z"/>
    <path class="cls-9" d="M210.05,199.66l14.77,47.08,13-49.77,10.26-1.19,2.52,93.38-11.75,1L237.78,247l-11.89,42-13.78-41.46.41,46.08-10.13.57-2.51-93.63Z"/>
    <path class="cls-9" d="M270.16,210.76a23.5,23.5,0,0,1,1.91-4.82,18.15,18.15,0,0,1,3.43-4.61,18.57,18.57,0,0,1,4.89-3.44,14,14,0,0,1,6.41-1.29q7.93.15,12.71,2.47t7.37,8.28q2.6,6,3.32,16.5t.43,27.09q-.21,12-1.11,20.69A43.4,43.4,0,0,1,306,285.85a16.75,16.75,0,0,1-7.49,8c-3.23,1.65-7.53,2.3-12.93,1.95a9.59,9.59,0,0,1-8-1.63,19.36,19.36,0,0,1-5.65-7.38,50.83,50.83,0,0,1-3.61-11.49,111.83,111.83,0,0,1-1.85-14q-.51-7.4-.42-15t.65-14.4q.57-6.81,1.49-12.21a53.65,53.65,0,0,1,2-8.43Zm6.65,47.94c.35,1.79.69,3.85,1,6.18a55.84,55.84,0,0,0,1.42,6.72,18.75,18.75,0,0,0,2.38,5.45,4.57,4.57,0,0,0,3.87,2.28,15.74,15.74,0,0,0,5.72-1,8.51,8.51,0,0,0,4.52-4,14.25,14.25,0,0,0,1.44-4c.37-1.66.71-3.52,1-5.59s.51-4.34.66-6.81.25-5,.3-7.56q.22-13.26-.39-20.46t-2.17-10.56q-1.56-3.36-4-4a26.53,26.53,0,0,0-5.82-.66q-5.51-.1-7.76,6.43t-2.5,20.66Z"/>
    <path class="cls-9" d="M330.27,196.08l23.13,2.34c1.39.19,2.5.37,3.31.55a10.75,10.75,0,0,1,2.09.66,7.29,7.29,0,0,1,1.59,1,14.81,14.81,0,0,0,1.81,1.25q4.47,2.88,6.69,9.14a22.9,22.9,0,0,1,.9,4.19c.23,1.75.4,3.58.48,5.49s.13,3.82.13,5.73,0,3.59-.13,5a38.82,38.82,0,0,1-2.92,12.78,20.58,20.58,0,0,1-6.31,8.23,6.87,6.87,0,0,1-3.39,1.09,38.18,38.18,0,0,0-4.3.71c.15.41.51,1.33,1.06,2.75s1.42,3.71,2.6,6.87,2.75,7.4,4.69,12.75,4.38,12.26,7.3,20.74l-12.43-1.53-10.63-28c-.33-.84-.7-1.92-1.11-3.26s-.83-2.66-1.28-4-.86-2.49-1.23-3.54a12.85,12.85,0,0,0-.87-2.07,8.33,8.33,0,0,1-.69-.82,1.1,1.1,0,0,0-.37-.38,4.5,4.5,0,0,0-.49-.13,5.77,5.77,0,0,0-.88-.08l-1.65-.28-3,38.18-10.45-1.74ZM346.6,234.6c.22,0,.64,0,1.27.11a18.8,18.8,0,0,0,2.11.13c.76,0,1.56,0,2.42-.05a11.82,11.82,0,0,0,2.18-.3,4.72,4.72,0,0,0,3.29-2.4,10.91,10.91,0,0,0,1.64-5.3c.07-.83.12-1.59.16-2.27a11.74,11.74,0,0,0-.08-2.12,13.57,13.57,0,0,0-.53-2.31,12.57,12.57,0,0,0-1.28-2.73,5.08,5.08,0,0,0-1.64-1.9,8.62,8.62,0,0,0-2.21-1.1,17.78,17.78,0,0,0-2.39-.6c-.79-.14-1.52-.27-2.19-.41l-9-1-1.54,21.39Z"/>
    <path class="cls-9" d="M422.48,196.45l-.58,14.69-25.33-.2,1.1,31.34,20.51-2.19.41,15.45-20.29-.61.88,30.28,23.42-.77.14,10.21-37.28.6.46-97.63Z"/>
    <path class="cls-9" d="M493.44,195.59a15.77,15.77,0,0,1,3.7.44,8.11,8.11,0,0,1,2.78,1.26,12.27,12.27,0,0,1,2.26,2.09c.69.82,1.42,1.78,2.18,2.87a26.7,26.7,0,0,1,3.51,7.19,29.5,29.5,0,0,1,1.25,8.84c0,1.37,0,3,0,4.85s0,3.76,0,5.67-.19,3.73-.38,5.47a13.55,13.55,0,0,1-1,4.16q-.42,1-.54,1.23a4.68,4.68,0,0,1-.38.59q-.24.33-.84,1.26c-.4.62-1.06,1.68-2,3.2q2.7,2.23,4.35,8.95a65.31,65.31,0,0,1,1.67,15.5,35.69,35.69,0,0,1-2.12,12.92,23.2,23.2,0,0,1-5.92,9.05,4.1,4.1,0,0,0-.79,1c-.11.25-.22.47-.33.68a1.93,1.93,0,0,1-.64.64,4.53,4.53,0,0,1-1.6.57,45.84,45.84,0,0,1-8.2,1.35l-22.77.66.33-99.75ZM490,280.46a8.27,8.27,0,0,0,4.17-1.27,10.54,10.54,0,0,0,3.15-3.09,14.58,14.58,0,0,0,1.93-4.11,16.62,16.62,0,0,0,.68-4.5,13.15,13.15,0,0,0-.71-4.24,16.19,16.19,0,0,0-2.06-4.24,12.36,12.36,0,0,0-3.25-3.24,7,7,0,0,0-4.31-1.22l-11.21.8L478.09,281Zm.39-43.64a6.75,6.75,0,0,0,4.54-1.51,7.93,7.93,0,0,0,2.22-3.73,19.54,19.54,0,0,0,.72-5.09l.1-5.85a14.21,14.21,0,0,0-1.65-7c-1.1-1.95-3-2.88-5.79-2.81l-12,.29.08,26Z"/>
    <path class="cls-9" d="M562.72,196.45l-.58,14.69-25.34-.2,1.1,31.34,20.51-2.19.41,15.45-20.29-.61.88,30.28,23.42-.77.15,10.21-37.28.6.45-97.63Z"/>
    <path class="cls-9" d="M616.82,196.45l-.58,14.69-25.34-.2L592,242.28l20.5-2.19.42,15.45-20.3-.61.88,30.28,23.42-.77.15,10.21-37.28.6.45-97.63Z"/>
    <path class="cls-9" d="M637.77,196.08l23.12,2.34c1.4.19,2.5.37,3.32.55a10.64,10.64,0,0,1,2.08.66,7.35,7.35,0,0,1,1.6,1,13.4,13.4,0,0,0,1.81,1.25q4.45,2.88,6.69,9.14a23.89,23.89,0,0,1,.89,4.19c.24,1.75.4,3.58.49,5.49s.13,3.82.12,5.73,0,3.59-.13,5a38.32,38.32,0,0,1-2.92,12.78,20.58,20.58,0,0,1-6.31,8.23,6.86,6.86,0,0,1-3.38,1.09,37.81,37.81,0,0,0-4.3.71c.15.41.5,1.33,1.06,2.75s1.41,3.71,2.59,6.87,2.75,7.4,4.7,12.75,4.38,12.26,7.29,20.74l-12.42-1.53-10.63-28c-.34-.84-.71-1.92-1.12-3.26s-.83-2.66-1.28-4-.85-2.49-1.22-3.54a12.85,12.85,0,0,0-.87-2.07,6.21,6.21,0,0,1-.69-.82,1.11,1.11,0,0,0-.38-.38,4.89,4.89,0,0,0-.48-.13,5.93,5.93,0,0,0-.89-.08l-1.64-.28-3,38.18-10.44-1.74ZM654.1,234.6c.21,0,.64,0,1.27.11a18.65,18.65,0,0,0,2.11.13c.75,0,1.55,0,2.42-.05a11.94,11.94,0,0,0,2.18-.3,4.72,4.72,0,0,0,3.28-2.4,11,11,0,0,0,1.65-5.3c.06-.83.12-1.59.16-2.27a11.77,11.77,0,0,0-.09-2.12,13.5,13.5,0,0,0-.52-2.31,13.06,13.06,0,0,0-1.28-2.73,5.26,5.26,0,0,0-1.64-1.9,8.84,8.84,0,0,0-2.22-1.1,17.78,17.78,0,0,0-2.39-.6c-.79-.14-1.52-.27-2.18-.41l-9-1-1.54,21.39Z"/>
  </g>
  <g>
    <path class="cls-10" d="M911.74,292.06c1.07-41.31,162.89-69.29,250-77,135.6-12,316.61,5.14,322,49,4.86,39.5-132.75,100.05-261,111C1071.08,388,910.68,333.47,911.74,292.06Z"/>
    <g>
      <path class="cls-10" d="M919.29,310.68l60.84,653.76a832.21,832.21,0,0,0,187.76,40.13,802.2,802.2,0,0,0,217.79-9.39q41.29-349.63,82.58-699.29c-59.9,35-154.07,77.55-272.11,81.08C1076.54,380.54,980.29,342.61,919.29,310.68Z"/>
      <path class="cls-11" d="M1479.37,438.94c-22.55-1.9,132.93,10,132.93,10s68.48,280.32-210,415.65"/>
      <path class="cls-12" d="M959.51,485.42s.36-53.32,20.38-55.94,37.83,12,39.48,88.9S1023.56,897,1023.56,897"/>
      <path class="cls-12" d="M1065.42,531.08s3.63-53.3,29.08-55.18,47.09,13.44,44.6,90.34-17.22,378.64-17.22,378.64"/>
      <path class="cls-12" d="M1189.72,519.68s6.45-56.12,33-56.12,48.32,17.91,41.88,99.1S1227.75,962,1227.75,962"/>
      <path class="cls-12" d="M1304.85,484.49s10.42-57.38,40.42-54.87S1398.82,452.68,1387,536s-64,409.22-64,409.22"/>
    </g>
  </g>
  <g>
    <path class="cls-13" d="M592.11,865.44c-6-1.2-66.09,152.79-66.09,152.79l36.86,14.24,79.75-190.25-39.87-7.74Z"/>
    <polygon class="cls-13" points="257.92 692.78 314.17 915.01 943.61 881.06 888.61 575.47 257.92 692.78"/>
    <g>
      <path class="cls-14" d="M453.54,907.49c55.92-13.54,21,55,21,55s-20.87,31.89,0,31,402.08-10.25,402.08-10.25,37.7-49.4,9.8-68.21-69.89-28.06-14-53.49-400.71,9-413.29,9.9S439.11,911,453.54,907.49Z"/>
      <ellipse class="cls-5" cx="471.53" cy="888.4" rx="10.19" ry="9.18"/>
      <ellipse class="cls-5" cx="839.72" cy="870.96" rx="10.19" ry="9.18"/>
    </g>
  </g>
</svg>
