<svg xmlns="http://www.w3.org/2000/svg" xmlns:xlink="http://www.w3.org/1999/xlink" width="240" height="190" viewBox="0 0 240 190">
  <defs>
    <style>
      .cls-1 {
        isolation: isolate;
      }

      .cls-2 {
        opacity: 0.75;
        mix-blend-mode: soft-light;
      }

      .cls-3 {
        fill: url(#radial-gradient);
      }

      .cls-4 {
        fill: none;
      }

      .cls-5 {
        fill: #ffff20;
      }
    </style>
    <radialGradient id="radial-gradient" cx="117.25" cy="98.63" r="92.14" gradientUnits="userSpaceOnUse">
      <stop offset="0.03" stop-color="#fff"/>
      <stop offset="0.05" stop-color="#fffff4"/>
      <stop offset="0.16" stop-color="#fdffbc"/>
      <stop offset="0.28" stop-color="#fcff8a"/>
      <stop offset="0.39" stop-color="#fbff5f"/>
      <stop offset="0.51" stop-color="#faff3d"/>
      <stop offset="0.63" stop-color="#faff22"/>
      <stop offset="0.75" stop-color="#f9ff0f"/>
      <stop offset="0.87" stop-color="#f9ff04"/>
      <stop offset="1" stop-color="#f9ff00"/>
    </radialGradient>
  </defs>
  <g class="cls-1">
    <g id="Layer_1" data-name="Layer 1">
      <g>
        <image class="cls-2" width="252" height="198" transform="translate(-5.5 -4)" xlink:href="sun1.png"/>
        <g>
          <path class="cls-3" d="M120,16c57.44,0,104,35.15,104,78.5S177.44,173,120,173,16,137.85,16,94.5,62.56,16,120,16Z"/>
          <g>
            <path class="cls-4" d="M120,16c57.44,0,104,35.15,104,78.5S177.44,173,120,173,16,137.85,16,94.5,62.56,16,120,16Z"/>
            <g>
              <path class="cls-5" d="M120,19.33c.3-.43.13-1.41-.69-1.2l-.57,1.66Z"/>
              <path class="cls-5" d="M114.39,16.38c-1,.86-2,2.33-1.29,3.81.88-1.63,1.13-1,2.1-2.92a1,1,0,0,1,1.33,1.11c.28-.43,1.28.34,1.71-.71-1.09-1.25-2.49-1.3-3.87-.19C114.05,17.14,114.33,16.69,114.39,16.38Z"/>
              <path class="cls-5" d="M38,43l.54-.22A1.06,1.06,0,0,0,38,43Z"/>
              <path class="cls-5" d="M13.13,88.1c0-.41-.15-.59-.29-.63C12.91,87.86,13,88.18,13.13,88.1Z"/>
              <path class="cls-5" d="M11,97.27c.05-.2.06-.37.09-.56C11,96.93,10.91,97.15,11,97.27Z"/>
              <path class="cls-5" d="M38,43l-1.36.58C37,44.06,37.44,43.4,38,43Z"/>
              <path class="cls-5" d="M103.67,21.26a1.76,1.76,0,0,0,.66-.53,6,6,0,0,1-.65.27A2.26,2.26,0,0,1,103.67,21.26Z"/>
              <path class="cls-5" d="M55.83,28.5a2.71,2.71,0,0,1,.37-.21,4,4,0,0,0,0-.76C56.06,27.85,55.94,28.16,55.83,28.5Z"/>
              <path class="cls-5" d="M71.73,20.77c-.39.09,0,1.45.07,2.08a1.37,1.37,0,0,1,.46-1.21A3.21,3.21,0,0,0,71.73,20.77Z"/>
              <path class="cls-5" d="M99.13,16.13l.46-.26C99.47,16,99.27,16,99.13,16.13Z"/>
              <path class="cls-5" d="M45,35.16a1.47,1.47,0,0,0-.43-.31A1,1,0,0,0,45,35.16Z"/>
              <path class="cls-5" d="M138.83,24a2.4,2.4,0,0,0,0-.24C138.75,23.84,138.71,23.94,138.83,24Z"/>
              <path class="cls-5" d="M120,15.64l.28-.07a7.18,7.18,0,0,0,.06-.79Z"/>
              <path class="cls-5" d="M12.27,114.63v-.08C12,114.15,12.08,114.4,12.27,114.63Z"/>
              <path class="cls-5" d="M140.31,177.36c-1.86-1,2.5-2-.22-3C140.41,174.87,138.09,176.84,140.31,177.36Z"/>
              <path class="cls-5" d="M103.22,21.14a4.92,4.92,0,0,1-.67.1A1.47,1.47,0,0,0,103.22,21.14Z"/>
              <path class="cls-5" d="M140.09,174.35h0l-.27-.09Z"/>
              <path class="cls-5" d="M34.06,147.3a1.52,1.52,0,0,0,.14-.72A1.16,1.16,0,0,0,34.06,147.3Z"/>
              <path class="cls-5" d="M18.58,123q.06.36.15.72A2.44,2.44,0,0,0,18.58,123Z"/>
              <path class="cls-5" d="M46.79,155.2c.24.31.24.54.77.69a.85.85,0,0,0,0-.23C47.27,155.71,47,155.63,46.79,155.2Z"/>
              <path class="cls-5" d="M59.82,163.06c0-.13-.08-.26-.11-.38l-.46-.17Z"/>
              <path class="cls-5" d="M179,36.57a4.34,4.34,0,0,1,.05-1.4C178.73,36.14,176.76,35.49,179,36.57Z"/>
              <path class="cls-5" d="M103.57,20.48c0,.36-.14.55-.35.66l.46-.14A.66.66,0,0,0,103.57,20.48Z"/>
              <path class="cls-5" d="M53.62,146.46c.53.49,1.12.91,1.69,1.38A13.19,13.19,0,0,0,53.62,146.46Z"/>
              <path class="cls-5" d="M213.39,117.1l0-.51A.47.47,0,0,0,213.39,117.1Z"/>
              <path class="cls-5" d="M60.91,151.05a2.73,2.73,0,0,0,.6,1.44,1.21,1.21,0,0,0,.4-.19C61.57,151.88,61.22,151.49,60.91,151.05Z"/>
              <path class="cls-5" d="M179,35.15v0Z"/>
              <path class="cls-5" d="M164.48,32.06c1.92.79,1.58-1.33,2.38-2.15,2.56.46.57,1.71,1,2.9,1.6.18,3.42-.93,4.45-.34-.05.31.11.51-.29.74,1.05-.3,2.18.22,3.35.72a5.49,5.49,0,0,0,3.67.7,1.13,1.13,0,0,1,0,.52,6.22,6.22,0,0,1,.95-2.36c.88.42,2.18-.15,1.89,1.09-.5-.33-.78.06-1.21.25l1.14.06c-.09,2-1.49-.19-2.13,1,1,.21,2.14.35,3.21.54a4.11,4.11,0,0,1,2.51,1.11c-.63,1.57-3.3-1.35-2.38,1L181.36,36c.15,3.21-1.1-.86-1.17,2.43,2.3,1.91,3.3,1,5.52,3,1.09-.41.59-1.28,1.69-1.69,2.25.56,2.32,1.94,2.29,3.14s-.18,2.27,1.73,2.34a21.09,21.09,0,0,1,2.1-.79c.7-.14,1.38.08,1.85,1.26l-1.82,1c2,2,3.11-1,4.47,2-.89.15-2.1-1.08-1.93-.62.43,2.42,1.74.14,2.86,1.2l-1,1.43c2.38,1.9,5.54,3.59,8,6.07-.52.17-1.28,0-1.21,1,3.35,2.78,5.11,7.53,6,11.48.67.23,1.35.46,2,.71.13.33-.33.89-.74.66.13,1.65.87-.33,1.7.12.47.79-.28,1.43-.91,1.09a14.41,14.41,0,0,1,1.81,1.89,21.35,21.35,0,0,1,1.68,2.5c.9,1.82,1.51,3.81,1,5.43l-.56-.45c0,1.16.85,1.61,1.64,2.1s1.4,1,.91,2.18l-.32-.36c0,.63.08,1.27.16,1.9s.09,1.28.16,1.91.13,1.28.2,1.91.05,1.27.07,1.89,0,1.23,0,1.83-.15,1.18-.26,1.74a7.17,7.17,0,0,1-1.27,3c1,.44.68,1.66.39,2.8s-.53,2.23.89,2.67a7.75,7.75,0,0,1-1.24,1.38l-.93.81A13.18,13.18,0,0,0,215,110c-.45.93,1.35,2.05,1.15,3.4l-1.46-.48c.3.73.6,1.47.89,2.23l-2.05.21c0,.42-.08.84-.13,1.27a1.32,1.32,0,0,1,1.45-.45,4.23,4.23,0,0,1-1.61,2.68,2.77,2.77,0,0,1-2.08.83l-.47,2.3c-.18.77-.4,1.52-.6,2.3-.48-.41-.27-1.18-.31-1.88.11,2.87-1.61-.47-1.51,2.17.45-.07.7.62.93.84a4.59,4.59,0,0,0-2,1.63,10.59,10.59,0,0,0-.86,1.28,13.59,13.59,0,0,0-.74,1.32l-.63-.92a20.15,20.15,0,0,0-1.58,2c-.55.69-1.07,1.42-1.6,2.17s-1.09,1.5-1.69,2.22a23.77,23.77,0,0,1-1.9,2.12,1.35,1.35,0,0,1,1.62.33,1.18,1.18,0,0,1,.11,1.5l-1.48-.84c.17,1.23,1.3-.39,1.06,1.54-1.2.89-2-.66-1.76-1.61l-.88,1.63c-.4-.29-.28-.76-.63-1.28.19,1.27-3.3.76-2.91,2.76L193,141c-1.43,1.24-2.48,2.16-3.39,3.1a35.52,35.52,0,0,1-3.11,2.69c.77,1.2-.44,1.62-.62,3.09-2.22.95-5,1.34-7.41,2.81-1.41,1.55.06,1.32-.34,2.48-.74-1.06-3.17.39-2.3-1.13a55,55,0,0,0-7.31,4.83c.63.29,1.21.29,1.13.8-.65.52-1.87.23-2-.39l.15-.2a7.31,7.31,0,0,1-3.53,1.65A24.07,24.07,0,0,1,160,161a27.07,27.07,0,0,0-3.95.25,5,5,0,0,0-3,1.56l.18-.19L149.73,165c-1.87.18.87-1.17-.65-1.65a8.59,8.59,0,0,1-5.2,1.91,10.39,10.39,0,0,0-4.81,1.09c-1.65-1.69-4-1.25-6.53-.81s-5.19,1-7.08-.07l.25.88c-.93.94-1.18-.47-1.89-.65.12.69,1.07.78.48,1.27a27.93,27.93,0,0,1-6.21.28q-1.56-.09-3.15-.27c-1-.16-2.09-.35-3.14-.55-2.09-.36-4.16-1-6.21-1.46s-4.07-1.13-6.06-1.65c-1.46-.38-2.08.69-2.77,1.49s-1.46,1.4-3.13-.06L95,163.32a18.44,18.44,0,0,1-4.7-.15c-1.54-.28-3-.67-4.55-1.1s-3-.94-4.46-1.32a21.61,21.61,0,0,0-4.55-.83c.47-.24.65-.7,1.2-.51-.79-1.52-4.32-1.71-4.73-.8-.83-.44.13-.9-.21-1.57-.87-1.15-3.52.14-3.65-1.22,0-.22.48-.21.73-.2-1,.24-3.38-1.76-3.28-.16-1.74-1.54-4.12-1.4-5.31-3-1.81.82-2.92-2.57-4.38-.87,1.27-1.82-2.32-3.64-4.11-3.55.77-.29-.59-1.3.4-1.75-1.3-.91-2.74-1.42-3.21-.33-.38-2-1.82-2.46-3.16-2.93s-2.42-1-1.89-2.86a45.7,45.7,0,0,1-11.1-7.94c1.82-1.28,3.23,3.5,4.89,1.78a27.1,27.1,0,0,0-2.4-1.53c-.79-.45-1.54-.86-2.22-1.34a14,14,0,0,1-2-1.59,9.37,9.37,0,0,1-1.57-2.27c-.32-1,1.15-.06,1.66,0a12.06,12.06,0,0,1-1.94-2.26c-.54-.8-1-1.63-1.49-2.44s-.86-1.65-1.36-2.41A18.57,18.57,0,0,0,26,118c.2-.07.56.18.87.44-.36-.61-.36-1.62-1.27-1.13l.53.51c-.44.82-1.43.51-2.43,0s-2-1.3-2.33-1.23c3.17.07-.6-3.68,3.57-3.14a1.4,1.4,0,0,0-1.61-.41c-.05-.72.29-1.06,1.23-.65-1.25-2.2-2.05-1-2.69-3.26.48-.11.79.28,1.43.35-1.26-.83-2.43-1.79-2.49-3.78.32,0,.65-.24.78.32a20.07,20.07,0,0,0-2-4.31,7.2,7.2,0,0,1-.81-4.84c2.19,1,.67-1.29,2.53-1.51a19.36,19.36,0,0,1-.55-1.94l-.93.78c.12-1.71-1.28-3.35-.47-4.81L20,90.72l0-3.27-.89,1.77c-.78-1.88-2.37,0-1.61-2.38.1.51.31-1.81,1.55-2.54h0a6.35,6.35,0,0,1-.52-1.52,2.55,2.55,0,0,1,.42-1.7c.66-.19,1.94.74,2.38.61-.65-.58-.56-1.62-.38-2.68s.39-2.13-.24-2.92a2,2,0,0,0,1.42.74l-1-1.09c.64-.65.89-.69,1.57-.31,1.09-2.21-2.5-.07-.5-2.47,0,.25.23.22.24.74a18.8,18.8,0,0,0,1.54-4A9.62,9.62,0,0,1,25.78,66c2,.19-.68,2.3,1.15,2.23.37-.88.62-1.84.94-2.8s.61-1.94.92-2.92A23.16,23.16,0,0,1,30,59.69a9.23,9.23,0,0,1,1.67-2.39l-.59.44c-.91-1-.2-1.38.73-1.78s2.13-.79,2.28-1.92c-.16.49.73,1.41.58,1.13a13.3,13.3,0,0,0,2.5-3.26c.39-.65.79-1.36,1.22-2.13s1-1.54,1.53-2.38l.11.83a10.61,10.61,0,0,0,2.34-1.6,21.74,21.74,0,0,1,2.33-1.73c-.08-.86.74-1.37-.35-1.77a6.36,6.36,0,0,0,3.81-1.28,14.05,14.05,0,0,0,2.61-2.56,13.92,13.92,0,0,1,2.56-2.53,4.93,4.93,0,0,1,3.46-1c-.46.28-.8,1.17-.43.95l3-2.51c-.84-.86-.79-.35-2-.71a3.26,3.26,0,0,1,1.67-2.34C57.88,32.67,60,32.77,61,33c-.28-.25-.24-.71-.47-1,2.78.86-.79-2.25,2.38-2.3l.14.6c.8-.73,1.34-1.88,2.45-2.23,1,1-.75,1.06-.34,2.08,1.37-.77,1.8-3.64,3.68-3-.47.61-1.37,1-1.84,1.61,2.09.81,2.08.38,3.24.14l-.12,0c.91-.14,1.81-.28,2.73-.37L72,28.39a3.05,3.05,0,0,1,2.19-2.89,5.17,5.17,0,0,0,3.11-2.18c-1.78,2.89,0,1.32.3,2.81.78.18,1.9.3,1.76.8.8-1.58,2.25.26,3.41-1.94.22.44,1.3-.34,1.37.92,1.44-.83-.6-.71-.64-1.34,1-1.17,2.55-1.06,4.21-1a10.82,10.82,0,0,0,2.53-.21A4.9,4.9,0,0,0,92.71,22a10.29,10.29,0,0,0,1.74-1.21,16.09,16.09,0,0,0,1.26-1.17,10,10,0,0,1,3-2.19c1.1.59-.52,1.89-.52,1.89a5.37,5.37,0,0,0,4.27-.59c-.25.46.11.77.63,1.26,1.17-.28.58-1.9,2.25-1.34a7.26,7.26,0,0,1-1,2.07c1.33-.6,2.63-1.62,4.06-2.2.46.81-.77,1.37-1.22,2,.79-.27,1.83-.57,2.72-.95A3,3,0,0,0,111.76,18l-1.1-.42c.6-.1.39,1.14,0,1.41-1.33,1.11-2.06-.3-2.19-.79l1-.42c-.65-1.37-1.72-1.15-2.86-.59s-2.37,1.46-3.42,1.54l.63-2.19-2,2c-.53-.48-1-1.59,0-2-1.67-.81-1.25.92-2.73,0-.17-.15-.12-.26,0-.36-.47.26-.93.57-1.39.86.22-.48-.49-1.41.48-1.27-2.91-.7-4.06,2.26-5.35.94l.2-.17C89.51,18,93,18.07,90.65,20.4c-.88-1.09-1.79-2.2-2.7-3.25v1.58c-.39,0-1.16.12-1.18-.51-1.14,1.37.4.59-.16,1.75-2.18-.92-4.76,2-5.86-.22-.3,1.3,2,.35.3,1.69-.65-1.17-1.18-.9-1.78-.42S78,22.25,77,22c.06-1.45,1.84-1.3-.18-1.88-.24,2.49-3.35.59-4.57,1.57.58,1.73-2.7,1.8-4.68,3.38,0-.31-1.21-.09-2.64.27s-3.12.93-4.31,1.14l-.07-.3C61,28,58.77,28.77,57.45,29.9a2,2,0,0,1,.18-2.39l-1.43.78a2.73,2.73,0,0,1-1.12,1.94l-.34-1.4a18.07,18.07,0,0,0-2.51,2.33A6.69,6.69,0,0,1,49,33.22c.6,1.13,3.77,1.79,1.88,4-.48-.51-1.24-1.43-.77-2.07-.15.21-.41,1-1,1,.08-.54.18-1.08.29-1.61-1.34.27,0,1.17-.86,1.65-.55-.82-1-.14-1.35-.86.16-.23,1-.18,1-.73a4.73,4.73,0,0,1-3.3.52,1.09,1.09,0,0,1,.19,1.66c-1.66,1.37-1.3-.5-2.61-.11,0,.86-1.53,1.17-.62,2.34-.5.39-1-.08-1.48-.22-.44,1.24-3.85,3.6-1.84,3.93l.28-.11c0,.06-.06.1-.09.17h0a11.15,11.15,0,0,1-3.87,4c-1.51,1.14-3.15,2.22-4.06,3.84l-.37-.32c-1,2-2.77,4-2.84,5.83-.38.5-1.59.71-1.92.15-.61,1.61-.31,2-2.25,3.62.15-1.89-1,.08.38-1.8-1.53,1.6-2.46,1.68-2.49,4.37-.73-1.34-2.17.71-2.33,1.83l1.52-1a13,13,0,0,1-1.52,2.87L17.84,65c-1.87,1.67-2,3.95-2,6a9.49,9.49,0,0,1-.35,2.84,3.68,3.68,0,0,1-1.86,2.21c.76,1.48,1.51-2.14,2.49-.7a7.54,7.54,0,0,1-2.19,2.47c-.81.71-1.56,1.28-1.64,1.61a2.38,2.38,0,0,0,.17,2.94,2.89,2.89,0,0,1,.52,3c.67-.3,2.21-.39,2.53,1.81-.42,1.94-2.73,2.26-3.07.89,0-.5.21-.72.41-.68-.15-.69-.31-1.62-1-.87l.56.35c-.71,1-.94,3.89-1.84,3.14.52,1.66.92.74,1.33-.41a8.74,8.74,0,0,0-.56,3.47,21.8,21.8,0,0,1-.17,3.56c.31-.45,1-.88,1-.44-.59,4.11,1.17,1.74,1.66,4.4-.74,1.63-2.2-.33-1.17,2.34-.32,1.76-1.52.59-2.07-.05,1.52,2.39,0,4.93.19,6.46L10,108.17a6.28,6.28,0,0,1,.77,2.1l1-1c0,.83.14,1.49-.34,1.6.94.61,1.77-1.08,3.17.21-.3,1.17,1.53,2.82.13,3.65-.46-3.33-1.4.83-2.48-1.82a3.53,3.53,0,0,1,.57,2c-.13.17-.34,0-.49-.2-.2,1.78.35,2,1.07,2.16a2.42,2.42,0,0,1,2.16,1.81c-1-.08-1.29,1.34-.92,1.78-.45-1.28,1.12-1.12,2.24-.29.22,2.18,1.39,1.86,1.76,2.88l-.21-1.27c1,0,1.26,1,2.19,2.12-.56.43-1-.93-1.06-.34,1.07.35,1.11,1.32,1.16,2.41a3.29,3.29,0,0,0,1.15,3c0,1.2-1.38,1-1.25,2A2.94,2.94,0,0,1,22,133.09a3.17,3.17,0,0,0,1.39,2.43c.55-1.35.2-1.23,2.26-.44-1.11-1-2.1-2.05-3.17-3.09l3,1.32c-.7-1.07-2.15-1.84-2.42-2.6,1.55.56,1.22.6,1.71-.44-.49,2.44,2.75,2.29,3,4.55l-2.4,1.73a4.58,4.58,0,0,0,1.11,2,10.49,10.49,0,0,0,1.81,1.37,20.88,20.88,0,0,1,2,1.41,8.08,8.08,0,0,1,1.87,2l-.51-1.29c1.23-.42,1.78,1.7,3.05,2.26-.78.62-.45,1.43-.48,2.26.47-.58,2.08,2.13,3.7.87l.48,2.14a3.69,3.69,0,0,0,3.37,1.31,4.17,4.17,0,0,1,3.39,1c-1.38.29-.69,1.72-2.79,1,.8.66,1.44,1.37,1.86.82.14.85,3.1.59,3.32,1.9.59-.1,1.3-.89,2.2-.2a.61.61,0,0,1-.27.41c.27-.4,1.85.42,1.62-1a4.62,4.62,0,0,0,1.57,2.57,14.34,14.34,0,0,0,2.67,1.67c1.87,1,3.8,1.76,4.39,3.61l3.37,1.14L66.25,165c-.24.22-.21.45-.51.21,2.19,1.93,2.66-1.89,5.15.21.9,2.06-1.88.2-1.17,1.12-.41,1.58.54,1.83,1.73,2s2.62.24,3.33,1.46h-.56c1.21,1.57,4.17.17,6.64,1.1a.64.64,0,0,0-.16.47c2.21-1,5.63-.73,8.18-.57-1,1.06-1.27.38-1.1,1.76,1.14.09.15-2.08,2.42-1.95.56.83,2,1.76,2,3.16l-2.12-.38c.71,2,2.74.55,3.8,1l-.29.74a6.83,6.83,0,0,0,3.52-.59,6.24,6.24,0,0,1,3.62-.36l-.28-.63c2.15-1.68,1.45,1.3,3.53.12l.35,2a55.44,55.44,0,0,1,6.89-1.7c-1.37,1.42-4.09,1.91-5.84,2.61,1.26.14,4.32.28,5.05-.69-.52.16-1.2.62-1.68.26a8.31,8.31,0,0,1,6.2-1.93c-.3,1.91,1.33,2.18,3.26,2.35s4.14.14,5.1,1.62c4.45-1.49,9,.21,14.24-.64-2.21-2.7,1.51-.28.8-3.27,1.16-.36,1.62-.37,1.76-.19,1.29.46,2.59.84,3.91,1.23,1,.72-1,.86-.81,1.52,2.7-.23,1.33,1.08,3.26,1.57-.56-1,.65-1.67,2.24-1.61-.81-.31-1.6-.61-2.4-1a2.93,2.93,0,0,1,3.54-.24,2.87,2.87,0,0,0,3.57-.32l-1,1.23c.9-.5,2.66-1,4.36-1.63s3.28-1.68,3.83-3.11c.43.24,1.12.9.36,1.36A12.59,12.59,0,0,0,164.4,172c1.12-.62,2.24-1.26,3.29-1.95,2.13-1.37,4.14-2.53,6.09-2.59l0,.83c.72-.55.83-1.89,2.13-1.64.08.3,0,.82.38.7.33-.42,1.54-2.2,2.77-2.3l-.53,1.19a7.82,7.82,0,0,0,2.82-1.29,11.54,11.54,0,0,0,1.94-2,24.92,24.92,0,0,1,3.52-4.14c.55.94,1.71,1.13,2.93.94a16.12,16.12,0,0,0,3.37-1.07l.12.29a15.27,15.27,0,0,0,3-2.34,18.13,18.13,0,0,0,2.32-2.66c.7-.94,1.36-1.87,2-2.83s1.34-2,2.12-2.94a6.2,6.2,0,0,0,3-1.19,18.8,18.8,0,0,0,3.11-2.58c1-1,2.1-2.06,3.1-3.14a33.26,33.26,0,0,1,3.1-2.83c-.79.37-1.27-1.16-.91-2,.53-.33.71-1.21.95-1.82s.48-1,1.26-.35l-.27.32a2.52,2.52,0,0,0,2.48-1,17.66,17.66,0,0,0,1.67-2.54l-2.09-1.65c2.93-1.08,4.24-4.21,5.09-7.08s1.33-5.54,3.46-6.27c-.26-1.37.18-2.81-.1-4.13l1.34.44a38.85,38.85,0,0,0,1.39-4.15,32,32,0,0,0,.7-4.94l.86,1c.27-1.18-.73-2.09-1.67-2.91s-2-1.58-1.9-2.63l2.14-.5c0-2,.61-4.1.71-6.18a9.65,9.65,0,0,0-1.23-6.07,1,1,0,0,1,1.09.73c-.08-1.93.15-7.77-2.58-6.43.92-.22.72-1.28.13-2.49a22.28,22.28,0,0,0-2.41-3.45l1.42-.1c-2.22-1.23-2.75-1.08-4.08-3.26,0-.62.85-.9.8,0,0-2.16-1.78-.94-2.06-3.42l1.18.46c-.76-1.92-1.1-1.59-2.53-2.13-1.09-.86-1.43-3.55-.52-4.43a2.35,2.35,0,0,1-2.57-1.5c.33-.39.8-.17,1,0a5.92,5.92,0,0,0-2.46-3.3A4,4,0,0,1,213.45,54a1.1,1.1,0,0,0,.43-.82c.4.55.79,1.06,1.12,1.55l.83,1.3c.45.73.69,1.17.59,1.11,1.08-.69,0-2.7,2.48-2.2l-3.45-1.75a5.69,5.69,0,0,1-2.72-2.51,1.55,1.55,0,0,1,.16-.49l.26.08a1.91,1.91,0,0,0-1.05-.91,5.83,5.83,0,0,0-.87-1.62c.32-.44,0-1-.47-1.61s-1.17-1.1-1.54-1.53c-1,1-1.77-.16-1.7,1.61,0-.19.27,0,.81.52a1.4,1.4,0,0,0,.42.24l-.14,0a25.13,25.13,0,0,1,1.87,2c-1.1-.2-2.11-.47-2.37-1.86-1.05.21-2.13.41-2.68.47.47-2.44-.92-5.16-.37-6.33-1.47-.92-3.09-2-4.68-3a6.85,6.85,0,0,0-4.9-1c-.92-.3-.4-1.23-.43-1.78.6.1,1.09.51,1.55.4-1.91-.58-4.65-3.08-6.07-1.76-1.49-2,2.05-.69-.82-2.2l.68-.23a6.49,6.49,0,0,0-3.46-2.84,16.17,16.17,0,0,0-4.17-.84,16.64,16.64,0,0,1-4.19-.88,8.31,8.31,0,0,1-3.83-3c.35.41.52.6.48.93-3.28-2.38-7.25-3.62-11.19-4.65-1-.26-2-.55-2.94-.83s-2-.55-2.9-.88a26.87,26.87,0,0,1-5.5-2.56c-2.05-1.06-2.57.09-4.07.66l-.16-1.57c-.89.41-1.75.79-2.62,1.24-1.72.35-2.94-.81-4.33-1.85s-3-1.84-5.19-.92l.41,1.08c-1.46-.38-4.74.13-4.39-1-.17.17-.58,1-1.11.43l0-.8c-1.26.35-2.51.76-3.74,1.13-1.4-.37-1.25-1.14-1.27-1.88s-.21-1.45-2.31-1.56c-1.59.27-4.46,2.22-3.88,2.76.62.05,1.58.52,1.62,1.31l-1.39.39c-.28,2.32-1.26,4.68,2,6.37l2.31-1.38.69,1.15-1.91,0c1.05,1.09,1.76.14,2.56-.44a2,2,0,0,0,.89,1.29l2.36-2.09c.21.93-1.11,1.75.34,2.33,1.12-1-.86-2.09.93-2.66,1,1.16.61,2,2,1.21a1,1,0,0,1-.71,1.18c1.19-.61,3,0,3.73-1.19,1,1.45,3.87.18,3.45,2.35a5.32,5.32,0,0,1,3.28-1.32c-2.32,2.28,3.83.81,2.79,3.53,1.83-2,5.14,0,7.85-.62-.18.15-.54.45-.72.28,1.3.54,1.52,1.31,2.25,2,.69-1.83,2.92-1.64,4.42-2.45,1.09,2.29-1.69,1.9-1.7,3.79.19-.77,1-1,1.78-1.09s1.45-.24,1.38-1c.87,1.54.89.91,1,2.66,1-2.23,1.29,0,2.82-1,1.35,1.81-.36,2.32,1.84,2.37C166.49,31.91,164.48,32.06,164.48,32.06Zm41.84,24.47h0c-.28-.32-.54-.58-.71-.74C205.74,56,206,56.15,206.32,56.53Zm2.5,3.3a9.2,9.2,0,0,0-1-1.48c.3-.41.8-.58,1-.23C208.43,58.14,208.82,59.08,208.82,59.83Zm1.77-13.37c.64.42.59.8.44,1.06a7.1,7.1,0,0,0-1-.85,1.67,1.67,0,0,0-.18,0A2,2,0,0,1,210.59,46.46Z"/>
              <path class="cls-5" d="M208.33,46.74a1,1,0,0,1-.28-.15,3.88,3.88,0,0,0,.06.53l.5-.11Z"/>
              <path class="cls-5" d="M38.64,42.76l-.09,0a.54.54,0,0,1,.28,0A.85.85,0,0,1,38.64,42.76Z"/>
              <polygon class="cls-5" points="214.38 112.76 214.72 112.88 214.55 112.45 214.38 112.76"/>
              <path class="cls-5" d="M61,33a.69.69,0,0,0,.44.18A.87.87,0,0,0,61,33Z"/>
              <path class="cls-5" d="M70.21,28.89l1.5-.1A6.69,6.69,0,0,0,70.21,28.89Z"/>
              <path class="cls-5" d="M77.69,26.75a2.65,2.65,0,0,0-.06-.62h0Z"/>
              <path class="cls-5" d="M26.86,118.44a.76.76,0,0,0,.17.23C27.54,119.15,27.26,118.79,26.86,118.44Z"/>
              <path class="cls-5" d="M19,84.31a6.7,6.7,0,0,1,.47,1.26C19.72,85,19.83,84.47,19,84.31Z"/>
              <path class="cls-5" d="M53.44,146.3l0,0,.2.14Z"/>
              <path class="cls-5" d="M19.23,87.22a2.24,2.24,0,0,0,.28-1.65A2.7,2.7,0,0,0,19.23,87.22Z"/>
              <path class="cls-5" d="M110.54,20.73l.37,0a.51.51,0,0,1,0-.23Z"/>
              <path class="cls-5" d="M110.94,20.54l.4-.19C111.15,20.36,111,20.38,110.94,20.54Z"/>
              <path class="cls-5" d="M112.19,19.94l-.85.41C111.65,20.33,112,20.36,112.19,19.94Z"/>
              <path class="cls-5" d="M100.29,21.19l0,.52A1.27,1.27,0,0,0,100.29,21.19Z"/>
              <path class="cls-5" d="M97.24,21.85c.75,0,2,.73,3,.28l0-.42C99.88,22.5,97.8,20.89,97.24,21.85Z"/>
              <path class="cls-5" d="M82.86,18.65c.91-.14,1.83-.21,2.75-.31-.6-.41-1.41-1-.22-1.39C81.6,16.26,86.38,17.91,82.86,18.65Z"/>
              <path class="cls-5" d="M74.5,20.49c1.32-.71-.28-.73-.31-1C73.46,20.22,73.29,20.41,74.5,20.49Z"/>
              <path class="cls-5" d="M25,56.59l-1-.85C23.53,56.82,24.44,56,25,56.59Z"/>
              <path class="cls-5" d="M25,69.82c.38-.2.75-.4,1.14-.59l-.82-1A15.56,15.56,0,0,0,25,69.82Z"/>
              <path class="cls-5" d="M14,72.81l0-.56c-.11.68-.15,1.38-.2,2.07C13.83,73.82,13.87,73.31,14,72.81Z"/>
              <path class="cls-5" d="M56.85,162.87l.44-1.55C56.47,161.2,55.46,162.67,56.85,162.87Z"/>
              <path class="cls-5" d="M100.18,175.24a1.7,1.7,0,0,0,2.44.86C101.63,175.86,100.72,175.11,100.18,175.24Z"/>
              <path class="cls-5" d="M221,128.5l0,1.09c.17-.6.38-1.17.52-1.78C221.35,128.05,221.18,128.28,221,128.5Z"/>
            </g>
          </g>
        </g>
      </g>
    </g>
  </g>
</svg>
